<?xml version="1.0" encoding="utf-8"?>
<!-- Generator: Adobe Illustrator 21.0.2, SVG Export Plug-In . SVG Version: 6.00 Build 0)  -->
<svg version="1.0" id="Layer_1" xmlns="http://www.w3.org/2000/svg" xmlns:xlink="http://www.w3.org/1999/xlink" x="0px" y="0px"
	 viewBox="0 0 300 300" style="enable-background:new 0 0 300 300;" xml:space="preserve">
<style type="text/css">
	.st0{fill:#DDC14D;}
	.st1{fill:#FFFFFF;}
</style>
<g>
	<rect class="st0" width="300" height="300"/>
	<g>
		<path id="ig" class="st1" d="M205.6,55.7h-115c-20,0-36.2,16.2-36.2,36.2v38.3V207c0,20,16.2,36.2,36.2,36.2h115c20,0,36.2-16.2,36.2-36.2
			v-76.8V91.9C241.8,72,225.6,55.7,205.6,55.7z M216,77.3h4.1v4.1V109l-31.7,0.1l-0.1-31.8H216z M121.3,130.2
			c6-8.3,15.7-13.8,26.8-13.8s20.8,5.4,26.8,13.8c3.9,5.4,6.2,12.1,6.2,19.2c0,18.2-14.8,33-33,33s-33-14.8-33-33
			C115.1,142.3,117.4,135.6,121.3,130.2z M223.6,207c0,9.9-8.1,18-18,18h-115c-9.9,0-18-8.1-18-18v-76.8h28
			c-2.4,5.9-3.8,12.4-3.8,19.2c0,28.3,23,51.3,51.3,51.3s51.3-23,51.3-51.3c0-6.8-1.4-13.3-3.8-19.2h28V207z"/>
	</g>
</g>
</svg>
