<?xml version="1.0" encoding="utf-8"?>
<!-- Generator: Adobe Illustrator 21.0.2, SVG Export Plug-In . SVG Version: 6.00 Build 0)  -->
<svg version="1.0" id="Layer_1" xmlns="http://www.w3.org/2000/svg" xmlns:xlink="http://www.w3.org/1999/xlink" x="0px" y="0px"
	 viewBox="0 0 450 89" style="enable-background:new 0 0 450 89;" xml:space="preserve">
<style type="text/css">
	.st0{fill:#FFFFFF;}
</style>
<g id="text">
	<g>
		<path class="st0" d="M42.1,0.2c0,0.3-0.1,0.6-0.1,1v2.5c0,0-0.1,0-0.2,0c-0.1,0-0.2,0-0.2,0c0-0.1-0.1-0.5-0.2-1.3
			c-0.1-0.5-0.3-0.8-0.6-1c-0.2-0.1-0.5-0.1-1.1,0c-0.3,0-0.7,0.1-1.3,0.2C38.2,1.7,38.1,1.8,38,2c-0.1,0.5-0.1,1.1,0,2
			c0.1,0.9,0.1,2-0.1,3.5c0,0,0,0.5,0.1,1.5c0,0.3,0,0.9,0,1.5c0.1,0.4,0.2,0.9,0.3,1.6c0.1,0.4,0.3,0.6,0.7,0.7
			c0.3,0.1,0.7,0.2,1,0.2c0,0.1-0.1,0.3-0.2,0.5h-6c-0.1,0-0.1,0-0.1-0.1c0,0,0-0.1,0-0.2c0.2,0,0.5-0.2,1-0.3
			c0.4-0.2,0.6-0.4,0.8-0.7c0-0.1,0.1-0.4,0.1-1c0-1,0.1-2,0.1-3.1V4.4H36c0,0,0,0,0.1-0.1c-0.1-0.2-0.2-0.6-0.4-1
			c0-0.1-0.1-0.6-0.2-1.6h-2c-0.2,0-0.5,0.1-0.8,0.3s-0.5,0.4-0.5,0.6c-0.1,0.6-0.3,1.1-0.4,1.3C31.8,3.9,31.7,4,31.4,4
			c0,0,0-0.1,0-0.3c0-0.1,0-0.2,0-0.3c0.1-0.3,0.2-0.7,0.2-1.4c0.1-0.7,0.2-1.2,0.2-1.5l0.3-0.4c-0.2,0,0.4,0,1.9,0
			c0.4,0,1.1,0,2,0.1s1.3,0.1,1.3,0.1h1.8c0,0,0.2,0,0.6-0.1c0.5-0.1,0.9-0.1,1.4-0.1c0.2,0,0.3,0,0.5-0.1C41.9,0.1,42,0.1,42.1,0.2
			z"/>
		<path class="st0" d="M56.9,0.2c0,0.1,0,0.1-0.1,0.2c-0.3,0.1-0.6,0.2-0.8,0.3c-0.1,0.1-0.3,0.2-0.4,0.5s-0.2,0.4-0.2,0.6
			c0,0.6,0,0.9,0,0.8c-0.1,0.2-0.1,0.4-0.2,0.7c0,0.1,0,0.5,0.1,1.1c0,0.2,0,0.5,0,0.9c0,0.4,0,0.9-0.1,1.5s-0.1,0.9-0.1,0.8v1.6
			c0,1.6,0.2,2.7,0.6,3.3c0.1,0.1,0.2,0.2,0.5,0.4c0.2,0.1,0.4,0.2,0.6,0.2c0,0.1-0.1,0.2-0.2,0.3h-5c0,0,0-0.1,0-0.2s0-0.2,0-0.2
			c0.2-0.1,0.4-0.2,0.7-0.3c0.2-0.1,0.4-0.4,0.6-1c0.2-0.5,0.2-0.8,0.2-1.1V9.1c0-0.1,0-0.4-0.1-0.9c0-0.4,0-0.7,0-0.9
			c0-0.2,0-0.4-0.2-0.8C52.5,6.8,52,7,51.3,7.1c-0.4,0.1-0.7,0.1-1,0C50,7.1,49.8,7,49.8,7h-2.7c-0.2,0.1-0.4,0.3-0.6,0.5
			c-0.1,0.2-0.1,0.4-0.1,0.7c0.1,0.1,0.1,0.3,0.2,0.5c0-0.1,0,0.1-0.1,0.6c0,0,0,0.6,0.1,1.7c0.1,1.2,0.5,1.8,1.2,2
			c0,0,0.2,0.1,0.5,0.2c-0.2,0.3-0.5,0.4-0.8,0.4c-0.1,0-0.2,0-0.3,0c-0.1,0-0.2,0-0.3,0l-4.2-0.1c0-0.1,0.2-0.3,0.5-0.4
			c0.4-0.2,0.7-0.4,0.9-0.7c0.1-0.2,0.2-0.7,0.3-1.3c0.1-0.7,0.1-1.2,0-1.7c0-0.1-0.1-0.1-0.1-0.2c0-0.5,0-1.4,0.1-2.4
			c0,0,0-0.1,0.1-0.3c0.1-0.2,0.1-0.3,0.1-0.4c-0.1-0.1-0.2-0.3-0.3-0.6c0,0.1,0-0.1,0.1-0.7c0-0.1,0-0.3,0-0.5s0-0.3,0-0.4V2
			c0-0.2-0.2-0.5-0.5-0.8c-0.3-0.3-0.6-0.5-0.9-0.6c0,0,0.1-0.1,0.2-0.4c0.3,0,0.7,0,1.2-0.1c0.5,0,0.8-0.1,0.8-0.1h2
			c0.1,0,0.2,0,0.3,0s0.2,0,0.2,0c0.1,0,0.4,0.1,0.7,0.4c-0.2,0.1-0.5,0.2-0.7,0.4c-0.3,0.2-0.5,0.3-0.7,0.5
			c-0.2,0.3-0.3,0.9-0.3,1.8v2.3c0,0,0,0.1,0,0.1s0,0.1,0,0.1c0.3,0.1,0.6,0.2,0.9,0.2h4.2c0.1,0,0.4,0.1,0.7,0.1c0,0,0.1,0,0.3,0.1
			c0.1,0.1,0.3,0.1,0.3,0.1c0,0,0.1,0,0.1,0c0.2-0.3,0.3-0.6,0.3-1c0-0.2,0-0.5-0.1-0.8c-0.1-0.4-0.1-0.6-0.1-0.8
			c0-0.1,0-0.3-0.1-0.7C53,2.6,53,2.3,53,2.1c0-0.7-0.6-1.3-1.6-1.8c0.1-0.1,0.2-0.2,0.3-0.2h1.6c-0.1,0,0.2,0,0.9,0
			c0.6,0,1.1,0,1.4,0C55.8,0.1,56.3,0.2,56.9,0.2z"/>
		<path class="st0" d="M68.4,10c0,0.4-0.1,0.9-0.1,1.6c-0.1,0.2-0.2,0.4-0.3,0.8c0,0.1-0.1,0.3-0.2,0.6c0,0.1-0.1,0.2-0.3,0.4
			c-0.2,0.2-0.3,0.3-0.4,0.3h-2.7c0,0-0.4,0-1,0c-0.6,0-0.9,0-1,0h-1.6c0,0-0.3,0-0.7-0.1c-0.4,0-0.6-0.1-0.7-0.1h-1.6l-0.1-0.1
			c0.1-0.1,0.4-0.3,0.9-0.6c0.4-0.2,0.6-0.5,0.6-0.9V8.5c0-0.5,0.1-1.3,0.3-2.2c-0.1-0.3-0.1-0.6-0.1-1.1c-0.1-0.1-0.2-0.3-0.2-0.4
			c0,0,0.1-0.3,0.2-0.9c0,0,0-0.1-0.1-0.3c-0.1-0.2-0.2-0.3-0.2-0.3c0-0.1-0.1-0.4-0.1-0.7c0-0.4,0-0.7,0-0.7c0-0.2-0.1-0.4-0.1-0.6
			c-0.1-0.2-0.3-0.4-0.5-0.5c-0.2-0.1-0.4-0.2-0.6-0.3c0.1-0.2,0.2-0.4,0.3-0.4c0.2,0,0.5,0,0.9,0C59.5,0.1,59.7,0,59.7,0h1.9
			c0,0,0.2,0,0.6,0.1s0.7,0.1,0.9,0.1c0.1,0,0.8,0,2.1-0.1c0.3,0,1.1,0,2.4,0.1c0.1,0.1,0.2,0.2,0.2,0.3c0,0.1,0,0.2-0.1,0.3
			c0,0.1-0.1,0.2-0.1,0.3c0,0.2-0.1,1-0.2,2.3c0,0-0.1,0.1-0.3,0.2c0-0.1-0.2-0.5-0.4-1.1c-0.1-0.4-0.4-0.7-0.8-0.7
			c-0.2,0-0.3-0.1-0.5-0.1c-0.2,0-0.4-0.1-0.5,0c-0.3,0.1-1,0.1-2,0c-0.6,0-1,0-1.3,0c-0.1,0-0.1,0.1-0.2,0.2c0.3,0.8,0.3,1.6,0,2.2
			c0,0,0,0.1,0,0.5c0,0.1,0,0.3-0.1,0.6c0,0.3,0,0.5,0,0.6c0,0.1,0.1,0.2,0.2,0.3h4c0.1,0,0.3-0.1,0.4-0.1c0.2-0.1,0.3-0.2,0.4-0.3
			c0.1-0.2,0.2-0.4,0.4-0.8c0.2,0,0.4,0.1,0.4,0.2c0,0.4-0.1,0.9-0.1,1.6c0,0.4-0.1,1-0.1,1.8c0,0.1-0.2,0.2-0.4,0.1
			c-0.1-0.2-0.3-0.4-0.5-0.7c-0.4-0.3-0.8-0.5-1.2-0.5h-1.5c-0.1,0-0.3,0-0.5-0.1s-0.5-0.1-0.6-0.1c-0.4,0-0.6,0.1-0.7,0.3
			c-0.1,0.2-0.2,0.4-0.2,0.6c0,0.1,0,0.4,0.1,0.7s0.1,0.6,0.1,0.8c0,0.1,0,0.3-0.1,0.6c-0.1,0.3-0.1,0.5-0.1,0.6c0,0.1,0,0.2,0,0.3
			c0,0.2,0.2,0.4,0.6,0.6c0.3,0.2,0.6,0.4,0.9,0.4c0,0,0.1,0,0.1,0c0.1,0,0.1,0,0.2,0H65c0.4,0,0.7-0.1,1-0.2
			c0.4-0.2,0.7-0.5,1.1-0.9c0.4-0.4,0.6-0.9,0.6-1.3C67.9,9.9,68.1,9.9,68.4,10z"/>
	</g>
	<g>
		<path class="st0" d="M43.9,72.9c0.1,0.9-0.1,2-0.4,3.4c-0.5,1.6-1,4.1-1.7,7.4c-0.5,3.2-1.2,4.8-2.2,4.9c-1.1,0-2.2,0-3.5,0
			c-1.6-0.1-3-0.1-4.3-0.1c-2.9,0-5.2,0-7-0.1c-1.7-0.1-2.4-0.1-2.1-0.1c-1.3,0-2.9,0.1-4.8,0.2c-0.2,0-0.4-0.1-0.6-0.2
			C16.8,88,14,88,9.1,88H1.7c-0.1,0-0.3,0-0.7-0.1c-0.4-0.1-0.7-0.1-0.9-0.1c0.1-0.5,0.3-1.2,0.4-2C1,85.6,1.9,85.4,2.9,85
			c1.1-0.5,1.9-1.4,2.5-2.7c0.3-0.3,0.7-0.8,1.1-1.5c0-0.4,0-1-0.2-1.9C6.1,78.1,6,77.5,6,77.1c0.3,0.1,0.9-0.4,1.9-1.3
			c-0.1-0.1-0.3-0.5-0.7-1.3c0-0.1-0.2-0.1-0.7-0.1c-0.5-0.5-0.4-1.3,0.4-2.3c0.5-0.6,0.7-1.4,0.7-2.4c0-0.6-0.1-1.4-0.3-2.5
			c-0.2-1.1-0.3-1.8-0.3-2.1c0-0.1,0.1-0.4,0.2-0.7c0.1-0.3,0.2-0.5,0.2-0.7V60c0-0.1,0.1-0.4,0.2-0.9c0.2-0.5,0.3-1,0.3-1.3
			c0-0.1-0.1-0.7-0.4-1.6c0,0.1,0.1-0.5,0.2-1.6c0-0.3,0-0.6-0.1-1.1c-0.1-0.5-0.2-0.9-0.2-1.1c0-0.4,0-1.1,0.2-2.2
			C7.9,49,8,48.2,8,47.8c0-0.5,0-1.2-0.1-2.2c-0.1-1-0.1-1.5-0.1-1.5v-3.9c0-0.2,0.1-0.4,0.2-0.7l-0.2-4.4c-0.1-1.2-0.1-2.1,0.1-2.8
			c0.1-0.4,0.1-0.7,0.1-1.1c0-0.7-0.1-1.6-0.4-2.7C7.3,27.9,7,27,6.8,26.2c0-0.1,0-0.8,0-2.2c0,0-0.1-2.9-0.3-8.9
			c-0.1-0.4-0.2-1.1-0.4-2c0,0,0.1-0.6,0.2-1.6c0-0.2,0-0.5-0.2-1C6,10,5.9,9.7,5.9,9.5c0,0.2,0.1-0.6,0.4-2.4
			C5.8,6.3,5,5.2,3.8,3.8C3.5,3.5,3,3.4,2.3,3.3C1.4,3.2,0.8,3.2,0.7,3.1c-0.1-0.2-0.1-0.5,0-1.1C0.8,1.6,1,1.3,1.2,1.1
			C2.4,1,2.9,1,2.9,1c2.3,0.2,5.7,0.4,10.4,0.6c1.2,0.1,1.6,0.1,1.4,0.1C19,1.2,21.1,1,20.9,1h5.9c0.1,0.5-0.1,1.2-0.4,2
			c-1,0.2-2.4,0.5-4.3,0.8c-1.8,0.3-3.1,1.6-4,4c-0.2,0.7-0.5,1.9-0.7,3.8c-0.3,2.7-0.5,4.6-0.5,5.7v40.9c0,0.1,0,0.4,0.1,0.9
			c0.1,0.5,0.1,0.8,0.1,1c0.1,1.7,0.1,3.1,0,4.4c-0.1,1.8,0.1,2.9,0.7,3c0-0.1-0.1,0.8-0.2,2.5c0,0-0.1,0.1-0.2,0.2
			c0.7,3.4,1.1,5.4,1.1,6c-0.4,0.6-0.8,1.5-1.2,2.8c0,0.3,0.3,1.5,1.1,3.4c1.1,0.1,2.6,0.2,4.8,0.4c0.4,0.1,1,0.4,1.8,1
			c0.1-0.2,0.4-0.5,0.9-1c0.7,0,1.6,0,2.9,0.2c1.3,0.1,2.3,0.2,2.9,0.2c0.1,0,0.4-0.1,0.7-0.3c0.4-0.2,0.7-0.4,0.9-0.4
			c0.7-0.1,1.8-0.4,3.2-0.8c0.3-0.1,0.8-0.7,1.5-1.7l1.5-2.2c1.6-1.9,2.3-3.7,2.3-5.2C42.1,72.4,42.9,72.6,43.9,72.9z M8.7,26.1
			c0-0.7,0-1.4,0-2.2c0-0.8,0-2,0.1-3.6c0.1-1.6,0.1-2.8,0.1-3.6c0-3.5-0.4-6.3-1.3-8.3c-0.2,0.3-0.2,0.9-0.1,1.8
			c0.1,0.6,0.2,1.3,0.2,1.9C7.8,15.4,8.1,20.1,8.7,26.1z"/>
		<path class="st0" d="M77,42.1c0,1.5,0,2.7-0.1,3.5c-0.3,0.6-0.6,1.6-0.9,2.9c-0.1,1.3-0.3,2.7-0.9,4.2c-0.4,0.5-1.1,1.4-1.9,2.6
			c-0.2,0.8-0.8,2-1.8,3.5c-0.8,0.8-2,2-3.6,3.7c-0.2,0.1-0.6,0.2-0.9,0.4c-0.4,0.3-1,0.8-1.9,1.4c-4.5,2.4-8.7,3.7-12.7,4H47
			c0.1,0-0.1-0.1-0.3-0.2c-2.9-0.1-5.1-0.5-6.6-1.2c-0.4-0.1-0.9-0.2-1.5-0.4c-1.1-0.4-2.7-1.2-4.9-2.3c-2.6-1.7-5.1-4-7.3-7
			c-1.3-1.7-2.4-3.9-3.4-6.5c-0.9-2.5-1.4-4.6-1.5-6.2c-0.2-2.9-0.1-5.7,0.3-8.5c0.2-0.4,0.4-0.9,0.7-1.5c0.2-0.8,0.4-2,0.9-3.5
			c0.6-1,1.4-2.3,2.4-4.2c0.1-0.3,0.2-0.7,0.2-1.1c0.1-0.1,0.4-0.1,0.8,0.1c0.1-0.4,0.1-0.9,0-1.6c0.4-0.1,0.9-0.3,1.5-0.7
			c0.2-0.6,0.7-1.3,1.5-2.1c1.6-0.9,4.1-2.1,7.4-3.8c0.8-0.4,1.9-0.8,3.2-1.1c3.3-0.8,5.6-1.1,6.8-1.1h3.2c2.5,0,4.6,0.2,6.4,0.7
			c1,0.3,3,1,6.3,2.3c0.7,0.4,1.8,1.1,3.2,2c2.1,1.4,4,3.2,5.8,5.6c1.5,2.1,2.6,4.1,3,5.9c0.2,0.3,0.5,0.7,0.8,1.3
			c0.6,1.6,0.9,4,1,7.3c0,0.1,0.1,0.4,0.2,0.8C77,41.6,77,41.9,77,42.1z M68,43.2c-0.2-3.4-0.9-6.5-2-9.4c-1.4-3.6-3-6.5-4.9-8.6
			c-2.7-2.9-5.6-4.7-8.7-5.2c-3-0.5-5-0.7-6.2-0.5c-2.2,0.3-4,0.7-5.5,1.4c-0.2,0.1-1.4,0.8-3.7,2.2c-0.1,0.3-0.4,0.6-0.7,1
			c-0.2,0.1-0.5,0.1-0.7,0.2c-0.5,0.7-1.2,1.7-2,2.9c-0.1,0.3-0.3,0.8-0.5,1.4c-0.4,0.7-0.8,1.4-1.3,2.3c-0.2,1-0.6,2.5-1.1,4.5
			c0,0.8,0,1.9,0,3.5c0,0.1-0.1,0.3-0.2,0.5c-0.1,0.3-0.1,0.5-0.1,0.6c0.4,1.8,0.9,4.2,1.6,7.3c-0.1,0.2-0.1,0.5-0.2,0.8
			c0.2,0.4,0.5,0.9,0.8,1.5c0,0.4,0.1,0.8,0.2,1.4c1.1,2.3,1.7,3.5,1.8,3.5c0.8,1.4,1.9,2.8,3.3,4c0,0,0.2,0.6,0.5,1.7
			c0.1,0,0.6,0.1,1.4,0.2c1.3,1.2,2.3,2.1,3.1,2.5c2,1.2,5.7,1.6,10.9,1.1c0.4-0.1,1-0.3,1.7-0.5c0.9-0.2,2.2-0.6,3.9-1.3
			c0.4-0.4,0.9-0.8,1.5-1.3c2.7-1.7,4.3-3.8,4.8-6.2c0.3-0.3,0.6-0.8,1-1.4c0.1-0.5,0.1-1.1,0.2-1.8c0.2-0.2,0.3-0.4,0.5-0.8
			c0.1-0.6,0.2-2,0.4-4.1C68,45,68,43.8,68,43.2z"/>
		<path class="st0" d="M127.6,66.7c-0.2,0.3-0.6,0.7-1.1,1.1c-1.2,0.7-2.1,1-2.6,1H119c-1.7,0-2.9-0.1-3.7-0.2
			c-0.6-0.2-1.5-0.5-2.7-0.9c-1-0.3-2.8-2-5.4-4.9c-0.2-0.2-1.3-2-3.2-5.3c-1.7-3-3.1-5.4-4-7.5c-0.2-0.8-0.7-1.7-1.3-2.9
			c-0.3-0.3-1-0.4-2-0.3c-0.7,0.1-1.4,0.2-2.1,0.2c-0.9-0.1-2.2-0.1-4,0c-0.2,0-0.4,0.2-0.7,0.5c0.1,1.1,0.2,4.4,0.4,10
			c0,1.1,0.2,2.5,0.7,4.3c0,0.5,0.1,1.2,0.4,2.2c0.6,1,1.5,1.7,2.8,2.1c1,0.3,2.1,0.6,3.1,0.9c0,0.3,0,0.7-0.1,1.1
			c-0.8,0.3-1.6,0.5-2.4,0.5h-4.3c-0.1,0-0.4-0.1-1.1-0.2c-0.7-0.1-1.2-0.2-1.5-0.2c-0.8,0-3,0.1-6.6,0.4h-4.1
			c-0.4,0-0.9-0.1-1.5-0.4c0-0.1,0-0.2-0.1-0.5c-0.1-0.2-0.1-0.4-0.1-0.5c1.4-0.4,2.3-0.7,2.6-0.8c1-0.5,1.8-1.2,2.4-2.4
			c0.3-0.5,0.5-1.7,0.6-3.7c0-0.3,0.1-1.2,0.3-2.5c0.2-1.2,0.2-2.2,0.2-2.9c0-3.7,0-5.7,0.1-6c0.1-0.3,0.3-0.8,0.8-1.5
			c-0.2-0.2-0.4-0.6-0.7-1.1c-0.1-0.5-0.2-1.2-0.2-2.1V40c0,0,0-0.4-0.1-1.3c0,0.3,0.1-1.5,0.4-5.4c0-0.1-0.1-0.1-0.2-0.3
			c-0.3-1.1-0.3-2.5,0-4.2c0.1-0.5-0.1-2.1-0.5-4.9c0-0.9-0.3-2-0.7-3.4c-0.6-0.7-1.4-1.2-2.3-1.4c-0.8-0.2-1.6-0.4-2.4-0.5
			c0-1.5,0-1.9-0.1-1c0.1-0.4,0.3-0.7,0.8-0.7c1.1-0.1,2.9-0.2,5.3-0.4c2.3-0.2,3.4-0.3,3.5-0.3h5.3c1,0,2-0.1,3-0.2
			c1-0.2,1.9-0.2,2.6-0.2c0.9,0,2.1,0.1,3.5,0.2c0.9,0.2,2.1,0.5,3.8,0.8c0.2,0.1,0.4,0.2,0.8,0.4c2.6,0.4,4.9,1.6,6.9,3.7
			c1.1,1.2,2.1,3.2,3,6.2c0,0.4,0.1,1.1,0.1,1.9c0.1,0.7,0,1.7-0.2,3.1c-0.4,2.9-1,5.1-2,6.5c-0.9,1.4-2.7,3.3-5.3,5.7
			c0,0.6,0.1,1.1,0.3,1.5c1.7,3.3,3.4,6.6,5.1,9.9c2,3.6,4.5,6.6,7.4,9.1c0.2,0.2,1.2,0.6,3,1.1c1.1,0.3,2,0.3,2.7,0.2
			c1.1-0.2,1.9-0.3,2.3-0.2C127.5,66,127.6,66.3,127.6,66.7z M105.2,31.8c0-0.9-0.1-1.5-0.2-1.8c-1.4-3.6-2.5-5.9-3.5-6.9
			c-1.3-1.4-2.8-2.3-4.4-2.7c-1.1-0.2-2.8-0.3-5.1-0.2c-0.2,0-0.6,0.2-1.1,0.4c-0.4,4.7-0.7,8.5-0.8,11.3c0.1,0.2,0.3,0.5,0.4,0.9
			c0,0.4-0.1,1.9-0.4,4.6c-0.2,1.8-0.1,3.6,0.1,5.4c0.1,0.1,0.2,0.2,0.3,0.4h4c0.5,0.1,1,0.2,1.5,0.2c1.6,0,3.1-0.5,4.6-1.5
			c1.5-1,2.4-1.9,2.7-2.5C104.6,37.2,105.2,34.6,105.2,31.8z"/>
		<path class="st0" d="M173.6,38.2c0.2,1.4,0,3.8-0.4,7.3c-0.3,1.1-0.7,2.7-1.2,4.8c-1.1,4.6-3.1,8.3-6.1,11
			c-1.1,1.1-2.6,2.1-4.4,3.2c-2.1,1.3-3.8,2-5.1,2.1c-0.2,0.1-0.4,0.2-0.8,0.4c-4,0.6-6,0.9-5.8,0.9h-26.5c-0.2-1-0.1-1.5,0.2-1.8
			c1.1-0.4,1.9-0.6,2.4-0.6c0.2-0.2,0.4-0.5,0.7-0.9c1.3-1.3,1.9-2.8,1.9-4.4c0,0-0.1-0.4-0.2-1c0.1-0.3,0.2-0.7,0.2-1.2
			c-0.1-0.2-0.2-0.6-0.4-1c0-0.2,0-0.5,0.2-0.9c0.1-0.4,0.2-0.8,0.2-1c0.1-1,0.1-2.7,0.1-4.9v-4.6c0-3.1,0-7.7,0.1-13.6
			c0-0.1-0.1-0.3-0.2-0.6c-0.1-0.3-0.2-0.5-0.2-0.6c0-0.4,0.1-1.1,0.2-2c0.1-0.9,0.2-1.6,0.2-2.1c0-0.1-0.1-0.3-0.2-0.6
			c-0.2-0.3-0.3-0.5-0.3-0.7c0-0.5,0-1.3-0.1-2.4c-0.5-1.8-1.2-3-2.1-3.5c-0.8-0.4-2.1-0.7-3.9-1c0-0.2,0-0.5,0-1.1
			c1.2-0.6,2.3-0.7,3.5-0.5c0.4,0.3,0.6,0.4,0.8,0.4c0.2-0.1,0.4-0.2,0.7-0.4c0.9,0,1.8-0.1,2.7-0.1c1,0,1.7,0.4,2.3,1.2
			c0.1,0,0.2,0,0.3,0c0.2-0.4,0.7-0.9,1.2-1.6c0.7,0.1,1.6,0.2,2.7,0.4c0.1,0,0.2-0.1,0.3-0.2c0.2-0.2,0.3-0.3,0.5-0.4
			c0.8-0.3,2.1-0.4,3.8-0.4H151c4.5,1,7.6,1.9,9.5,2.7c3.5,1.5,6.4,3.9,8.6,7c0.5,0.6,1.1,1.6,1.9,2.9
			C172.2,30.8,173.1,34.1,173.6,38.2z M171.8,38.1c-3.3-0.2-5.7-0.3-7-0.2c-0.2-0.1-0.3-0.6-0.2-1.4c-0.5-1.2-1.3-2.9-2.3-5.1
			c-1.4-2.9-3-5.3-4.8-7c-1.7-1.7-4.6-2.9-8.5-3.6c-1.8-0.3-2.6-0.4-2.4-0.4h-4.2c-0.1,0-0.9,0.1-2.2,0.4c-1.4,0.3-2.3,0.4-2.8,0.5
			c-0.4,1.9-0.5,4-0.4,6.2c0.1,1.1,0.1,3.2,0.1,6.5v16.1c0,0,0,0.4-0.1,1.4c-0.1,0.8-0.1,1.5,0,1.9c0.1,1.6,0.2,2.3,0.2,2
			c-0.1,1.1-0.1,2,0,2.7c0,0.2,0.1,0.5,0.2,1.1c0.1,0.5,0.2,0.8,0.2,1.1c0,0-0.5,0.2-1.3,0.5c-0.6,0.3-1,0.6-1.1,1.1
			c0.5,0.4,1.1,0.7,1.8,0.7c0.5,0,1.1,0,1.6,0c5.5,0.6,8.6,0.9,9.5,0.9c2.6,0,4.9-0.4,6.8-1.2c1.7-0.7,3.2-1.6,4.3-2.8
			c2.4-2.4,4-5.4,4.8-9c0.4-1.7,0.7-4.6,0.8-8.7c0-0.3-0.2-0.8-0.7-1.4c-0.1-0.4,0-0.6,0.2-0.7c0.4-0.1,1.2-0.3,2.5-0.4
			c1.1-0.1,2.7-0.3,4.8-0.5C171.7,38.6,171.8,38.4,171.8,38.1z"/>
	</g>
	<g>
		<path class="st0" d="M210.9,29.2c0,0.6,0,1.1-0.1,1.5c-0.1,0.3-0.2,0.7-0.4,1.2c0,0.5-0.1,1.1-0.4,1.7c-0.2,0.2-0.4,0.6-0.8,1.1
			c-0.1,0.3-0.3,0.8-0.7,1.4c-0.3,0.3-0.8,0.8-1.5,1.5c-0.1,0-0.2,0.1-0.4,0.2c-0.1,0.1-0.4,0.3-0.8,0.6c-1.8,1-3.6,1.5-5.3,1.7
			h-2.2c0,0,0,0-0.1-0.1c-1.2,0-2.1-0.2-2.7-0.5c-0.2,0-0.4-0.1-0.6-0.2c-0.4-0.2-1.1-0.5-2-1c-1.1-0.7-2.1-1.6-3-2.9
			c-0.5-0.7-1-1.6-1.4-2.7c-0.4-1-0.6-1.9-0.6-2.6c-0.1-1.2,0-2.4,0.1-3.5c0.1-0.1,0.2-0.4,0.3-0.6c0.1-0.3,0.2-0.8,0.4-1.5
			c0.2-0.4,0.6-1,1-1.7c0.1-0.1,0.1-0.3,0.1-0.4c0.1-0.1,0.2,0,0.3,0.1c0.1-0.2,0.1-0.4,0-0.7c0.1,0,0.4-0.1,0.6-0.3
			c0.1-0.2,0.3-0.5,0.6-0.9c0.7-0.4,1.7-0.9,3-1.6c0.3-0.2,0.8-0.3,1.3-0.4c1.4-0.3,2.3-0.5,2.8-0.5h1.3c1,0,1.9,0.1,2.6,0.3
			c0.4,0.1,1.3,0.4,2.6,0.9c0.3,0.2,0.7,0.5,1.3,0.8c0.9,0.6,1.7,1.3,2.4,2.3c0.6,0.9,1.1,1.7,1.2,2.4c0.1,0.1,0.2,0.3,0.3,0.6
			c0.2,0.7,0.4,1.7,0.4,3c0,0,0,0.1,0.1,0.3C210.9,29,210.9,29.1,210.9,29.2z M207.1,29.6c-0.1-1.4-0.4-2.7-0.8-3.9
			c-0.6-1.5-1.2-2.7-2-3.6c-1.1-1.2-2.3-1.9-3.6-2.1c-1.2-0.2-2.1-0.3-2.5-0.2c-0.9,0.1-1.7,0.3-2.3,0.6c-0.1,0-0.6,0.3-1.5,0.9
			c-0.1,0.1-0.2,0.2-0.3,0.4c-0.1,0-0.2,0.1-0.3,0.1c-0.2,0.3-0.5,0.7-0.8,1.2c0,0.1-0.1,0.3-0.2,0.6c-0.2,0.3-0.3,0.6-0.5,1
			c-0.1,0.4-0.3,1-0.5,1.9c0,0.3,0,0.8,0,1.4c0,0,0,0.1-0.1,0.2c0,0.1-0.1,0.2-0.1,0.2c0.2,0.7,0.4,1.7,0.7,3c0,0.1-0.1,0.2-0.1,0.3
			c0.1,0.2,0.2,0.4,0.3,0.6c0,0.1,0,0.3,0.1,0.6c0.5,0.9,0.7,1.4,0.7,1.4c0.3,0.6,0.8,1.1,1.4,1.7c0,0,0.1,0.2,0.2,0.7
			c0,0,0.2,0,0.6,0.1c0.5,0.5,1,0.8,1.3,1c0.8,0.5,2.3,0.6,4.5,0.5c0.2-0.1,0.4-0.1,0.7-0.2c0.4-0.1,0.9-0.3,1.6-0.6
			c0.2-0.1,0.4-0.3,0.6-0.5c1.1-0.7,1.8-1.6,2-2.6c0.1-0.1,0.2-0.3,0.4-0.6c0-0.2,0.1-0.5,0.1-0.8c0.1-0.1,0.1-0.2,0.2-0.3
			c0-0.3,0.1-0.8,0.2-1.7C207.1,30.4,207.2,29.9,207.1,29.6z"/>
		<path class="st0" d="M226.1,18.8c0.1,0.5,0.1,2-0.1,4.5c0,0.2-0.2,0.4-0.4,0.7c0,0-0.2,0-0.6,0c-0.1-0.8-0.2-1.4-0.3-1.7
			c-0.2-0.7-0.6-1.1-1.1-1.2c-0.5-0.2-1.7-0.2-3.4-0.2h-2.9c-0.6,0-0.8,0.5-0.8,1.6c0-0.1,0.1,0.5,0.2,1.8c0,0.3,0,0.7-0.1,1.4
			c-0.1,0.7-0.2,1.2-0.2,1.5c0,0.5,0.1,0.9,0.3,1.3h2.2c0,0,0.2,0,0.5,0.1c0.3,0.1,0.5,0.1,0.6,0.1h2.2c0.8,0,1.5-0.4,2.1-1.3
			c0-0.2,0.1-0.4,0.2-0.7c0.1-0.1,0.4-0.1,0.7-0.1c0.1,0.3,0.1,0.9,0.2,1.5c0,0.8-0.2,2.4-0.4,4.8c0,0.3-0.3,0.4-0.9,0.4
			c-0.1-0.5-0.2-0.9-0.3-1.4c-0.2-0.6-0.5-0.9-1-1.1c-0.3-0.1-1-0.1-2.1-0.1h-2.5c-0.1,0.1-0.4,0.1-0.8,0.1c-0.4,0-0.6,0.1-0.8,0.3
			c0,0.3,0,0.7-0.1,1.2c0,0.1-0.1,0.4-0.3,1c-0.1,0.4-0.2,0.8-0.2,1c0.1,0.1,0.2,0.4,0.2,0.6c0,0.2,0,0.5-0.1,0.9
			c0,0.4-0.1,0.7-0.1,0.9c0,0.9,0.3,1.6,0.9,2.1c0,0,0.8,0.3,2.5,1c-0.2,0.3-0.5,0.4-0.8,0.4c0.7,0,0.3,0-1-0.1
			c-1,0-2.3-0.1-3.9-0.2c-0.8,0-1.4,0-1.6,0c-0.1,0.1-0.3,0.2-0.6,0.3c0,0-0.4-0.1-1.3-0.3c0.1-0.2,0.3-0.5,0.8-0.8
			c0.5-0.3,0.7-0.6,0.8-0.7c0.4-0.8,0.6-1.5,0.6-2.2v-4c0,0,0-0.4,0-1.2c0-0.8,0-1.4,0-1.8c0,0.1,0-0.1,0-0.6c0-0.3,0-0.6,0-0.8
			c0-0.3-0.1-0.6-0.3-0.8c0.4-0.6,0.6-1.2,0.6-2c0-0.8-0.2-1.6-0.6-2.6c0-0.2,0-0.5,0-0.8c0-0.2,0-0.3-0.1-0.5
			c-0.2-0.5-0.6-0.9-1-1.3c-0.1-0.1-0.4-0.2-0.9-0.3c-0.1-0.1-0.1-0.4-0.1-0.7c-0.1,0,0.7,0,2.3-0.1c2.5,0,6.3-0.1,11.3-0.1
			C224.6,18.6,225.3,18.7,226.1,18.8z"/>
	</g>
	<g>
		<path class="st0" d="M195.5,43.1c-0.1,0.4-0.1,0.9-0.2,1.5v3.9c-0.1,0-0.2,0-0.3,0.1c-0.1,0-0.2,0.1-0.3,0.1c0-0.1-0.1-0.8-0.3-2
			c-0.1-0.7-0.4-1.3-1-1.6c-0.2-0.2-0.8-0.2-1.8,0c-0.5,0-1.1,0.2-2,0.3c-0.3,0.1-0.5,0.3-0.6,0.6c-0.2,0.7-0.2,1.8-0.1,3.1
			c0.2,1.4,0.1,3.2-0.1,5.6c0,0,0.1,0.8,0.2,2.3c0,0.5-0.1,1.3,0,2.4c0.1,0.6,0.3,1.4,0.5,2.6c0.1,0.6,0.5,0.9,1.1,1.1
			c0.5,0.1,1,0.2,1.5,0.4c0,0.2-0.1,0.4-0.4,0.7h-9.5c-0.1,0-0.1-0.1-0.1-0.2c0,0,0-0.1,0-0.3c0.3-0.1,0.9-0.2,1.5-0.5
			c0.6-0.3,1-0.7,1.3-1.1c0.1-0.1,0.2-0.6,0.2-1.5c0-1.5,0.1-3.2,0.2-4.9v-6.1h0.5c0,0,0.1-0.1,0.1-0.2c-0.2-0.4-0.3-0.9-0.6-1.6
			c0-0.1-0.1-1-0.3-2.6h-3.1c-0.3,0-0.7,0.2-1.2,0.5c-0.5,0.4-0.7,0.7-0.8,0.9c-0.2,1-0.5,1.7-0.7,2.1c-0.1,0.2-0.4,0.3-0.8,0.3
			c0,0,0-0.2-0.1-0.4c0-0.2,0-0.3,0-0.4c0.1-0.5,0.3-1.2,0.4-2.1c0.1-1.2,0.3-2,0.3-2.4l0.5-0.7c-0.3,0,0.7-0.1,3.1-0.1
			c0.7,0,1.8,0.1,3.2,0.2c1.4,0.1,2.1,0.2,2,0.2h2.8c0,0,0.3-0.1,1-0.2c0.7-0.1,1.5-0.2,2.1-0.2c0.3,0,0.5-0.1,0.8-0.1
			C195.1,42.8,195.4,42.9,195.5,43.1z"/>
		<path class="st0" d="M219,43.1c0,0.1-0.1,0.2-0.2,0.3c-0.5,0.1-0.9,0.3-1.2,0.5c-0.2,0.1-0.4,0.4-0.7,0.8
			c-0.3,0.4-0.4,0.7-0.4,0.9c0,1,0,1.4,0,1.2c-0.1,0.3-0.2,0.7-0.3,1.2c0,0.1,0.1,0.7,0.2,1.7c0,0.3,0.1,0.8,0.1,1.4
			c0,0.7,0,1.5-0.1,2.4c-0.1,0.9-0.1,1.4-0.1,1.3v2.5c0,2.5,0.3,4.3,0.9,5.3c0.1,0.2,0.4,0.4,0.7,0.6c0.4,0.2,0.7,0.3,1,0.3
			c-0.1,0.1-0.2,0.3-0.4,0.5h-7.9c0-0.1,0-0.2-0.1-0.3c0-0.1-0.1-0.2-0.1-0.3c0.2-0.1,0.6-0.3,1.1-0.5c0.3-0.2,0.7-0.7,1-1.5
			c0.3-0.8,0.4-1.3,0.4-1.8v-2.5c0-0.2,0-0.6-0.1-1.4c-0.1-0.6-0.1-1,0-1.4c0-0.3-0.1-0.7-0.3-1.3c-0.6,0.4-1.4,0.7-2.5,0.9
			c-0.6,0.1-1.1,0.1-1.5,0.1c-0.6-0.1-0.9-0.2-0.9-0.2h-4.2c-0.3,0.1-0.6,0.4-1,0.8c-0.2,0.3-0.2,0.7-0.2,1.1
			c0.1,0.2,0.2,0.5,0.3,0.8c0-0.2-0.1,0.2-0.1,0.9c0,0.1,0,0.9,0.1,2.6c0.1,1.8,0.7,2.9,1.9,3.1c0,0,0.3,0.1,0.7,0.3
			c-0.4,0.4-0.8,0.6-1.3,0.6c-0.1,0-0.3,0-0.5-0.1c-0.2,0-0.4-0.1-0.4-0.1l-6.6-0.1c0-0.2,0.3-0.4,0.8-0.6c0.6-0.2,1-0.6,1.4-1.1
			c0.2-0.4,0.4-1.1,0.5-2.1c0.1-1.1,0.1-2,0-2.7c0-0.1-0.1-0.2-0.2-0.4c0-0.9,0-2.1,0.2-3.9c0-0.1,0.1-0.2,0.2-0.5
			c0.1-0.3,0.1-0.5,0.1-0.6c-0.1-0.2-0.3-0.5-0.5-1c0,0.1,0.1-0.2,0.1-1.1c0-0.2,0-0.4-0.1-0.8c0-0.3-0.1-0.5-0.1-0.6v-2.7
			c0-0.4-0.3-0.8-0.8-1.3c-0.5-0.5-1-0.8-1.5-1c0,0,0.1-0.2,0.4-0.6c0.4,0,1-0.1,1.9-0.1c0.8-0.1,1.2-0.1,1.3-0.1h3.2
			c0.1,0,0.3,0,0.5-0.1c0.2,0,0.3-0.1,0.3-0.1c0.2,0,0.6,0.2,1.2,0.7c-0.4,0.2-0.8,0.4-1.2,0.6c-0.5,0.3-0.8,0.5-1.1,0.9
			c-0.4,0.5-0.5,1.4-0.5,2.8v3.6c0,0.1,0,0.1,0.1,0.2c0,0.1,0.1,0.1,0.1,0.2c0.5,0.2,1,0.4,1.3,0.4h6.7c0.2,0,0.6,0.1,1,0.2
			c0,0,0.2,0.1,0.5,0.2c0.2,0.1,0.4,0.2,0.5,0.2c0.1,0,0.1,0,0.2,0c0.4-0.4,0.5-0.9,0.5-1.5c0-0.3-0.1-0.7-0.2-1.3
			c-0.1-0.6-0.2-1-0.2-1.2c0-0.2,0-0.5-0.1-1.1c-0.1-0.6-0.1-1.1-0.1-1.3c-0.1-1.1-0.9-2.1-2.5-2.9c0.2-0.2,0.4-0.3,0.5-0.3h2.5
			c-0.1,0,0.3,0,1.4,0c0.9,0,1.7,0,2.2,0C217.3,42.8,218,42.9,219,43.1z"/>
		<path class="st0" d="M237.2,58.5c0,0.6-0.1,1.4-0.2,2.5c-0.1,0.3-0.3,0.7-0.5,1.2c0,0.2-0.1,0.5-0.3,0.9c0,0.1-0.2,0.3-0.4,0.6
			c-0.3,0.4-0.5,0.5-0.7,0.5h-4.3c-0.1,0-0.6,0-1.5-0.1c-0.9,0-1.4-0.1-1.5-0.1h-2.6c-0.1,0-0.4,0-1-0.1c-0.6-0.1-1-0.1-1.1-0.1
			h-2.5l-0.2-0.2c0.1-0.2,0.6-0.5,1.5-1c0.6-0.4,0.9-0.8,0.9-1.3v-5.3c0-0.9,0.1-2,0.4-3.5c-0.1-0.4-0.2-1-0.1-1.7
			c-0.2-0.2-0.3-0.4-0.3-0.7c0,0,0.1-0.5,0.3-1.4c0-0.1,0-0.2-0.2-0.5c-0.2-0.3-0.2-0.4-0.3-0.4c-0.1-0.2-0.1-0.6-0.1-1.1
			c0-0.7,0-1.1,0-1.1c0-0.4-0.1-0.7-0.2-0.9c-0.2-0.3-0.4-0.6-0.8-0.8c-0.3-0.1-0.7-0.3-1-0.5c0.2-0.4,0.3-0.6,0.5-0.6
			c0.3,0,0.8,0.1,1.5,0c0.7-0.2,1.1-0.3,1-0.3h3c0,0,0.4,0,1,0.1c0.6,0.1,1.1,0.1,1.4,0.1c0.1,0,1.3-0.1,3.4-0.2
			c0.5,0,1.7,0,3.8,0.1c0.2,0.1,0.3,0.3,0.3,0.5c0,0.1,0,0.2-0.1,0.4c-0.1,0.2-0.1,0.3-0.1,0.4c0,0.4-0.1,1.6-0.4,3.7
			c0,0.1-0.2,0.2-0.5,0.3c-0.1-0.1-0.3-0.7-0.6-1.8c-0.2-0.7-0.6-1.1-1.2-1.2c-0.2-0.1-0.5-0.1-0.8-0.2c-0.3-0.1-0.6-0.1-0.8,0
			c-0.5,0.1-1.6,0.2-3.2,0.1c-0.9-0.1-1.6-0.1-2.1,0.1c-0.1,0-0.2,0.2-0.3,0.4c0.4,1.3,0.4,2.5,0.1,3.5c0-0.1,0,0.2,0,0.8
			c0,0.2,0,0.5-0.1,1c-0.1,0.4-0.1,0.7,0,1c0,0.1,0.1,0.3,0.3,0.4h6.3c0.2-0.1,0.4-0.1,0.6-0.2c0.3-0.1,0.5-0.3,0.7-0.5
			c0.1-0.3,0.3-0.7,0.6-1.2c0.4,0,0.6,0.1,0.7,0.4c0,0.6-0.1,1.5-0.1,2.5c0,0.7-0.1,1.6-0.2,2.9c0,0.2-0.3,0.3-0.7,0.2
			c-0.1-0.3-0.4-0.6-0.8-1.1c-0.7-0.5-1.3-0.8-1.9-0.8h-2.3c-0.1,0-0.4,0-0.9-0.1c-0.4-0.1-0.7-0.1-1-0.1c-0.6,0-1,0.2-1.1,0.5
			c-0.2,0.4-0.3,0.7-0.3,0.9c0,0.2,0,0.6,0.1,1.1c0.1,0.6,0.1,1,0.1,1.3c0,0.2-0.1,0.5-0.2,0.9c-0.1,0.4-0.1,0.8-0.1,1
			c0,0.2,0,0.4,0.1,0.5c0.1,0.3,0.4,0.6,0.9,1c0.5,0.4,1,0.6,1.4,0.7c0.1,0,0.1,0,0.2,0.1c0.1,0,0.2,0.1,0.3,0.1h2.8
			c0.6,0,1.2-0.1,1.6-0.3c0.6-0.3,1.2-0.7,1.7-1.3c0.6-0.7,0.9-1.4,1-2C236.4,58.4,236.7,58.4,237.2,58.5z"/>
	</g>
	<g>
		<path class="st0" d="M305.4,71.1c0,0.3,0,0.7,0,1c-0.1,0.4-0.3,0.7-0.6,0.8c-0.3,0.1-1,0.3-2.1,0.4c-0.4,0.1-1.1,0.3-2.2,0.6
			c-1,0.3-1.8,0.5-2.3,0.5c-0.2,0-0.4,0-0.5-0.1s-0.4-0.2-0.8-0.5c-0.5-0.3-0.7-0.6-0.6-0.8c-0.3-0.2-0.9-0.1-1.7,0.1
			c0.6,0.3,1.3,0.7,2.1,1.1c-2,0.1-3.4-0.1-4.1-0.6c0.1-0.2,0.1-0.6,0.3-1.1c0,0-0.1-0.1-0.2-0.2c0.1,0-1-0.2-3.4-0.4
			c0,0-0.1,0-0.3,0.2c0.2,0.1,0.5,0.3,0.9,0.4c-1.2,0.1-2,0-2.3-0.2c-0.3-0.4-0.7-0.9-1-1.3c-0.6-0.7-1.2-1-1.7-0.9
			c-0.6-0.8-2.1-2.4-4.4-4.7c-2-2-3.1-3.2-3.2-3.6c-0.3-0.2-0.6-0.4-1-0.9c-0.4-0.5-0.9-1.3-1.5-2.4c-0.1-0.3-0.3-0.4-0.7-0.4
			c-0.4-1.2-1-2.3-2.3-3.3c0.1-0.3,0.3-0.5-0.5-1.3c-0.9-1.1-0.5-1.1-0.5-1.9c0-0.1,0-0.3,0-0.4c0.1-0.1,0.4-0.1,0.9,0
			c0.1,0.1,0.3,0.3,0.6,0.4c0.6-0.1,1.1-0.3,1.4-0.7c0.5,0.4,1.1,1.1,1.9,2c0.4-0.1,0.6-0.3,0.6-0.7c0-0.7-0.4-1-1.2-1
			c0.1-0.1,0.1-0.1,0.2-0.3c0.1-0.1,0.1-0.2,0.2-0.2c0.2,0.1,0.4,0.3,0.8,0.6c0.2,0,0.4-0.1,0.5-0.2c0.1-0.3,0.1-0.7,0-1.2
			c-0.7-0.5-1.4-0.8-2.3-0.8c-0.5,0-1.2,0.1-2.2,0.3c-1,0.2-1.6,0.3-2,0.3c-0.5,0-1-0.1-1.3-0.3c-1-0.5,0.2,1.2-0.1-0.1
			c-0.1-0.1-0.3-0.3-0.5-0.4c0-0.1,0.1-0.2,0.1-0.3c0-0.4-0.2-0.8-0.7-1.1c-0.5-0.3-0.9-0.5-1.3-0.5c-1.5,0-3.6,0-6.3,0
			c-3.1,0-5.2,0-6.3,0c-0.2,0-0.4,0.1-0.4,0.4c-0.1,1.6-0.1,2.5,0,2.7v5.3c0.1,3,0.2,4.9,0.2,5.7c0,0.1-0.1,0.3-0.2,0.7
			c-0.1,0.3-0.2,0.6-0.1,0.8c0.2,0.4,0.5,0.9,0.9,1.7c0.3,2,0.4,3.3,0.3,3.8c-0.4,0.3-1,0.7-1.8,1.3c0,0.2,0,0.3,0.1,0.3
			c1.5,0,4,0.3,7.3,0.9c0.3,0.1,0.7,0.2,1.2,0.4c0.1,0.2,0,0.8-0.1,1.7c-0.4,0.3-0.8,0.5-1.1,0.5c-0.8,0-3-0.3-6.5-0.8l-8.8-0.2
			c-0.6,0.2-1.5,0.3-2.7,0.5c-1.9,0.1-4.2,0.1-6.9,0.1c0-0.5,0-1.1,0-2c0.9-0.4,2.1-0.7,3.8-1.2c0.9-0.2,1.8-0.9,2.8-2.1
			c1-1.2,1.5-2.2,1.5-3c0.4-3.8,0.5-5.8,0.5-6.2V29.1c0-0.1,0-0.4-0.1-1c-0.1-0.5-0.1-0.9-0.1-1.1c0-0.4,0-1.2,0.2-2.5
			c0.1-1.3,0.2-2.3,0.2-3.1c0-0.3-0.1-1-0.2-1.9c-0.1-1-0.2-1.8-0.2-2.2c-0.1-0.8-0.2-1.9-0.4-3.5c-0.2-0.4-0.4-1-0.8-1.8
			c-0.2-1-1.3-1.7-3.2-2.2c-0.2-0.1-0.7-0.3-1.3-0.5c-0.5,0-1.2,0-2.1-0.1c-0.7-0.4-0.7-1.1-0.3-2c0.8-0.2,2-0.4,3.5-0.7
			c4.4-0.4,6.9-0.5,7.6-0.5h5.8c0.1,0,0.9-0.1,2.3-0.2c1.4-0.2,2.2-0.2,2.3-0.2h3.3c0.1,0,0.6,0,1.3,0.1c0.8,0.1,1.4,0.1,1.8,0.2
			c0.5-0.1,1.3-0.1,2.2-0.2c2.8,0.4,6,0.9,9.5,1.8c1.3,0.3,3.9,2,7.9,5.2c0.1,0.2,0.1,0.5,0,0.9c-0.5,0.5-1.4,1.1-2.8,1.8
			c-1.4,0.7-2.3,1.3-2.8,1.9c0.1,0.3,0.4,0.5,0.9,0.6c0.5,0.1,0.9,0,1.3-0.1c0.1-0.2,0.2-0.3,0.5-0.5c0.8-0.1,1.3-0.2,1.6-0.2
			c0.1,0.5,0.4,0.9,0.9,1.4c0.4-0.1,0.7-0.4,0.7-0.9c0-0.4-0.2-0.8-0.6-1.1c0.4-0.1,0.8-0.1,1.2,0c0.6,0.2,1.1,0.2,1.5,0.2
			c0.3,1.4,0.6,2.8,0.9,4.2c0.4,1.9,0.6,3.5,0.6,4.8c0,1.1-0.1,2.1-0.4,3c-0.4,1.5-1.2,3.6-2.4,6.5c-0.7,1.3-2,3.1-4,5.4
			c-0.1,0.1-1.3,1.1-3.8,3c0.8,1.4,1.8,3,3.2,4.8l0.7,1c0.7,1.2,1.2,2.1,1.5,2.6c0.1,0.2,0.1,0.4,0.3,0.7c1.5,1.8,1,1.9,3.8,5.6
			c0.1,0.2,0.1,0.3,0,0.4c1.1,0.9,2.6,2.1,4.3,3.7c0.8,0.8,1.8,1.9,3.1,3.5c-0.9,0.1-1.3,0.5-1.3,1.2c0,0.7,0.3,1.2,1,1.4
			c0.1-1,0.6-1.5,1.3-1.5c0.1,0,0.2,0,0.3,0c0.1,0,0.8,0.3,2,0.9c1.8,0.9,3.6,1.8,5.5,2.7C302.9,70.9,304,71.1,305.4,71.1z
			 M277.1,28.1c-0.7-0.2-1.1-0.6-1.1-1.1v-4.3c0-0.1,0-0.3-0.1-0.5c-0.1-0.2-0.1-0.3-0.2-0.4c-0.2-1.7-1-3.7-2.6-5.9
			c-1.7-2.4-3.5-3.8-5.4-4.2c-0.3-0.2-0.6-0.3-1.1-0.5c-2.7-0.6-4.3-0.9-4.6-0.9h-3.6c-1.4,0-2.6,0.2-3.7,0.5
			c-0.1,0.1-0.4,0.4-0.9,1c0.2,1.6,0.3,2.5,0.2,2.7c0,0,0,0.1-0.1,0.2c-0.1,0.1-0.1,0.3-0.1,0.4v5.7c0,0.1-0.1,0.4-0.2,0.7
			c-0.2,0.3-0.2,0.6-0.2,0.8c0.2,0.7,0.3,1.3,0.5,1.9c0.2,0.7,0.2,1.3,0,1.9c-0.4,1.3-0.5,3-0.2,5.1c-0.1-0.4-0.1,0.2-0.1,1.9v5.8
			c0,0.4,0,0.8-0.1,1.3c-0.1,0.4-0.1,0.7,0,0.9c0.1,0.4,0.3,0.8,0.5,1.4c0.7,0.2,1.6,0.4,2.9,0.7l7.9,0.2c0.8-0.4,2.1-0.9,3.8-1.5
			c0.7-0.2,1.5-0.5,2.6-1.1c1.6-1.5,2.7-2.8,3.4-4.1c0.6-1,1-2.4,1.3-4.2c0-0.5,0.1-1.3,0.3-2.4c0.1-0.4,0.1-0.9,0.3-1.6
			C276.5,28.2,276.8,28,277.1,28.1z M272.9,50.6c-0.3,0.4-0.6,0.5-0.9,0.4c0.1-0.3,0.2-0.5,0.6-0.7
			C272.6,50.4,272.7,50.5,272.9,50.6z"/>
		<path class="st0" d="M311.2,19.6c-0.1,0.4-0.3,1-0.5,1.7l-2.4,0.5c-1,0.2-1.7,0.7-2,1.4c-0.2,0.3-0.5,0.8-0.8,1.4
			c-0.1,0.2-0.4,1.8-1.1,4.7l-0.2,17.1c-0.2,0.7-0.3,1.1-0.3,1.1l0.3,0.9l-0.1,6.3c-0.2,0.9-0.2,2.1,0,3.6c0.2,1.8,0.6,3.2,1.1,4.3
			c0.2,0.4,0.7,0.8,1.4,1.3c1.4,0.8,2.8,1.2,4.2,1.2c0,0.4-0.2,0.9-0.4,1.5h-4.7c-0.1,0-0.6,0-1.4-0.1c-0.9-0.1-1.3-0.1-1.4-0.1
			c-0.1,0-0.4,0-1.1,0.1c-0.7,0.1-1,0.1-1.1,0.1c-0.1,0-0.3,0-0.8-0.1c-0.4-0.1-0.7-0.1-0.8-0.1c-0.1,0-0.3,0-0.6,0.1
			c-0.3,0.1-0.5,0.1-0.6,0.1l-8.5,0.2c-0.7,0-1.1-0.3-1.1-0.8c0-0.6,0.2-1,0.6-1.1c0.9-0.2,1.7-0.3,2.6-0.4c1-0.2,1.7-0.6,2-1.1
			c0.1-0.3,0.3-0.8,0.5-1.5c0.4,0,1,0.1,1.8,0.2c0.3-1.1,0.4-1.8,0.4-2.2c0-0.3-0.1-0.7-0.4-1.2c0.2-0.5,0.3-1,0.1-1.4
			c-0.1-0.3-0.4-0.7-0.8-1.4c-0.4-0.6-0.5-0.9-0.5-1c0,0.2,0.2-0.6,0.7-2.4c0.1-0.2,0-0.5-0.2-0.9c0.5-0.8,0.7-1.3,0.7-1.5
			c0-0.1-0.1-0.9-0.2-2.6c0-0.1-0.1-0.4-0.3-0.8c-0.2-0.4-0.3-0.6-0.3-0.7c0-0.1,0.1-0.3,0.3-0.6c-0.1,0.1-0.1,0-0.1-0.4V40
			c0-0.1,0.1-0.3,0.2-0.7s0.2-0.7,0.2-0.7c0-0.1,0-0.2-0.1-0.3c-0.1-0.1-0.1-0.3-0.1-0.3c0,0.1,0-0.5,0.1-1.8c0-0.3-0.1-1-0.2-2.3
			v-3.2c0-0.3-0.2-0.7-0.6-1.3c0.1-0.3,0-0.9-0.2-1.7c0-0.4-0.1-1-0.3-1.7c-0.2-0.2-0.5-0.6-0.8-1.1c-0.1-0.3-0.3-0.7-0.6-1.2
			c-0.5-0.8-1.1-1.4-1.5-1.6c-0.6-0.2-1.6-0.5-2.8-0.9c0.1-0.4,0.2-0.9,0.4-1.5h0.4c0.1,0,0.3,0,0.8,0.1c0.4,0.1,0.7,0.1,0.8,0.1
			L311.2,19.6z"/>
		<path class="st0" d="M367.6,16.8c-0.5,0.1-1.3,0.2-2.2,0.4c-1,0.3-1.8,1-2.4,2c-0.8,1.5-1.4,3-1.5,4.4c-0.4,2.5-0.5,4.5-0.5,6.1
			c0,0.1,0.1,1.3,0.2,3.5c0.1,2.2,0.2,3.4,0.2,3.6v6.5c0,0.1,0,0.4,0.1,0.8c0.1,0.5,0.1,0.8,0.1,1.1c-0.2,3.3-0.2,5.1-0.2,5.5
			c0,0.2,0.1,0.7,0.2,1.3c0.1,0.7,0.2,1.1,0.2,1.2v12.5c0,0.2,0,0.3,0.1,0.3c0,0,0.1,0,0.1,0.1c-1.9,0.3-2.8,0.5-2.6,0.5
			c-1.1,0-1.8-0.1-2.1-0.4c-1.9-1.7-4.6-4.8-8.3-9.1c-0.7-0.9-1.6-2.1-2.9-3.7c-1.1-1.1-2.7-2.7-4.6-4.9c-0.5-0.8-1.3-2-2.4-3.6
			c-2.4-3-5.9-7.3-10.4-13.1c-0.6-0.5-1.4-1.2-2.4-2.2c0-0.2-0.1-0.5-0.2-0.8c-0.3-0.5-0.9-1.3-1.6-2.3c-0.6,0.3-0.9,0.7-0.9,1.3
			c0,0,0.2,1.4,0.6,4.2c0,0.2,0,0.4-0.1,0.8c-0.1,0.3-0.1,0.6-0.1,0.7c0,1.1,0,2.8,0.1,5c0.1,2.3,0.1,3.4,0.1,3.3v5.7
			c0,0.2,0,1.5,0.1,4.2c0,2.6,0.1,4,0.1,4.1c0,5.7,2,8.7,6.1,9c0.1,0,0.2,0.1,0.3,0.3c0.1,0.2,0.2,0.4,0.3,0.4c0,0.5,0,0.9-0.2,1.2
			H316c-0.1,0-0.6,0.1-1.5,0.2c-0.9,0.1-1.4,0.2-1.5,0.2h-0.7c-0.2-0.2-0.4-0.4-0.4-0.4c0-1,0.3-1.6,0.9-1.9
			c0.7-0.2,1.7-0.6,3.1-1.2c1.3-0.7,2.1-1.9,2.4-3.5c0.7-3.9,0.9-6.3,0.4-7.2c-0.2-0.4-0.2-0.7-0.1-1l0.3-0.4l-0.2-0.4
			c0-0.3,0-0.8,0-1.6c0.1-0.7,0.1-1.3,0.1-1.6c0-0.4-0.1-1-0.2-2c-0.1-0.9-0.2-1.6-0.2-2c0,0.4,0.1-0.4,0.2-2.5
			c0-0.1-0.1-0.4-0.4-0.8l0.2-0.2c0.1-0.2,0.2-0.5,0.2-0.9c0.1-0.1,0.1-0.2,0-0.3c-0.4-3.1-0.6-5.1-0.6-6.2v-5.6
			c-0.2-3.2-0.3-5.2-0.3-5.9c0-0.1,0-0.3,0.1-0.5c0.1-0.3,0.1-0.5,0.1-0.7c-2.1-2.2-4.7-3.2-7.8-2.9l-0.2-0.2v-1.3
			c0.3-0.4,1-0.5,2.2-0.5c0.1,0,1.2,0.1,3.3,0.2c2.1,0.1,3.1,0.2,3.3,0.2c0.1,0,1.1-0.1,3-0.2c1.9-0.1,2.9-0.2,3.1-0.2
			c0.7,0,1,0,1.1,0.1c0.4,0.1,1.2,1,2.4,2.6c2.3,3.2,5.7,7.9,10.2,14.2c0.9,1.2,2.3,2.9,4.2,5.2c-0.3,2.4,0,3.6,1,3.6
			c0.1,0,0.3-0.1,0.7-0.2c0.3-0.2,0.6-0.2,0.7-0.2c0.4,0,0.8,0.5,1.4,1.5c0.3,0.5,0.6,1,0.9,1.5c2,1.6,3.2,2.8,3.7,3.7
			c0.1,0.5,0.3,1.1,0.6,2c0.2,0.3,0.4,0.4,0.5,0.4c0.1,0,0.3-0.1,0.4-0.2c0.1-0.1,0.2-0.2,0.2-0.2c0.7,0.8,1.7,1.9,3,3.5
			c0.5-0.2,0.7-0.4,0.7-0.6c0-0.1-0.1-0.4-0.2-0.7c-0.1-0.3-0.2-0.6-0.2-0.7v-4.4c0-0.1,0-0.3-0.1-0.6c0-0.3-0.1-0.6-0.1-1
			c0.1-0.5,0.2-1.2,0.2-2.2c-0.1-0.8-0.3-1.9-0.5-3.5c-0.1-0.2,0-0.6,0.1-1.2c0.1-0.6,0.2-0.9,0.2-1c0-0.1,0-0.3-0.1-0.7
			c-0.1-0.3-0.1-0.6-0.1-0.7c-0.1-0.5-0.1-1.2,0-2c0.1-1.1,0.1-1.8,0.1-2.1c0-0.1-0.1-0.4-0.2-0.7c-0.1-0.3-0.2-0.6-0.2-0.7l0.2-1.1
			c0-0.2,0-0.6-0.1-1.3c-0.1-0.6-0.2-1.1-0.2-1.4c0-0.1,0.1-0.4,0.2-0.7c0.1-0.4,0.1-0.7,0.1-0.8c-0.2-1.1-0.4-2.7-0.9-4.9
			c-0.4-1.4-1.9-2.3-4.6-2.8c0.1-0.5,0-1-0.2-1.5c0.3-0.2,1.3-0.4,2.9-0.4l7.4,0.3c-0.2,0,1.1-0.1,3.7-0.2c1.5-0.1,2.8,0,3.6,0.3
			V16.8z M352.4,48l-0.4,0.4l-0.2-0.2l0.2-0.9C352.5,47.8,352.6,48,352.4,48z"/>
		<path class="st0" d="M409.9,15.6c0.1,0.2,0.1,0.5,0.1,0.7c0,0.6-0.1,1.6-0.4,3.1c-0.3,1.5-0.4,2.6-0.4,3.3c0,0.4,0,0.7,0,1.1
			c-0.1,0.5-0.3,1.2-0.4,2c0.2,1.1,0.3,1.5,0.4,1.3c-0.1,0.2-0.2,0.4-0.4,0.6c0,0.3,0.1,1,0.2,2.3c-0.7,0.7-1.3,1-1.8,1
			c-0.2,0-0.5-0.2-0.7-0.5c0.2-1.6,0.3-2.6,0.2-3c-0.1-0.4-0.2-1-0.5-1.8c-0.5-1.2-1.5-2.5-3-4c-0.6-0.5-1.9-1.3-4-2.2
			c-0.2-0.1-1.1-0.3-2.6-0.6c-1-0.2-2.4-0.2-4.3-0.2c-5.4,0-9.6,1.4-12.7,4.3c-0.4,0.2-0.9,0.6-1.6,1.3c-2.4,3.3-3.7,6.5-4,9.6
			c-0.1,1.3-0.2,3.5-0.2,6.4v2.7c0-0.2,0.2,0.6,0.6,2.2c0,0.8,0.2,2,0.4,3.4c0.2,0.1,0.4,0.5,0.8,1.2c0,0.4,0.1,0.8,0.3,1.4
			c0.4,0.5,1,1.3,1.8,2.3c0.1,0.3,0.3,0.8,0.6,1.4c1.2,2.2,3.1,4.1,5.7,5.5c1.1,0.7,2.3,1.1,3.4,1.4c5.4,1.3,8.8,1.9,10.3,1.9
			c0.7,0,1.4-0.1,2.1-0.2c0.3-0.1,0.8-0.2,1.4-0.5l0.2-1.6c0-0.4-0.2-0.6-0.5-0.8c-0.5-0.2-0.8-0.4-1-0.7c-0.3-0.4-0.3-1.3,0-2.5
			v-6.5c-0.2-1.6-0.4-2.8-0.7-3.7c-0.2-0.1-0.4-0.4-0.7-0.8c-0.5-1.4-1.5-2.4-3-2.8c-0.6-0.2-2-0.3-4-0.3c-0.1-0.1-0.2-0.1-0.4-0.3
			v-1.1c0.7-0.2,1.8-0.3,3.3-0.3c0.1,0,1.1,0.1,2.9,0.2c1.8,0.1,2.7,0.2,2.9,0.2c0.1,0,0.4-0.1,0.7-0.2c0.3-0.1,0.6-0.2,0.7-0.2
			c1.7-0.1,2.6-0.2,2.8-0.2c3.8,0,5.5,0,4.9,0v1.8c0,0.1-0.1,0.4-0.4,0.9c-0.3,0.6-0.5,1-0.5,1.2c-0.5,1.9-0.7,3.8-0.8,5.7
			c-0.1,2.4-0.2,4.1-0.2,5.1c0,1.9,0.2,4.5,0.6,7.7c-1.3,0.7-4.5,1.5-9.8,2.6c-0.4,0-1.1,0-2,0.1c-1.2,0.3-2.1,0.4-2.6,0.4
			c-0.1,0-0.3,0-0.6-0.1c-0.3-0.1-0.5-0.1-0.6-0.1c-2.8-0.1-5.1-0.4-7-0.7c-0.7-0.3-1.8-0.6-3.1-1c-2.7-0.5-5.8-2.3-9.1-5.2
			c-3.5-3.1-5.6-6-6.4-8.8c-0.2-0.6-0.6-1.6-0.9-2.8c-0.2-0.4-0.5-1-0.9-1.8c-0.3-1.3-0.5-2.5-0.5-3.4c0,0.1,0.1-0.4,0.2-1.5
			c0.1-0.9,0.1-1.6,0-2c-0.1-0.4-0.2-0.9-0.2-1.4c0-0.9,0.2-2.2,0.7-4c0.5-2.1,0.9-3.5,1-4.3c2.7-4.8,4.3-7.2,4.8-7.2
			c0.1,0,0.2,0,0.2,0.1c0.1,0.1,0.1,0.1,0.3,0.1c0.5,0,0.8-0.1,1.1-0.3c0.1-0.3,0.3-0.8,0.7-1.3c2.5-2.8,4.1-4.2,4.6-4.2
			c0.1,0,0.2,0,0.3,0.1c0.1,0.1,0.1,0.1,0.2,0.1c0.1,0,0.4-0.2,0.9-0.6c0.5-0.4,0.8-0.6,0.9-0.6c0.1,0,0.3,0.1,0.5,0.2
			c0.2,0.1,0.4,0.2,0.5,0.2c0.1,0,1.3-0.3,3.6-0.9c2.3-0.6,3.5-0.9,3.6-0.9H399c0.1,0,1.4,0.1,3.7,0.4c2.4,0.3,3.6,0.4,3.7,0.4
			c0.1,0,0.5,0,1.4,0C408.8,15.6,409.5,15.6,409.9,15.6z"/>
	</g>
	<g>
		<path class="st0" d="M450,70c0,1.3-0.9,4.2-2.6,8.8c-0.1,0.3-0.6,1.1-1.5,2.3c-2.3,3.1-4.3,5-6.1,5.6c-0.4,0.3-1.1,0.6-1.9,1.1
			c-2.6,1-6,1.5-10.1,1.5c-1.2,0-2.2-0.1-3.2-0.2c-0.1-0.5,0-1.2,0.3-2c-1.1-1-2-1.6-2.8-1.6c-0.6,0-1.2,0.3-1.7,0.9
			c0.5,0.4,1,0.5,1.4,0.5c0,0.5-0.1,0.9-0.5,1.1c-0.4,0.2-0.8,0.2-1.3,0c-0.2-0.1-2.1-0.8-5.6-2.2c-0.5-0.1-1.1-0.3-1.6-0.5
			c-0.7-0.3-1.3-0.7-1.7-1.2l-0.4-2.9c-0.2-1.3-0.5-3.4-0.9-6.3c0-1.9,0-4.6,0-8.2c0-2.4,0.5-3.6,1.5-3.6c0.2,0,0.4,0,0.5,0.1
			c0.1,2.2,0.5,5.5,1.2,10c0.2,0.4,0.6,1.1,1,1.9c0.8,2,2.2,3.6,4.1,4.8c1,0.6,2.6,1.3,4.9,2c0.5,0.1,1.6,0.5,3.4,0.9
			c1.2,0.3,2.9,0.6,4.9,0.8c0.6-0.9,1.5-1.6,2.8-1.9c1.7-0.4,2.8-0.8,3.5-1.2c0.4-0.3,0.8-1,1.3-2.1c0.4-0.9,0.7-1.9,1.1-2.8
			c0.2-0.8,0.6-2.1,1.1-3.8c0-0.3-0.1-0.7-0.1-1.3c0-1.4-0.3-2.9-1-4.6c-0.7-1.8-1.6-3.1-2.7-3.8c-0.2-0.5-0.6-1.1-1.2-1.8
			c-1.4-0.9-3.5-2.2-6.1-3.7c-0.6-0.5-1.4-1.2-2.6-2c-3.8-1.8-7.1-4.2-10-7c-1.1-1.1-2.2-2.7-3.2-4.8c0-0.2-0.1-0.6-0.3-1.1
			c-0.1-0.3-0.4-0.5-0.7-0.8c0,0-0.1-0.2-0.2-0.4c0-0.7,0-1.4,0-2.1c-0.1-0.9-0.4-1.6-0.8-2.1c0-1,0.1-2.4,0.1-4.4
			c-0.1-0.1-0.3-0.3-0.5-0.5c0-0.2,0-0.6,0-1.2c0.1-0.2,0.3-0.4,0.5-0.8c0,0,0.3-1.4,0.9-4.1c0.4-1.7,1.3-3.1,2.7-4.4
			c0.1,0.2,0.3,0.5,0.7,0.9c0.1-0.6,0.4-1.5,0.9-2.6c2.3-2.5,4.6-4.5,7.1-5.9c0.8,0,1.8-0.1,3.1-0.2c1.4-0.1,3.4-0.4,6-0.8
			c0.1,0.1,0.3,0.2,0.5,0.4c1.4,0.2,3.4,0.5,6.1,0.8c1.9,0.1,3.1,0.1,3.5,0c1.9-0.3,2.7-0.4,2.4-0.4c0.5,0,0.9,0.1,1.2,0.4
			c0,0-0.3,6.9-1,20.7c-0.4,0.2-1,0.3-1.9,0.2c-0.3-1.4-0.5-2.4-0.5-3.1c0-2.2-0.5-4.4-1.5-6.5c-1.1-2.3-2.6-3.9-4.4-4.6
			c-1.5-0.7-3.4-1-5.5-1c-2.3,0-4.1,0.4-5.4,1.1c-0.2,0-0.6,0-1,0.1c-1.3,0.8-2.4,1.9-3.4,3.5c-1.1,1.7-1.6,3.2-1.6,4.5
			c0,0.2,0.1,0.7,0.2,1.5c0.2,0.8,0.3,1.3,0.3,1.7c0,2.5,1.1,5,3.4,7.3c1,1,2.7,2.4,5.1,4c1.1,0.5,2.7,1.3,4.8,2.4
			c5.7,3.5,9.7,7,11.9,10.5c0.2,0.5,0.6,1.4,1.1,2.7c0.4,0.9,0.8,2.4,1.1,4.4C449.9,65.7,450.1,68,450,70z"/>
	</g>
	<g>
		<path class="st0" d="M72.5,77.8c0,0.2-0.1,0.5-0.1,0.8v2.1c0,0-0.1,0-0.2,0c-0.1,0-0.1,0-0.2,0c0,0-0.1-0.4-0.1-1.1
			c0-0.4-0.2-0.7-0.5-0.9c-0.1-0.1-0.4-0.1-0.9,0c-0.2,0-0.6,0.1-1,0.2c-0.2,0.1-0.3,0.2-0.3,0.3c-0.1,0.4-0.1,0.9,0,1.6
			c0.1,0.7,0.1,1.7-0.1,3c0,0,0,0.4,0.1,1.2c0,0.3,0,0.7,0,1.3c0.1,0.3,0.2,0.8,0.3,1.4c0.1,0.3,0.3,0.5,0.6,0.6
			c0.3,0.1,0.5,0.1,0.8,0.2c0,0.1-0.1,0.2-0.2,0.4h-5c0,0-0.1,0-0.1-0.1c0,0,0-0.1,0-0.1c0.2,0,0.5-0.1,0.8-0.3
			c0.3-0.2,0.5-0.4,0.7-0.6c0-0.1,0.1-0.3,0.1-0.8c0-0.8,0.1-1.7,0.1-2.6v-3.2h0.2c0,0,0,0,0.1-0.1c-0.1-0.2-0.2-0.5-0.3-0.8
			c0-0.1-0.1-0.5-0.1-1.4h-1.6c-0.2,0-0.4,0.1-0.6,0.3s-0.4,0.3-0.4,0.5c-0.1,0.5-0.2,0.9-0.4,1.1C64,80.9,63.9,81,63.7,81
			c0,0,0-0.1,0-0.2c0-0.1,0-0.2,0-0.2c0.1-0.2,0.1-0.6,0.2-1.1c0.1-0.6,0.1-1,0.2-1.2l0.3-0.4c-0.2,0,0.4,0,1.6,0
			c0.4,0,0.9,0,1.7,0.1c0.7,0.1,1.1,0.1,1.1,0.1h1.5c0,0,0.2,0,0.5-0.1c0.4-0.1,0.8-0.1,1.1-0.1c0.1,0,0.3,0,0.4-0.1
			C72.4,77.7,72.5,77.7,72.5,77.8z"/>
		<path class="st0" d="M88.5,77.8c0,0.1,0,0.1-0.1,0.2c-0.2,0.1-0.5,0.2-0.6,0.3c-0.1,0.1-0.2,0.2-0.4,0.4c-0.1,0.2-0.2,0.4-0.2,0.5
			c0,0.5,0,0.7,0,0.6c0,0.1-0.1,0.3-0.2,0.6c0,0.1,0,0.4,0.1,0.9c0,0.2,0,0.4,0,0.7c0,0.3,0,0.8-0.1,1.3c0,0.5-0.1,0.7-0.1,0.7v1.3
			c0,1.3,0.2,2.3,0.5,2.8c0.1,0.1,0.2,0.2,0.4,0.3c0.2,0.1,0.4,0.2,0.5,0.2c0,0.1-0.1,0.1-0.2,0.3h-4.1c0,0,0-0.1,0-0.2
			c0-0.1,0-0.1,0-0.2c0.1-0.1,0.3-0.1,0.6-0.3c0.2-0.1,0.4-0.4,0.5-0.8c0.1-0.4,0.2-0.7,0.2-0.9v-1.3c0-0.1,0-0.3-0.1-0.7
			c0-0.3,0-0.5,0-0.7c0-0.1,0-0.4-0.2-0.7c-0.3,0.2-0.7,0.4-1.3,0.5c-0.3,0.1-0.6,0.1-0.8,0c-0.3-0.1-0.5-0.1-0.5-0.1h-2.2
			c-0.1,0.1-0.3,0.2-0.5,0.4c-0.1,0.1-0.1,0.3-0.1,0.6c0,0.1,0.1,0.2,0.2,0.4c0-0.1,0,0.1-0.1,0.5c0,0,0,0.5,0.1,1.4
			c0,1,0.4,1.5,1,1.6c0,0,0.2,0.1,0.4,0.1c-0.2,0.2-0.4,0.3-0.7,0.3c-0.1,0-0.2,0-0.3,0c-0.1,0-0.2,0-0.2,0l-3.5-0.1
			c0-0.1,0.1-0.2,0.4-0.3c0.3-0.1,0.6-0.3,0.7-0.6c0.1-0.2,0.2-0.6,0.2-1.1c0-0.6,0.1-1,0-1.4c0,0-0.1-0.1-0.1-0.2
			c0-0.5,0-1.1,0.1-2c0,0,0-0.1,0.1-0.3c0.1-0.1,0.1-0.2,0.1-0.3c-0.1-0.1-0.1-0.3-0.2-0.5c0,0.1,0-0.1,0.1-0.6c0-0.1,0-0.2,0-0.4
			s0-0.3,0-0.3v-1.4c0-0.2-0.1-0.4-0.4-0.7c-0.3-0.3-0.5-0.4-0.8-0.5c0,0,0.1-0.1,0.2-0.3c0.2,0,0.5,0,1-0.1c0.4,0,0.6-0.1,0.7-0.1
			h1.7c0.1,0,0.2,0,0.2,0c0.1,0,0.1,0,0.2,0c0.1,0,0.3,0.1,0.6,0.3c-0.2,0.1-0.4,0.2-0.6,0.3c-0.3,0.1-0.4,0.3-0.6,0.5
			c-0.2,0.3-0.3,0.7-0.3,1.5v1.9c0,0,0,0.1,0,0.1c0,0,0,0.1,0,0.1c0.3,0.1,0.5,0.2,0.7,0.2h3.5c0.1,0,0.3,0.1,0.5,0.1
			c0,0,0.1,0,0.2,0.1c0.1,0.1,0.2,0.1,0.3,0.1c0,0,0.1,0,0.1,0c0.2-0.2,0.3-0.5,0.3-0.8c0-0.2,0-0.4-0.1-0.7s-0.1-0.5-0.1-0.6
			c0-0.1,0-0.3-0.1-0.6c0-0.3-0.1-0.6-0.1-0.7c0-0.6-0.5-1.1-1.3-1.5c0.1-0.1,0.2-0.2,0.3-0.2h1.3c-0.1,0,0.2,0,0.7,0
			c0.5,0,0.9,0,1.1,0C87.6,77.7,88,77.8,88.5,77.8z"/>
		<path class="st0" d="M101.7,86c0,0.3-0.1,0.7-0.1,1.3c-0.1,0.2-0.2,0.4-0.3,0.6c0,0.1-0.1,0.3-0.1,0.5c0,0.1-0.1,0.2-0.2,0.3
			c-0.2,0.2-0.3,0.3-0.4,0.3h-2.3c0,0-0.3,0-0.8,0c-0.5,0-0.8,0-0.8,0h-1.4c0,0-0.2,0-0.5,0s-0.5,0-0.6,0H93l-0.1-0.1
			c0.1-0.1,0.3-0.3,0.8-0.5c0.3-0.2,0.5-0.4,0.5-0.7v-2.8c0-0.5,0.1-1.1,0.2-1.8c-0.1-0.2-0.1-0.5,0-0.9c-0.1-0.1-0.2-0.2-0.2-0.4
			c0,0,0.1-0.3,0.2-0.7c0,0,0-0.1-0.1-0.2c-0.1-0.1-0.1-0.2-0.1-0.2c0-0.1-0.1-0.3-0.1-0.6c0-0.4,0-0.6,0-0.6c0-0.2-0.1-0.4-0.1-0.5
			c-0.1-0.2-0.2-0.3-0.4-0.4c-0.2-0.1-0.4-0.2-0.5-0.2c0.1-0.2,0.2-0.3,0.3-0.3c0.2,0,0.4,0,0.8,0c0.4-0.1,0.6-0.1,0.5-0.1h1.6
			c0,0,0.2,0,0.5,0.1c0.3,0,0.6,0.1,0.8,0.1c0.1,0,0.7,0,1.8-0.1c0.3,0,0.9,0,2,0.1c0.1,0.1,0.1,0.1,0.1,0.2c0,0.1,0,0.1-0.1,0.2
			c0,0.1-0.1,0.2-0.1,0.2c0,0.2-0.1,0.8-0.2,1.9c0,0-0.1,0.1-0.3,0.2c0-0.1-0.1-0.4-0.3-0.9c-0.1-0.4-0.3-0.6-0.7-0.6
			c-0.1,0-0.3-0.1-0.4-0.1c-0.2,0-0.3,0-0.4,0c-0.3,0.1-0.8,0.1-1.7,0c-0.5,0-0.8,0-1.1,0c-0.1,0-0.1,0.1-0.1,0.2
			c0.2,0.7,0.2,1.3,0,1.8c0,0,0,0.1,0,0.4c0,0.1,0,0.3,0,0.5c0,0.2,0,0.4,0,0.5c0,0.1,0.1,0.1,0.2,0.2h3.3c0.1,0,0.2-0.1,0.3-0.1
			c0.2-0.1,0.3-0.2,0.3-0.3c0.1-0.2,0.2-0.4,0.3-0.6c0.2,0,0.3,0.1,0.4,0.2c0,0.3,0,0.8-0.1,1.3c0,0.3,0,0.9-0.1,1.5
			c0,0.1-0.1,0.1-0.4,0.1c-0.1-0.1-0.2-0.3-0.4-0.6c-0.4-0.3-0.7-0.4-1-0.4h-1.2c-0.1,0-0.2,0-0.5,0c-0.2,0-0.4,0-0.5,0
			c-0.3,0-0.5,0.1-0.6,0.3C96,84.2,96,84.3,96,84.5c0,0.1,0,0.3,0.1,0.6s0.1,0.5,0.1,0.7c0,0.1,0,0.2-0.1,0.5s-0.1,0.4-0.1,0.5
			c0,0.1,0,0.2,0,0.3c0,0.1,0.2,0.3,0.5,0.5c0.3,0.2,0.5,0.3,0.7,0.3c0,0,0.1,0,0.1,0c0.1,0,0.1,0,0.2,0h1.5c0.3,0,0.6-0.1,0.8-0.2
			c0.3-0.1,0.6-0.4,0.9-0.7c0.3-0.4,0.5-0.7,0.5-1C101.3,85.9,101.5,85.9,101.7,86z"/>
		<path class="st0" d="M121.6,77.8c0.1,0.3,0,1.1-0.1,2.3c0,0.1-0.1,0.2-0.2,0.4c0,0-0.1,0-0.3,0c0-0.4-0.1-0.7-0.1-0.9
			c-0.1-0.3-0.3-0.6-0.6-0.6c-0.3-0.1-0.9-0.1-1.8-0.1H117c-0.3,0-0.4,0.3-0.4,0.8c0-0.1,0,0.2,0.1,0.9c0,0.1,0,0.4-0.1,0.7
			c-0.1,0.4-0.1,0.6-0.1,0.8c0,0.3,0,0.5,0.1,0.7h1.2c0,0,0.1,0,0.3,0c0.2,0,0.3,0,0.3,0h1.1c0.4,0,0.8-0.2,1.1-0.7
			c0-0.1,0.1-0.2,0.1-0.4c0.1-0.1,0.2-0.1,0.4-0.1c0,0.2,0.1,0.4,0.1,0.8c0,0.4-0.1,1.3-0.2,2.5c0,0.2-0.2,0.2-0.5,0.2
			c-0.1-0.2-0.1-0.5-0.2-0.7c-0.1-0.3-0.3-0.5-0.5-0.6c-0.1,0-0.5-0.1-1.1-0.1h-1.3c-0.1,0-0.2,0-0.4,0c-0.2,0-0.3,0-0.4,0.1
			c0,0.1,0,0.4,0,0.6c0,0.1-0.1,0.2-0.1,0.5c-0.1,0.2-0.1,0.4-0.1,0.5c0,0.1,0.1,0.2,0.1,0.3c0,0.1,0,0.3,0,0.5s0,0.4,0,0.5
			c0,0.5,0.2,0.8,0.5,1.1c0,0,0.4,0.2,1.3,0.5c-0.1,0.1-0.3,0.2-0.4,0.2c0.4,0,0.2,0-0.5,0c-0.5,0-1.2,0-2-0.1c-0.4,0-0.7,0-0.8,0
			c-0.1,0-0.2,0.1-0.3,0.2c0,0-0.2,0-0.7-0.1c0-0.1,0.2-0.2,0.4-0.4c0.2-0.2,0.4-0.3,0.4-0.4c0.2-0.4,0.3-0.8,0.3-1.2v-2.1
			c0,0,0-0.2,0-0.6s0-0.7,0-0.9c0,0,0-0.1,0-0.3c0-0.2,0-0.3,0-0.4c0-0.2-0.1-0.3-0.1-0.4c0.2-0.3,0.3-0.6,0.3-1
			c0-0.4-0.1-0.9-0.3-1.4c0-0.1,0-0.2,0-0.4c0-0.1,0-0.2-0.1-0.2c-0.1-0.2-0.3-0.5-0.5-0.7c-0.1-0.1-0.2-0.1-0.5-0.1
			c0-0.1-0.1-0.2-0.1-0.4c0,0,0.4,0,1.2,0c1.3,0,3.3,0,6-0.1C120.8,77.7,121.2,77.7,121.6,77.8z"/>
		<path class="st0" d="M134.5,86c0,0.3-0.1,0.7-0.1,1.3c-0.1,0.2-0.2,0.4-0.3,0.6c0,0.1-0.1,0.3-0.1,0.5c0,0.1-0.1,0.2-0.2,0.3
			c-0.2,0.2-0.3,0.3-0.4,0.3h-2.3c0,0-0.3,0-0.8,0c-0.5,0-0.8,0-0.8,0h-1.4c0,0-0.2,0-0.5,0c-0.3,0-0.5,0-0.6,0h-1.3l-0.1-0.1
			c0.1-0.1,0.3-0.3,0.8-0.5c0.3-0.2,0.5-0.4,0.5-0.7v-2.8c0-0.5,0.1-1.1,0.2-1.8c-0.1-0.2-0.1-0.5,0-0.9c-0.1-0.1-0.2-0.2-0.2-0.4
			c0,0,0.1-0.3,0.2-0.7c0,0,0-0.1-0.1-0.2c-0.1-0.1-0.1-0.2-0.1-0.2c0-0.1-0.1-0.3-0.1-0.6c0-0.4,0-0.6,0-0.6c0-0.2-0.1-0.4-0.1-0.5
			c-0.1-0.2-0.2-0.3-0.4-0.4c-0.2-0.1-0.4-0.2-0.5-0.2c0.1-0.2,0.2-0.3,0.3-0.3c0.2,0,0.4,0,0.8,0c0.4-0.1,0.6-0.1,0.5-0.1h1.6
			c0,0,0.2,0,0.5,0.1c0.3,0,0.6,0.1,0.8,0.1c0.1,0,0.7,0,1.8-0.1c0.3,0,0.9,0,2,0.1c0.1,0.1,0.1,0.1,0.1,0.2c0,0.1,0,0.1-0.1,0.2
			c0,0.1-0.1,0.2-0.1,0.2c0,0.2-0.1,0.8-0.2,1.9c0,0-0.1,0.1-0.3,0.2c0-0.1-0.1-0.4-0.3-0.9c-0.1-0.4-0.3-0.6-0.7-0.6
			c-0.1,0-0.3-0.1-0.4-0.1c-0.2,0-0.3,0-0.4,0c-0.3,0.1-0.8,0.1-1.7,0c-0.5,0-0.8,0-1.1,0c-0.1,0-0.1,0.1-0.1,0.2
			c0.2,0.7,0.2,1.3,0,1.8c0,0,0,0.1,0,0.4c0,0.1,0,0.3,0,0.5c0,0.2,0,0.4,0,0.5c0,0.1,0.1,0.1,0.2,0.2h3.3c0.1,0,0.2-0.1,0.3-0.1
			c0.2-0.1,0.3-0.2,0.3-0.3c0.1-0.2,0.2-0.4,0.3-0.6c0.2,0,0.3,0.1,0.4,0.2c0,0.3,0,0.8-0.1,1.3c0,0.3,0,0.9-0.1,1.5
			c0,0.1-0.1,0.1-0.4,0.1c-0.1-0.1-0.2-0.3-0.4-0.6c-0.4-0.3-0.7-0.4-1-0.4h-1.2c-0.1,0-0.2,0-0.5,0c-0.2,0-0.4,0-0.5,0
			c-0.3,0-0.5,0.1-0.6,0.3c-0.1,0.2-0.1,0.4-0.1,0.5c0,0.1,0,0.3,0.1,0.6s0.1,0.5,0.1,0.7c0,0.1,0,0.2-0.1,0.5
			c-0.1,0.2-0.1,0.4-0.1,0.5c0,0.1,0,0.2,0,0.3c0,0.1,0.2,0.3,0.5,0.5c0.3,0.2,0.5,0.3,0.7,0.3c0,0,0.1,0,0.1,0c0.1,0,0.1,0,0.2,0
			h1.5c0.3,0,0.6-0.1,0.8-0.2c0.3-0.1,0.6-0.4,0.9-0.7c0.3-0.4,0.5-0.7,0.5-1C134.1,85.9,134.3,85.9,134.5,86z"/>
		<path class="st0" d="M148.3,86.3c-0.1,0.4-0.2,0.9-0.4,1.3c-0.2,0.5-0.4,1-0.7,1.5l-7.9-0.1c-0.1,0-0.2-0.1-0.4-0.1
			s-0.3-0.1-0.4-0.1c0-0.2,0.1-0.3,0.2-0.3c0.2,0,0.5-0.1,0.7-0.2c0.3-0.2,0.5-0.4,0.6-0.7c0-0.1,0-0.3,0-0.7c0-0.4,0-0.6,0-0.7
			c0-0.1,0-0.3,0.1-0.7c0-0.3,0.1-0.6,0.1-0.8c0-2.1,0-3.6-0.1-4.3c0,0,0.1-0.1,0.1-0.2c0-0.6-0.1-1.1-0.2-1.5
			c-0.1-0.2-0.2-0.3-0.5-0.5c-0.3-0.2-0.5-0.2-0.7-0.2c0-0.2,0.2-0.4,0.5-0.4c0.1,0,0.2,0,0.4,0s0.3,0,0.3,0h4.4
			c0,0.1-0.1,0.3-0.4,0.3c-0.2,0.1-0.4,0.1-0.6,0.2c-0.3,0.1-0.4,0.2-0.4,0.2c-0.2,0.1-0.3,0.2-0.3,0.4c-0.1,0.4-0.2,1-0.3,1.6
			c-0.1,1-0.1,1.6-0.1,1.7c0.1,0.3,0.2,0.6,0.2,0.9c0,0.1,0,0.3-0.1,0.6s-0.1,0.4-0.1,0.6v2.4c0.1,0.3,0.2,0.7,0.4,1.2
			c0,0.1,0.1,0.2,0.3,0.2c0.2,0,0.6,0.1,1,0.2c0.1,0,0.2,0,0.2,0c0.4-0.1,0.9-0.1,1.3-0.2c0.5-0.1,0.9-0.2,1.2-0.4
			c0.1-0.1,0.2-0.3,0.4-0.6c0.2-0.4,0.3-0.6,0.4-0.7c0.1-0.1,0.2-0.1,0.4-0.1C147.9,86.2,148,86.2,148.3,86.3z"/>
		<path class="st0" d="M161.7,86.3c-0.1,0.4-0.2,0.9-0.4,1.3c-0.2,0.5-0.4,1-0.7,1.5l-7.9-0.1c-0.1,0-0.2-0.1-0.4-0.1
			s-0.3-0.1-0.4-0.1c0-0.2,0.1-0.3,0.2-0.3c0.2,0,0.5-0.1,0.7-0.2c0.3-0.2,0.5-0.4,0.6-0.7c0-0.1,0-0.3,0-0.7c0-0.4,0-0.6,0-0.7
			c0-0.1,0-0.3,0.1-0.7c0-0.3,0.1-0.6,0.1-0.8c0-2.1,0-3.6-0.1-4.3c0,0,0.1-0.1,0.1-0.2c0-0.6-0.1-1.1-0.2-1.5
			c-0.1-0.2-0.2-0.3-0.5-0.5c-0.3-0.2-0.5-0.2-0.7-0.2c0-0.2,0.2-0.4,0.5-0.4c0.1,0,0.2,0,0.4,0s0.3,0,0.3,0h4.4
			c0,0.1-0.1,0.3-0.4,0.3c-0.2,0.1-0.4,0.1-0.6,0.2c-0.3,0.1-0.4,0.2-0.4,0.2c-0.2,0.1-0.3,0.2-0.3,0.4c-0.1,0.4-0.2,1-0.3,1.6
			c-0.1,1-0.1,1.6-0.1,1.7c0.1,0.3,0.2,0.6,0.2,0.9c0,0.1,0,0.3-0.1,0.6s-0.1,0.4-0.1,0.6v2.4c0.1,0.3,0.2,0.7,0.4,1.2
			c0,0.1,0.1,0.2,0.3,0.2c0.2,0,0.6,0.1,1,0.2c0.1,0,0.2,0,0.2,0c0.4-0.1,0.9-0.1,1.3-0.2c0.5-0.1,0.9-0.2,1.2-0.4
			c0.1-0.1,0.2-0.3,0.4-0.6c0.2-0.4,0.3-0.6,0.4-0.7c0.1-0.1,0.2-0.1,0.4-0.1C161.3,86.2,161.5,86.2,161.7,86.3z"/>
		<path class="st0" d="M177.1,83.3c0,0.3,0,0.6,0,0.8c-0.1,0.1-0.1,0.3-0.2,0.6c0,0.3-0.1,0.6-0.2,0.9c-0.1,0.1-0.2,0.3-0.4,0.6
			c0,0.2-0.2,0.4-0.4,0.8c-0.2,0.2-0.4,0.4-0.8,0.8c-0.1,0-0.1,0-0.2,0.1c-0.1,0.1-0.2,0.2-0.4,0.3c-1,0.5-1.9,0.8-2.8,0.9h-1.2
			c0,0,0,0-0.1-0.1c-0.6,0-1.1-0.1-1.4-0.3c-0.1,0-0.2,0-0.3-0.1c-0.2-0.1-0.6-0.3-1.1-0.5c-0.6-0.4-1.1-0.9-1.6-1.5
			c-0.3-0.4-0.5-0.8-0.7-1.4c-0.2-0.5-0.3-1-0.3-1.4c0-0.6,0-1.2,0.1-1.8c0-0.1,0.1-0.2,0.1-0.3c0-0.2,0.1-0.4,0.2-0.8
			c0.1-0.2,0.3-0.5,0.5-0.9c0-0.1,0-0.1,0-0.2c0,0,0.1,0,0.2,0c0-0.1,0-0.2,0-0.4c0.1,0,0.2-0.1,0.3-0.2c0-0.1,0.2-0.3,0.3-0.5
			c0.4-0.2,0.9-0.5,1.6-0.8c0.2-0.1,0.4-0.2,0.7-0.2c0.7-0.2,1.2-0.2,1.5-0.2h0.7c0.5,0,1,0.1,1.4,0.2c0.2,0.1,0.7,0.2,1.4,0.5
			c0.1,0.1,0.4,0.2,0.7,0.4c0.5,0.3,0.9,0.7,1.3,1.2c0.3,0.5,0.6,0.9,0.7,1.3c0,0.1,0.1,0.2,0.2,0.3c0.1,0.4,0.2,0.9,0.2,1.6
			c0,0,0,0.1,0,0.2S177.1,83.2,177.1,83.3z M175.1,83.5c-0.1-0.7-0.2-1.4-0.4-2c-0.3-0.8-0.7-1.4-1.1-1.9c-0.6-0.6-1.2-1-1.9-1.1
			c-0.6-0.1-1.1-0.1-1.3-0.1c-0.5,0.1-0.9,0.2-1.2,0.3c0,0-0.3,0.2-0.8,0.5c0,0.1-0.1,0.1-0.2,0.2c0,0-0.1,0-0.2,0.1
			c-0.1,0.2-0.3,0.4-0.4,0.6c0,0.1-0.1,0.2-0.1,0.3c-0.1,0.1-0.2,0.3-0.3,0.5c-0.1,0.2-0.1,0.5-0.2,1c0,0.2,0,0.4,0,0.8
			c0,0,0,0.1,0,0.1c0,0.1,0,0.1,0,0.1c0.1,0.4,0.2,0.9,0.4,1.6c0,0,0,0.1,0,0.2c0,0.1,0.1,0.2,0.2,0.3c0,0.1,0,0.2,0.1,0.3
			c0.2,0.5,0.4,0.7,0.4,0.8c0.2,0.3,0.4,0.6,0.7,0.9c0,0,0,0.1,0.1,0.4c0,0,0.1,0,0.3,0.1c0.3,0.3,0.5,0.4,0.7,0.5
			c0.4,0.3,1.2,0.3,2.4,0.2c0.1,0,0.2-0.1,0.4-0.1c0.2,0,0.5-0.1,0.8-0.3c0.1-0.1,0.2-0.2,0.3-0.3c0.6-0.4,0.9-0.8,1.1-1.4
			c0.1-0.1,0.1-0.2,0.2-0.3c0-0.1,0-0.2,0.1-0.4c0,0,0.1-0.1,0.1-0.2c0-0.1,0-0.4,0.1-0.9C175.1,83.9,175.1,83.6,175.1,83.5z"/>
		<path class="st0" d="M193.7,77.7c0,0.1-0.1,0.2-0.3,0.3c-0.3,0.1-0.5,0.2-0.5,0.2c-0.2,0.2-0.4,0.5-0.5,0.9
			c-0.1,0.2-0.3,0.6-0.4,1.2c0,0.2-0.1,0.4-0.3,0.8c-0.2,0.3-0.2,0.5-0.2,0.6c0,0.1,0,0.2,0,0.3c-0.4,1.3-1,3.2-1.9,5.8
			c-0.1,0.3-0.2,0.5-0.2,0.8c-0.1,0.3-0.3,0.5-0.5,0.5c-0.1,0-0.2,0-0.2-0.1c0,0,0-0.1,0-0.2s0-0.2,0-0.2c-0.1,0-0.2-0.2-0.2-0.4
			c0-0.1,0-0.2,0-0.3c-0.1-0.2-0.2-0.5-0.3-0.9c0-0.1,0-0.3,0-0.4c0-0.2-0.1-0.4-0.2-0.5c0,0,0-0.1,0-0.2c0-0.1,0.1-0.2,0.1-0.3
			c0-0.2-0.1-0.3-0.2-0.5c-0.1-0.1-0.2-0.3-0.3-0.4c0.1-0.1,0.1-0.2,0.2-0.3c-0.1-0.1-0.2-0.2-0.2-0.4c0-0.1,0-0.2,0-0.5
			c-0.1-0.1-0.2-0.3-0.3-0.5c0-0.1,0-0.1,0-0.3c0-0.2,0-0.3,0-0.3c-0.2-0.1-0.3-0.1-0.4,0.2c-0.1,0.3-0.2,0.8-0.4,1.4
			c-0.2,0.5-0.4,1.2-0.7,2.1c-0.1,0.2-0.2,0.4-0.3,0.8c-0.1,0.4-0.2,0.7-0.2,0.9c-0.1,0.4-0.2,0.7-0.4,0.9c-0.1,0.1-0.3,0.1-0.5,0
			c-0.1-0.2-0.2-0.5-0.2-0.8c-0.1-0.4-0.1-0.7-0.2-0.8c-0.1-0.2-0.2-0.4-0.3-0.6c0.1-0.4,0-0.6,0-0.8c-0.1-0.1-0.2-0.2-0.4-0.4
			c0-0.1,0-0.2,0-0.3c0,0,0-0.1,0-0.1c-0.1-0.2-0.2-0.4-0.3-0.8c0-0.1,0-0.2,0-0.3l0.1-0.1c0.1,0.1,0.3,0.2,0.6,0.4
			c0-0.1,0-0.3-0.2-0.4c-0.1-0.2-0.2-0.3-0.2-0.4c-0.6-0.3-0.9-0.7-0.9-1c0-0.1,0-0.2,0.1-0.3c-0.1-0.1-0.2-0.3-0.3-0.5
			c0-0.2-0.1-0.5-0.2-0.9c-0.1-0.1-0.2-0.2-0.3-0.4c0-0.1,0-0.3,0-0.6c-0.1-0.1-0.2-0.3-0.3-0.5c-0.1-0.2-0.2-0.3-0.2-0.5
			c-0.1-0.2-0.2-0.3-0.3-0.4c-0.1-0.1-0.4-0.2-0.8-0.2c0,0,0,0-0.1-0.1c0,0,0.1-0.1,0.1-0.2c0.2,0,0.6,0,1.2,0.1c0.1,0,0.2,0,0.4,0
			c0.2,0,0.3-0.1,0.3-0.1h1.6c0,0,0.1,0,0.2-0.1c0.1,0,0.1-0.1,0.2-0.1c0,0,0,0.1,0,0.1c0,0.1-0.1,0.2-0.4,0.3s-0.4,0.3-0.4,0.5
			c0,0.3,0.1,0.6,0.3,1c0,0.2,0,0.4,0.1,0.7c0.1,0.2,0.3,0.7,0.6,1.6c0,0.1,0,0.3,0,0.5c0,0.1,0.1,0.1,0.1,0.2
			c0,0.2,0.1,0.4,0.2,0.6c0.1,0.3,0.2,0.5,0.2,0.5c0.1,0.4,0.3,0.9,0.5,1.7c0.1,0,0.2-0.1,0.2-0.2c0.2-0.7,0.4-1.4,0.5-2
			c0,0,0.1-0.1,0.2-0.3c0-0.2,0.1-0.5,0.2-0.9c0.2-0.4,0.3-0.7,0.3-0.9c0-0.1,0-0.2,0-0.3c-0.2-0.6-0.5-1.4-0.9-2.5
			c-0.1-0.1-0.3-0.2-0.5-0.3c-0.2-0.1-0.4-0.2-0.4-0.3c0.1,0,0.3-0.1,0.6-0.1c0,0.1,0,0.2,0,0.2c0.2,0,0.5,0,0.8,0
			c0.3,0,0.6-0.1,0.9-0.1c0.1,0,0.3,0,0.7,0c0.3,0,0.5,0,0.7-0.1c0,0.1,0,0.1,0,0.2c0,0.1-0.1,0.2-0.3,0.2c-0.2,0.1-0.4,0.1-0.5,0.2
			c-0.1,0.1-0.1,0.2-0.1,0.3c0,0.1,0,0.3,0.1,0.5c0.1,0.3,0.1,0.5,0.1,0.5c0,0.1,0,0.3,0,0.6c0.1,0.1,0.2,0.3,0.4,0.5
			c0,0.2,0.1,0.5,0.1,0.8c0.1,0.3,0.2,0.6,0.2,0.8c0.1,0.3,0.1,0.6,0.1,0.8c0.1,0.1,0.2,0.2,0.3,0.3c0,0.1,0.1,0.4,0.1,0.9
			c0.1,0.4,0.1,0.7,0.1,0.9c0,0,0.1,0.1,0.1,0.1c0.1,0,0.2-0.1,0.3-0.2c0.1-0.2,0.3-0.6,0.5-1.2c0.1-0.4,0.2-0.9,0.3-1.6
			c0,0,0.1-0.2,0.3-0.4c0-0.5,0.1-0.9,0.4-1.4c0-0.1,0-0.3,0.1-0.5c0.1,0,0.1-0.1,0.2-0.2c0-0.2,0.1-0.6,0.2-1
			c0.1-0.3,0.1-0.5-0.1-0.7c-0.1-0.1-0.2-0.1-0.4-0.2c-0.2-0.1-0.4-0.1-0.5-0.2c0.1-0.2,0.3-0.2,0.7-0.2c0,0,0,0,0.1,0s0.1,0,0.2,0
			c0,0,0.1,0,0.2-0.1s0.2-0.1,0.3-0.1c0.1,0,0.2,0,0.3,0c0.1,0,0.2,0,0.3,0C193,77.8,193.3,77.8,193.7,77.7z M182.7,83.5l-0.2,0.1
			l0-0.1L182.7,83.5L182.7,83.5z"/>
		<path class="st0" d="M204.2,86c0,0.1-0.1,0.4-0.2,0.8c-0.1,0.4-0.2,0.6-0.3,0.7c-0.3,0.3-0.6,0.6-0.9,0.9
			c-0.2,0.1-0.4,0.2-0.7,0.3c-0.7,0.2-1.4,0.3-2,0.3c0,0-0.1,0-0.3,0c-0.2,0-0.4,0-0.5,0c0,0.1,0-0.1,0-0.3
			c-0.1-0.1-0.3-0.2-0.6-0.2c-0.1,0-0.2,0-0.2,0.1c0,0,0.1,0.1,0.3,0.1c0,0.1-0.1,0.2-0.2,0.2c-0.1,0-0.4,0-0.8-0.1
			c-0.5-0.1-0.9-0.3-1.1-0.4c-0.1,0-0.1-0.3-0.2-0.7c0-0.3-0.1-0.8-0.1-1.3c0-0.5,0-0.8,0.1-1.1c0,0,0.1,0,0.3,0
			c0,0.1,0.1,0.2,0.1,0.3c0,0.2,0,0.3,0,0.3c0,0.1,0.1,0.4,0.1,0.6c0,0,0.1,0.2,0.2,0.4c0.1,0.1,0.2,0.3,0.5,0.6
			c0.2,0.2,0.5,0.3,0.8,0.4c0.2,0.1,0.4,0.1,0.5,0.2c0.2,0.1,0.4,0.1,0.6,0.1c0.1,0,0.1,0.1,0.1,0.1c0,0,0.1,0,0.1,0
			c0,0,0.1,0,0.1,0c0,0,0.1,0,0.3,0.1c0.2,0,0.3,0.1,0.3,0.1c0,0,0.1,0,0.2-0.1C200.9,88,201,88,201,88c0.2,0,0.4-0.1,0.7-0.2
			c0.2,0,0.3-0.2,0.4-0.5c0-0.1,0.1-0.2,0.2-0.3c0,0,0-0.1,0-0.2c0,0,0-0.1,0.1-0.2c0.1-0.1,0.1-0.2,0.1-0.2c0-0.2,0-0.4-0.1-0.6
			c0-0.1-0.2-0.3-0.4-0.6c-0.1,0-0.2-0.1-0.3-0.2c-0.5-0.4-1-0.7-1.5-0.9c-0.1-0.1-0.3-0.2-0.6-0.3c-0.3-0.1-0.8-0.4-1.4-0.8
			c0,0-0.1,0-0.2-0.1c-0.2-0.1-0.4-0.3-0.5-0.6c-0.3-0.3-0.4-0.5-0.4-0.5c0-0.1,0-0.2,0-0.4c0-0.1-0.1-0.2-0.2-0.3
			c0-0.1,0-0.3,0-0.5c0,0,0.1-0.1,0.1-0.1c-0.1-0.2-0.1-0.2-0.1-0.2c0,0,0.1-0.1,0.2-0.4c0-0.1,0.1-0.3,0.1-0.5
			c0-0.1,0.2-0.2,0.5-0.5c0.1,0.1,0.2,0.1,0.2,0.1c0-0.1,0.1-0.2,0.1-0.3c0.5-0.5,1-0.8,1.5-1c0.4-0.1,0.9-0.1,1.5-0.1
			c0,0,0.3,0,0.9,0.1c0.6,0.1,0.9,0.1,0.9,0.1c0,0,0.2,0,0.4,0c0.2,0,0.4,0,0.4,0c0.2,0,0.2,0.1,0.2,0.2l-0.1,1.5v0.8
			c0,0,0,0.1,0,0.3c0,0.2,0,0.3,0,0.4c0,0,0,0-0.1,0c0,0-0.1,0-0.1,0h-0.2c0-0.2-0.1-0.5-0.1-0.8c-0.2-0.7-0.6-1.1-1.1-1.4
			c-0.3-0.1-0.8-0.2-1.6-0.2c-0.1,0-0.4,0.1-0.7,0.2c-0.3,0.1-0.6,0.4-0.8,0.8c-0.1,0.1-0.1,0.3-0.1,0.5c0,0.3,0.1,0.6,0.3,1
			c0.1,0.1,0.2,0.2,0.3,0.3c0.4,0.4,1,0.8,1.8,1.1c1.3,0.5,2.2,1.1,2.6,1.7c0.2,0.2,0.3,0.5,0.4,0.8C204.2,85.3,204.2,85.7,204.2,86
			z"/>
		<path class="st0" d="M220.3,77.8c0,0.1,0,0.1-0.1,0.2c-0.2,0.1-0.5,0.2-0.6,0.3c-0.1,0.1-0.2,0.2-0.4,0.4
			c-0.1,0.2-0.2,0.4-0.2,0.5c0,0.5,0,0.7,0,0.6c0,0.1-0.1,0.3-0.2,0.6c0,0.1,0,0.4,0.1,0.9c0,0.2,0,0.4,0,0.7c0,0.3,0,0.8-0.1,1.3
			s-0.1,0.7-0.1,0.7v1.3c0,1.3,0.2,2.3,0.5,2.8c0.1,0.1,0.2,0.2,0.4,0.3s0.4,0.2,0.5,0.2c0,0.1-0.1,0.1-0.2,0.3h-4.1
			c0,0,0-0.1,0-0.2c0-0.1,0-0.1,0-0.2c0.1-0.1,0.3-0.1,0.6-0.3c0.2-0.1,0.4-0.4,0.5-0.8c0.1-0.4,0.2-0.7,0.2-0.9v-1.3
			c0-0.1,0-0.3-0.1-0.7c0-0.3,0-0.5,0-0.7c0-0.1,0-0.4-0.2-0.7c-0.3,0.2-0.7,0.4-1.3,0.5c-0.3,0.1-0.6,0.1-0.8,0
			c-0.3-0.1-0.5-0.1-0.5-0.1h-2.2c-0.1,0.1-0.3,0.2-0.5,0.4c-0.1,0.1-0.1,0.3-0.1,0.6c0,0.1,0.1,0.2,0.2,0.4c0-0.1,0,0.1-0.1,0.5
			c0,0,0,0.5,0.1,1.4c0,1,0.4,1.5,1,1.6c0,0,0.2,0.1,0.4,0.1c-0.2,0.2-0.4,0.3-0.7,0.3c-0.1,0-0.2,0-0.3,0c-0.1,0-0.2,0-0.2,0
			l-3.5-0.1c0-0.1,0.1-0.2,0.4-0.3c0.3-0.1,0.6-0.3,0.7-0.6c0.1-0.2,0.2-0.6,0.2-1.1c0-0.6,0.1-1,0-1.4c0,0-0.1-0.1-0.1-0.2
			c0-0.5,0-1.1,0.1-2c0,0,0-0.1,0.1-0.3c0.1-0.1,0.1-0.2,0.1-0.3c-0.1-0.1-0.1-0.3-0.2-0.5c0,0.1,0-0.1,0.1-0.6c0-0.1,0-0.2,0-0.4
			s0-0.3,0-0.3v-1.4c0-0.2-0.1-0.4-0.4-0.7c-0.3-0.3-0.5-0.4-0.8-0.5c0,0,0.1-0.1,0.2-0.3c0.2,0,0.5,0,1-0.1c0.4,0,0.6-0.1,0.7-0.1
			h1.7c0.1,0,0.2,0,0.2,0c0.1,0,0.1,0,0.2,0c0.1,0,0.3,0.1,0.6,0.3c-0.2,0.1-0.4,0.2-0.6,0.3c-0.3,0.1-0.4,0.3-0.6,0.5
			c-0.2,0.3-0.3,0.7-0.3,1.5v1.9c0,0,0,0.1,0,0.1c0,0,0,0.1,0,0.1c0.3,0.1,0.5,0.2,0.7,0.2h3.5c0.1,0,0.3,0.1,0.5,0.1
			c0,0,0.1,0,0.2,0.1c0.1,0.1,0.2,0.1,0.3,0.1c0,0,0.1,0,0.1,0c0.2-0.2,0.3-0.5,0.3-0.8c0-0.2,0-0.4-0.1-0.7
			c-0.1-0.3-0.1-0.5-0.1-0.6c0-0.1,0-0.3-0.1-0.6c0-0.3-0.1-0.6-0.1-0.7c0-0.6-0.5-1.1-1.3-1.5c0.1-0.1,0.2-0.2,0.3-0.2h1.3
			c-0.1,0,0.2,0,0.7,0c0.5,0,0.9,0,1.1,0C219.4,77.7,219.8,77.8,220.3,77.8z"/>
		<path class="st0" d="M229.8,78.7c0,0.1-0.1,0.2-0.1,0.4l-0.5,0.1c-0.2,0.1-0.4,0.2-0.4,0.3c0,0.1-0.1,0.2-0.2,0.3
			c0,0-0.1,0.4-0.2,1l0,3.7c0,0.2-0.1,0.2-0.1,0.2l0.1,0.2l0,1.4c0,0.2,0,0.4,0,0.8c0,0.4,0.1,0.7,0.2,0.9c0,0.1,0.1,0.2,0.3,0.3
			c0.3,0.2,0.6,0.3,0.9,0.3c0,0.1,0,0.2-0.1,0.3h-1c0,0-0.1,0-0.3,0c-0.2,0-0.3,0-0.3,0c0,0-0.1,0-0.2,0c-0.1,0-0.2,0-0.2,0
			s-0.1,0-0.2,0c-0.1,0-0.2,0-0.2,0c0,0-0.1,0-0.1,0c-0.1,0-0.1,0-0.1,0l-1.9,0c-0.2,0-0.2-0.1-0.2-0.2c0-0.1,0-0.2,0.1-0.2
			c0.2,0,0.4-0.1,0.6-0.1c0.2,0,0.4-0.1,0.4-0.2c0-0.1,0.1-0.2,0.1-0.3c0.1,0,0.2,0,0.4,0.1c0.1-0.2,0.1-0.4,0.1-0.5
			c0-0.1,0-0.2-0.1-0.3c0-0.1,0.1-0.2,0-0.3c0-0.1-0.1-0.2-0.2-0.3c-0.1-0.1-0.1-0.2-0.1-0.2c0,0,0.1-0.1,0.2-0.5c0,0,0-0.1-0.1-0.2
			c0.1-0.2,0.2-0.3,0.2-0.3c0,0,0-0.2,0-0.6c0,0,0-0.1-0.1-0.2c0-0.1-0.1-0.1-0.1-0.2c0,0,0-0.1,0.1-0.1c0,0,0,0,0-0.1v-1.1
			c0,0,0-0.1,0-0.2c0-0.1,0-0.1,0-0.2c0,0,0,0,0-0.1c0,0,0-0.1,0-0.1c0,0,0-0.1,0-0.4c0-0.1,0-0.2,0-0.5v-0.7c0-0.1,0-0.2-0.1-0.3
			c0-0.1,0-0.2-0.1-0.4c0-0.1,0-0.2-0.1-0.4c0-0.1-0.1-0.1-0.2-0.2c0-0.1-0.1-0.1-0.1-0.3c-0.1-0.2-0.2-0.3-0.3-0.4
			c-0.1,0-0.3-0.1-0.6-0.2c0-0.1,0.1-0.2,0.1-0.3h0.1c0,0,0.1,0,0.2,0c0.1,0,0.1,0,0.2,0L229.8,78.7z"/>
		<path class="st0" d="M242,80c0.1,0.2,0,0.8-0.1,1.6c0,0.3-0.2,0.6-0.5,1.1c-0.3,0.4-0.6,0.7-0.9,0.9c-0.3,0.2-0.7,0.3-1.2,0.4
			c-0.1,0.1-0.3,0.1-0.5,0.2c-0.5,0-1.1,0.1-1.8,0.1c0,0-0.1,0-0.2,0.1c0,0.2,0.1,0.9,0.1,2.1c0,0.2,0.1,0.5,0.1,0.9
			c0,0.1,0,0.3,0.1,0.5c0.1,0.2,0.3,0.4,0.6,0.5c0.2,0.1,0.4,0.1,0.7,0.2c0,0.1,0,0.1,0,0.2c-0.2,0.1-0.3,0.1-0.5,0.1H237
			c0,0-0.1,0-0.2,0c-0.1,0-0.2,0-0.3,0c-0.2,0-0.5,0-0.8,0c-0.4,0-0.6,0-0.6,0h-0.9c-0.1,0-0.2,0-0.3-0.1c0,0,0,0,0-0.1
			c0-0.1,0-0.1,0-0.1c0.3-0.1,0.5-0.1,0.6-0.2c0.2-0.1,0.4-0.3,0.5-0.5c0.1-0.1,0.1-0.4,0.1-0.8c0-0.1,0-0.3,0.1-0.5
			c0-0.3,0.1-0.5,0.1-0.6v-1.1c0-0.3,0-0.5,0-0.8c0-0.3,0.1-0.6,0.2-0.8c0,0-0.1-0.1-0.2-0.2c0-0.3-0.1-0.6-0.1-1c0,0,0-0.1,0.1-0.3
			c0-0.2,0-0.3,0-0.4c-0.1-0.3-0.1-0.6,0-1c0-0.1,0-0.5-0.1-1.1c0-0.2-0.1-0.4-0.2-0.7c-0.1-0.2-0.3-0.3-0.5-0.3
			c-0.2,0-0.3-0.1-0.5-0.1c0-0.3,0-0.4,0-0.2c0-0.1,0.1-0.1,0.2-0.2c0.2,0,0.6,0,1.1-0.1c0.5,0,0.7-0.1,0.7-0.1h1.1
			c0.2,0,0.4,0,0.7-0.1s0.4-0.1,0.6-0.1c0.2,0,0.4,0,0.7,0.1c0.2,0,0.5,0.1,0.8,0.2c0,0,0.1,0.1,0.2,0.1c0.6,0.1,1.1,0.3,1.5,0.8
			C241.7,79,241.9,79.4,242,80z M240.1,81c0-0.2,0-0.3,0-0.4c-0.3-0.8-0.5-1.3-0.7-1.5c-0.3-0.3-0.6-0.5-0.9-0.6
			c-0.2-0.1-0.6-0.1-1.1,0c-0.1,0-0.1,0-0.2,0.1c-0.1,1-0.2,1.8-0.2,2.4c0,0,0.1,0.1,0.1,0.2c0,0.1,0,0.4-0.1,1c0,0.4,0,0.8,0,1.2
			c0,0,0,0,0.1,0.1h0.9c0.1,0,0.2,0,0.3,0c0.3,0,0.7-0.1,1-0.3c0.3-0.2,0.5-0.4,0.6-0.5C240,82.2,240.1,81.6,240.1,81z"/>
		<path class="st0" d="M266.8,83.3c0,0.3,0,0.6,0,0.8c-0.1,0.1-0.1,0.3-0.2,0.6c0,0.3-0.1,0.6-0.2,0.9c-0.1,0.1-0.2,0.3-0.4,0.6
			c0,0.2-0.2,0.4-0.4,0.8c-0.2,0.2-0.4,0.4-0.8,0.8c-0.1,0-0.1,0-0.2,0.1c-0.1,0.1-0.2,0.2-0.4,0.3c-1,0.5-1.9,0.8-2.8,0.9h-1.2
			c0,0,0,0-0.1-0.1c-0.6,0-1.1-0.1-1.4-0.3c-0.1,0-0.2,0-0.3-0.1c-0.2-0.1-0.6-0.3-1.1-0.5c-0.6-0.4-1.1-0.9-1.6-1.5
			c-0.3-0.4-0.5-0.8-0.7-1.4c-0.2-0.5-0.3-1-0.3-1.4c0-0.6,0-1.2,0.1-1.8c0-0.1,0.1-0.2,0.1-0.3c0-0.2,0.1-0.4,0.2-0.8
			c0.1-0.2,0.3-0.5,0.5-0.9c0-0.1,0-0.1,0-0.2c0,0,0.1,0,0.2,0c0-0.1,0-0.2,0-0.4c0.1,0,0.2-0.1,0.3-0.2c0-0.1,0.2-0.3,0.3-0.5
			c0.4-0.2,0.9-0.5,1.6-0.8c0.2-0.1,0.4-0.2,0.7-0.2c0.7-0.2,1.2-0.2,1.5-0.2h0.7c0.5,0,1,0.1,1.4,0.2c0.2,0.1,0.7,0.2,1.4,0.5
			c0.1,0.1,0.4,0.2,0.7,0.4c0.5,0.3,0.9,0.7,1.3,1.2c0.3,0.5,0.6,0.9,0.7,1.3c0,0.1,0.1,0.2,0.2,0.3c0.1,0.4,0.2,0.9,0.2,1.6
			c0,0,0,0.1,0,0.2S266.8,83.2,266.8,83.3z M264.8,83.5c-0.1-0.7-0.2-1.4-0.4-2c-0.3-0.8-0.7-1.4-1.1-1.9c-0.6-0.6-1.2-1-1.9-1.1
			c-0.6-0.1-1.1-0.1-1.3-0.1c-0.5,0.1-0.9,0.2-1.2,0.3c0,0-0.3,0.2-0.8,0.5c0,0.1-0.1,0.1-0.2,0.2c0,0-0.1,0-0.2,0.1
			c-0.1,0.2-0.3,0.4-0.4,0.6c0,0.1-0.1,0.2-0.1,0.3c-0.1,0.1-0.2,0.3-0.3,0.5c-0.1,0.2-0.1,0.5-0.2,1c0,0.2,0,0.4,0,0.8
			c0,0,0,0.1,0,0.1c0,0.1,0,0.1,0,0.1c0.1,0.4,0.2,0.9,0.4,1.6c0,0,0,0.1,0,0.2c0,0.1,0.1,0.2,0.2,0.3c0,0.1,0,0.2,0.1,0.3
			c0.2,0.5,0.4,0.7,0.4,0.8c0.2,0.3,0.4,0.6,0.7,0.9c0,0,0,0.1,0.1,0.4c0,0,0.1,0,0.3,0.1c0.3,0.3,0.5,0.4,0.7,0.5
			c0.4,0.3,1.2,0.3,2.4,0.2c0.1,0,0.2-0.1,0.4-0.1c0.2,0,0.5-0.1,0.8-0.3c0.1-0.1,0.2-0.2,0.3-0.3c0.6-0.4,0.9-0.8,1.1-1.4
			c0.1-0.1,0.1-0.2,0.2-0.3c0-0.1,0-0.2,0.1-0.4c0,0,0.1-0.1,0.1-0.2c0-0.1,0-0.4,0.1-0.9C264.8,83.9,264.8,83.6,264.8,83.5z"/>
		<path class="st0" d="M278.4,77.8c0.1,0.3,0,1.1-0.1,2.3c0,0.1-0.1,0.2-0.2,0.4c0,0-0.1,0-0.3,0c0-0.4-0.1-0.7-0.1-0.9
			c-0.1-0.3-0.3-0.6-0.6-0.6c-0.3-0.1-0.9-0.1-1.8-0.1h-1.5c-0.3,0-0.4,0.3-0.4,0.8c0-0.1,0,0.2,0.1,0.9c0,0.1,0,0.4-0.1,0.7
			c-0.1,0.4-0.1,0.6-0.1,0.8c0,0.3,0,0.5,0.1,0.7h1.2c0,0,0.1,0,0.3,0c0.2,0,0.3,0,0.3,0h1.1c0.4,0,0.8-0.2,1.1-0.7
			c0-0.1,0.1-0.2,0.1-0.4c0.1-0.1,0.2-0.1,0.4-0.1c0,0.2,0.1,0.4,0.1,0.8c0,0.4-0.1,1.3-0.2,2.5c0,0.2-0.2,0.2-0.5,0.2
			c-0.1-0.2-0.1-0.5-0.2-0.7c-0.1-0.3-0.3-0.5-0.5-0.6c-0.1,0-0.5-0.1-1.1-0.1h-1.3c-0.1,0-0.2,0-0.4,0c-0.2,0-0.3,0-0.4,0.1
			c0,0.1,0,0.4,0,0.6c0,0.1-0.1,0.2-0.1,0.5c-0.1,0.2-0.1,0.4-0.1,0.5c0,0.1,0.1,0.2,0.1,0.3c0,0.1,0,0.3,0,0.5s0,0.4,0,0.5
			c0,0.5,0.2,0.8,0.5,1.1c0,0,0.4,0.2,1.3,0.5c-0.1,0.1-0.3,0.2-0.4,0.2c0.4,0,0.2,0-0.5,0c-0.5,0-1.2,0-2-0.1c-0.4,0-0.7,0-0.8,0
			c-0.1,0-0.2,0.1-0.3,0.2c0,0-0.2,0-0.7-0.1c0-0.1,0.2-0.2,0.4-0.4c0.2-0.2,0.4-0.3,0.4-0.4c0.2-0.4,0.3-0.8,0.3-1.2v-2.1
			c0,0,0-0.2,0-0.6c0-0.4,0-0.7,0-0.9c0,0,0-0.1,0-0.3c0-0.2,0-0.3,0-0.4c0-0.2-0.1-0.3-0.1-0.4c0.2-0.3,0.3-0.6,0.3-1
			c0-0.4-0.1-0.9-0.3-1.4c0-0.1,0-0.2,0-0.4c0-0.1,0-0.2-0.1-0.2c-0.1-0.2-0.3-0.5-0.5-0.7c-0.1-0.1-0.2-0.1-0.5-0.1
			c0-0.1-0.1-0.2-0.1-0.4c0,0,0.4,0,1.2,0c1.3,0,3.3,0,6-0.1C277.6,77.7,278,77.7,278.4,77.8z"/>
		<path class="st0" d="M299,77.8c0,0.2-0.1,0.5-0.1,0.8v2.1c0,0-0.1,0-0.2,0c-0.1,0-0.1,0-0.2,0c0,0-0.1-0.4-0.1-1.1
			c0-0.4-0.2-0.7-0.5-0.9c-0.1-0.1-0.4-0.1-0.9,0c-0.2,0-0.6,0.1-1,0.2c-0.2,0.1-0.3,0.2-0.3,0.3c-0.1,0.4-0.1,0.9,0,1.6
			c0.1,0.7,0.1,1.7-0.1,3c0,0,0,0.4,0.1,1.2c0,0.3,0,0.7,0,1.3c0.1,0.3,0.2,0.8,0.3,1.4c0.1,0.3,0.3,0.5,0.6,0.6
			c0.3,0.1,0.5,0.1,0.8,0.2c0,0.1-0.1,0.2-0.2,0.4h-5c0,0-0.1,0-0.1-0.1c0,0,0-0.1,0-0.1c0.2,0,0.5-0.1,0.8-0.3
			c0.3-0.2,0.5-0.4,0.7-0.6c0-0.1,0.1-0.3,0.1-0.8c0-0.8,0.1-1.7,0.1-2.6v-3.2h0.2c0,0,0,0,0.1-0.1c-0.1-0.2-0.2-0.5-0.3-0.8
			c0-0.1-0.1-0.5-0.1-1.4H292c-0.2,0-0.4,0.1-0.6,0.3s-0.4,0.3-0.4,0.5c-0.1,0.5-0.2,0.9-0.4,1.1c-0.1,0.1-0.2,0.2-0.4,0.2
			c0,0,0-0.1,0-0.2c0-0.1,0-0.2,0-0.2c0.1-0.2,0.1-0.6,0.2-1.1c0.1-0.6,0.1-1,0.2-1.2l0.3-0.4c-0.2,0,0.4,0,1.6,0
			c0.4,0,0.9,0,1.7,0.1c0.7,0.1,1.1,0.1,1.1,0.1h1.5c0,0,0.2,0,0.5-0.1c0.4-0.1,0.8-0.1,1.1-0.1c0.1,0,0.3,0,0.4-0.1
			C298.9,77.7,299,77.7,299,77.8z"/>
		<path class="st0" d="M315,77.8c0,0.1,0,0.1-0.1,0.2c-0.2,0.1-0.5,0.2-0.6,0.3c-0.1,0.1-0.2,0.2-0.4,0.4c-0.1,0.2-0.2,0.4-0.2,0.5
			c0,0.5,0,0.7,0,0.6c0,0.1-0.1,0.3-0.2,0.6c0,0.1,0,0.4,0.1,0.9c0,0.2,0,0.4,0,0.7c0,0.3,0,0.8-0.1,1.3c0,0.5-0.1,0.7-0.1,0.7v1.3
			c0,1.3,0.2,2.3,0.5,2.8c0.1,0.1,0.2,0.2,0.4,0.3s0.4,0.2,0.5,0.2c0,0.1-0.1,0.1-0.2,0.3h-4.1c0,0,0-0.1,0-0.2c0-0.1,0-0.1,0-0.2
			c0.1-0.1,0.3-0.1,0.6-0.3c0.2-0.1,0.4-0.4,0.5-0.8c0.1-0.4,0.2-0.7,0.2-0.9v-1.3c0-0.1,0-0.3-0.1-0.7c0-0.3,0-0.5,0-0.7
			c0-0.1,0-0.4-0.2-0.7c-0.3,0.2-0.7,0.4-1.3,0.5c-0.3,0.1-0.6,0.1-0.8,0c-0.3-0.1-0.5-0.1-0.5-0.1h-2.2c-0.1,0.1-0.3,0.2-0.5,0.4
			c-0.1,0.1-0.1,0.3-0.1,0.6c0,0.1,0.1,0.2,0.2,0.4c0-0.1,0,0.1-0.1,0.5c0,0,0,0.5,0.1,1.4c0,1,0.4,1.5,1,1.6c0,0,0.2,0.1,0.4,0.1
			c-0.2,0.2-0.4,0.3-0.7,0.3c-0.1,0-0.2,0-0.3,0c-0.1,0-0.2,0-0.2,0l-3.5-0.1c0-0.1,0.1-0.2,0.4-0.3c0.3-0.1,0.6-0.3,0.7-0.6
			c0.1-0.2,0.2-0.6,0.2-1.1c0-0.6,0.1-1,0-1.4c0,0-0.1-0.1-0.1-0.2c0-0.5,0-1.1,0.1-2c0,0,0-0.1,0.1-0.3c0.1-0.1,0.1-0.2,0.1-0.3
			c-0.1-0.1-0.1-0.3-0.2-0.5c0,0.1,0-0.1,0.1-0.6c0-0.1,0-0.2,0-0.4s0-0.3,0-0.3v-1.4c0-0.2-0.1-0.4-0.4-0.7
			c-0.3-0.3-0.5-0.4-0.8-0.5c0,0,0.1-0.1,0.2-0.3c0.2,0,0.5,0,1-0.1c0.4,0,0.6-0.1,0.7-0.1h1.7c0.1,0,0.2,0,0.2,0c0.1,0,0.1,0,0.2,0
			c0.1,0,0.3,0.1,0.6,0.3c-0.2,0.1-0.4,0.2-0.6,0.3c-0.3,0.1-0.4,0.3-0.6,0.5c-0.2,0.3-0.3,0.7-0.3,1.5v1.9c0,0,0,0.1,0,0.1
			c0,0,0,0.1,0,0.1c0.3,0.1,0.5,0.2,0.7,0.2h3.5c0.1,0,0.3,0.1,0.5,0.1c0,0,0.1,0,0.2,0.1c0.1,0.1,0.2,0.1,0.3,0.1c0,0,0.1,0,0.1,0
			c0.2-0.2,0.3-0.5,0.3-0.8c0-0.2,0-0.4-0.1-0.7s-0.1-0.5-0.1-0.6c0-0.1,0-0.3-0.1-0.6c0-0.3-0.1-0.6-0.1-0.7c0-0.6-0.5-1.1-1.3-1.5
			c0.1-0.1,0.2-0.2,0.3-0.2h1.3c-0.1,0,0.2,0,0.7,0c0.5,0,0.9,0,1.1,0C314.1,77.7,314.5,77.8,315,77.8z"/>
		<path class="st0" d="M328.2,86c0,0.3-0.1,0.7-0.1,1.3c-0.1,0.2-0.2,0.4-0.3,0.6c0,0.1-0.1,0.3-0.1,0.5c0,0.1-0.1,0.2-0.2,0.3
			c-0.2,0.2-0.3,0.3-0.4,0.3h-2.3c0,0-0.3,0-0.8,0c-0.5,0-0.8,0-0.8,0h-1.4c0,0-0.2,0-0.5,0s-0.5,0-0.6,0h-1.3l-0.1-0.1
			c0.1-0.1,0.3-0.3,0.8-0.5c0.3-0.2,0.5-0.4,0.5-0.7v-2.8c0-0.5,0.1-1.1,0.2-1.8c-0.1-0.2-0.1-0.5,0-0.9c-0.1-0.1-0.2-0.2-0.2-0.4
			c0,0,0.1-0.3,0.2-0.7c0,0,0-0.1-0.1-0.2c-0.1-0.1-0.1-0.2-0.1-0.2c0-0.1-0.1-0.3-0.1-0.6c0-0.4,0-0.6,0-0.6c0-0.2-0.1-0.4-0.1-0.5
			c-0.1-0.2-0.2-0.3-0.4-0.4c-0.2-0.1-0.4-0.2-0.5-0.2c0.1-0.2,0.2-0.3,0.3-0.3c0.2,0,0.4,0,0.8,0c0.4-0.1,0.6-0.1,0.5-0.1h1.6
			c0,0,0.2,0,0.5,0.1c0.3,0,0.6,0.1,0.8,0.1c0.1,0,0.7,0,1.8-0.1c0.3,0,0.9,0,2,0.1c0.1,0.1,0.1,0.1,0.1,0.2c0,0.1,0,0.1-0.1,0.2
			c0,0.1-0.1,0.2-0.1,0.2c0,0.2-0.1,0.8-0.2,1.9c0,0-0.1,0.1-0.3,0.2c0-0.1-0.1-0.4-0.3-0.9c-0.1-0.4-0.3-0.6-0.7-0.6
			c-0.1,0-0.3-0.1-0.4-0.1c-0.2,0-0.3,0-0.4,0c-0.3,0.1-0.8,0.1-1.7,0c-0.5,0-0.8,0-1.1,0c-0.1,0-0.1,0.1-0.1,0.2
			c0.2,0.7,0.2,1.3,0,1.8c0,0,0,0.1,0,0.4c0,0.1,0,0.3,0,0.5c0,0.2,0,0.4,0,0.5c0,0.1,0.1,0.1,0.2,0.2h3.3c0.1,0,0.2-0.1,0.3-0.1
			c0.2-0.1,0.3-0.2,0.3-0.3c0.1-0.2,0.2-0.4,0.3-0.6c0.2,0,0.3,0.1,0.4,0.2c0,0.3,0,0.8-0.1,1.3c0,0.3,0,0.9-0.1,1.5
			c0,0.1-0.1,0.1-0.4,0.1c-0.1-0.1-0.2-0.3-0.4-0.6c-0.4-0.3-0.7-0.4-1-0.4h-1.2c-0.1,0-0.2,0-0.5,0c-0.2,0-0.4,0-0.5,0
			c-0.3,0-0.5,0.1-0.6,0.3c-0.1,0.2-0.1,0.4-0.1,0.5c0,0.1,0,0.3,0.1,0.6c0,0.3,0.1,0.5,0.1,0.7c0,0.1,0,0.2-0.1,0.5
			s-0.1,0.4-0.1,0.5c0,0.1,0,0.2,0,0.3c0,0.1,0.2,0.3,0.5,0.5c0.3,0.2,0.5,0.3,0.7,0.3c0,0,0.1,0,0.1,0c0.1,0,0.1,0,0.2,0h1.5
			c0.3,0,0.6-0.1,0.8-0.2c0.3-0.1,0.6-0.4,0.9-0.7c0.3-0.4,0.5-0.7,0.5-1C327.8,85.9,328,85.9,328.2,86z"/>
		<path class="st0" d="M351,88.6c0,0.1-0.1,0.1-0.2,0.2c-0.3,0.1-0.5,0.2-0.6,0.2h-1.1c-0.4,0-0.6,0-0.8,0c-0.1,0-0.3-0.1-0.6-0.2
			c-0.2-0.1-0.6-0.4-1.2-1.1c0-0.1-0.3-0.4-0.7-1.1c-0.4-0.6-0.7-1.2-0.9-1.6c-0.1-0.2-0.1-0.4-0.3-0.6c-0.1-0.1-0.2-0.1-0.4-0.1
			c-0.1,0-0.3,0-0.5,0.1c-0.2,0-0.5,0-0.9,0c0,0-0.1,0-0.2,0.1c0,0.2,0.1,1,0.1,2.2c0,0.2,0.1,0.5,0.1,0.9c0,0.1,0,0.3,0.1,0.5
			c0.1,0.2,0.3,0.4,0.6,0.5c0.2,0.1,0.4,0.1,0.7,0.2c0,0.1,0,0.1,0,0.2c-0.2,0.1-0.3,0.1-0.5,0.1H343c0,0-0.1,0-0.2,0
			c-0.1,0-0.3,0-0.3,0c-0.2,0-0.7,0-1.4,0.1h-0.9c-0.1,0-0.2,0-0.3-0.1c0,0,0-0.1,0-0.1c0-0.1,0-0.1,0-0.1c0.3-0.1,0.5-0.1,0.6-0.2
			c0.2-0.1,0.4-0.3,0.5-0.5c0.1-0.1,0.1-0.4,0.1-0.8c0-0.1,0-0.3,0.1-0.5c0-0.3,0.1-0.5,0.1-0.6c0-0.8,0-1.2,0-1.3
			c0-0.1,0.1-0.2,0.2-0.3c0,0-0.1-0.1-0.2-0.2c0-0.1,0-0.3,0-0.5v-0.9c0,0,0-0.1,0-0.3c0,0.1,0-0.3,0.1-1.2c0,0,0,0,0-0.1
			c-0.1-0.2-0.1-0.5,0-0.9c0-0.1,0-0.5-0.1-1.1c0-0.2-0.1-0.4-0.2-0.7c-0.1-0.2-0.3-0.3-0.5-0.3c-0.2,0-0.4-0.1-0.5-0.1
			c0-0.3,0-0.4,0-0.2c0-0.1,0.1-0.1,0.2-0.2c0.2,0,0.6,0,1.2-0.1c0.5,0,0.7-0.1,0.8-0.1h1.1c0.2,0,0.4,0,0.7-0.1s0.4-0.1,0.6-0.1
			c0.2,0,0.5,0,0.8,0.1c0.2,0,0.5,0.1,0.8,0.2c0,0,0.1,0.1,0.2,0.1c0.6,0.1,1.1,0.4,1.5,0.8c0.2,0.3,0.5,0.7,0.6,1.3
			c0,0.1,0,0.2,0,0.4c0,0.1,0,0.4,0,0.7c-0.1,0.6-0.2,1.1-0.4,1.4c-0.2,0.3-0.6,0.7-1.2,1.2c0,0.1,0,0.2,0.1,0.3
			c0.4,0.7,0.7,1.4,1.1,2.1c0.4,0.8,1,1.4,1.6,2c0.1,0,0.3,0.1,0.7,0.2c0.2,0.1,0.4,0.1,0.6,0c0.2,0,0.4-0.1,0.5-0.1
			C351,88.5,351,88.5,351,88.6z M346.2,81c0-0.2,0-0.3,0-0.4c-0.3-0.8-0.5-1.3-0.8-1.5c-0.3-0.3-0.6-0.5-0.9-0.6
			c-0.2-0.1-0.6-0.1-1.1,0c-0.1,0-0.1,0-0.2,0.1c-0.1,1-0.2,1.8-0.2,2.5c0,0,0.1,0.1,0.1,0.2c0,0.1,0,0.4-0.1,1c0,0.4,0,0.8,0,1.2
			c0,0,0,0,0.1,0.1h0.9c0.1,0,0.2,0,0.3,0c0.3,0,0.7-0.1,1-0.3c0.3-0.2,0.5-0.4,0.6-0.5C346.1,82.2,346.2,81.6,346.2,81z"/>
		<path class="st0" d="M358.1,78.7c0,0.1-0.1,0.2-0.1,0.4l-0.5,0.1c-0.2,0.1-0.4,0.2-0.4,0.3c0,0.1-0.1,0.2-0.2,0.3
			c0,0-0.1,0.4-0.2,1l0,3.7c0,0.2-0.1,0.2-0.1,0.2l0.1,0.2l0,1.4c0,0.2,0,0.4,0,0.8c0,0.4,0.1,0.7,0.2,0.9c0,0.1,0.1,0.2,0.3,0.3
			c0.3,0.2,0.6,0.3,0.9,0.3c0,0.1,0,0.2-0.1,0.3h-1c0,0-0.1,0-0.3,0c-0.2,0-0.3,0-0.3,0c0,0-0.1,0-0.2,0c-0.1,0-0.2,0-0.2,0
			c0,0-0.1,0-0.2,0c-0.1,0-0.2,0-0.2,0c0,0-0.1,0-0.1,0c-0.1,0-0.1,0-0.1,0l-1.9,0c-0.2,0-0.2-0.1-0.2-0.2c0-0.1,0-0.2,0.1-0.2
			c0.2,0,0.4-0.1,0.6-0.1c0.2,0,0.4-0.1,0.4-0.2c0-0.1,0.1-0.2,0.1-0.3c0.1,0,0.2,0,0.4,0.1c0.1-0.2,0.1-0.4,0.1-0.5
			c0-0.1,0-0.2-0.1-0.3c0-0.1,0.1-0.2,0-0.3c0-0.1-0.1-0.2-0.2-0.3c-0.1-0.1-0.1-0.2-0.1-0.2c0,0,0.1-0.1,0.2-0.5c0,0,0-0.1-0.1-0.2
			c0.1-0.2,0.2-0.3,0.2-0.3c0,0,0-0.2,0-0.6c0,0,0-0.1-0.1-0.2c0-0.1-0.1-0.1-0.1-0.2c0,0,0-0.1,0.1-0.1c0,0,0,0,0-0.1v-1.1
			c0,0,0-0.1,0-0.2c0-0.1,0-0.1,0-0.2c0,0,0,0,0-0.1c0,0,0-0.1,0-0.1c0,0,0-0.1,0-0.4c0-0.1,0-0.2,0-0.5v-0.7c0-0.1,0-0.2-0.1-0.3
			c0-0.1,0-0.2-0.1-0.4c0-0.1,0-0.2-0.1-0.4c0-0.1-0.1-0.1-0.2-0.2c0-0.1-0.1-0.1-0.1-0.3c-0.1-0.2-0.2-0.3-0.3-0.4
			c-0.1,0-0.3-0.1-0.6-0.2c0-0.1,0.1-0.2,0.1-0.3h0.1c0,0,0.1,0,0.2,0s0.1,0,0.2,0L358.1,78.7z"/>
		<path class="st0" d="M374,78.1c-0.1,0-0.3,0-0.5,0.1c-0.2,0.1-0.4,0.2-0.5,0.4c-0.2,0.3-0.3,0.6-0.3,1c-0.1,0.5-0.1,1-0.1,1.3
			c0,0,0,0.3,0,0.8c0,0.5,0,0.7,0,0.8v1.4c0,0,0,0.1,0,0.2s0,0.2,0,0.2c0,0.7-0.1,1.1-0.1,1.2c0,0,0,0.1,0,0.3s0,0.2,0,0.3v2.7
			c0,0,0,0.1,0,0.1c0,0,0,0,0,0c-0.4,0.1-0.6,0.1-0.6,0.1c-0.2,0-0.4,0-0.5-0.1c-0.4-0.4-1-1-1.8-2c-0.1-0.2-0.4-0.5-0.6-0.8
			c-0.2-0.2-0.6-0.6-1-1.1c-0.1-0.2-0.3-0.4-0.5-0.8c-0.5-0.6-1.3-1.6-2.3-2.8c-0.1-0.1-0.3-0.3-0.5-0.5c0,0,0-0.1-0.1-0.2
			c-0.1-0.1-0.2-0.3-0.4-0.5c-0.1,0.1-0.2,0.2-0.2,0.3c0,0,0,0.3,0.1,0.9c0,0,0,0.1,0,0.2c0,0.1,0,0.1,0,0.1c0,0.2,0,0.6,0,1.1
			c0,0.5,0,0.7,0,0.7v1.2c0,0,0,0.3,0,0.9c0,0.6,0,0.9,0,0.9c0,1.2,0.4,1.9,1.3,1.9c0,0,0,0,0.1,0.1s0,0.1,0.1,0.1
			c0,0.1,0,0.2,0,0.3h-3.1c0,0-0.1,0-0.3,0c-0.2,0-0.3,0-0.3,0H362c-0.1-0.1-0.1-0.1-0.1-0.1c0-0.2,0.1-0.3,0.2-0.4
			c0.2,0,0.4-0.1,0.7-0.3c0.3-0.2,0.5-0.4,0.5-0.8c0.2-0.9,0.2-1.4,0.1-1.6c0-0.1,0-0.2,0-0.2l0.1-0.1l-0.1-0.1c0-0.1,0-0.2,0-0.3
			c0-0.2,0-0.3,0-0.3c0-0.1,0-0.2,0-0.4c0-0.2,0-0.3,0-0.4c0,0.1,0-0.1,0-0.5c0,0,0-0.1-0.1-0.2l0,0c0,0,0-0.1,0-0.2c0,0,0,0,0-0.1
			c-0.1-0.7-0.1-1.1-0.1-1.3v-1.2c0-0.7-0.1-1.1-0.1-1.3c0,0,0-0.1,0-0.1c0-0.1,0-0.1,0-0.2c-0.4-0.5-1-0.7-1.7-0.6l0,0v-0.3
			c0.1-0.1,0.2-0.1,0.5-0.1c0,0,0.3,0,0.7,0c0.4,0,0.7,0,0.7,0c0,0,0.2,0,0.7,0c0.4,0,0.6,0,0.7,0c0.1,0,0.2,0,0.2,0
			c0.1,0,0.3,0.2,0.5,0.6c0.5,0.7,1.2,1.7,2.2,3.1c0.2,0.3,0.5,0.6,0.9,1.1c-0.1,0.5,0,0.8,0.2,0.8c0,0,0.1,0,0.1-0.1
			c0.1,0,0.1-0.1,0.2-0.1c0.1,0,0.2,0.1,0.3,0.3c0.1,0.1,0.1,0.2,0.2,0.3c0.4,0.3,0.7,0.6,0.8,0.8c0,0.1,0.1,0.2,0.1,0.4
			c0,0.1,0.1,0.1,0.1,0.1s0.1,0,0.1,0c0,0,0,0,0.1,0c0.2,0.2,0.4,0.4,0.6,0.8c0.1,0,0.2-0.1,0.2-0.1c0,0,0-0.1,0-0.2s0-0.1,0-0.2
			v-0.9c0,0,0-0.1,0-0.1c0-0.1,0-0.1,0-0.2c0-0.1,0-0.3,0.1-0.5c0-0.2-0.1-0.4-0.1-0.8c0,0,0-0.1,0-0.3c0-0.1,0-0.2,0-0.2
			c0,0,0-0.1,0-0.1c0-0.1,0-0.1,0-0.2c0-0.1,0-0.3,0-0.4c0-0.2,0-0.4,0-0.5c0,0,0-0.1,0-0.2s0-0.1,0-0.2l0-0.2c0,0,0-0.1,0-0.3
			s0-0.2,0-0.3c0,0,0-0.1,0-0.2s0-0.1,0-0.2c0-0.2-0.1-0.6-0.2-1.1c-0.1-0.3-0.4-0.5-1-0.6c0-0.1,0-0.2,0-0.3
			c0.1-0.1,0.3-0.1,0.6-0.1l1.6,0.1c0,0,0.2,0,0.8-0.1c0.3,0,0.6,0,0.8,0.1V78.1z M370.7,84.8L370.7,84.8l-0.1,0l0-0.2
			C370.8,84.8,370.8,84.8,370.7,84.8z"/>
		<path class="st0" d="M386.9,77.8c0,0,0,0.1,0,0.2c0,0.1,0,0.4-0.1,0.7c-0.1,0.3-0.1,0.6-0.1,0.7c0,0.1,0,0.2,0,0.2
			c0,0.1-0.1,0.3-0.1,0.4c0,0.2,0.1,0.3,0.1,0.3c0,0,0,0.1-0.1,0.1c0,0.1,0,0.2,0.1,0.5c-0.1,0.1-0.3,0.2-0.4,0.2c0,0-0.1,0-0.2-0.1
			c0.1-0.3,0.1-0.6,0.1-0.6c0-0.1-0.1-0.2-0.1-0.4c-0.1-0.3-0.3-0.5-0.7-0.9c-0.1-0.1-0.4-0.3-0.9-0.5c-0.1,0-0.2-0.1-0.6-0.1
			c-0.2,0-0.5-0.1-0.9-0.1c-1.2,0-2.1,0.3-2.8,0.9c-0.1,0-0.2,0.1-0.4,0.3c-0.5,0.7-0.8,1.4-0.9,2.1c0,0.3,0,0.7,0,1.4v0.6
			c0,0,0,0.1,0.1,0.5c0,0.2,0,0.4,0.1,0.7c0,0,0.1,0.1,0.2,0.3c0,0.1,0,0.2,0.1,0.3c0.1,0.1,0.2,0.3,0.4,0.5c0,0.1,0.1,0.2,0.1,0.3
			c0.3,0.5,0.7,0.9,1.2,1.2c0.2,0.1,0.5,0.2,0.7,0.3c1.2,0.3,1.9,0.4,2.2,0.4c0.2,0,0.3,0,0.5-0.1c0.1,0,0.2,0,0.3-0.1l0-0.3
			c0-0.1,0-0.1-0.1-0.2c-0.1,0-0.2-0.1-0.2-0.1c-0.1-0.1-0.1-0.3,0-0.5v-1.4c0-0.3-0.1-0.6-0.2-0.8c0,0-0.1-0.1-0.1-0.2
			c-0.1-0.3-0.3-0.5-0.6-0.6c-0.1,0-0.4-0.1-0.9-0.1c0,0,0,0-0.1-0.1v-0.2c0.1,0,0.4-0.1,0.7-0.1c0,0,0.2,0,0.6,0c0.4,0,0.6,0,0.6,0
			c0,0,0.1,0,0.2,0c0.1,0,0.1,0,0.2,0c0.4,0,0.6,0,0.6,0c0.8,0,1.2,0,1.1,0v0.4c0,0,0,0.1-0.1,0.2c-0.1,0.1-0.1,0.2-0.1,0.3
			c-0.1,0.4-0.2,0.8-0.2,1.2c0,0.5,0,0.9,0,1.1c0,0.4,0,1,0.1,1.7c-0.3,0.1-1,0.3-2.1,0.6c-0.1,0-0.2,0-0.4,0
			c-0.3,0.1-0.5,0.1-0.6,0.1c0,0-0.1,0-0.1,0c-0.1,0-0.1,0-0.1,0c-0.6,0-1.1-0.1-1.5-0.2c-0.2-0.1-0.4-0.1-0.7-0.2
			c-0.6-0.1-1.3-0.5-2-1.1c-0.8-0.7-1.2-1.3-1.4-1.9c-0.1-0.1-0.1-0.3-0.2-0.6c0-0.1-0.1-0.2-0.2-0.4c-0.1-0.3-0.1-0.5-0.1-0.7
			c0,0,0-0.1,0-0.3c0-0.2,0-0.3,0-0.4c0-0.1,0-0.2,0-0.3c0-0.2,0.1-0.5,0.2-0.9c0.1-0.5,0.2-0.8,0.2-0.9c0.6-1,0.9-1.6,1.1-1.6
			c0,0,0,0,0.1,0c0,0,0,0,0.1,0c0.1,0,0.2,0,0.2-0.1c0-0.1,0.1-0.2,0.1-0.3c0.5-0.6,0.9-0.9,1-0.9c0,0,0.1,0,0.1,0c0,0,0,0,0.1,0
			s0.1,0,0.2-0.1c0.1-0.1,0.2-0.1,0.2-0.1c0,0,0.1,0,0.1,0c0,0,0.1,0,0.1,0c0,0,0.3-0.1,0.8-0.2c0.5-0.1,0.8-0.2,0.8-0.2h2.3
			c0,0,0.3,0,0.8,0.1c0.5,0.1,0.8,0.1,0.8,0.1c0,0,0.1,0,0.3,0S386.8,77.8,386.9,77.8z"/>
	</g>
</g>
<g>
</g>
<g>
</g>
<g>
</g>
<g>
</g>
<g>
</g>
<g>
</g>
</svg>
