<?xml version="1.0" encoding="utf-8"?>
<!-- Generator: Adobe Illustrator 21.0.2, SVG Export Plug-In . SVG Version: 6.00 Build 0)  -->
<svg version="1.0" id="Layer_1" xmlns="http://www.w3.org/2000/svg" xmlns:xlink="http://www.w3.org/1999/xlink" x="0px" y="0px"
	 viewBox="0 0 1280 281.1" style="enable-background:new 0 0 1280 281.1;" xml:space="preserve">
<style type="text/css">
	.st0{fill:#DCC14D;}
	.st1{fill:#FFFFFF;}
</style>
<g id="the_ring">
	<path class="st0" d="M140.5,0C62.9,0,0,62.9,0,140.5s62.9,140.5,140.5,140.5s140.5-62.9,140.5-140.5S218.2,0,140.5,0z M140.5,253
		c-62.1,0-112.4-50.3-112.4-112.4S78.4,28.1,140.5,28.1S253,78.4,253,140.5S202.6,253,140.5,253z"/>
	<path class="st1" d="M140.5,19c31.9,0,63,5.3,92.3,15.6c-2.7-2.3-5.4-4.5-8.2-6.7c-26.9-8.3-55.1-12.6-84.1-12.6
		s-57.2,4.3-84.1,12.6c-2.8,2.1-5.6,4.3-8.2,6.7C77.5,24.3,108.6,19,140.5,19z"/>
	<path class="st1" d="M62.4,47.4C86.9,26.9,114.1,11,143.1,0c-3.5-0.1-7.1,0-10.6,0.2C106.6,11.1,82.2,26,60,44.6S19,84.6,3.7,108.3
		c-0.8,3.4-1.5,6.9-2,10.4C17.6,92,38,68,62.4,47.4z"/>
	<path class="st1" d="M20.8,119.4C26.4,88,37.1,58.3,52.2,31.2c-2.7,2.2-5.4,4.5-8,7c-12.9,25-22,52.1-27.1,80.6s-5.7,57.1-2.1,85
		c1.6,3.2,3.3,6.2,5.1,9.3C15.2,182.4,15.3,150.9,20.8,119.4z"/>
	<path class="st1" d="M35.3,201.3c-16-27.6-26.9-57.3-32.7-87.7c-0.7,3.5-1.2,7-1.6,10.5c6.2,27.4,16.6,54.1,31.1,79.1
		s32.3,47.4,53,66.5c3.3,1.4,6.6,2.7,9.9,3.8C71.4,253.2,51.2,229,35.3,201.3z"/>
	<path class="st1" d="M99,254.7c-30-10.9-57.4-26.6-81.4-46.2c1.7,3.1,3.5,6.1,5.5,9.1c22.4,17,47.5,30.7,74.7,40.6
		c27.2,9.9,55.2,15.5,83.3,16.9c3.4-1,6.7-2.2,10-3.4C160,271.3,129,265.7,99,254.7z"/>
	<path class="st1" d="M182.1,254.7c-30,10.9-61.1,16.5-92.1,16.9c3.3,1.3,6.6,2.4,10,3.4c28.1-1.4,56.1-7,83.3-16.9
		c27.2-9.9,52.3-23.6,74.7-40.6c1.9-3,3.8-6,5.5-9.1C239.5,228.2,212.1,243.8,182.1,254.7z"/>
	<path class="st1" d="M245.8,201.3c-16,27.6-36.1,51.9-59.6,72.2c3.3-1.1,6.6-2.4,9.9-3.8c20.6-19.1,38.5-41.4,53-66.5
		c14.5-25.1,24.8-51.7,31.1-79.1c-0.4-3.5-1-7-1.6-10.5C272.7,144,261.8,173.7,245.8,201.3z"/>
	<path class="st1" d="M260.2,119.4c5.5,31.4,5.7,63,0.7,93.6c1.8-3,3.5-6.1,5.1-9.3c3.5-27.9,2.9-56.5-2.1-85s-14.2-55.6-27.1-80.6
		c-2.6-2.4-5.2-4.7-8-7C244,58.3,254.7,88,260.2,119.4z"/>
	<path class="st1" d="M218.7,47.4c24.5,20.5,44.9,44.6,60.7,71.3c-0.5-3.5-1.2-7-2-10.4c-15.2-23.6-34.1-45.1-56.3-63.7
		s-46.6-33.4-72.5-44.3C145,0,141.5,0,137.9,0C166.9,11,194.2,26.9,218.7,47.4z"/>
</g>
<g id="text">
	<g>
		<path d="M444.4,49.5c-0.1,0.6-0.2,1.2-0.3,2v5.1c-0.1,0-0.2,0-0.4,0.1c-0.2,0-0.3,0.1-0.4,0.1c0-0.1-0.1-1-0.3-2.6
			c-0.1-0.9-0.5-1.6-1.3-2.1c-0.3-0.2-1.1-0.2-2.3,0c-0.6,0.1-1.5,0.2-2.6,0.4c-0.4,0.1-0.6,0.4-0.7,0.7c-0.2,0.9-0.3,2.3-0.1,4
			c0.2,1.8,0.1,4.2-0.2,7.3c0,0,0.1,1,0.3,3c-0.1,0.7-0.1,1.7,0,3.1c0.2,0.7,0.4,1.9,0.7,3.4c0.1,0.7,0.6,1.2,1.5,1.4
			c0.7,0.2,1.3,0.3,2,0.5c0,0.2-0.2,0.5-0.5,1h-12.3c-0.1,0-0.2-0.1-0.2-0.3c0,0,0-0.2,0-0.3c0.5-0.1,1.1-0.3,2-0.6
			c0.8-0.4,1.3-0.9,1.7-1.5c0.1-0.2,0.2-0.8,0.3-2c0.1-2,0.1-4.1,0.2-6.3V58h0.6c0,0,0.1-0.1,0.2-0.2c-0.2-0.5-0.5-1.2-0.7-2.1
			c0-0.2-0.1-1.3-0.3-3.3h-4c-0.4,0-0.9,0.2-1.6,0.7c-0.6,0.5-1,0.8-1,1.1c-0.3,1.3-0.6,2.2-0.9,2.7c-0.1,0.2-0.5,0.4-1,0.4
			c0-0.1,0-0.2-0.1-0.5c0-0.3-0.1-0.5,0-0.6c0.2-0.6,0.3-1.5,0.5-2.8c0.2-1.5,0.3-2.5,0.4-3l0.7-0.9c-0.4,0,0.9-0.1,4-0.1
			c0.9,0,2.3,0.1,4.1,0.2c1.8,0.2,2.7,0.2,2.6,0.2h3.6c0,0,0.4-0.1,1.3-0.2c1-0.1,1.9-0.2,2.8-0.3c0.3,0,0.7-0.1,1-0.1
			C444,49.1,444.3,49.2,444.4,49.5z"/>
		<path d="M474.8,49.5c0,0.2-0.1,0.3-0.3,0.4c-0.6,0.2-1.1,0.4-1.6,0.7c-0.2,0.2-0.5,0.5-0.9,1c-0.3,0.5-0.5,0.9-0.5,1.2
			c0,1.3,0,1.8,0,1.5c-0.1,0.3-0.2,0.9-0.4,1.5c0,0.2,0.1,0.9,0.3,2.2c0.1,0.5,0.1,1,0.1,1.8c0,0.9,0,1.9-0.1,3.1
			c-0.1,1.2-0.1,1.8-0.1,1.7v3.2c0,3.3,0.4,5.6,1.2,6.8c0.1,0.2,0.5,0.5,1,0.8c0.5,0.3,0.9,0.4,1.3,0.4c-0.1,0.1-0.2,0.4-0.5,0.7
			h-10.2c0-0.1,0-0.2-0.1-0.4s-0.1-0.3-0.1-0.4c0.3-0.1,0.8-0.4,1.4-0.7c0.5-0.2,0.9-0.9,1.3-2c0.3-1,0.5-1.7,0.5-2.3v-3.2
			c0-0.2-0.1-0.8-0.2-1.8c-0.1-0.7-0.1-1.3,0-1.8c0.1-0.3-0.1-0.9-0.4-1.7c-0.7,0.5-1.8,0.9-3.2,1.2c-0.8,0.1-1.4,0.2-2,0.1
			c-0.8-0.1-1.2-0.2-1.2-0.2h-5.5c-0.3,0.2-0.8,0.5-1.3,1c-0.2,0.3-0.3,0.8-0.2,1.5c0.1,0.2,0.2,0.6,0.4,1.1c0-0.2-0.1,0.2-0.2,1.2
			c0,0.1,0,1.2,0.2,3.4c0.1,2.4,0.9,3.7,2.5,4c0.1,0,0.4,0.1,0.9,0.3c-0.5,0.5-1.1,0.8-1.7,0.8c-0.2,0-0.4,0-0.6-0.1
			c-0.3,0-0.5-0.1-0.5-0.1l-8.6-0.1c0-0.3,0.3-0.5,1-0.8c0.8-0.3,1.4-0.8,1.8-1.4c0.3-0.5,0.5-1.4,0.6-2.7c0.1-1.4,0.1-2.6,0-3.5
			c-0.1-0.1-0.1-0.3-0.3-0.5c0-1.1,0.1-2.8,0.2-5c0-0.1,0.1-0.3,0.2-0.7c0.1-0.3,0.2-0.6,0.2-0.8c-0.2-0.2-0.4-0.7-0.6-1.3
			c0,0.2,0.1-0.3,0.2-1.4c0-0.2,0-0.6-0.1-1c-0.1-0.5-0.1-0.7-0.1-0.8v-3.5c0-0.5-0.3-1-1-1.7s-1.3-1.1-1.9-1.3c0,0,0.2-0.3,0.5-0.7
			c0.5,0,1.3-0.1,2.4-0.2c1-0.1,1.6-0.1,1.6-0.1h4.1c0.2,0,0.4,0,0.6-0.1c0.2,0,0.3-0.1,0.4-0.1c0.3,0,0.8,0.3,1.5,0.8
			c-0.5,0.2-1,0.5-1.5,0.8c-0.6,0.3-1.1,0.7-1.4,1.1c-0.5,0.6-0.7,1.8-0.7,3.6V60c0,0.1,0,0.2,0.1,0.3s0.1,0.2,0.1,0.2
			c0.7,0.3,1.3,0.5,1.7,0.5h8.6c0.3,0,0.8,0.1,1.4,0.3c0,0,0.2,0.1,0.6,0.3c0.3,0.1,0.5,0.2,0.7,0.2c0.1,0,0.2,0,0.3,0
			c0.5-0.6,0.7-1.2,0.7-2c0-0.4-0.1-1-0.2-1.7c-0.2-0.7-0.2-1.3-0.2-1.5c0-0.2,0-0.7-0.1-1.4c-0.1-0.8-0.2-1.4-0.2-1.7
			c-0.1-1.4-1.1-2.7-3.2-3.8c0.3-0.3,0.5-0.4,0.6-0.4h3.2c-0.2,0,0.4,0,1.8,0c1.2,0,2.2-0.1,2.8,0C472.6,49.2,473.6,49.3,474.8,49.5
			z"/>
		<path d="M498.4,69.5c0,0.8-0.1,1.8-0.3,3.2c-0.2,0.4-0.4,0.9-0.7,1.6c-0.1,0.3-0.2,0.7-0.3,1.2c-0.1,0.2-0.2,0.4-0.6,0.8
			c-0.4,0.5-0.7,0.7-0.9,0.7h-5.6c-0.1,0-0.8,0-2-0.1s-1.9-0.1-2-0.1h-3.4c-0.1,0-0.5,0-1.3-0.1c-0.8-0.1-1.3-0.1-1.4-0.1h-3.3
			l-0.3-0.3c0.2-0.2,0.8-0.6,1.9-1.3c0.8-0.5,1.1-1.1,1.1-1.7v-6.9c0-1.1,0.2-2.6,0.5-4.5c-0.2-0.6-0.2-1.3-0.1-2.2
			c-0.3-0.2-0.4-0.5-0.4-0.9c0,0,0.1-0.6,0.4-1.8c0-0.1-0.1-0.3-0.2-0.6c-0.2-0.4-0.3-0.6-0.3-0.6c-0.1-0.3-0.1-0.8-0.1-1.4
			c0-0.9,0-1.4,0-1.5c0-0.5-0.1-0.9-0.3-1.2c-0.2-0.4-0.6-0.8-1.1-1c-0.4-0.2-0.9-0.4-1.3-0.6c0.2-0.5,0.4-0.7,0.7-0.8
			c0.5,0.1,1.1,0.1,1.9,0c0.9-0.2,1.4-0.3,1.4-0.3h3.9c0.1,0,0.5,0.1,1.3,0.2c0.8,0.1,1.4,0.2,1.9,0.2c0.2,0,1.6-0.1,4.4-0.3
			c0.6,0,2.3,0,4.9,0.1c0.2,0.2,0.3,0.4,0.3,0.6c0,0.1,0,0.3-0.1,0.6c-0.1,0.2-0.1,0.4-0.1,0.5c0,0.5-0.2,2.1-0.5,4.7
			c0,0.1-0.3,0.2-0.6,0.4c-0.1-0.1-0.4-0.9-0.8-2.3c-0.3-0.9-0.8-1.4-1.6-1.5c-0.3-0.1-0.6-0.1-1-0.2c-0.5-0.1-0.8-0.1-1,0
			c-0.6,0.2-2,0.2-4.2,0.1c-1.2-0.1-2.1-0.1-2.7,0.1c-0.2,0-0.3,0.2-0.3,0.5c0.5,1.7,0.5,3.2,0.1,4.5c0-0.1,0,0.3,0,1.1
			c0,0.2,0,0.6-0.1,1.3c-0.1,0.5-0.1,0.9,0,1.3c0,0.1,0.2,0.3,0.4,0.6h8.2c0.3-0.1,0.5-0.2,0.8-0.3c0.4-0.1,0.7-0.4,0.8-0.7
			c0.1-0.4,0.4-0.9,0.8-1.6c0.5,0,0.8,0.2,0.9,0.5c-0.1,0.8-0.1,1.9-0.2,3.2c0,0.9-0.1,2.1-0.3,3.8c-0.1,0.2-0.3,0.3-0.9,0.2
			c-0.2-0.3-0.5-0.8-1-1.4c-0.9-0.7-1.7-1-2.4-1h-3c-0.2,0-0.6,0-1.1-0.1c-0.6-0.1-1-0.1-1.2-0.1c-0.8,0-1.3,0.2-1.5,0.7
			c-0.2,0.5-0.3,0.9-0.3,1.2c0,0.3,0.1,0.8,0.2,1.5c0.1,0.7,0.1,1.3,0.1,1.7c0,0.2-0.1,0.6-0.2,1.1s-0.2,1-0.2,1.3
			c0,0.2,0,0.5,0.1,0.7c0.1,0.3,0.5,0.8,1.2,1.3s1.3,0.8,1.8,0.8c0.1,0,0.1,0.1,0.2,0.1c0.1,0,0.3,0.1,0.4,0.1h3.6
			c0.8,0,1.5-0.1,2-0.4c0.8-0.3,1.5-0.9,2.2-1.7c0.8-0.9,1.2-1.8,1.3-2.6C497.4,69.4,497.8,69.3,498.4,69.5z"/>
	</g>
	<g>
		<path d="M448.1,198.3c0.1,1.8-0.2,4.1-0.9,7c-0.9,3.3-2.1,8.4-3.4,15.1c-0.9,6.6-2.4,9.9-4.4,10c-2.2,0.1-4.6,0-7.1-0.1
			c-3.3-0.2-6.2-0.3-8.8-0.3c-6,0-10.7-0.1-14.3-0.3c-3.6-0.2-5-0.3-4.3-0.3c-2.7,0-6,0.1-9.9,0.4c-0.3-0.1-0.8-0.2-1.3-0.4
			c-1.1-0.3-6.6-0.4-16.7-0.4h-15.3c-0.2,0-0.7-0.1-1.5-0.3c-0.8-0.2-1.5-0.3-1.9-0.3c0.2-1,0.5-2.4,0.9-4.1
			c1.2-0.2,2.9-0.7,5.1-1.3c2.2-1.1,4-2.9,5.2-5.5c0.7-0.7,1.4-1.7,2.2-3c0.1-0.8-0.1-2.1-0.5-3.9c-0.4-1.8-0.5-3.1-0.5-3.9
			c0.6,0.1,1.8-0.8,3.8-2.6c-0.1-0.2-0.6-1.1-1.3-2.7c-0.1-0.1-0.5-0.2-1.3-0.3c-1.1-1-0.9-2.6,0.8-4.7c0.9-1.2,1.4-2.9,1.4-4.9
			c0-1.2-0.2-2.9-0.6-5.1s-0.6-3.6-0.6-4.2c0-0.3,0.1-0.8,0.4-1.4c0.3-0.7,0.4-1.1,0.4-1.3v-7.8c0-0.2,0.2-0.8,0.5-1.9
			c0.3-1.1,0.5-2,0.6-2.6c0-0.3-0.3-1.4-0.8-3.3c0.1,0.2,0.2-0.9,0.4-3.3c0.1-0.6,0-1.3-0.3-2.2c-0.3-1.1-0.4-1.9-0.4-2.3
			c-0.1-0.8,0.1-2.3,0.4-4.5c0.3-2.4,0.5-4,0.6-4.8c0-0.9-0.1-2.4-0.3-4.4s-0.3-3-0.3-3.1v-8c0-0.3,0.2-0.8,0.5-1.3l-0.5-8.9
			c-0.2-2.4-0.1-4.3,0.2-5.7c0.2-0.7,0.3-1.5,0.3-2.3c0-1.5-0.3-3.3-0.9-5.5c-0.5-1.7-1-3.4-1.5-5.1c-0.1-0.1,0-1.6,0.1-4.5
			c0,0.1-0.2-6-0.6-18.3c-0.2-0.9-0.4-2.3-0.8-4.2c0-0.1,0.1-1.2,0.4-3.3c0.1-0.4-0.1-1-0.4-2c-0.3-0.9-0.5-1.5-0.6-1.9
			c0.1,0.3,0.3-1.3,0.8-4.8c-0.9-1.7-2.5-4-4.9-6.9c-0.7-0.5-1.7-0.8-3.2-0.9c-1.8-0.2-3-0.3-3.3-0.4c-0.3-0.4-0.3-1.1,0-2.2
			c0.3-1,0.7-1.6,1.2-1.9c2.3-0.2,3.4-0.3,3.3-0.3c4.7,0.3,11.8,0.7,21.3,1.2c2.4,0.1,3.4,0.2,2.9,0.2c8.8-0.9,13.1-1.4,12.7-1.4h12
			c0.1,1.1-0.2,2.5-0.9,4.1c-1.9,0.4-4.9,0.9-8.8,1.7c-3.7,0.6-6.4,3.3-8.1,8.2c-0.4,1.4-0.9,4-1.5,7.8c-0.7,5.5-1,9.3-1,11.6V168
			c0,0.2,0.1,0.8,0.2,1.8c0.1,1,0.2,1.7,0.2,2c0.2,3.4,0.2,6.4,0,9c-0.2,3.8,0.3,5.8,1.4,6.2c-0.1-0.2-0.2,1.6-0.4,5.2
			c-0.1,0-0.2,0.1-0.4,0.3c1.5,7.1,2.3,11.2,2.3,12.3c-0.8,1.2-1.6,3.1-2.5,5.7c-0.1,0.7,0.7,3,2.3,7c2.2,0.1,5.4,0.4,9.8,0.8
			c0.8,0.1,2,0.8,3.6,2c0.3-0.4,0.9-1.1,1.8-2c1.4-0.1,3.3,0.1,5.8,0.3c2.7,0.2,4.7,0.3,5.9,0.3c0.2,0,0.7-0.2,1.5-0.7
			c0.8-0.5,1.4-0.8,1.8-0.9c1.5-0.3,3.7-0.8,6.6-1.7c0.6-0.2,1.6-1.4,3.1-3.5l3.2-4.5c3.2-4,4.8-7.5,4.8-10.6
			C444.5,197.3,446.1,197.7,448.1,198.3z M376,102.5c-0.1-1.4-0.1-2.9-0.1-4.6c0-1.6,0.1-4.1,0.2-7.3c0.1-3.3,0.2-5.7,0.2-7.3
			c0-7.2-0.9-12.9-2.6-17c-0.3,0.6-0.4,1.8-0.2,3.6c0.2,1.3,0.3,2.6,0.5,3.8C374.3,80.6,374.9,90.3,376,102.5z"/>
		<path d="M516,135.3c0,3.2-0.1,5.6-0.3,7.3c-0.6,1.3-1.1,3.3-1.8,5.9c-0.1,2.7-0.7,5.5-1.8,8.5c-0.9,1.1-2.2,2.9-3.9,5.4
			c-0.4,1.7-1.7,4.1-3.7,7.2c-1.6,1.6-4.1,4.1-7.3,7.5c-0.5,0.2-1.1,0.4-1.9,0.8c-0.7,0.7-2,1.6-3.8,2.9c-9.1,4.8-17.8,7.6-26,8.3
			h-11c0.1,0-0.1-0.2-0.7-0.5c-6-0.2-10.5-1-13.5-2.5c-0.8-0.2-1.8-0.4-3.2-0.8c-2.2-0.9-5.6-2.5-10-4.8c-5.3-3.4-10.4-8.2-15-14.4
			c-2.6-3.4-4.9-7.9-6.9-13.4c-1.9-5.1-3-9.3-3.2-12.8c-0.4-5.9-0.2-11.7,0.7-17.4c0.3-0.7,0.8-1.8,1.3-3.1c0.3-1.7,0.9-4.1,1.8-7.3
			c1.2-1.9,2.8-4.8,4.8-8.5c0.3-0.6,0.4-1.3,0.4-2.2c0.3-0.3,0.8-0.2,1.7,0.3c0.3-0.8,0.3-1.9,0-3.3c0.7-0.2,1.8-0.7,3.1-1.4
			c0.4-1.2,1.5-2.6,3.2-4.3c3.3-1.8,8.4-4.4,15.1-7.8c1.7-0.8,3.9-1.6,6.6-2.2c6.8-1.6,11.4-2.3,13.9-2.3h6.5c5.1,0,9.4,0.5,13,1.4
			c1.9,0.6,6.2,2.1,12.9,4.7c1.4,0.9,3.6,2.3,6.6,4.2c4.3,2.8,8.3,6.6,11.9,11.4c3.2,4.3,5.2,8.3,6.2,12c0.4,0.6,1,1.5,1.7,2.8
			c1.2,3.3,1.9,8.3,2.1,14.9c0,0.2,0.1,0.7,0.4,1.5C515.9,134.2,516,134.9,516,135.3z M497.5,137.5c-0.5-7-1.9-13.4-4.1-19.2
			c-2.8-7.5-6.2-13.3-10-17.6c-5.5-6-11.4-9.5-17.9-10.6c-6.1-1-10.3-1.3-12.6-1c-4.5,0.6-8.2,1.5-11.4,2.9
			c-0.4,0.2-2.9,1.6-7.6,4.4c-0.3,0.6-0.8,1.2-1.5,2c-0.4,0.1-0.9,0.3-1.5,0.5c-1.1,1.4-2.5,3.4-4.2,5.8c-0.2,0.7-0.6,1.6-1.1,2.8
			c-0.8,1.3-1.7,2.9-2.7,4.8c-0.5,2.1-1.3,5.1-2.3,9.3c0.1,1.6,0,3.9-0.1,7.1c0,0.2-0.1,0.5-0.3,1.1c-0.2,0.6-0.3,0.9-0.3,1.2
			c0.8,3.6,1.9,8.6,3.3,15c-0.2,0.4-0.3,1-0.3,1.6c0.4,0.8,0.9,1.8,1.7,3.2c0.1,0.7,0.2,1.7,0.5,2.8c2.3,4.7,3.6,7.1,3.7,7.2
			c1.7,2.9,4,5.6,6.8,8.3c0.1,0.1,0.4,1.2,1.1,3.4c0.2,0.1,1.2,0.2,2.8,0.5c2.7,2.5,4.8,4.2,6.3,5.1c4.1,2.4,11.6,3.2,22.4,2.3
			c0.9-0.3,2.1-0.6,3.5-1.1c1.8-0.4,4.5-1.3,7.9-2.8c0.8-0.7,1.8-1.6,3.1-2.6c5.6-3.4,8.9-7.7,9.9-12.8c0.6-0.7,1.2-1.6,2-2.8
			c0.1-1.1,0.3-2.3,0.5-3.8c0.3-0.3,0.7-0.9,1-1.6c0.1-1.3,0.4-4.1,0.8-8.3C497.5,141.1,497.6,138.8,497.5,137.5z"/>
		<path d="M619.6,185.6c-0.4,0.6-1.2,1.4-2.2,2.3c-2.5,1.4-4.3,2.1-5.4,2.1h-10c-3.4,0-5.9-0.1-7.6-0.4c-1.2-0.4-3.1-1.1-5.6-1.9
			c-2.1-0.7-5.8-4-11.1-10c-0.4-0.5-2.6-4.1-6.5-10.8c-3.5-6.1-6.3-11.2-8.3-15.3c-0.5-1.6-1.4-3.6-2.7-6c-0.6-0.6-1.9-0.8-4.2-0.7
			c-1.4,0.2-2.8,0.3-4.3,0.5c-1.8-0.1-4.6-0.1-8.2-0.1c-0.4,0-0.9,0.3-1.4,1c0.2,2.2,0.5,9,0.8,20.5c0.1,2.2,0.5,5.1,1.3,8.8
			c0,1,0.3,2.5,0.8,4.4c1.2,2,3.1,3.5,5.7,4.3c2.1,0.6,4.2,1.2,6.3,1.8c0.1,0.6,0,1.3-0.2,2.2c-1.6,0.7-3.3,1-4.9,1h-8.8
			c-0.1,0-0.9-0.1-2.3-0.4c-1.4-0.3-2.4-0.4-3-0.4c-1.7,0-6.2,0.3-13.5,0.8h-8.4c-0.8,0-1.8-0.3-3-0.8c0-0.2-0.1-0.5-0.2-1
			c-0.1-0.5-0.2-0.9-0.2-1.1c2.9-0.8,4.7-1.3,5.3-1.7c2.1-0.9,3.7-2.6,5-4.8c0.6-1,0.9-3.6,1.2-7.7c0-0.7,0.2-2.4,0.6-5.2
			c0.3-2.6,0.5-4.5,0.5-5.8c0-7.6,0.1-11.7,0.2-12.3c0.1-0.6,0.7-1.6,1.5-3c-0.4-0.4-0.9-1.1-1.5-2.3c-0.3-1-0.4-2.4-0.4-4.3V131
			c0-0.1-0.1-0.9-0.3-2.6c0.1,0.7,0.3-3,0.8-11c-0.1-0.1-0.2-0.3-0.4-0.6c-0.6-2.2-0.6-5,0.1-8.6c0.2-1-0.1-4.3-1.1-10
			c-0.1-1.8-0.6-4.1-1.5-7c-1.2-1.5-2.8-2.4-4.8-2.8c-1.7-0.4-3.3-0.8-4.9-1.1c0-3.2-0.1-3.8-0.3-2c0.1-0.9,0.7-1.4,1.7-1.4
			c2.3-0.1,5.9-0.4,10.9-0.8c4.6-0.4,7-0.7,7.1-0.7h10.8c2,0,4.1-0.2,6.2-0.5c2.1-0.3,3.9-0.5,5.4-0.5c1.9,0,4.3,0.2,7.1,0.5
			c1.8,0.4,4.4,0.9,7.8,1.7c0.3,0.2,0.9,0.5,1.7,0.8c5.3,0.8,10.1,3.4,14.2,7.6c2.3,2.4,4.3,6.6,6.1,12.7c0.1,0.9,0.1,2.2,0.3,3.9
			c0.1,1.4,0,3.5-0.3,6.3c-0.7,5.9-2.1,10.4-4.2,13.4c-1.9,2.8-5.5,6.7-10.9,11.7c-0.1,1.2,0.2,2.2,0.7,3.1
			c3.5,6.7,7,13.5,10.5,20.2c4.2,7.3,9.2,13.5,15.2,18.6c0.5,0.4,2.6,1.2,6.2,2.2c2.2,0.6,4,0.7,5.5,0.4c2.2-0.4,3.8-0.6,4.8-0.5
			C619.5,184.2,619.6,184.8,619.6,185.6z M573.8,114.1c0-1.8-0.1-3.1-0.4-3.7c-2.8-7.4-5.1-12.1-7.1-14.2c-2.7-2.9-5.6-4.7-8.9-5.5
			c-2.2-0.5-5.7-0.6-10.5-0.4c-0.5,0.1-1.3,0.4-2.3,0.9c-0.9,9.6-1.4,17.3-1.7,23.2c0.3,0.4,0.6,1.1,0.8,1.9c0,0.8-0.3,4-0.8,9.5
			c-0.3,3.7-0.3,7.3,0.3,11c0.2,0.2,0.4,0.4,0.7,0.8h8.3c0.9,0.2,1.9,0.3,3,0.3c3.3,0,6.4-1,9.5-3.1c3-2.1,4.9-3.8,5.6-5.1
			C572.6,125.2,573.8,120,573.8,114.1z"/>
		<path d="M713.9,127.2c0.3,2.8,0.1,7.8-0.8,15c-0.6,2.2-1.4,5.5-2.4,9.8c-2.3,9.5-6.4,17-12.4,22.6c-2.3,2.2-5.3,4.3-9,6.5
			c-4.3,2.6-7.8,4-10.5,4.3c-0.3,0.2-0.9,0.5-1.7,0.8c-8.2,1.2-12.2,1.8-11.9,1.8h-54.3c-0.4-1.9-0.3-3.2,0.4-3.7
			c2.3-0.8,4-1.3,4.8-1.3c0.3-0.4,0.8-1.1,1.4-1.8c2.6-2.7,3.9-5.7,3.9-9c0-0.1-0.2-0.8-0.5-2.1c0.2-0.6,0.4-1.4,0.5-2.4
			c-0.2-0.4-0.5-1.1-0.8-2.1c-0.1-0.3,0.1-1,0.3-1.9c0.3-0.9,0.4-1.6,0.5-2c0.1-2.1,0.2-5.5,0.2-10v-9.4c-0.1-6.4,0-15.7,0.2-27.9
			c0-0.2-0.1-0.5-0.4-1.1c-0.3-0.6-0.4-1-0.4-1.3c0-0.9,0.1-2.3,0.4-4.1c0.3-1.9,0.4-3.3,0.4-4.2c0-0.2-0.2-0.6-0.5-1.3
			c-0.3-0.6-0.6-1.1-0.7-1.5c0.1-1.1,0-2.7-0.3-4.8c-0.9-3.7-2.4-6.1-4.3-7.1c-1.6-0.8-4.2-1.4-8-2c-0.1-0.3-0.1-1.1-0.1-2.2
			c2.4-1.2,4.8-1.5,7.2-1c0.8,0.6,1.3,0.9,1.6,0.8c0.4-0.2,0.9-0.5,1.4-0.8c1.8-0.1,3.7-0.1,5.5-0.2c2,0.1,3.6,0.9,4.7,2.5
			c0.2,0,0.4,0,0.6-0.1c0.5-0.8,1.3-1.9,2.5-3.3c1.3,0.2,3.2,0.5,5.6,0.8c0.1,0.1,0.3-0.1,0.7-0.5c0.4-0.4,0.7-0.6,1-0.8
			c1.7-0.6,4.3-0.8,7.8-0.8h21.2c9.2,2.1,15.7,3.9,19.5,5.6c7.2,3.1,13.1,7.9,17.7,14.4c0.9,1.2,2.3,3.2,3.9,5.9
			C711.1,112.2,712.8,118.8,713.9,127.2z M710.1,127.1c-6.8-0.4-11.6-0.6-14.4-0.5c-0.4-0.2-0.6-1.2-0.5-2.8c-1-2.4-2.6-6-4.8-10.5
			c-3-6-6.2-10.8-9.8-14.3c-3.6-3.5-9.3-6-17.4-7.5c-3.6-0.6-5.3-0.9-4.9-0.9h-8.6c-0.2,0-1.8,0.3-4.6,0.8c-2.8,0.5-4.7,0.8-5.7,1
			c-0.8,3.9-1.1,8.1-0.9,12.7c0.1,2.2,0.2,6.6,0.2,13.3v33c0-0.1-0.1,0.9-0.3,2.8c-0.1,1.7-0.1,3,0,3.8c0.3,3.2,0.4,4.6,0.4,4.2
			c-0.2,2.2-0.2,4.1-0.1,5.6c0,0.3,0.2,1.1,0.5,2.3c0.3,0.9,0.4,1.7,0.3,2.2c-0.1,0.1-1,0.4-2.8,1.1c-1.3,0.6-2.1,1.3-2.3,2.2
			c0.9,0.8,2.2,1.3,3.8,1.5c1.1,0.1,2.2,0.1,3.3,0.1c11.2,1.3,17.7,1.9,19.5,1.9c5.3,0,10-0.8,14-2.4c3.6-1.4,6.5-3.3,8.8-5.7
			c4.9-5,8.2-11.1,9.8-18.4c0.8-3.6,1.3-9.5,1.7-17.8c0-0.7-0.5-1.6-1.5-2.8c-0.1-0.8,0.1-1.2,0.5-1.3c0.8-0.3,2.6-0.6,5.2-0.9
			c2.3-0.2,5.5-0.6,9.8-1.1C709.9,128,710.1,127.6,710.1,127.1z"/>
	</g>
	<g>
		<path d="M790.2,108.9c0,1.3,0,2.3-0.1,3c-0.2,0.5-0.5,1.3-0.7,2.4c0,1.1-0.3,2.3-0.7,3.5c-0.4,0.5-0.9,1.2-1.6,2.2
			c-0.2,0.7-0.7,1.7-1.5,3c-0.7,0.7-1.7,1.7-3,3.1c-0.2,0.1-0.5,0.2-0.8,0.3c-0.3,0.3-0.8,0.7-1.6,1.2c-3.8,2-7.4,3.1-10.8,3.4h-4.6
			c0,0,0-0.1-0.3-0.2c-2.5-0.1-4.3-0.4-5.6-1c-0.3-0.1-0.8-0.2-1.3-0.3c-0.9-0.4-2.3-1-4.1-2c-2.2-1.4-4.3-3.4-6.2-5.9
			c-1.1-1.4-2-3.3-2.9-5.5c-0.8-2.1-1.2-3.8-1.3-5.3c-0.2-2.4-0.1-4.8,0.3-7.2c0.1-0.3,0.3-0.7,0.6-1.3c0.1-0.7,0.4-1.7,0.7-3
			c0.5-0.8,1.2-2,2-3.5c0.1-0.3,0.2-0.6,0.2-0.9c0.1-0.1,0.3-0.1,0.7,0.1c0.1-0.3,0.1-0.8,0-1.4c0.3-0.1,0.7-0.3,1.3-0.6
			c0.2-0.5,0.6-1.1,1.3-1.8c1.4-0.7,3.5-1.8,6.2-3.2c0.7-0.3,1.6-0.6,2.7-0.9c2.8-0.6,4.7-1,5.7-1h2.7c2.1,0,3.9,0.2,5.4,0.6
			c0.8,0.2,2.6,0.9,5.3,1.9c0.6,0.4,1.5,0.9,2.7,1.7c1.8,1.1,3.4,2.7,4.9,4.7c1.3,1.8,2.2,3.4,2.6,5c0.2,0.3,0.4,0.6,0.7,1.1
			c0.5,1.4,0.8,3.4,0.9,6.1c0,0.1,0.1,0.3,0.2,0.6C790.2,108.4,790.2,108.7,790.2,108.9z M782.6,109.8c-0.2-2.9-0.8-5.5-1.7-7.9
			c-1.2-3.1-2.6-5.5-4.1-7.3c-2.3-2.5-4.7-3.9-7.4-4.4c-2.5-0.4-4.3-0.6-5.2-0.4c-1.8,0.2-3.4,0.6-4.7,1.2c-0.2,0.1-1.2,0.7-3.1,1.8
			c-0.1,0.2-0.3,0.5-0.6,0.8c-0.2,0-0.4,0.1-0.6,0.2c-0.5,0.6-1,1.4-1.7,2.4c-0.1,0.3-0.2,0.7-0.4,1.2c-0.3,0.6-0.7,1.2-1.1,2
			c-0.2,0.9-0.5,2.1-1,3.8c0,0.6,0,1.6,0,2.9c0,0.1,0,0.2-0.1,0.4c-0.1,0.2-0.1,0.4-0.1,0.5c0.3,1.5,0.8,3.6,1.4,6.2
			c-0.1,0.2-0.1,0.4-0.1,0.7c0.2,0.3,0.4,0.8,0.7,1.3c0,0.3,0.1,0.7,0.2,1.2c1,1.9,1.5,2.9,1.5,3c0.7,1.2,1.6,2.3,2.8,3.4
			c0,0,0.2,0.5,0.4,1.4c0.1,0,0.5,0.1,1.2,0.2c1.1,1,2,1.7,2.6,2.1c1.7,1,4.8,1.3,9.2,0.9c0.4-0.1,0.8-0.3,1.4-0.4
			c0.8-0.2,1.8-0.5,3.3-1.1c0.3-0.3,0.7-0.7,1.3-1.1c2.3-1.4,3.7-3.2,4.1-5.3c0.2-0.3,0.5-0.7,0.8-1.2c0-0.4,0.1-1,0.2-1.6
			c0.1-0.1,0.3-0.4,0.4-0.7c0-0.5,0.2-1.7,0.3-3.4C782.6,111.3,782.6,110.3,782.6,109.8z"/>
		<path d="M821.5,87.5c0.2,1.1,0.1,4.1-0.2,9.1c0,0.4-0.3,0.9-0.9,1.4c-0.1,0-0.5,0-1.1,0c-0.1-1.6-0.3-2.8-0.5-3.4
			c-0.4-1.4-1.2-2.2-2.3-2.5c-1.1-0.3-3.4-0.5-7-0.5h-6c-1.1,0-1.7,1.1-1.7,3.3c0-0.3,0.1,0.9,0.3,3.6c0,0.6,0,1.5-0.2,2.8
			c-0.2,1.4-0.3,2.5-0.3,3.2c0,1,0.2,1.9,0.6,2.6h4.6c0.1,0,0.5,0.1,1.1,0.2c0.7,0.1,1.1,0.2,1.2,0.2h4.4c1.7,0,3.1-0.9,4.3-2.6
			c0.1-0.3,0.3-0.8,0.5-1.4c0.3-0.2,0.8-0.3,1.5-0.3c0.1,0.7,0.2,1.7,0.3,3.1c-0.1,1.7-0.3,4.9-0.8,9.8c-0.1,0.6-0.7,0.9-1.8,0.8
			c-0.2-0.9-0.4-1.9-0.6-2.8c-0.4-1.2-1-1.9-2-2.2c-0.6-0.2-2-0.2-4.3-0.2h-5.1c-0.2,0.1-0.8,0.2-1.7,0.1c-0.8,0-1.3,0.1-1.6,0.6
			c0,0.6,0,1.4-0.1,2.4c0,0.2-0.2,0.9-0.5,2.1c-0.3,0.9-0.4,1.5-0.3,2.1c0.2,0.3,0.3,0.7,0.5,1.3c0,0.4,0,1-0.1,1.9
			c-0.1,0.9-0.1,1.5-0.1,1.9c0,1.8,0.6,3.2,1.9,4.2c0,0,1.7,0.7,5.1,2c-0.4,0.5-1,0.8-1.7,0.8c1.4,0,0.7-0.1-2-0.1
			c-2.1,0-4.7-0.2-7.9-0.3c-1.7-0.1-2.8-0.1-3.3,0c-0.3,0.2-0.7,0.4-1.2,0.6c0,0-0.8-0.2-2.6-0.6c0.1-0.4,0.7-1,1.6-1.6
			c0.9-0.7,1.5-1.2,1.7-1.5c0.8-1.6,1.3-3.1,1.3-4.5v-8.3c0,0,0-0.8-0.1-2.4c-0.1-1.6-0.1-2.8-0.1-3.7c0,0.1,0-0.3,0.1-1.2
			c0-0.6,0-1.2,0-1.7c-0.1-0.7-0.2-1.2-0.5-1.7c0.8-1.1,1.2-2.5,1.2-4.1c0-1.6-0.4-3.3-1.2-5.3c0-0.4,0-1-0.1-1.7
			c0-0.4-0.1-0.7-0.2-1c-0.5-1-1.1-1.9-2-2.7c-0.3-0.3-0.8-0.4-1.8-0.5c-0.2-0.3-0.3-0.7-0.2-1.4c-0.1,0,1.5,0,4.7-0.1
			c5.1-0.1,12.8-0.1,23.2-0.2C818.4,87.2,819.7,87.3,821.5,87.5z"/>
	</g>
	<g>
		<path d="M758.6,137.2c-0.1,0.9-0.3,1.9-0.5,3.1v8c-0.1,0-0.3,0-0.6,0.1c-0.3,0.1-0.5,0.1-0.6,0.1c0-0.2-0.2-1.6-0.6-4.1
			c-0.2-1.5-0.9-2.6-2-3.4c-0.5-0.4-1.7-0.3-3.6,0.1c-0.9,0.1-2.3,0.3-4.1,0.7c-0.6,0.2-1,0.6-1.2,1.2c-0.4,1.5-0.4,3.6-0.1,6.4
			c0.3,2.8,0.2,6.6-0.3,11.5c0,0,0.1,1.6,0.4,4.8c-0.1,1.1-0.1,2.8-0.1,5c0.3,1.2,0.6,3,1.1,5.3c0.2,1.1,1,1.9,2.3,2.2
			c1.1,0.3,2.1,0.5,3.2,0.7c0,0.3-0.3,0.9-0.8,1.5h-19.6c-0.2,0-0.3-0.1-0.3-0.4c0-0.1,0-0.3,0-0.6c0.7-0.2,1.8-0.5,3.1-1
			c1.2-0.6,2.1-1.4,2.7-2.3c0.2-0.3,0.3-1.3,0.5-3.1c0.1-3.2,0.2-6.5,0.3-10v-12.4h0.9c0,0,0.1-0.1,0.2-0.3
			c-0.3-0.8-0.7-1.9-1.2-3.3c0-0.3-0.2-2-0.6-5.3h-6.4c-0.7,0-1.5,0.4-2.5,1.1c-1,0.7-1.5,1.3-1.6,1.8c-0.5,2-1,3.5-1.4,4.2
			c-0.2,0.4-0.7,0.6-1.6,0.6c0-0.1,0-0.4-0.1-0.9c-0.1-0.4-0.1-0.7,0-0.9c0.3-0.9,0.5-2.4,0.8-4.4c0.3-2.4,0.5-4,0.7-4.8l1.1-1.4
			c-0.7-0.1,1.4-0.1,6.3-0.1c1.4,0,3.6,0.1,6.5,0.4c2.9,0.3,4.3,0.4,4.2,0.4h5.7c0,0,0.7-0.1,2.1-0.3c1.5-0.2,3-0.4,4.4-0.4
			c0.5-0.1,1.1-0.1,1.6-0.2C758,136.7,758.4,136.8,758.6,137.2z"/>
		<path d="M806.8,137.3c0,0.3-0.1,0.5-0.4,0.7c-1,0.3-1.8,0.6-2.5,1c-0.4,0.3-0.9,0.8-1.4,1.6c-0.5,0.8-0.8,1.4-0.8,1.8
			c0,2.1,0,2.9,0.1,2.4c-0.2,0.6-0.4,1.4-0.6,2.4c0,0.3,0.1,1.5,0.4,3.6c0.1,0.7,0.1,1.6,0.1,2.8c0,1.4-0.1,3-0.2,4.9
			c-0.2,1.9-0.2,2.8-0.2,2.7v5.1c0,5.2,0.6,8.8,1.8,10.8c0.2,0.4,0.7,0.8,1.5,1.2c0.8,0.4,1.4,0.6,2,0.7c-0.1,0.2-0.4,0.6-0.8,1
			h-16.1c0-0.1,0-0.4-0.1-0.6c-0.1-0.3-0.1-0.5-0.1-0.6c0.5-0.2,1.2-0.6,2.2-1c0.7-0.3,1.4-1.4,2-3.2c0.5-1.5,0.8-2.7,0.8-3.6v-5
			c0-0.3-0.1-1.3-0.2-2.8c-0.1-1.2-0.1-2.1,0-2.8c0.1-0.5-0.1-1.4-0.6-2.7c-1.1,0.8-2.8,1.4-5.1,1.9c-1.2,0.2-2.2,0.3-3.1,0.1
			c-1.2-0.2-1.8-0.3-1.9-0.3h-8.7c-0.5,0.3-1.2,0.9-2,1.7c-0.3,0.6-0.5,1.3-0.3,2.3c0.2,0.4,0.4,1,0.6,1.7c-0.1-0.3-0.2,0.3-0.2,1.9
			c0,0.1,0.1,1.9,0.2,5.4c0.2,3.8,1.5,5.9,3.9,6.3c0.1,0,0.6,0.2,1.5,0.6c-0.8,0.9-1.7,1.3-2.7,1.3c-0.3,0-0.6,0-1-0.1
			c-0.5-0.1-0.7-0.1-0.9-0.1l-13.6-0.2c0-0.4,0.6-0.8,1.6-1.2c1.2-0.5,2.1-1.3,2.8-2.2c0.5-0.8,0.8-2.2,1-4.3c0.2-2.2,0.2-4,0.1-5.6
			c-0.1-0.2-0.2-0.4-0.4-0.8c0-1.8,0.1-4.4,0.3-7.9c0-0.1,0.1-0.5,0.4-1.1c0.2-0.5,0.3-1,0.3-1.3c-0.3-0.4-0.6-1.1-1-2
			c0.1,0.3,0.1-0.5,0.2-2.3c0-0.4,0-0.9-0.1-1.6c-0.1-0.7-0.2-1.1-0.2-1.2V143c0-0.7-0.5-1.6-1.6-2.7c-1-1-2.1-1.7-3.1-2
			c0,0,0.3-0.4,0.8-1.2c0.8,0,2.1-0.1,3.9-0.2c1.7-0.1,2.5-0.2,2.6-0.2h6.6c0.3,0,0.6,0,0.9-0.1c0.3-0.1,0.5-0.1,0.7-0.1
			c0.5,0,1.3,0.4,2.4,1.3c-0.8,0.4-1.6,0.8-2.4,1.2c-1,0.5-1.7,1.1-2.2,1.8c-0.7,1-1.1,2.9-1.1,5.7v7.4c0,0.1,0,0.3,0.1,0.4
			c0.1,0.2,0.1,0.3,0.1,0.4c1.1,0.5,2,0.7,2.8,0.7h13.7c0.5,0.1,1.2,0.2,2.1,0.4c0,0,0.3,0.1,0.9,0.4c0.5,0.2,0.8,0.3,1.1,0.3
			c0.2,0,0.3,0,0.4-0.1c0.7-0.9,1.1-1.9,1.1-3.2c0-0.6-0.1-1.5-0.4-2.7c-0.3-1.2-0.4-2-0.3-2.4c0-0.4-0.1-1.1-0.2-2.2
			c-0.2-1.3-0.3-2.2-0.3-2.7c-0.1-2.2-1.8-4.2-5.1-6c0.4-0.5,0.8-0.7,1-0.7h5.1c-0.3,0,0.7,0,2.9-0.1c1.9-0.1,3.4-0.1,4.4,0
			C803.3,136.7,804.8,137,806.8,137.3z"/>
		<path d="M844,168.9c-0.1,1.2-0.2,2.9-0.4,5.1c-0.3,0.6-0.6,1.4-1,2.5c-0.1,0.5-0.3,1.1-0.5,1.9c-0.1,0.3-0.4,0.7-0.9,1.3
			c-0.6,0.7-1.1,1.1-1.4,1.1h-8.8c-0.2,0-1.2,0-3.1-0.1c-1.9-0.1-2.9-0.1-3.1-0.1h-5.3c-0.1,0-0.8-0.1-2.1-0.2
			c-1.3-0.1-2-0.2-2.2-0.2h-5.2l-0.4-0.5c0.3-0.3,1.3-1,3-2.1c1.2-0.8,1.8-1.7,1.8-2.8V164c0-1.8,0.3-4.1,0.8-7.1
			c-0.3-0.9-0.4-2.1-0.2-3.4c-0.4-0.3-0.6-0.8-0.6-1.4c0,0,0.2-1,0.7-2.8c0-0.2-0.1-0.5-0.3-1c-0.3-0.6-0.5-0.9-0.5-0.9
			c-0.2-0.5-0.2-1.2-0.2-2.3c0-1.4,0-2.2,0-2.3c-0.1-0.8-0.2-1.4-0.5-1.9c-0.3-0.7-0.9-1.2-1.7-1.6c-0.7-0.3-1.4-0.6-2.1-0.9
			c0.3-0.8,0.7-1.2,1-1.2c0.7,0.1,1.7,0.1,3.1,0.1c1.5-0.3,2.2-0.5,2.1-0.5h6.1c0.1,0,0.8,0.1,2.1,0.2c1.3,0.2,2.3,0.3,2.9,0.3
			c0.3,0,2.6-0.1,6.9-0.4c1-0.1,3.6,0,7.8,0.2c0.4,0.3,0.6,0.6,0.6,0.9c0,0.2-0.1,0.5-0.2,0.9c-0.2,0.4-0.2,0.7-0.2,0.9
			c0,0.8-0.3,3.3-0.7,7.5c-0.1,0.1-0.4,0.4-1,0.7c-0.1-0.2-0.6-1.5-1.3-3.7c-0.5-1.4-1.3-2.2-2.6-2.4c-0.5-0.1-1-0.2-1.6-0.3
			c-0.7-0.2-1.3-0.2-1.7-0.1c-1,0.3-3.2,0.3-6.6,0.1c-1.9-0.1-3.3-0.1-4.2,0.1c-0.3,0.1-0.5,0.3-0.6,0.8c0.8,2.7,0.9,5.1,0.1,7.1
			c0-0.1,0.1,0.4,0.1,1.7c0,0.3-0.1,1-0.2,2c-0.1,0.8-0.1,1.5-0.1,2c0,0.2,0.2,0.5,0.7,0.9h13c0.4-0.1,0.8-0.3,1.2-0.4
			c0.6-0.2,1.1-0.6,1.3-1.1c0.2-0.6,0.7-1.4,1.3-2.5c0.7,0,1.2,0.3,1.4,0.8c-0.1,1.3-0.2,3-0.3,5c0,1.4-0.2,3.3-0.5,6
			c-0.1,0.4-0.6,0.5-1.4,0.4c-0.3-0.6-0.8-1.3-1.6-2.2c-1.4-1.1-2.7-1.6-3.8-1.6h-4.8c-0.3,0-0.9-0.1-1.8-0.2
			c-0.9-0.1-1.5-0.2-2-0.2c-1.2,0-2,0.4-2.3,1.1c-0.4,0.8-0.6,1.4-0.6,1.9c0,0.4,0.1,1.2,0.2,2.3c0.2,1.1,0.2,2,0.2,2.7
			c0,0.3-0.1,0.9-0.3,1.8c-0.2,0.9-0.3,1.6-0.3,2.1c0,0.4,0,0.7,0.1,1.1c0.2,0.6,0.8,1.2,1.9,2c1.1,0.8,2,1.2,2.8,1.3
			c0.1,0,0.2,0.1,0.3,0.1c0.2,0.1,0.4,0.1,0.6,0.1h5.7c1.3,0,2.4-0.2,3.2-0.6c1.2-0.6,2.4-1.5,3.6-2.8c1.3-1.4,1.9-2.8,2-4.1
			C842.4,168.7,843.2,168.6,844,168.9z"/>
	</g>
	<g>
		<path d="M983.7,194.7c0,0.7,0,1.3-0.1,2c-0.1,0.8-0.5,1.4-1.2,1.6c-0.7,0.3-2.1,0.5-4.3,0.8c-0.7,0.1-2.3,0.5-4.6,1.3
			c-2.1,0.7-3.7,1-4.8,1c-0.4,0-0.8,0-1.1-0.1c-0.3-0.1-0.9-0.4-1.6-1c-0.9-0.7-1.3-1.2-1.2-1.7c-0.6-0.3-1.8-0.3-3.5,0.3
			c1.2,0.6,2.6,1.4,4.3,2.3c-4.2,0.2-7-0.2-8.4-1.2c0.1-0.5,0.3-1.3,0.6-2.3c-0.1-0.1-0.2-0.2-0.5-0.3c0.3-0.1-2.1-0.3-7-0.8
			c0-0.1-0.2,0.1-0.6,0.4c0.4,0.2,1.1,0.5,1.9,0.9c-2.5,0.1-4.1-0.1-4.8-0.5c-0.7-0.9-1.3-1.8-2-2.6c-1.3-1.4-2.4-2.1-3.4-1.8
			c-1.3-1.7-4.3-4.9-9.1-9.6c-4.2-4-6.3-6.5-6.5-7.3c-0.6-0.3-1.3-0.9-2.1-1.8c-0.8-1.1-1.8-2.7-3-4.9c-0.2-0.6-0.7-0.9-1.3-0.9
			c-0.8-2.4-2.1-4.8-4.6-6.8c0.3-0.7,0.5-1-0.9-2.6c-1.9-2.2-1-2.3-1-3.9c0-0.3,0-0.6,0.1-0.8c0.2-0.2,0.8-0.1,1.8,0.1
			c0.3,0.2,0.7,0.5,1.3,0.9c1.2-0.2,2.2-0.7,2.9-1.3c1,0.9,2.3,2.3,3.9,4.1c0.8-0.2,1.3-0.7,1.3-1.5c0-1.4-0.8-2.1-2.4-2.1
			c0.1-0.1,0.2-0.3,0.4-0.6c0.1-0.3,0.3-0.4,0.4-0.5c0.3,0.3,0.9,0.7,1.7,1.2c0.4,0,0.8-0.2,1-0.5c0.2-0.7,0.2-1.5,0-2.5
			c-1.3-1.1-2.9-1.7-4.7-1.7c-1,0-2.5,0.2-4.4,0.7c-1.9,0.5-3.3,0.7-4.2,0.7c-1.1,0-2-0.2-2.8-0.7c-1.9-1.1,0.5,2.5-0.1-0.3
			c-0.3-0.2-0.6-0.5-1.1-0.9c0.1-0.2,0.1-0.4,0.2-0.7c0-0.9-0.5-1.7-1.4-2.3c-0.9-0.7-1.8-1-2.7-1c-3.2,0.1-7.5,0.1-12.9,0
			c-6.3-0.1-10.6-0.1-12.9-0.1c-0.5,0-0.8,0.3-0.8,0.8c-0.1,3.2-0.1,5.1,0,5.5v10.8c0.2,6.2,0.3,10.1,0.3,11.7
			c0,0.2-0.1,0.7-0.4,1.3c-0.3,0.7-0.3,1.2-0.2,1.6c0.5,0.7,1.1,1.9,1.8,3.5c0.6,4.1,0.8,6.7,0.6,7.8c-0.8,0.6-2,1.4-3.8,2.7
			c0,0.3,0.1,0.6,0.3,0.7c3.1,0.1,8.1,0.7,14.9,1.9c0.6,0.2,1.4,0.4,2.5,0.8c0.1,0.4,0,1.6-0.3,3.4c-0.9,0.7-1.7,1-2.3,1
			c-1.7,0-6.1-0.5-13.4-1.6l-18.1-0.3c-1.2,0.3-3,0.7-5.5,1c-4,0.2-8.7,0.3-14.1,0.3c0-0.9,0-2.3,0.1-4.1c1.8-0.7,4.4-1.5,7.8-2.4
			c1.8-0.4,3.7-1.9,5.7-4.4c2-2.5,3.1-4.5,3.2-6.1c0.7-7.7,1.1-12,1.1-12.7v-59.9c0-0.2-0.1-0.9-0.3-2c-0.2-1.1-0.3-1.9-0.3-2.3
			c-0.1-0.7,0.1-2.4,0.3-5.1c0.3-2.7,0.4-4.8,0.4-6.3c0-0.7-0.1-1.9-0.3-3.8c-0.3-2.1-0.4-3.6-0.4-4.6c-0.1-1.6-0.4-4-0.9-7.1
			c-0.4-0.8-0.9-2-1.6-3.6c-0.5-1.9-2.7-3.4-6.6-4.5c-0.5-0.2-1.4-0.6-2.6-1.1c-1,0-2.4-0.1-4.3-0.2c-1.3-0.9-1.5-2.2-0.6-4
			c1.6-0.4,4-0.8,7.2-1.3c9-0.7,14.2-1.1,15.6-1.1h11.9c0.2,0,1.8-0.2,4.7-0.5c2.9-0.3,4.5-0.5,4.8-0.5h6.7c0.3,0,1.2,0.1,2.7,0.3
			c1.7,0.2,2.9,0.3,3.6,0.3c1.1-0.2,2.6-0.3,4.6-0.4c5.7,0.7,12.2,1.9,19.5,3.6c2.7,0.6,8.1,4.1,16.2,10.6c0.3,0.4,0.3,1.1,0,1.8
			c-0.9,0.9-2.9,2.2-5.7,3.6c-2.9,1.5-4.8,2.7-5.8,3.8c0.1,0.7,0.8,1.1,1.9,1.3c1,0.1,1.9,0,2.8-0.3c0.1-0.3,0.4-0.7,1-1.1
			c1.6-0.3,2.7-0.4,3.3-0.4c0.3,0.9,0.9,1.9,1.9,2.9c0.9-0.3,1.3-0.9,1.3-1.8c-0.1-0.8-0.5-1.6-1.3-2.3c0.8-0.2,1.6-0.2,2.4,0
			c1.2,0.3,2.2,0.5,3.1,0.5c0.6,2.9,1.1,5.8,1.8,8.7c0.8,3.9,1.2,7.2,1.2,9.8c0,2.2-0.3,4.3-0.8,6.1c-0.8,3-2.4,7.5-4.8,13.4
			c-1.4,2.6-4.2,6.3-8.2,11.1c-0.1,0.2-2.7,2.2-7.8,6.1c1.6,3,3.8,6.2,6.6,9.8l1.5,2c1.3,2.5,2.4,4.3,3.1,5.3
			c0.1,0.4,0.3,0.9,0.6,1.5c3.1,3.8,2,3.9,7.9,11.4c0.2,0.3,0.2,0.6,0,0.9c2.3,1.8,5.3,4.3,8.8,7.6c1.6,1.6,3.7,3.9,6.4,7.1
			c-1.8,0.2-2.7,1-2.7,2.5c0,1.4,0.7,2.4,2.1,2.9c0.3-2,1.1-3,2.6-3c0.2,0,0.4,0,0.7,0.1c0.2,0.1,1.6,0.7,4.1,1.9
			c3.7,1.8,7.5,3.7,11.2,5.5C978.8,194.3,981,194.6,983.7,194.7z M925.9,106.6c-1.5-0.5-2.3-1.3-2.3-2.3v-8.8c0-0.3-0.1-0.6-0.3-1
			c-0.2-0.4-0.3-0.7-0.3-0.9c-0.3-3.6-2.1-7.6-5.3-12.1c-3.6-5-7.3-7.8-11.1-8.6c-0.6-0.3-1.3-0.7-2.3-1.1c-5.6-1.2-8.8-1.8-9.5-1.8
			h-7.3c-2.8,0-5.3,0.4-7.6,1.1c-0.2,0.1-0.9,0.8-1.9,2c0.4,3.3,0.6,5.1,0.5,5.5c0,0.1-0.1,0.2-0.3,0.5c-0.2,0.3-0.3,0.6-0.3,0.8
			v11.6c0,0.3-0.2,0.8-0.5,1.5c-0.3,0.7-0.5,1.2-0.4,1.5c0.3,1.3,0.7,2.6,1.1,3.9c0.4,1.4,0.4,2.7,0,3.8c-0.9,2.6-1,6.1-0.3,10.4
			c-0.1-0.9-0.2,0.4-0.2,3.9v11.9c0,0.7-0.1,1.6-0.3,2.7c-0.1,0.8-0.1,1.4-0.1,1.9c0.2,0.7,0.5,1.7,1.1,2.9c1.3,0.4,3.3,0.9,5.8,1.4
			l16.3,0.3c1.7-0.7,4.3-1.8,7.8-3.1c1.3-0.4,3.1-1.1,5.3-2.2c3.3-3,5.6-5.8,7-8.4c1.2-2.1,2.1-5,2.7-8.5c0.1-1.1,0.3-2.7,0.6-4.8
			c0.1-0.8,0.3-1.9,0.6-3.3C924.7,106.7,925.2,106.4,925.9,106.6z M917.2,152.7c-0.7,0.8-1.3,1.1-1.9,0.9c0.1-0.6,0.5-1.1,1.2-1.3
			C916.5,152.3,916.8,152.4,917.2,152.7z"/>
		<path d="M995.7,89.2c-0.2,0.8-0.6,2-1.1,3.5l-5,1.1c-2.1,0.5-3.5,1.4-4,2.8c-0.4,0.7-1,1.6-1.7,2.8c-0.1,0.4-0.8,3.6-2.2,9.7
			l-0.3,35.1c-0.4,1.4-0.6,2.2-0.6,2.3l0.6,1.8l-0.2,12.9c-0.4,1.8-0.4,4.2,0,7.3c0.4,3.6,1.2,6.6,2.3,8.8c0.4,0.8,1.4,1.6,2.9,2.6
			c2.9,1.7,5.8,2.5,8.7,2.4c-0.1,0.7-0.4,1.8-0.9,3.2h-9.7c-0.2,0-1.1-0.1-2.9-0.2c-1.8-0.1-2.7-0.2-2.8-0.2c-0.2,0-0.9,0.1-2.3,0.2
			c-1.3,0.1-2.1,0.2-2.2,0.2c-0.1,0-0.6-0.1-1.5-0.2c-0.9-0.1-1.5-0.2-1.6-0.2c-0.2,0-0.5,0.1-1.1,0.2c-0.6,0.1-1,0.2-1.1,0.2
			l-17.4,0.4c-1.5,0-2.3-0.6-2.3-1.7c0-1.3,0.4-2,1.2-2.3c1.8-0.3,3.6-0.6,5.3-0.9c2.1-0.4,3.4-1.2,4-2.3c0.2-0.7,0.6-1.7,1-3.1
			c0.8,0.1,2,0.2,3.6,0.5c0.6-2.3,0.8-3.8,0.8-4.4c0-0.6-0.3-1.4-0.8-2.5c0.4-1.1,0.5-2.1,0.3-2.8c-0.2-0.6-0.8-1.5-1.6-2.8
			c-0.7-1.2-1.1-1.8-1.1-2c0,0.4,0.5-1.3,1.4-5c0.1-0.4-0.1-1.1-0.5-1.9c0.9-1.6,1.4-2.6,1.4-3.2c0-0.1-0.1-1.9-0.4-5.4
			c0-0.3-0.2-0.8-0.6-1.6c-0.4-0.8-0.6-1.3-0.6-1.4c0-0.2,0.2-0.6,0.7-1.2c-0.1,0.2-0.2-0.1-0.2-0.9V131c0-0.2,0.1-0.7,0.4-1.5
			s0.4-1.3,0.4-1.5c0-0.1-0.1-0.3-0.3-0.6c-0.2-0.3-0.3-0.5-0.3-0.7c0,0.2,0.1-1,0.3-3.8c0-0.6-0.1-2.1-0.3-4.7v-6.6
			c0-0.6-0.4-1.5-1.2-2.7c0.2-0.6,0.1-1.8-0.5-3.4c-0.1-0.8-0.3-1.9-0.7-3.5c-0.4-0.5-1-1.2-1.7-2.2c-0.2-0.6-0.6-1.4-1.2-2.5
			c-1.1-1.7-2.2-2.8-3.2-3.3c-1.3-0.3-3.2-0.9-5.8-1.8c0.2-0.8,0.5-1.8,0.9-3h0.8c0.2,0,0.7,0.1,1.5,0.2c0.9,0.1,1.4,0.2,1.5,0.2
			L995.7,89.2z"/>
		<path d="M1111.1,83.5c-1.1,0.2-2.6,0.4-4.6,0.8c-2.1,0.6-3.8,1.9-5,4c-1.7,3.1-2.8,6.1-3.2,9c-0.7,5.1-1.1,9.3-1.1,12.5
			c0,0.2,0.1,2.6,0.3,7.2c0.2,4.6,0.3,7,0.3,7.3v13.3c0,0.2,0.1,0.7,0.3,1.7c0.2,0.9,0.3,1.7,0.2,2.2c-0.3,6.7-0.5,10.5-0.5,11.4
			c0,0.4,0.1,1.4,0.3,2.7c0.2,1.4,0.3,2.2,0.3,2.4v25.6c0,0.3,0,0.5,0.1,0.5c0.1,0,0.1,0.1,0.1,0.1c-3.9,0.7-5.6,1-5.3,1
			c-2.3,0-3.8-0.3-4.3-0.8c-3.8-3.6-9.5-9.8-17-18.7c-1.3-1.8-3.3-4.3-6-7.7c-2.3-2.3-5.5-5.6-9.5-10c-1-1.7-2.7-4.1-5-7.4
			c-5-6.1-12.1-15-21.3-26.8c-1.2-0.9-2.9-2.4-5-4.5c-0.1-0.4-0.2-0.9-0.5-1.7c-0.7-1.1-1.8-2.6-3.3-4.8c-1.2,0.6-1.8,1.4-1.8,2.6
			c0-0.1,0.4,2.8,1.2,8.5c0.1,0.3,0,0.8-0.2,1.5c-0.2,0.7-0.3,1.2-0.3,1.4c0,2.2,0.1,5.7,0.3,10.3c0.2,4.6,0.3,6.9,0.3,6.8v11.7
			c0,0.3,0,3.2,0.1,8.5c0.1,5.3,0.1,8.2,0.1,8.4c0,11.6,4.1,17.8,12.4,18.4c0.2,0,0.4,0.2,0.6,0.7c0.3,0.5,0.4,0.8,0.5,0.9
			c0.1,1-0.1,1.8-0.4,2.5h-29.1c-0.2,0-1.2,0.2-3,0.5c-1.8,0.3-2.9,0.5-3.1,0.5H998c-0.5-0.5-0.8-0.8-0.8-0.9c0-1.9,0.6-3.3,1.8-3.9
			c1.4-0.4,3.6-1.3,6.3-2.5c2.7-1.5,4.4-3.9,4.9-7.2c1.4-8.1,1.8-13,0.9-14.8c-0.4-0.8-0.4-1.4-0.2-2l0.7-0.8l-0.5-0.8
			c-0.1-0.6,0-1.7,0.1-3.2c0.1-1.5,0.2-2.6,0.2-3.3c0-0.8-0.2-2.1-0.5-4c-0.3-1.9-0.5-3.2-0.5-4c0,0.8,0.1-0.9,0.3-5.2
			c-0.1-0.2-0.3-0.7-0.8-1.7l0.4-0.4c0.2-0.3,0.4-0.9,0.4-1.8c0.1-0.2,0.1-0.4,0-0.6c-0.8-6.3-1.2-10.5-1.2-12.7v-11.5
			c-0.4-6.6-0.6-10.6-0.6-12c0-0.2,0.1-0.5,0.3-1.1c0.2-0.6,0.3-1,0.2-1.4c-4.2-4.5-9.5-6.5-15.9-6l-0.4-0.4v-2.8
			c0.6-0.7,2.1-1.1,4.5-1.1c0.3,0,2.5,0.1,6.7,0.3c4.2,0.2,6.4,0.3,6.7,0.3c0.2,0,2.3-0.1,6.2-0.3c3.9-0.2,6-0.3,6.3-0.3
			c1.3,0,2.1,0.1,2.3,0.2c0.8,0.3,2.4,2.1,4.8,5.4c4.6,6.5,11.6,16.2,20.9,29.1c1.9,2.4,4.7,6,8.5,10.7c-0.7,4.9,0,7.3,2.1,7.3
			c0.2,0,0.7-0.2,1.3-0.5s1.1-0.5,1.4-0.5c0.7,0,1.7,1,2.9,3.1c0.6,1.1,1.2,2.1,1.8,3.1c4.1,3.3,6.6,5.8,7.6,7.5
			c0.2,0.9,0.6,2.3,1.2,4.2c0.4,0.6,0.8,0.9,1.1,0.9c0.3,0,0.6-0.1,0.8-0.3c0.3-0.2,0.4-0.3,0.5-0.3c1.5,1.6,3.5,4,6.1,7.1
			c0.9-0.4,1.4-0.9,1.4-1.3c0-0.3-0.1-0.8-0.3-1.4c-0.2-0.7-0.3-1.1-0.3-1.4v-8.9c0-0.3,0-0.7-0.1-1.2c-0.1-0.5-0.1-1.2-0.1-2
			c0.2-1.1,0.4-2.6,0.5-4.5c-0.3-1.6-0.6-4-1.1-7.1c-0.1-0.4-0.1-1.3,0.2-2.5c0.2-1.2,0.3-1.9,0.3-2.1c0-0.2-0.1-0.7-0.3-1.4
			c-0.2-0.7-0.3-1.2-0.3-1.5c-0.1-1-0.1-2.4,0-4.1c0.1-2.2,0.2-3.6,0.2-4.3c0-0.3-0.1-0.8-0.4-1.4c-0.3-0.7-0.4-1.2-0.5-1.5l0.3-2.3
			c0.1-0.4,0-1.3-0.3-2.6c-0.3-1.3-0.4-2.3-0.4-2.9c0-0.2,0.1-0.7,0.3-1.5c0.2-0.8,0.3-1.3,0.3-1.7c-0.3-2.3-0.9-5.6-1.8-10
			c-0.8-2.9-4-4.8-9.5-5.8c0.1-0.9,0-1.9-0.3-3c0.6-0.5,2.6-0.8,5.9-0.8l15.2,0.6c-0.3,0,2.2-0.2,7.5-0.5c3.2-0.2,5.6,0,7.4,0.6
			V83.5z M1080.2,147.3l-0.8,0.9l-0.5-0.5l0.4-1.8C1080.3,146.9,1080.6,147.3,1080.2,147.3z"/>
		<path d="M1197.9,81c0.1,0.4,0.2,0.9,0.2,1.5c0,1.2-0.3,3.4-0.8,6.4c-0.5,3.1-0.8,5.3-0.8,6.8c0,0.8,0,1.5,0.1,2.2
			c-0.3,1-0.5,2.4-0.8,4.2c0.4,2.2,0.7,3.1,0.8,2.6c-0.2,0.3-0.4,0.8-0.8,1.3c0,0.6,0.2,2.1,0.5,4.8c-1.4,1.3-2.6,2-3.8,2
			c-0.4,0-0.9-0.3-1.5-1c0.5-3.3,0.7-5.3,0.5-6.1c-0.2-0.9-0.5-2.1-1-3.8c-1.1-2.4-3.2-5.1-6.2-8.1c-1.2-1.1-3.9-2.6-8.2-4.4
			c-0.5-0.2-2.3-0.6-5.4-1.2c-2-0.3-5-0.5-8.8-0.5c-11,0-19.7,2.9-26,8.8c-0.8,0.4-1.9,1.3-3.3,2.6c-4.8,6.7-7.6,13.2-8.3,19.6
			c-0.3,2.7-0.4,7.1-0.4,13.2v5.5c0-0.3,0.4,1.1,1.2,4.4c0.1,1.7,0.3,4.1,0.8,7c0.3,0.3,0.9,1.1,1.7,2.5c0.1,0.7,0.3,1.7,0.6,2.8
			c0.8,1.1,2,2.6,3.6,4.8c0.2,0.7,0.6,1.6,1.2,2.8c2.5,4.6,6.4,8.3,11.6,11.4c2.3,1.3,4.6,2.3,6.9,2.8c11,2.6,18,3.8,21.1,3.8
			c1.4,0,2.9-0.2,4.3-0.5c0.7-0.1,1.6-0.4,2.9-1l0.4-3.3c0-0.8-0.4-1.3-1.1-1.6c-1-0.3-1.7-0.8-2-1.3c-0.6-0.9-0.6-2.6-0.1-5.2
			v-13.3c-0.3-3.2-0.8-5.8-1.4-7.6c-0.3-0.3-0.8-0.8-1.3-1.6c-0.9-2.9-3-4.8-6.1-5.7c-1.3-0.3-4-0.6-8.2-0.7
			c-0.2-0.1-0.4-0.3-0.8-0.6v-2.2c1.4-0.4,3.7-0.7,6.8-0.7c0.2,0,2.2,0.2,5.8,0.5c3.7,0.3,5.6,0.5,5.8,0.5c0.3,0,0.8-0.1,1.4-0.4
			c0.7-0.3,1.2-0.4,1.5-0.5c3.4-0.3,5.3-0.4,5.7-0.4c7.8,0,11.2,0,10,0.1v3.6c0,0.2-0.3,0.8-0.8,1.8c-0.6,1.2-1,2-1.1,2.4
			c-0.9,3.8-1.5,7.7-1.7,11.7c-0.2,5-0.3,8.5-0.3,10.4c0,3.8,0.4,9.1,1.3,15.9c-2.6,1.3-9.3,3.1-20.1,5.3c-0.9-0.1-2.3,0-4.1,0.2
			c-2.5,0.6-4.3,0.8-5.3,0.8c-0.3,0-0.7-0.1-1.3-0.3c-0.6-0.2-0.9-0.3-1.2-0.3c-5.7-0.3-10.5-0.8-14.3-1.4c-1.4-0.6-3.6-1.3-6.4-2.1
			c-5.6-1.1-11.8-4.7-18.6-10.7c-7.1-6.3-11.4-12.3-13-18.1c-0.5-1.3-1.1-3.2-1.9-5.8c-0.4-0.8-1-2.1-1.8-3.8c-0.7-2.7-1-5-1-6.9
			c0,0.2,0.1-0.9,0.4-3.1c0.3-1.9,0.3-3.2,0.1-4c-0.2-0.9-0.3-1.8-0.3-2.8c0-1.9,0.5-4.6,1.4-8.1c1.1-4.3,1.8-7.3,2-8.8
			c5.5-9.9,8.8-14.8,9.9-14.8c0.2,0,0.4,0.1,0.5,0.3c0.1,0.2,0.3,0.3,0.6,0.3c0.9,0,1.7-0.2,2.3-0.7c0.2-0.7,0.7-1.6,1.3-2.8
			c5.2-5.7,8.3-8.6,9.4-8.6c0.3,0,0.5,0.1,0.6,0.2c0.1,0.1,0.3,0.2,0.5,0.2c0.2,0,0.8-0.4,1.8-1.1c1-0.8,1.6-1.1,1.9-1.1
			c0.2,0,0.5,0.1,1,0.3c0.4,0.2,0.7,0.3,1,0.3c0.3,0,2.8-0.6,7.4-1.8c4.7-1.2,7.2-1.8,7.4-1.8h21.5c0.3,0,2.8,0.3,7.7,0.8
			c4.8,0.5,7.4,0.8,7.7,0.8c0.1,0,1.1,0,3,0C1195.7,81,1197,81,1197.9,81z"/>
	</g>
	<g>
		<path d="M1280,192.5c-0.1,2.7-1.9,8.7-5.3,18c-0.2,0.7-1.3,2.3-3.1,4.8c-4.7,6.3-8.9,10.2-12.4,11.5c-0.8,0.5-2.2,1.3-3.9,2.2
			c-5.4,2.1-12.3,3.1-20.7,3.1c-2.4,0-4.6-0.1-6.5-0.4c-0.1-1.1,0-2.4,0.6-4c-2.2-2.1-4.1-3.2-5.7-3.2c-1.3,0-2.5,0.6-3.5,1.9
			c1,0.7,2,1.1,2.9,1.1c0.1,1-0.3,1.8-1.1,2.2c-0.7,0.3-1.6,0.3-2.7,0c-0.4-0.1-4.3-1.6-11.5-4.5c-1.1-0.3-2.2-0.6-3.2-1
			c-1.5-0.5-2.6-1.3-3.4-2.4l-0.9-6c-0.5-2.6-1.1-6.9-1.8-12.9c0-3.8,0-9.4,0-16.9c0-5,1-7.4,3.1-7.4c0.3,0,0.7,0.1,1.1,0.3
			c0.2,4.6,1,11.4,2.5,20.4c0.5,0.9,1.2,2.2,2.1,3.9c1.7,4.2,4.5,7.4,8.4,9.7c2,1.2,5.4,2.6,10.1,4.2c1,0.3,3.3,0.9,6.9,1.9
			c2.5,0.7,5.9,1.2,10.1,1.6c1.2-1.9,3.2-3.2,5.8-3.8c3.5-0.7,5.8-1.6,7.1-2.5c0.8-0.5,1.7-2,2.6-4.2c0.7-1.9,1.5-3.8,2.2-5.7
			c0.4-1.6,1.2-4.2,2.2-7.8c-0.1-0.6-0.2-1.5-0.3-2.7c0-2.8-0.6-6-2-9.4c-1.5-3.7-3.3-6.3-5.5-7.7c-0.4-1-1.2-2.2-2.4-3.6
			c-2.9-1.9-7.1-4.5-12.6-7.7c-1.1-1-2.9-2.4-5.3-4.1c-7.8-3.8-14.6-8.6-20.5-14.4c-2.3-2.3-4.5-5.5-6.5-9.7c0-0.5-0.2-1.3-0.5-2.3
			c-0.3-0.5-0.8-1.1-1.4-1.6c0-0.1-0.2-0.3-0.4-0.7c0-1.4-0.1-2.9-0.1-4.3c-0.2-1.9-0.7-3.3-1.6-4.3c0-2,0.1-5,0.3-9
			c-0.2-0.2-0.6-0.6-1-1.1c-0.1-0.4-0.1-1.3,0-2.5c0.3-0.4,0.7-0.9,1.1-1.6c0,0,0.6-2.9,1.9-8.4c0.7-3.4,2.6-6.4,5.6-8.9
			c0.2,0.4,0.7,1,1.3,1.9c0.2-1.3,0.8-3.1,1.9-5.4c4.7-5.2,9.5-9.2,14.5-12.1c1.5,0,3.6-0.2,6.3-0.4c2.9-0.2,7-0.8,12.3-1.6
			c0.2,0.2,0.5,0.5,1,0.9c2.8,0.5,7,1,12.5,1.6c4,0.1,6.4,0.1,7.2,0c3.8-0.6,5.5-0.9,5-0.9c1,0,1.9,0.2,2.5,0.7c0,0-0.7,14.2-2,42.4
			c-0.7,0.4-2,0.6-3.9,0.4c-0.6-2.8-1-5-1-6.4c0-4.6-1-9-3.1-13.2c-2.3-4.8-5.3-7.9-9.1-9.5c-3.1-1.3-6.9-2-11.2-2
			c-4.8,0-8.5,0.7-11.1,2.2c-0.5,0-1.2,0-2,0.2c-2.6,1.5-4.9,3.9-7,7.2c-2.2,3.4-3.3,6.5-3.3,9.3c0,0.5,0.1,1.5,0.5,3.1
			c0.4,1.5,0.6,2.7,0.6,3.6c0,5.2,2.3,10.1,7,15c2.1,2.1,5.6,4.9,10.5,8.3c2.3,1,5.6,2.6,9.9,4.9c11.8,7.1,19.9,14.2,24.4,21.4
			c0.4,1.1,1.1,2.9,2.2,5.5c0.8,1.8,1.6,4.9,2.3,9.1C1279.7,183.7,1280.1,188.2,1280,192.5z"/>
	</g>
	<g>
		<path d="M506.8,208.5c-0.1,0.5-0.2,1-0.3,1.7v4.2c-0.1,0-0.2,0-0.3,0.1c-0.2,0-0.3,0.1-0.3,0.1c0-0.1-0.1-0.8-0.3-2.2
			c-0.1-0.8-0.5-1.4-1.1-1.8c-0.3-0.2-0.9-0.2-1.9,0c-0.5,0-1.2,0.2-2.1,0.3c-0.3,0.1-0.5,0.3-0.6,0.6c-0.2,0.8-0.2,1.9-0.1,3.4
			c0.2,1.5,0.1,3.5-0.1,6c0,0,0.1,0.8,0.2,2.5c0,0.6-0.1,1.5,0,2.6c0.1,0.6,0.3,1.6,0.6,2.8c0.1,0.6,0.5,1,1.2,1.2
			c0.6,0.1,1.1,0.3,1.7,0.4c0,0.2-0.1,0.4-0.4,0.8h-10.3c-0.1,0-0.1-0.1-0.1-0.2c0,0,0-0.1,0-0.3c0.4-0.1,0.9-0.3,1.7-0.5
			c0.6-0.3,1.1-0.7,1.4-1.2c0.1-0.1,0.2-0.7,0.3-1.6c0-1.7,0.1-3.4,0.2-5.2v-6.5h0.5c0,0,0.1-0.1,0.1-0.2c-0.2-0.4-0.4-1-0.6-1.7
			c0-0.1-0.1-1.1-0.3-2.8h-3.4c-0.4,0-0.8,0.2-1.3,0.6s-0.8,0.7-0.9,0.9c-0.3,1.1-0.5,1.8-0.7,2.2c-0.1,0.2-0.4,0.3-0.8,0.3
			c0,0,0-0.2-0.1-0.5c0-0.2,0-0.4,0-0.5c0.1-0.5,0.3-1.3,0.4-2.3c0.2-1.3,0.3-2.1,0.4-2.5l0.6-0.8c-0.4,0,0.7-0.1,3.3-0.1
			c0.8,0,1.9,0.1,3.4,0.2c1.5,0.1,2.3,0.2,2.2,0.2h3c0,0,0.4-0.1,1.1-0.2c0.8-0.1,1.6-0.2,2.3-0.2c0.3,0,0.6-0.1,0.8-0.1
			C506.5,208.2,506.7,208.2,506.8,208.5z"/>
		<path d="M539.6,208.5c0,0.1-0.1,0.3-0.2,0.4c-0.5,0.1-0.9,0.3-1.3,0.5c-0.2,0.1-0.5,0.4-0.7,0.8s-0.4,0.7-0.4,1c0,1.1,0,1.5,0,1.3
			c-0.1,0.3-0.2,0.7-0.3,1.3c0,0.1,0.1,0.8,0.2,1.9c0,0.4,0.1,0.9,0.1,1.5c0,0.7,0,1.6-0.1,2.6c-0.1,1-0.1,1.5-0.1,1.4v2.7
			c0,2.7,0.3,4.6,1,5.7c0.1,0.2,0.4,0.4,0.8,0.6c0.4,0.2,0.8,0.3,1.1,0.4c-0.1,0.1-0.2,0.3-0.4,0.5h-8.5c0-0.1,0-0.2-0.1-0.3
			c0-0.2-0.1-0.3-0.1-0.3c0.3-0.1,0.6-0.3,1.1-0.5c0.4-0.2,0.7-0.7,1.1-1.7c0.3-0.8,0.4-1.4,0.4-1.9v-2.6c0-0.2,0-0.7-0.1-1.5
			c-0.1-0.6-0.1-1.1,0-1.5c0-0.3-0.1-0.8-0.3-1.4c-0.6,0.4-1.5,0.8-2.7,1c-0.6,0.1-1.2,0.1-1.6,0.1c-0.6-0.1-1-0.2-1-0.2h-4.6
			c-0.3,0.2-0.6,0.4-1.1,0.9c-0.2,0.3-0.2,0.7-0.2,1.2c0.1,0.2,0.2,0.5,0.3,0.9c0-0.2-0.1,0.2-0.1,1c0,0.1,0,1,0.1,2.8
			c0.1,2,0.8,3.1,2.1,3.3c0,0,0.3,0.1,0.8,0.3c-0.4,0.4-0.9,0.7-1.4,0.7c-0.1,0-0.3,0-0.5-0.1c-0.2,0-0.4-0.1-0.5-0.1l-7.2-0.1
			c0-0.2,0.3-0.4,0.8-0.7c0.6-0.3,1.1-0.7,1.5-1.2c0.3-0.4,0.4-1.1,0.5-2.3c0.1-1.1,0.1-2.1,0-2.9c0-0.1-0.1-0.2-0.2-0.4
			c0-0.9,0-2.3,0.2-4.2c0-0.1,0.1-0.3,0.2-0.6c0.1-0.3,0.2-0.5,0.1-0.7c-0.1-0.2-0.3-0.6-0.5-1.1c0,0.1,0.1-0.3,0.1-1.2
			c0-0.2,0-0.5-0.1-0.9s-0.1-0.6-0.1-0.6v-2.9c0-0.4-0.3-0.9-0.8-1.4s-1.1-0.9-1.6-1.1c0,0,0.1-0.2,0.4-0.6c0.4,0,1.1-0.1,2-0.1
			c0.9-0.1,1.3-0.1,1.4-0.1h3.4c0.2,0,0.3,0,0.5-0.1c0.2,0,0.3-0.1,0.3-0.1c0.2,0,0.7,0.2,1.3,0.7c-0.4,0.2-0.8,0.4-1.3,0.6
			c-0.5,0.3-0.9,0.6-1.1,0.9c-0.4,0.5-0.6,1.5-0.6,3v3.9c0,0.1,0,0.2,0.1,0.2s0.1,0.2,0.1,0.2c0.6,0.3,1.1,0.4,1.5,0.4h7.2
			c0.3,0,0.6,0.1,1.1,0.2c0,0,0.2,0.1,0.5,0.2c0.2,0.1,0.4,0.2,0.6,0.2c0.1,0,0.2,0,0.2,0c0.4-0.5,0.6-1,0.6-1.7
			c0-0.3-0.1-0.8-0.2-1.4c-0.1-0.6-0.2-1-0.2-1.3c0-0.2,0-0.6-0.1-1.1c-0.1-0.7-0.1-1.1-0.1-1.4c-0.1-1.2-1-2.2-2.7-3.1
			c0.2-0.2,0.4-0.4,0.5-0.4h2.7c-0.2,0,0.3,0,1.5,0c1,0,1.8,0,2.3,0C537.8,208.2,538.6,208.3,539.6,208.5z"/>
		<path d="M566.7,225.1c0,0.6-0.1,1.5-0.2,2.7c-0.1,0.3-0.3,0.8-0.5,1.3c0,0.2-0.1,0.6-0.3,1c0,0.1-0.2,0.4-0.5,0.7
			c-0.3,0.4-0.6,0.6-0.8,0.6h-4.6c-0.1,0-0.6,0-1.6-0.1c-1,0-1.5-0.1-1.6-0.1h-2.8c-0.1,0-0.4,0-1.1-0.1s-1-0.1-1.1-0.1h-2.7
			l-0.2-0.3c0.1-0.2,0.7-0.5,1.6-1.1c0.6-0.4,0.9-0.9,0.9-1.5v-5.7c0-0.9,0.1-2.2,0.4-3.8c-0.2-0.5-0.2-1.1-0.1-1.8
			c-0.2-0.2-0.3-0.4-0.3-0.8c0,0,0.1-0.5,0.4-1.5c0-0.1,0-0.3-0.2-0.5c-0.2-0.3-0.3-0.5-0.3-0.5c-0.1-0.3-0.1-0.7-0.1-1.2
			c0-0.8,0-1.2,0-1.2c0-0.4-0.1-0.7-0.3-1c-0.2-0.4-0.5-0.6-0.9-0.8c-0.4-0.2-0.7-0.3-1.1-0.5c0.2-0.4,0.4-0.6,0.5-0.6
			c0.4,0,0.9,0.1,1.6,0c0.8-0.2,1.1-0.3,1.1-0.3h3.2c0,0,0.4,0,1.1,0.1c0.7,0.1,1.2,0.1,1.6,0.1c0.1,0,1.4-0.1,3.6-0.2
			c0.5,0,1.9,0,4.1,0.1c0.2,0.1,0.3,0.3,0.3,0.5c0,0.1,0,0.3-0.1,0.5c-0.1,0.2-0.1,0.4-0.1,0.5c0,0.4-0.1,1.7-0.4,4
			c0,0.1-0.2,0.2-0.5,0.3c-0.1-0.1-0.3-0.8-0.7-1.9c-0.2-0.8-0.7-1.2-1.3-1.3c-0.3-0.1-0.5-0.1-0.8-0.2c-0.4-0.1-0.7-0.1-0.9,0
			c-0.5,0.2-1.7,0.2-3.5,0.1c-1-0.1-1.7-0.1-2.2,0.1c-0.1,0-0.2,0.2-0.3,0.4c0.4,1.4,0.5,2.7,0.1,3.8c0-0.1,0,0.2,0,0.9
			c0,0.2,0,0.5-0.1,1.1c-0.1,0.4-0.1,0.8,0,1.1c0,0.1,0.1,0.3,0.3,0.5h6.8c0.2-0.1,0.4-0.1,0.6-0.2c0.3-0.1,0.6-0.3,0.7-0.6
			c0.1-0.3,0.3-0.8,0.7-1.3c0.4,0,0.6,0.1,0.7,0.4c0,0.7-0.1,1.6-0.1,2.6c0,0.7-0.1,1.8-0.3,3.1c0,0.2-0.3,0.3-0.7,0.2
			c-0.2-0.3-0.4-0.7-0.8-1.1c-0.7-0.6-1.4-0.8-2-0.8h-2.5c-0.2,0-0.5,0-0.9-0.1s-0.8-0.1-1-0.1c-0.6,0-1,0.2-1.2,0.6
			c-0.2,0.4-0.3,0.8-0.3,1c0,0.2,0,0.6,0.1,1.2c0.1,0.6,0.1,1.1,0.1,1.4c0,0.2-0.1,0.5-0.2,1s-0.2,0.8-0.2,1.1c0,0.2,0,0.4,0.1,0.6
			c0.1,0.3,0.4,0.6,1,1.1c0.6,0.4,1.1,0.6,1.5,0.7c0.1,0,0.1,0,0.2,0.1c0.1,0,0.2,0.1,0.3,0.1h3c0.7,0,1.2-0.1,1.7-0.3
			c0.6-0.3,1.3-0.8,1.9-1.5c0.7-0.8,1-1.5,1.1-2.1C565.8,225,566.2,225,566.7,225.1z"/>
		<path d="M607.3,208.4c0.1,0.6,0.1,2.2-0.1,4.8c0,0.2-0.2,0.4-0.5,0.7c0,0-0.2,0-0.6,0c-0.1-0.9-0.2-1.5-0.3-1.8
			c-0.2-0.7-0.6-1.2-1.2-1.3s-1.8-0.2-3.7-0.2h-3.2c-0.6,0-0.9,0.6-0.9,1.7c0-0.1,0.1,0.5,0.2,1.9c0,0.3,0,0.8-0.1,1.5
			c-0.1,0.8-0.2,1.3-0.2,1.7c0,0.5,0.1,1,0.3,1.4h2.4c0,0,0.2,0,0.6,0.1s0.6,0.1,0.6,0.1h2.3c0.9,0,1.6-0.5,2.3-1.4
			c0-0.2,0.1-0.4,0.3-0.8c0.1-0.1,0.4-0.2,0.8-0.1c0.1,0.4,0.1,0.9,0.2,1.6c0,0.9-0.2,2.6-0.4,5.2c0,0.3-0.3,0.5-0.9,0.4
			c-0.1-0.5-0.2-1-0.3-1.5c-0.2-0.6-0.5-1-1.1-1.2c-0.3-0.1-1.1-0.1-2.3-0.1h-2.7c-0.1,0.1-0.4,0.1-0.9,0.1c-0.4,0-0.7,0.1-0.9,0.3
			c0,0.3,0,0.7-0.1,1.3c0,0.1-0.1,0.5-0.3,1.1c-0.1,0.4-0.2,0.8-0.2,1.1c0.1,0.2,0.2,0.4,0.3,0.7c0,0.2,0,0.6-0.1,1
			c0,0.4-0.1,0.8-0.1,1c0,0.9,0.3,1.7,1,2.2c0,0,0.9,0.4,2.7,1.1c-0.2,0.3-0.5,0.4-0.9,0.4c0.7,0,0.4,0-1.1-0.1
			c-1.1,0-2.5-0.1-4.2-0.2c-0.9,0-1.5,0-1.7,0c-0.2,0.1-0.4,0.2-0.7,0.3c0,0-0.4-0.1-1.4-0.3c0.1-0.2,0.4-0.5,0.9-0.9
			c0.5-0.4,0.8-0.6,0.9-0.8c0.4-0.8,0.7-1.6,0.7-2.4v-4.4c0,0,0-0.4,0-1.3s0-1.5,0-1.9c0,0.1,0-0.2,0-0.6c0-0.3,0-0.6,0-0.9
			c0-0.4-0.1-0.6-0.3-0.9c0.4-0.6,0.6-1.3,0.6-2.1s-0.2-1.8-0.6-2.8c0-0.2,0-0.5,0-0.9c0-0.2,0-0.4-0.1-0.5c-0.2-0.5-0.6-1-1.1-1.4
			c-0.1-0.1-0.4-0.2-0.9-0.3c-0.1-0.1-0.1-0.4-0.1-0.7c-0.1,0,0.8,0,2.5-0.1c2.7,0,6.8-0.1,12.2-0.1
			C605.7,208.2,606.4,208.3,607.3,208.4z"/>
		<path d="M633.8,225.1c0,0.6-0.1,1.5-0.2,2.7c-0.1,0.3-0.3,0.8-0.5,1.3c0,0.2-0.1,0.6-0.3,1c0,0.1-0.2,0.4-0.5,0.7
			c-0.3,0.4-0.6,0.6-0.8,0.6h-4.6c-0.1,0-0.6,0-1.6-0.1c-1,0-1.5-0.1-1.6-0.1h-2.8c-0.1,0-0.4,0-1.1-0.1s-1-0.1-1.1-0.1h-2.7
			l-0.2-0.3c0.1-0.2,0.7-0.5,1.6-1.1c0.6-0.4,0.9-0.9,0.9-1.5v-5.7c0-0.9,0.1-2.2,0.4-3.8c-0.2-0.5-0.2-1.1-0.1-1.8
			c-0.2-0.2-0.3-0.4-0.3-0.8c0,0,0.1-0.5,0.4-1.5c0-0.1,0-0.3-0.2-0.5c-0.2-0.3-0.3-0.5-0.3-0.5c-0.1-0.3-0.1-0.7-0.1-1.2
			c0-0.8,0-1.2,0-1.2c0-0.4-0.1-0.7-0.3-1c-0.2-0.4-0.5-0.6-0.9-0.8c-0.4-0.2-0.7-0.3-1.1-0.5c0.2-0.4,0.4-0.6,0.5-0.6
			c0.4,0,0.9,0.1,1.6,0c0.8-0.2,1.1-0.3,1.1-0.3h3.2c0,0,0.4,0,1.1,0.1s1.2,0.1,1.6,0.1c0.1,0,1.4-0.1,3.6-0.2c0.5,0,1.9,0,4.1,0.1
			c0.2,0.1,0.3,0.3,0.3,0.5c0,0.1,0,0.3-0.1,0.5c-0.1,0.2-0.1,0.4-0.1,0.5c0,0.4-0.1,1.7-0.4,4c0,0.1-0.2,0.2-0.5,0.3
			c-0.1-0.1-0.3-0.8-0.7-1.9c-0.2-0.8-0.7-1.2-1.3-1.3c-0.3-0.1-0.5-0.1-0.8-0.2c-0.4-0.1-0.7-0.1-0.9,0c-0.5,0.2-1.7,0.2-3.5,0.1
			c-1-0.1-1.7-0.1-2.2,0.1c-0.1,0-0.2,0.2-0.3,0.4c0.4,1.4,0.5,2.7,0.1,3.8c0-0.1,0,0.2,0,0.9c0,0.2,0,0.5-0.1,1.1
			c-0.1,0.4-0.1,0.8,0,1.1c0,0.1,0.1,0.3,0.3,0.5h6.8c0.2-0.1,0.4-0.1,0.6-0.2c0.3-0.1,0.6-0.3,0.7-0.6c0.1-0.3,0.3-0.8,0.7-1.3
			c0.4,0,0.6,0.1,0.7,0.4c0,0.7-0.1,1.6-0.1,2.6c0,0.7-0.1,1.8-0.3,3.1c0,0.2-0.3,0.3-0.7,0.2c-0.2-0.3-0.4-0.7-0.8-1.1
			c-0.7-0.6-1.4-0.8-2-0.8h-2.5c-0.2,0-0.5,0-0.9-0.1c-0.5-0.1-0.8-0.1-1-0.1c-0.6,0-1,0.2-1.2,0.6c-0.2,0.4-0.3,0.8-0.3,1
			c0,0.2,0,0.6,0.1,1.2c0.1,0.6,0.1,1.1,0.1,1.4c0,0.2-0.1,0.5-0.2,1s-0.2,0.8-0.2,1.1c0,0.2,0,0.4,0.1,0.6c0.1,0.3,0.4,0.6,1,1.1
			s1.1,0.6,1.5,0.7c0.1,0,0.1,0,0.2,0.1c0.1,0,0.2,0.1,0.3,0.1h3c0.7,0,1.2-0.1,1.7-0.3c0.6-0.3,1.3-0.8,1.9-1.5
			c0.7-0.8,1-1.5,1.1-2.1C632.9,225,633.3,225,633.8,225.1z"/>
		<path d="M662,225.8c-0.3,0.9-0.5,1.8-0.8,2.7c-0.3,1.1-0.8,2.1-1.3,3l-16.1-0.1c-0.2,0-0.4-0.1-0.8-0.2c-0.4-0.1-0.7-0.1-0.8-0.2
			c0-0.3,0.1-0.6,0.4-0.7c0.5,0,1-0.1,1.5-0.3c0.7-0.3,1.1-0.8,1.2-1.4c0.1-0.3,0.1-0.7,0-1.3c0-0.7-0.1-1.2,0-1.5
			c0-0.1,0.1-0.6,0.2-1.5c0.1-0.7,0.1-1.2,0.1-1.5c0-4.4-0.1-7.3-0.2-8.8c0,0,0.1-0.2,0.2-0.3c-0.1-1.2-0.3-2.2-0.5-3
			c-0.1-0.4-0.5-0.7-1.1-1c-0.6-0.3-1.1-0.4-1.4-0.4c0-0.5,0.3-0.7,1-0.7c0.2,0,0.4,0,0.7,0.1c0.3,0,0.5,0.1,0.6,0.1h9.1
			c0,0.3-0.3,0.5-0.9,0.7c-0.4,0.1-0.9,0.2-1.3,0.3c-0.5,0.3-0.8,0.4-0.9,0.4c-0.4,0.2-0.6,0.5-0.7,0.7c-0.3,0.8-0.4,2-0.5,3.4
			c-0.2,2.1-0.2,3.3-0.3,3.4c0.2,0.7,0.4,1.3,0.4,1.9c0,0.3,0,0.7-0.1,1.1c-0.1,0.5-0.1,0.9-0.1,1.1v4.9c0.2,0.6,0.5,1.4,0.8,2.5
			c0.1,0.2,0.3,0.3,0.7,0.4c0.5,0.1,1.2,0.2,2.1,0.3c0.2,0,0.3,0,0.5,0c0.9-0.1,1.7-0.2,2.6-0.4c1.1-0.2,1.9-0.5,2.4-0.9
			c0.2-0.2,0.5-0.6,0.8-1.3c0.3-0.8,0.6-1.2,0.8-1.5c0.2-0.2,0.4-0.3,0.7-0.3C661.2,225.5,661.5,225.6,662,225.8z"/>
		<path d="M689.5,225.8c-0.3,0.9-0.5,1.8-0.8,2.7c-0.3,1.1-0.8,2.1-1.3,3l-16.1-0.1c-0.2,0-0.4-0.1-0.8-0.2s-0.7-0.1-0.8-0.2
			c0-0.3,0.1-0.6,0.4-0.7c0.5,0,1-0.1,1.5-0.3c0.7-0.3,1.1-0.8,1.2-1.4c0.1-0.3,0.1-0.7,0-1.3c0-0.7-0.1-1.2,0-1.5
			c0-0.1,0.1-0.6,0.2-1.5c0.1-0.7,0.1-1.2,0.1-1.5c0-4.4-0.1-7.3-0.2-8.8c0,0,0.1-0.2,0.2-0.3c-0.1-1.2-0.3-2.2-0.5-3
			c-0.1-0.4-0.5-0.7-1.1-1c-0.6-0.3-1.1-0.4-1.4-0.4c0-0.5,0.3-0.7,1-0.7c0.2,0,0.4,0,0.7,0.1c0.3,0,0.5,0.1,0.6,0.1h9.1
			c0,0.3-0.3,0.5-0.9,0.7c-0.4,0.1-0.9,0.2-1.3,0.3c-0.5,0.3-0.8,0.4-0.9,0.4c-0.4,0.2-0.6,0.5-0.7,0.7c-0.3,0.8-0.4,2-0.5,3.4
			c-0.2,2.1-0.2,3.3-0.3,3.4c0.2,0.7,0.4,1.3,0.4,1.9c0,0.3,0,0.7-0.1,1.1c-0.1,0.5-0.1,0.9-0.1,1.1v4.9c0.2,0.6,0.5,1.4,0.8,2.5
			c0.1,0.2,0.3,0.3,0.7,0.4c0.5,0.1,1.2,0.2,2.1,0.3c0.2,0,0.3,0,0.5,0c0.9-0.1,1.7-0.2,2.6-0.4c1.1-0.2,1.9-0.5,2.4-0.9
			c0.2-0.2,0.5-0.6,0.8-1.3c0.3-0.8,0.6-1.2,0.8-1.5c0.2-0.2,0.4-0.3,0.7-0.3C688.7,225.5,689,225.6,689.5,225.8z"/>
		<path d="M721,219.6c0,0.7,0,1.2-0.1,1.6c-0.1,0.3-0.2,0.7-0.4,1.3c0,0.6-0.2,1.2-0.4,1.9c-0.2,0.2-0.5,0.6-0.9,1.2
			c-0.1,0.4-0.4,0.9-0.8,1.6c-0.4,0.4-0.9,0.9-1.6,1.6c-0.1,0-0.2,0.1-0.4,0.2c-0.2,0.1-0.4,0.4-0.8,0.6c-2,1.1-3.9,1.7-5.7,1.8
			h-2.4c0,0,0,0-0.1-0.1c-1.3,0-2.3-0.2-2.9-0.5c-0.2,0-0.4-0.1-0.7-0.2c-0.5-0.2-1.2-0.5-2.2-1c-1.2-0.7-2.3-1.8-3.3-3.1
			c-0.6-0.8-1.1-1.7-1.5-2.9c-0.4-1.1-0.6-2-0.7-2.8c-0.1-1.3,0-2.5,0.1-3.8c0.1-0.2,0.2-0.4,0.3-0.7c0.1-0.4,0.2-0.9,0.4-1.6
			c0.3-0.4,0.6-1,1.1-1.9c0.1-0.1,0.1-0.3,0.1-0.5c0.1-0.1,0.2,0,0.4,0.1c0.1-0.2,0.1-0.4,0-0.7c0.2,0,0.4-0.2,0.7-0.3
			c0.1-0.3,0.3-0.6,0.7-0.9c0.7-0.4,1.8-1,3.3-1.7c0.4-0.2,0.9-0.3,1.4-0.5c1.5-0.3,2.5-0.5,3-0.5h1.4c1.1,0,2,0.1,2.8,0.3
			c0.4,0.1,1.4,0.5,2.8,1c0.3,0.2,0.8,0.5,1.4,0.9c0.9,0.6,1.8,1.4,2.6,2.5c0.7,0.9,1.1,1.8,1.3,2.6c0.1,0.1,0.2,0.3,0.4,0.6
			c0.3,0.7,0.4,1.8,0.5,3.2c0,0,0,0.2,0.1,0.3S721,219.5,721,219.6z M717,220.1c-0.1-1.5-0.4-2.9-0.9-4.2c-0.6-1.6-1.3-2.9-2.2-3.8
			c-1.2-1.3-2.5-2.1-3.9-2.3c-1.3-0.2-2.2-0.3-2.7-0.2c-1,0.1-1.8,0.3-2.5,0.6c-0.1,0-0.6,0.4-1.7,1c-0.1,0.1-0.2,0.3-0.3,0.4
			c-0.1,0-0.2,0.1-0.3,0.1c-0.2,0.3-0.5,0.7-0.9,1.3c0,0.1-0.1,0.4-0.2,0.6c-0.2,0.3-0.4,0.6-0.6,1c-0.1,0.4-0.3,1.1-0.5,2
			c0,0.3,0,0.9,0,1.5c0,0,0,0.1-0.1,0.2s-0.1,0.2-0.1,0.3c0.2,0.8,0.4,1.9,0.7,3.3c0,0.1-0.1,0.2-0.1,0.3c0.1,0.2,0.2,0.4,0.4,0.7
			c0,0.2,0,0.4,0.1,0.6c0.5,1,0.8,1.5,0.8,1.6c0.4,0.6,0.9,1.2,1.5,1.8c0,0,0.1,0.3,0.2,0.7c0,0,0.3,0,0.6,0.1
			c0.6,0.5,1,0.9,1.4,1.1c0.9,0.5,2.5,0.7,4.9,0.5c0.2-0.1,0.4-0.1,0.8-0.2c0.4-0.1,1-0.3,1.7-0.6c0.2-0.2,0.4-0.3,0.7-0.6
			c1.2-0.8,1.9-1.7,2.2-2.8c0.1-0.1,0.3-0.4,0.4-0.6c0-0.2,0.1-0.5,0.1-0.8c0.1-0.1,0.1-0.2,0.2-0.3c0-0.3,0.1-0.9,0.2-1.8
			C717,220.9,717,220.4,717,220.1z"/>
		<path d="M754.9,208.2c0,0.2-0.2,0.4-0.7,0.6c-0.6,0.2-1,0.4-1,0.4c-0.5,0.4-0.9,1-1.1,1.8c-0.3,0.5-0.5,1.3-0.9,2.4
			c0,0.4-0.2,0.9-0.6,1.6c-0.3,0.7-0.5,1.1-0.5,1.3s0,0.4-0.1,0.7c-0.9,2.6-2.1,6.5-3.8,11.8c-0.2,0.6-0.3,1.1-0.5,1.7
			c-0.2,0.7-0.6,1-1,1c-0.2,0-0.3,0-0.5-0.1c0,0,0-0.2,0.1-0.4c0.1-0.2,0.1-0.4,0.1-0.5c-0.2-0.1-0.3-0.3-0.5-0.7c0-0.1,0-0.4,0-0.6
			c-0.2-0.4-0.4-1-0.7-1.8c0-0.3,0-0.6-0.1-0.9c-0.1-0.4-0.2-0.8-0.5-1c0-0.1,0-0.2-0.1-0.3c0.1-0.2,0.1-0.4,0.1-0.5
			c0-0.3-0.1-0.6-0.4-1c-0.2-0.3-0.4-0.5-0.6-0.8c0.1-0.2,0.2-0.4,0.4-0.6c-0.2-0.2-0.3-0.4-0.5-0.7c0-0.2,0-0.5-0.1-0.9
			c-0.1-0.2-0.3-0.6-0.6-1c0-0.1-0.1-0.3,0-0.5c0.1-0.4,0.1-0.6,0.1-0.7c-0.4-0.2-0.6-0.1-0.8,0.3c-0.2,0.6-0.4,1.6-0.8,2.8
			c-0.4,1-0.9,2.4-1.5,4.3c-0.1,0.3-0.3,0.9-0.6,1.6c-0.2,0.8-0.3,1.5-0.5,1.9c-0.2,0.8-0.5,1.4-0.8,1.9c-0.3,0.1-0.6,0.1-0.9,0
			c-0.2-0.4-0.4-1-0.5-1.7c-0.1-0.8-0.3-1.3-0.3-1.6c-0.2-0.5-0.4-0.9-0.7-1.2c0.1-0.7,0.1-1.3-0.1-1.7c-0.2-0.2-0.4-0.4-0.8-0.8
			c0-0.2,0-0.4,0-0.6c0-0.1,0-0.1,0-0.1c-0.2-0.4-0.4-0.9-0.7-1.6c0-0.2,0-0.4,0-0.7l0.3-0.3c0.3,0.2,0.7,0.5,1.2,0.7
			c0-0.3-0.1-0.5-0.3-0.8c-0.3-0.3-0.4-0.6-0.5-0.8c-1.3-0.7-1.9-1.4-1.9-2.1c0-0.2,0-0.4,0.1-0.5c-0.2-0.3-0.4-0.6-0.6-1.1
			c-0.1-0.4-0.2-1.1-0.5-1.9c-0.2-0.2-0.3-0.4-0.6-0.8c0-0.2,0-0.6,0-1.2c-0.1-0.2-0.4-0.6-0.7-1.1c-0.2-0.3-0.3-0.6-0.5-1
			c-0.2-0.4-0.4-0.7-0.7-0.9c-0.2-0.2-0.7-0.3-1.6-0.5c0,0,0-0.1-0.2-0.3c0-0.1,0.1-0.2,0.2-0.3c0.5-0.1,1.3,0,2.5,0.1
			c0.2,0,0.5,0,0.9-0.1c0.4-0.1,0.7-0.1,0.7-0.1h3.2c0.1,0,0.2,0,0.3-0.1c0.2-0.1,0.3-0.1,0.3-0.1c0,0.1,0.1,0.2,0.1,0.3
			c0,0.2-0.3,0.4-0.8,0.7c-0.5,0.3-0.8,0.6-0.8,1c0,0.6,0.2,1.2,0.5,2c0,0.3,0.1,0.8,0.2,1.5c0.1,0.4,0.5,1.5,1.3,3.3
			c0,0.3,0,0.6,0.1,1.1c0.1,0.1,0.1,0.2,0.2,0.4c0,0.3,0.1,0.7,0.3,1.2c0.3,0.6,0.5,1,0.5,1.1c0.2,0.8,0.5,1.9,1.1,3.4
			c0.3,0,0.4-0.1,0.5-0.4c0.5-1.4,0.8-2.8,1.1-4.1c0.1-0.1,0.2-0.3,0.3-0.5c0.1-0.4,0.2-1.1,0.5-1.9c0.4-0.8,0.5-1.4,0.5-1.8
			c0-0.2,0-0.4-0.1-0.6c-0.4-1.1-1-2.8-1.8-5.1c-0.2-0.2-0.5-0.4-1-0.6c-0.5-0.2-0.7-0.4-0.8-0.6c0.3,0,0.7-0.1,1.2-0.2
			c0,0.2,0,0.4,0.1,0.4c0.4,0.1,1,0.1,1.7,0c0.6-0.1,1.3-0.2,1.9-0.3c0.1,0,0.6,0,1.4,0.1c0.6,0,1.1,0,1.4-0.2
			c0,0.1,0.1,0.3,0.1,0.3c0,0.2-0.2,0.3-0.5,0.4c-0.5,0.1-0.8,0.3-1.1,0.5c-0.1,0.1-0.2,0.4-0.2,0.7c0,0.2,0.1,0.5,0.2,1
			c0.2,0.6,0.2,0.9,0.3,1.1c0,0.3-0.1,0.7,0,1.3c0.2,0.2,0.5,0.6,0.8,1c0.1,0.4,0.2,1,0.3,1.7c0.2,0.6,0.3,1.2,0.5,1.7
			c0.2,0.7,0.3,1.3,0.2,1.6c0.2,0.2,0.4,0.4,0.6,0.6c0,0.2,0.1,0.8,0.3,1.7c0.1,0.8,0.2,1.4,0.2,1.8c0.1,0.1,0.2,0.2,0.3,0.3
			c0.1-0.1,0.3-0.2,0.5-0.4c0.2-0.5,0.6-1.3,1.1-2.4c0.1-0.8,0.3-1.9,0.6-3.2c0-0.1,0.2-0.4,0.7-0.8c0-0.9,0.3-1.9,0.7-2.8
			c0-0.2,0.1-0.5,0.2-0.9c0.1-0.1,0.2-0.3,0.4-0.5c0.1-0.4,0.2-1.1,0.5-2.1c0.2-0.6,0.2-1.1-0.2-1.4c-0.1-0.1-0.4-0.2-0.8-0.3
			c-0.5-0.1-0.8-0.2-1-0.3c0.2-0.3,0.7-0.4,1.5-0.3c0,0,0.1,0,0.2,0.1c0.1,0,0.2,0.1,0.3,0.1c0.1,0,0.2,0,0.5-0.1s0.5-0.1,0.7-0.1
			c0.1,0,0.3,0,0.6,0.1s0.5,0.1,0.6,0.1C753.6,208.4,754.3,208.3,754.9,208.2z M732.5,220l-0.4,0.3l-0.1-0.1l0.4-0.3L732.5,220z"/>
		<path d="M776.6,225.2c0,0.3-0.1,0.8-0.4,1.6c-0.3,0.8-0.5,1.3-0.6,1.4c-0.6,0.7-1.2,1.3-1.8,1.8c-0.4,0.3-0.8,0.5-1.4,0.7
			c-1.5,0.5-2.8,0.7-4.2,0.7c0,0-0.2,0-0.7,0c-0.4,0-0.8,0-1,0c0,0.1,0.1-0.1,0.1-0.6c-0.3-0.3-0.7-0.4-1.2-0.4
			c-0.2,0-0.4,0.1-0.5,0.2c0,0,0.2,0.1,0.5,0.3c-0.1,0.2-0.2,0.3-0.4,0.3c-0.2,0-0.7-0.1-1.5-0.3c-1-0.3-1.8-0.5-2.3-0.9
			c-0.1-0.1-0.2-0.6-0.4-1.5c-0.1-0.7-0.1-1.6-0.1-2.6c0-0.9,0-1.7,0.1-2.3c0.1,0,0.3,0,0.6-0.1c0.1,0.1,0.1,0.4,0.1,0.7
			c0,0.4,0,0.6,0,0.6c0.1,0.3,0.2,0.7,0.3,1.3c0,0.1,0.2,0.4,0.5,0.8c0.2,0.3,0.5,0.7,1,1.2c0.4,0.3,0.9,0.6,1.6,0.7
			c0.4,0.1,0.7,0.2,1.1,0.3c0.5,0.1,0.8,0.2,1.1,0.2c0.1,0.1,0.2,0.1,0.3,0.1c0,0,0.1,0,0.2,0c0.1,0,0.2,0,0.2,0
			c0.1,0,0.3,0,0.7,0.1c0.4,0.1,0.6,0.1,0.7,0.1c0,0,0.2-0.1,0.4-0.2c0.2-0.1,0.3-0.2,0.4-0.2c0.3-0.1,0.8-0.2,1.5-0.3
			c0.3-0.1,0.6-0.4,0.8-1c0.1-0.2,0.2-0.4,0.4-0.7c0-0.1,0-0.2,0-0.4c0-0.1,0.1-0.2,0.2-0.5c0.1-0.2,0.2-0.4,0.2-0.4
			c0-0.4-0.1-0.8-0.2-1.1c-0.1-0.2-0.3-0.6-0.7-1.3c-0.1-0.1-0.3-0.2-0.6-0.4c-1.1-0.8-2.1-1.4-3-1.8c-0.3-0.2-0.7-0.4-1.2-0.6
			c-0.6-0.3-1.6-0.8-2.9-1.6c-0.1,0-0.2-0.1-0.4-0.2c-0.4-0.3-0.7-0.7-1.1-1.2c-0.6-0.7-0.9-1.1-0.9-1.1c0-0.2,0-0.4,0-0.8
			c-0.1-0.1-0.2-0.3-0.3-0.6c0-0.3,0-0.6-0.1-1.1c0.1-0.1,0.1-0.2,0.1-0.3c-0.1-0.3-0.2-0.5-0.2-0.5c0,0,0.1-0.3,0.4-0.9
			c0-0.3,0.1-0.6,0.3-1.1c0-0.1,0.4-0.5,1-1c0.3,0.1,0.4,0.2,0.4,0.2c0-0.2,0.1-0.4,0.2-0.6c1.1-1.1,2.1-1.7,3.1-2
			c0.8-0.2,1.8-0.3,3.1-0.3c0.1,0,0.7,0.1,1.8,0.2c1.2,0.1,1.8,0.2,1.8,0.2c0,0,0.3,0,0.8-0.1c0.5-0.1,0.8-0.1,0.8-0.1
			c0.3,0,0.5,0.1,0.5,0.4l-0.3,3v1.6c0,0,0,0.2,0,0.6c0,0.4,0,0.7,0,0.9c0,0-0.1,0-0.1,0.1c-0.1,0-0.1,0.1-0.2,0.1h-0.4
			c0-0.4-0.1-0.9-0.2-1.7c-0.4-1.4-1.2-2.4-2.3-2.8c-0.6-0.2-1.7-0.3-3.2-0.3c-0.3,0-0.8,0.1-1.5,0.4c-0.6,0.2-1.2,0.7-1.7,1.6
			c-0.2,0.3-0.3,0.6-0.3,1c0,0.6,0.2,1.3,0.6,2.1c0.2,0.1,0.4,0.3,0.7,0.6c0.8,0.8,2.1,1.6,3.7,2.3c2.6,1.1,4.4,2.2,5.4,3.5
			c0.4,0.5,0.6,1,0.8,1.7C776.5,223.7,776.6,224.5,776.6,225.2z"/>
		<path d="M809.5,208.5c0,0.1-0.1,0.3-0.2,0.4c-0.5,0.1-0.9,0.3-1.3,0.5c-0.2,0.1-0.5,0.4-0.7,0.8s-0.4,0.7-0.4,1c0,1.1,0,1.5,0,1.3
			c-0.1,0.3-0.2,0.7-0.3,1.3c0,0.1,0.1,0.8,0.2,1.9c0,0.4,0.1,0.9,0.1,1.5c0,0.7,0,1.6-0.1,2.6c-0.1,1-0.1,1.5-0.1,1.4v2.7
			c0,2.7,0.3,4.6,1,5.7c0.1,0.2,0.4,0.4,0.8,0.6c0.4,0.2,0.8,0.3,1.1,0.4c-0.1,0.1-0.2,0.3-0.4,0.5h-8.5c0-0.1,0-0.2-0.1-0.3
			s-0.1-0.3-0.1-0.3c0.3-0.1,0.6-0.3,1.1-0.5c0.4-0.2,0.7-0.7,1.1-1.7c0.3-0.8,0.4-1.4,0.4-1.9v-2.6c0-0.2,0-0.7-0.1-1.5
			c-0.1-0.6-0.1-1.1,0-1.5c0-0.3-0.1-0.8-0.3-1.4c-0.6,0.4-1.5,0.8-2.7,1c-0.6,0.1-1.2,0.1-1.6,0.1c-0.6-0.1-1-0.2-1-0.2h-4.6
			c-0.3,0.2-0.6,0.4-1.1,0.9c-0.2,0.3-0.2,0.7-0.2,1.2c0.1,0.2,0.2,0.5,0.3,0.9c0-0.2-0.1,0.2-0.1,1c0,0.1,0,1,0.1,2.8
			c0.1,2,0.8,3.1,2.1,3.3c0,0,0.3,0.1,0.8,0.3c-0.4,0.4-0.9,0.7-1.4,0.7c-0.1,0-0.3,0-0.5-0.1c-0.2,0-0.4-0.1-0.5-0.1L785,231
			c0-0.2,0.3-0.4,0.8-0.7c0.6-0.3,1.1-0.7,1.5-1.2c0.3-0.4,0.4-1.1,0.5-2.3c0.1-1.1,0.1-2.1,0-2.9c0-0.1-0.1-0.2-0.2-0.4
			c0-0.9,0-2.3,0.2-4.2c0-0.1,0.1-0.3,0.2-0.6c0.1-0.3,0.2-0.5,0.1-0.7c-0.1-0.2-0.3-0.6-0.5-1.1c0,0.1,0.1-0.3,0.1-1.2
			c0-0.2,0-0.5-0.1-0.9s-0.1-0.6-0.1-0.6v-2.9c0-0.4-0.3-0.9-0.8-1.4c-0.5-0.5-1.1-0.9-1.6-1.1c0,0,0.1-0.2,0.4-0.6
			c0.4,0,1.1-0.1,2-0.1c0.9-0.1,1.3-0.1,1.4-0.1h3.4c0.2,0,0.3,0,0.5-0.1c0.2,0,0.3-0.1,0.3-0.1c0.2,0,0.7,0.2,1.3,0.7
			c-0.4,0.2-0.8,0.4-1.3,0.6c-0.5,0.3-0.9,0.6-1.1,0.9c-0.4,0.5-0.6,1.5-0.6,3v3.9c0,0.1,0,0.2,0.1,0.2c0,0.1,0.1,0.2,0.1,0.2
			c0.6,0.3,1.1,0.4,1.5,0.4h7.2c0.3,0,0.6,0.1,1.1,0.2c0,0,0.2,0.1,0.5,0.2c0.2,0.1,0.4,0.2,0.6,0.2c0.1,0,0.2,0,0.2,0
			c0.4-0.5,0.6-1,0.6-1.7c0-0.3-0.1-0.8-0.2-1.4c-0.1-0.6-0.2-1-0.2-1.3c0-0.2,0-0.6-0.1-1.1c-0.1-0.7-0.1-1.1-0.1-1.4
			c-0.1-1.2-1-2.2-2.7-3.1c0.2-0.2,0.4-0.4,0.5-0.4h2.7c-0.2,0,0.3,0,1.5,0c1,0,1.8,0,2.3,0C807.6,208.2,808.4,208.3,809.5,208.5z"
			/>
		<path d="M828.9,210.2c0,0.2-0.1,0.4-0.2,0.8l-1.1,0.2c-0.5,0.1-0.7,0.3-0.9,0.6c-0.1,0.1-0.2,0.4-0.4,0.6c0,0.1-0.2,0.8-0.5,2.1
			l-0.1,7.6c-0.1,0.3-0.1,0.5-0.1,0.5l0.1,0.4l0,2.8c-0.1,0.4-0.1,0.9,0,1.6c0.1,0.8,0.3,1.4,0.5,1.9c0.1,0.2,0.3,0.4,0.6,0.6
			c0.6,0.4,1.3,0.5,1.9,0.5c0,0.2-0.1,0.4-0.2,0.7h-2.1c0,0-0.2,0-0.6,0c-0.4,0-0.6,0-0.6,0c0,0-0.2,0-0.5,0c-0.3,0-0.4,0-0.5,0
			c0,0-0.1,0-0.3,0c-0.2,0-0.3,0-0.4,0s-0.1,0-0.2,0c-0.1,0-0.2,0-0.2,0l-3.8,0.1c-0.3,0-0.5-0.1-0.5-0.4c0-0.3,0.1-0.4,0.3-0.5
			c0.4-0.1,0.8-0.1,1.2-0.2c0.4-0.1,0.7-0.3,0.9-0.5c0-0.1,0.1-0.4,0.2-0.7c0.2,0,0.4,0,0.8,0.1c0.1-0.5,0.2-0.8,0.2-1
			c0-0.1-0.1-0.3-0.2-0.5c0.1-0.2,0.1-0.4,0.1-0.6c0-0.1-0.2-0.3-0.3-0.6c-0.2-0.3-0.2-0.4-0.2-0.4c0,0.1,0.1-0.3,0.3-1.1
			c0-0.1,0-0.2-0.1-0.4c0.2-0.3,0.3-0.6,0.3-0.7c0,0,0-0.4-0.1-1.2c0-0.1,0-0.2-0.1-0.3c-0.1-0.2-0.1-0.3-0.1-0.3c0,0,0-0.1,0.1-0.3
			c0,0,0,0,0-0.2v-2.2c0,0,0-0.1,0.1-0.3s0.1-0.3,0.1-0.3c0,0,0-0.1-0.1-0.1c0-0.1-0.1-0.1-0.1-0.2c0,0,0-0.2,0.1-0.8
			c0-0.1,0-0.5-0.1-1v-1.4c0-0.1-0.1-0.3-0.3-0.6c0-0.1,0-0.4-0.1-0.7c0-0.2-0.1-0.4-0.1-0.8c-0.1-0.1-0.2-0.3-0.4-0.5
			c0-0.1-0.1-0.3-0.3-0.5c-0.2-0.4-0.5-0.6-0.7-0.7c-0.3-0.1-0.7-0.2-1.3-0.4c0-0.2,0.1-0.4,0.2-0.7h0.2c0,0,0.1,0,0.3,0
			c0.2,0,0.3,0,0.3,0L828.9,210.2z"/>
		<path d="M854,212.9c0.1,0.5,0,1.6-0.2,3.4c-0.1,0.6-0.4,1.3-1.1,2.2c-0.6,0.8-1.2,1.5-1.9,1.9c-0.6,0.4-1.4,0.7-2.4,0.8
			c-0.3,0.1-0.6,0.2-1.1,0.4c-1,0.1-2.2,0.1-3.6,0.1c-0.1,0-0.2,0.1-0.3,0.2c0,0.5,0.1,1.9,0.2,4.4c0,0.5,0.1,1.1,0.3,1.9
			c0,0.2,0.1,0.5,0.2,1c0.2,0.4,0.6,0.7,1.2,0.9c0.4,0.1,0.9,0.3,1.3,0.4c0,0.1,0,0.3,0,0.5c-0.4,0.1-0.7,0.2-1.1,0.2h-1.9
			c0,0-0.2,0-0.5-0.1c-0.3-0.1-0.5-0.1-0.6-0.1c-0.4,0-0.9,0-1.7,0.1s-1.2,0.1-1.2,0.1h-1.8c-0.2,0-0.4-0.1-0.7-0.2c0,0,0-0.1,0-0.2
			c0-0.1,0-0.2,0-0.2c0.6-0.2,1-0.3,1.1-0.4c0.4-0.2,0.8-0.6,1.1-1c0.1-0.2,0.2-0.8,0.2-1.7c0-0.1,0.1-0.5,0.1-1.1
			c0.1-0.5,0.1-1,0.1-1.3v-2.3c0-0.6,0-1.1-0.1-1.7c0-0.6,0.2-1.2,0.4-1.6c-0.1-0.1-0.2-0.2-0.3-0.5c-0.1-0.7-0.1-1.3-0.1-2
			c0,0,0-0.2,0.1-0.6c0.1-0.3,0.1-0.6,0-0.8c-0.2-0.5-0.2-1.2-0.1-2c0-0.2,0-1-0.2-2.2c0-0.4-0.1-0.9-0.3-1.5
			c-0.3-0.3-0.6-0.5-1-0.6c-0.4-0.1-0.7-0.1-1.1-0.2c0-0.7,0-0.8-0.1-0.4c0-0.2,0.1-0.3,0.4-0.3c0.5,0,1.3-0.1,2.3-0.2
			c1-0.1,1.5-0.1,1.5-0.1h2.3c0.4,0,0.9,0,1.3-0.1c0.5-0.1,0.8-0.1,1.2-0.1c0.4,0,0.9,0,1.5,0.1c0.4,0.1,0.9,0.2,1.7,0.4
			c0.1,0,0.2,0.1,0.3,0.2c1.1,0.2,2.2,0.7,3,1.6C853.3,210.8,853.7,211.8,854,212.9z M850.1,215c0-0.4,0-0.6-0.1-0.8
			c-0.6-1.6-1.1-2.6-1.5-3.1c-0.6-0.6-1.2-1-1.9-1.2c-0.5-0.1-1.2-0.1-2.3-0.1c-0.1,0-0.3,0.1-0.5,0.2c-0.2,2-0.3,3.7-0.4,5
			c0.1,0.1,0.1,0.2,0.2,0.4c0,0.2-0.1,0.9-0.2,2.1c-0.1,0.8,0,1.6,0.1,2.4c0,0,0.1,0.1,0.1,0.1h1.8c0.2,0.1,0.4,0.1,0.6,0.1
			c0.7,0,1.4-0.2,2-0.7c0.6-0.4,1-0.8,1.2-1.1C849.9,217.3,850.1,216.2,850.1,215z"/>
		<path d="M904.7,219.6c0,0.7,0,1.2-0.1,1.6c-0.1,0.3-0.2,0.7-0.4,1.3c0,0.6-0.2,1.2-0.4,1.9c-0.2,0.2-0.5,0.6-0.9,1.2
			c-0.1,0.4-0.4,0.9-0.8,1.6c-0.4,0.4-0.9,0.9-1.6,1.6c-0.1,0-0.2,0.1-0.4,0.2c-0.2,0.1-0.4,0.4-0.8,0.6c-2,1.1-3.9,1.7-5.7,1.8
			h-2.4c0,0,0,0-0.1-0.1c-1.3,0-2.3-0.2-2.9-0.5c-0.2,0-0.4-0.1-0.7-0.2c-0.5-0.2-1.2-0.5-2.2-1c-1.2-0.7-2.3-1.8-3.3-3.1
			c-0.6-0.8-1.1-1.7-1.5-2.9c-0.4-1.1-0.6-2-0.7-2.8c-0.1-1.3,0-2.5,0.1-3.8c0.1-0.2,0.2-0.4,0.3-0.7c0.1-0.4,0.2-0.9,0.4-1.6
			c0.3-0.4,0.6-1,1.1-1.9c0.1-0.1,0.1-0.3,0.1-0.5c0.1-0.1,0.2,0,0.4,0.1c0.1-0.2,0.1-0.4,0-0.7c0.2,0,0.4-0.2,0.7-0.3
			c0.1-0.3,0.3-0.6,0.7-0.9c0.7-0.4,1.8-1,3.3-1.7c0.4-0.2,0.9-0.3,1.4-0.5c1.5-0.3,2.5-0.5,3-0.5h1.4c1.1,0,2,0.1,2.8,0.3
			c0.4,0.1,1.4,0.5,2.8,1c0.3,0.2,0.8,0.5,1.4,0.9c0.9,0.6,1.8,1.4,2.6,2.5c0.7,0.9,1.1,1.8,1.3,2.6c0.1,0.1,0.2,0.3,0.4,0.6
			c0.3,0.7,0.4,1.8,0.5,3.2c0,0,0,0.2,0.1,0.3S904.7,219.5,904.7,219.6z M900.6,220.1c-0.1-1.5-0.4-2.9-0.9-4.2
			c-0.6-1.6-1.3-2.9-2.2-3.8c-1.2-1.3-2.5-2.1-3.9-2.3c-1.3-0.2-2.2-0.3-2.7-0.2c-1,0.1-1.8,0.3-2.5,0.6c-0.1,0-0.6,0.4-1.7,1
			c-0.1,0.1-0.2,0.3-0.3,0.4c-0.1,0-0.2,0.1-0.3,0.1c-0.2,0.3-0.5,0.7-0.9,1.3c0,0.1-0.1,0.4-0.2,0.6c-0.2,0.3-0.4,0.6-0.6,1
			c-0.1,0.4-0.3,1.1-0.5,2c0,0.3,0,0.9,0,1.5c0,0,0,0.1-0.1,0.2s-0.1,0.2-0.1,0.3c0.2,0.8,0.4,1.9,0.7,3.3c0,0.1-0.1,0.2-0.1,0.3
			c0.1,0.2,0.2,0.4,0.4,0.7c0,0.2,0,0.4,0.1,0.6c0.5,1,0.8,1.5,0.8,1.6c0.4,0.6,0.9,1.2,1.5,1.8c0,0,0.1,0.3,0.2,0.7
			c0,0,0.3,0,0.6,0.1c0.6,0.5,1,0.9,1.4,1.1c0.9,0.5,2.5,0.7,4.9,0.5c0.2-0.1,0.4-0.1,0.8-0.2c0.4-0.1,1-0.3,1.7-0.6
			c0.2-0.2,0.4-0.3,0.7-0.6c1.2-0.8,1.9-1.7,2.2-2.8c0.1-0.1,0.3-0.4,0.4-0.6c0-0.2,0.1-0.5,0.1-0.8c0.1-0.1,0.1-0.2,0.2-0.3
			c0-0.3,0.1-0.9,0.2-1.8C900.6,220.9,900.7,220.4,900.6,220.1z"/>
		<path d="M928.5,208.4c0.1,0.6,0.1,2.2-0.1,4.8c0,0.2-0.2,0.4-0.5,0.7c0,0-0.2,0-0.6,0c-0.1-0.9-0.2-1.5-0.3-1.8
			c-0.2-0.7-0.6-1.2-1.2-1.3s-1.8-0.2-3.7-0.2h-3.2c-0.6,0-0.9,0.6-0.9,1.7c0-0.1,0.1,0.5,0.2,1.9c0,0.3,0,0.8-0.1,1.5
			c-0.1,0.8-0.2,1.3-0.2,1.7c0,0.5,0.1,1,0.3,1.4h2.4c0,0,0.2,0,0.6,0.1s0.6,0.1,0.6,0.1h2.3c0.9,0,1.6-0.5,2.3-1.4
			c0-0.2,0.1-0.4,0.3-0.8c0.1-0.1,0.4-0.2,0.8-0.1c0.1,0.4,0.1,0.9,0.2,1.6c0,0.9-0.2,2.6-0.4,5.2c0,0.3-0.3,0.5-0.9,0.4
			c-0.1-0.5-0.2-1-0.3-1.5c-0.2-0.6-0.5-1-1.1-1.2c-0.3-0.1-1.1-0.1-2.3-0.1h-2.7c-0.1,0.1-0.4,0.1-0.9,0.1c-0.4,0-0.7,0.1-0.9,0.3
			c0,0.3,0,0.7-0.1,1.3c0,0.1-0.1,0.5-0.3,1.1c-0.1,0.4-0.2,0.8-0.2,1.1c0.1,0.2,0.2,0.4,0.3,0.7c0,0.2,0,0.6-0.1,1
			c0,0.4-0.1,0.8-0.1,1c0,0.9,0.3,1.7,1,2.2c0,0,0.9,0.4,2.7,1.1c-0.2,0.3-0.5,0.4-0.9,0.4c0.7,0,0.4,0-1.1-0.1
			c-1.1,0-2.5-0.1-4.2-0.2c-0.9,0-1.5,0-1.7,0c-0.2,0.1-0.4,0.2-0.7,0.3c0,0-0.4-0.1-1.4-0.3c0.1-0.2,0.4-0.5,0.9-0.9
			c0.5-0.4,0.8-0.6,0.9-0.8c0.4-0.8,0.7-1.6,0.7-2.4v-4.4c0,0,0-0.4,0-1.3c0-0.9,0-1.5,0-1.9c0,0.1,0-0.2,0-0.6c0-0.3,0-0.6,0-0.9
			c0-0.4-0.1-0.6-0.3-0.9c0.4-0.6,0.6-1.3,0.6-2.1s-0.2-1.8-0.6-2.8c0-0.2,0-0.5,0-0.9c0-0.2,0-0.4-0.1-0.5c-0.2-0.5-0.6-1-1.1-1.4
			c-0.1-0.1-0.4-0.2-0.9-0.3c-0.1-0.1-0.1-0.4-0.1-0.7c-0.1,0,0.8,0,2.5-0.1c2.7,0,6.8-0.1,12.2-0.1
			C926.9,208.2,927.6,208.3,928.5,208.4z"/>
		<path d="M970.8,208.5c-0.1,0.5-0.2,1-0.3,1.7v4.2c-0.1,0-0.2,0-0.3,0.1c-0.2,0-0.3,0.1-0.3,0.1c0-0.1-0.1-0.8-0.3-2.2
			c-0.1-0.8-0.5-1.4-1.1-1.8c-0.3-0.2-0.9-0.2-1.9,0c-0.5,0-1.2,0.2-2.1,0.3c-0.3,0.1-0.5,0.3-0.6,0.6c-0.2,0.8-0.2,1.9-0.1,3.4
			c0.2,1.5,0.1,3.5-0.1,6c0,0,0.1,0.8,0.2,2.5c0,0.6-0.1,1.5,0,2.6c0.1,0.6,0.3,1.6,0.6,2.8c0.1,0.6,0.5,1,1.2,1.2
			c0.6,0.1,1.1,0.3,1.7,0.4c0,0.2-0.1,0.4-0.4,0.8h-10.3c-0.1,0-0.1-0.1-0.1-0.2c0,0,0-0.1,0-0.3c0.4-0.1,0.9-0.3,1.7-0.5
			c0.6-0.3,1.1-0.7,1.4-1.2c0.1-0.1,0.2-0.7,0.3-1.6c0-1.7,0.1-3.4,0.2-5.2v-6.5h0.5c0,0,0.1-0.1,0.1-0.2c-0.2-0.4-0.4-1-0.6-1.7
			c0-0.1-0.1-1.1-0.3-2.8h-3.4c-0.4,0-0.8,0.2-1.3,0.6s-0.8,0.7-0.9,0.9c-0.3,1.1-0.5,1.8-0.7,2.2c-0.1,0.2-0.4,0.3-0.8,0.3
			c0,0,0-0.2-0.1-0.5c0-0.2,0-0.4,0-0.5c0.1-0.5,0.3-1.3,0.4-2.3c0.2-1.3,0.3-2.1,0.4-2.5l0.6-0.8c-0.4,0,0.7-0.1,3.3-0.1
			c0.7,0,1.9,0.1,3.4,0.2c1.5,0.1,2.3,0.2,2.2,0.2h3c0,0,0.4-0.1,1.1-0.2c0.8-0.1,1.6-0.2,2.3-0.2c0.3,0,0.6-0.1,0.8-0.1
			C970.4,208.2,970.6,208.2,970.8,208.5z"/>
		<path d="M1003.5,208.5c0,0.1-0.1,0.3-0.2,0.4c-0.5,0.1-0.9,0.3-1.3,0.5c-0.2,0.1-0.5,0.4-0.7,0.8s-0.4,0.7-0.4,1
			c0,1.1,0,1.5,0,1.3c-0.1,0.3-0.2,0.7-0.3,1.3c0,0.1,0.1,0.8,0.2,1.9c0,0.4,0.1,0.9,0.1,1.5c0,0.7,0,1.6-0.1,2.6
			c-0.1,1-0.1,1.5-0.1,1.4v2.7c0,2.7,0.3,4.6,1,5.7c0.1,0.2,0.4,0.4,0.8,0.6c0.4,0.2,0.8,0.3,1.1,0.4c-0.1,0.1-0.2,0.3-0.4,0.5h-8.5
			c0-0.1,0-0.2-0.1-0.3c0-0.2-0.1-0.3-0.1-0.3c0.3-0.1,0.6-0.3,1.1-0.5c0.4-0.2,0.7-0.7,1.1-1.7c0.3-0.8,0.4-1.4,0.4-1.9v-2.6
			c0-0.2,0-0.7-0.1-1.5c-0.1-0.6-0.1-1.1,0-1.5c0-0.3-0.1-0.8-0.3-1.4c-0.6,0.4-1.5,0.8-2.7,1c-0.6,0.1-1.2,0.1-1.6,0.1
			c-0.6-0.1-1-0.2-1-0.2h-4.6c-0.3,0.2-0.6,0.4-1.1,0.9c-0.2,0.3-0.2,0.7-0.2,1.2c0.1,0.2,0.2,0.5,0.3,0.9c0-0.2-0.1,0.2-0.1,1
			c0,0.1,0,1,0.1,2.8c0.1,2,0.8,3.1,2.1,3.3c0,0,0.3,0.1,0.8,0.3c-0.4,0.4-0.9,0.7-1.4,0.7c-0.1,0-0.3,0-0.5-0.1
			c-0.2,0-0.4-0.1-0.5-0.1l-7.2-0.1c0-0.2,0.3-0.4,0.8-0.7c0.6-0.3,1.1-0.7,1.5-1.2c0.3-0.4,0.4-1.1,0.5-2.3c0.1-1.1,0.1-2.1,0-2.9
			c0-0.1-0.1-0.2-0.2-0.4c0-0.9,0-2.3,0.2-4.2c0-0.1,0.1-0.3,0.2-0.6c0.1-0.3,0.2-0.5,0.1-0.7c-0.1-0.2-0.3-0.6-0.5-1.1
			c0,0.1,0.1-0.3,0.1-1.2c0-0.2,0-0.5-0.1-0.9s-0.1-0.6-0.1-0.6v-2.9c0-0.4-0.3-0.9-0.8-1.4c-0.5-0.5-1.1-0.9-1.6-1.1
			c0,0,0.1-0.2,0.4-0.6c0.4,0,1.1-0.1,2-0.1c0.9-0.1,1.3-0.1,1.4-0.1h3.4c0.2,0,0.3,0,0.5-0.1c0.2,0,0.3-0.1,0.3-0.1
			c0.2,0,0.7,0.2,1.3,0.7c-0.4,0.2-0.8,0.4-1.3,0.6c-0.5,0.3-0.9,0.6-1.1,0.9c-0.4,0.5-0.6,1.5-0.6,3v3.9c0,0.1,0,0.2,0.1,0.2
			c0,0.1,0.1,0.2,0.1,0.2c0.6,0.3,1.1,0.4,1.5,0.4h7.2c0.3,0,0.6,0.1,1.1,0.2c0,0,0.2,0.1,0.5,0.2c0.2,0.1,0.4,0.2,0.6,0.2
			c0.1,0,0.2,0,0.2,0c0.4-0.5,0.6-1,0.6-1.7c0-0.3-0.1-0.8-0.2-1.4c-0.1-0.6-0.2-1-0.2-1.3c0-0.2,0-0.6-0.1-1.1
			c-0.1-0.7-0.1-1.1-0.1-1.4c-0.1-1.2-1-2.2-2.7-3.1c0.2-0.2,0.4-0.4,0.5-0.4h2.7c-0.2,0,0.3,0,1.5,0c1,0,1.8,0,2.3,0
			C1001.7,208.2,1002.5,208.3,1003.5,208.5z"/>
		<path d="M1030.6,225.1c0,0.6-0.1,1.5-0.2,2.7c-0.1,0.3-0.3,0.8-0.5,1.3c0,0.2-0.1,0.6-0.3,1c0,0.1-0.2,0.4-0.5,0.7
			c-0.3,0.4-0.6,0.6-0.8,0.6h-4.6c-0.1,0-0.6,0-1.6-0.1c-1,0-1.5-0.1-1.6-0.1h-2.8c-0.1,0-0.4,0-1.1-0.1s-1-0.1-1.1-0.1h-2.7
			l-0.2-0.3c0.1-0.2,0.7-0.5,1.6-1.1c0.6-0.4,0.9-0.9,0.9-1.5v-5.7c0-0.9,0.1-2.2,0.4-3.8c-0.2-0.5-0.2-1.1-0.1-1.8
			c-0.2-0.2-0.3-0.4-0.3-0.8c0,0,0.1-0.5,0.4-1.5c0-0.1,0-0.3-0.2-0.5c-0.2-0.3-0.3-0.5-0.3-0.5c-0.1-0.3-0.1-0.7-0.1-1.2
			c0-0.8,0-1.2,0-1.2c0-0.4-0.1-0.7-0.3-1c-0.2-0.4-0.5-0.6-0.9-0.8c-0.4-0.2-0.7-0.3-1.1-0.5c0.2-0.4,0.4-0.6,0.5-0.6
			c0.4,0,0.9,0.1,1.6,0c0.8-0.2,1.1-0.3,1.1-0.3h3.2c0,0,0.4,0,1.1,0.1s1.2,0.1,1.6,0.1c0.1,0,1.4-0.1,3.6-0.2c0.5,0,1.9,0,4.1,0.1
			c0.2,0.1,0.3,0.3,0.3,0.5c0,0.1,0,0.3-0.1,0.5c-0.1,0.2-0.1,0.4-0.1,0.5c0,0.4-0.1,1.7-0.4,4c0,0.1-0.2,0.2-0.5,0.3
			c-0.1-0.1-0.3-0.8-0.7-1.9c-0.2-0.8-0.7-1.2-1.3-1.3c-0.3-0.1-0.5-0.1-0.8-0.2c-0.4-0.1-0.7-0.1-0.9,0c-0.5,0.2-1.7,0.2-3.5,0.1
			c-1-0.1-1.7-0.1-2.2,0.1c-0.1,0-0.2,0.2-0.3,0.4c0.4,1.4,0.5,2.7,0.1,3.8c0-0.1,0,0.2,0,0.9c0,0.2,0,0.5-0.1,1.1
			c-0.1,0.4-0.1,0.8,0,1.1c0,0.1,0.1,0.3,0.3,0.5h6.8c0.2-0.1,0.4-0.1,0.6-0.2c0.3-0.1,0.6-0.3,0.7-0.6c0.1-0.3,0.3-0.8,0.7-1.3
			c0.4,0,0.6,0.1,0.7,0.4c0,0.7-0.1,1.6-0.1,2.6c0,0.7-0.1,1.8-0.3,3.1c0,0.2-0.3,0.3-0.7,0.2c-0.2-0.3-0.4-0.7-0.8-1.1
			c-0.7-0.6-1.4-0.8-2-0.8h-2.5c-0.2,0-0.5,0-0.9-0.1c-0.5-0.1-0.8-0.1-1-0.1c-0.6,0-1,0.2-1.2,0.6c-0.2,0.4-0.3,0.8-0.3,1
			c0,0.2,0,0.6,0.1,1.2c0.1,0.6,0.1,1.1,0.1,1.4c0,0.2-0.1,0.5-0.2,1c-0.1,0.5-0.2,0.8-0.2,1.1c0,0.2,0,0.4,0.1,0.6
			c0.1,0.3,0.4,0.6,1,1.1s1.1,0.6,1.5,0.7c0.1,0,0.1,0,0.2,0.1c0.1,0,0.2,0.1,0.3,0.1h3c0.7,0,1.2-0.1,1.7-0.3
			c0.6-0.3,1.3-0.8,1.9-1.5c0.7-0.8,1-1.5,1.1-2.1C1029.7,225,1030.1,225,1030.6,225.1z"/>
		<path d="M1077.3,230.5c-0.1,0.1-0.3,0.3-0.5,0.5c-0.5,0.3-0.9,0.5-1.2,0.5h-2.2c-0.7,0-1.3,0-1.7-0.1c-0.3-0.1-0.7-0.2-1.2-0.4
			c-0.5-0.1-1.3-0.9-2.4-2.2c-0.1-0.1-0.6-0.9-1.4-2.3c-0.8-1.3-1.4-2.4-1.8-3.3c-0.1-0.3-0.3-0.8-0.6-1.3c-0.1-0.1-0.4-0.2-0.9-0.1
			c-0.3,0-0.6,0.1-0.9,0.1c-0.4,0-1,0-1.8,0c-0.1,0-0.2,0.1-0.3,0.2c0,0.5,0.1,2,0.2,4.4c0,0.5,0.1,1.1,0.3,1.9c0,0.2,0.1,0.5,0.2,1
			c0.3,0.4,0.7,0.8,1.2,0.9c0.5,0.1,0.9,0.3,1.4,0.4c0,0.1,0,0.3,0,0.5c-0.4,0.1-0.7,0.2-1.1,0.2h-1.9c0,0-0.2,0-0.5-0.1
			s-0.5-0.1-0.7-0.1c-0.4,0-1.4,0.1-2.9,0.2h-1.8c-0.2,0-0.4-0.1-0.7-0.2c0,0,0-0.1,0-0.2c0-0.1,0-0.2,0-0.2c0.6-0.2,1-0.3,1.2-0.4
			c0.4-0.2,0.8-0.6,1.1-1.1c0.1-0.2,0.2-0.8,0.3-1.7c0-0.1,0-0.5,0.1-1.1c0.1-0.6,0.1-1,0.1-1.3c0-1.6,0-2.5,0-2.7
			c0-0.1,0.1-0.4,0.3-0.7c-0.1-0.1-0.2-0.2-0.3-0.5c-0.1-0.2-0.1-0.5-0.1-0.9v-1.8c0,0,0-0.2-0.1-0.6c0,0.1,0.1-0.7,0.2-2.4
			c0,0,0-0.1-0.1-0.1c-0.1-0.5-0.1-1.1,0-1.9c0-0.2,0-0.9-0.2-2.2c0-0.4-0.1-0.9-0.3-1.5c-0.3-0.3-0.6-0.5-1-0.6
			c-0.4-0.1-0.7-0.2-1.1-0.2c0-0.7,0-0.8-0.1-0.4c0-0.2,0.1-0.3,0.4-0.3c0.5,0,1.3-0.1,2.4-0.2c1-0.1,1.5-0.1,1.5-0.1h2.3
			c0.4,0,0.9,0,1.3-0.1c0.5-0.1,0.9-0.1,1.2-0.1c0.4,0,0.9,0,1.5,0.1c0.4,0.1,1,0.2,1.7,0.4c0.1,0,0.2,0.1,0.4,0.2
			c1.2,0.2,2.2,0.7,3.1,1.7c0.5,0.5,0.9,1.4,1.3,2.8c0,0.2,0,0.5,0.1,0.9c0,0.3,0,0.8-0.1,1.4c-0.2,1.3-0.5,2.3-0.9,2.9
			c-0.4,0.6-1.2,1.5-2.4,2.5c0,0.3,0,0.5,0.1,0.7c0.8,1.5,1.5,2.9,2.3,4.4c0.9,1.6,2,2.9,3.3,4c0.1,0.1,0.6,0.3,1.3,0.5
			c0.5,0.1,0.9,0.2,1.2,0.1c0.5-0.1,0.8-0.1,1-0.1C1077.3,230.2,1077.3,230.4,1077.3,230.5z M1067.4,215c0-0.4,0-0.7-0.1-0.8
			c-0.6-1.6-1.1-2.6-1.5-3.1c-0.6-0.6-1.2-1-1.9-1.2c-0.5-0.1-1.2-0.1-2.3-0.1c-0.1,0-0.3,0.1-0.5,0.2c-0.2,2.1-0.3,3.8-0.4,5
			c0.1,0.1,0.1,0.2,0.2,0.4c0,0.2-0.1,0.9-0.2,2.1c-0.1,0.8-0.1,1.6,0.1,2.4c0,0,0.1,0.1,0.1,0.2h1.8c0.2,0,0.4,0.1,0.7,0.1
			c0.7,0,1.4-0.2,2.1-0.7c0.7-0.5,1.1-0.8,1.2-1.1C1067.1,217.4,1067.4,216.3,1067.4,215z"/>
		<path d="M1091.9,210.2c0,0.2-0.1,0.4-0.2,0.8l-1.1,0.2c-0.5,0.1-0.7,0.3-0.9,0.6c-0.1,0.1-0.2,0.4-0.4,0.6c0,0.1-0.2,0.8-0.5,2.1
			l-0.1,7.6c-0.1,0.3-0.1,0.5-0.1,0.5l0.1,0.4l0,2.8c-0.1,0.4-0.1,0.9,0,1.6c0.1,0.8,0.3,1.4,0.5,1.9c0.1,0.2,0.3,0.4,0.6,0.6
			c0.6,0.4,1.3,0.5,1.9,0.5c0,0.2-0.1,0.4-0.2,0.7h-2.1c0,0-0.2,0-0.6,0c-0.4,0-0.6,0-0.6,0c0,0-0.2,0-0.5,0c-0.3,0-0.4,0-0.5,0
			s-0.1,0-0.3,0c-0.2,0-0.3,0-0.4,0s-0.1,0-0.2,0c-0.1,0-0.2,0-0.2,0l-3.8,0.1c-0.3,0-0.5-0.1-0.5-0.4c0-0.3,0.1-0.4,0.3-0.5
			c0.4-0.1,0.8-0.1,1.2-0.2c0.4-0.1,0.7-0.3,0.9-0.5c0-0.1,0.1-0.4,0.2-0.7c0.2,0,0.4,0,0.8,0.1c0.1-0.5,0.2-0.8,0.2-1
			c0-0.1-0.1-0.3-0.2-0.5c0.1-0.2,0.1-0.4,0.1-0.6c0-0.1-0.2-0.3-0.3-0.6c-0.2-0.3-0.2-0.4-0.2-0.4c0,0.1,0.1-0.3,0.3-1.1
			c0-0.1,0-0.2-0.1-0.4c0.2-0.3,0.3-0.6,0.3-0.7c0,0,0-0.4-0.1-1.2c0-0.1,0-0.2-0.1-0.3s-0.1-0.3-0.1-0.3c0,0,0-0.1,0.1-0.3
			c0,0,0,0,0-0.2v-2.2c0,0,0-0.1,0.1-0.3s0.1-0.3,0.1-0.3c0,0,0-0.1-0.1-0.1c0-0.1-0.1-0.1-0.1-0.2c0,0,0-0.2,0.1-0.8
			c0-0.1,0-0.5-0.1-1v-1.4c0-0.1-0.1-0.3-0.3-0.6c0-0.1,0-0.4-0.1-0.7c0-0.2-0.1-0.4-0.1-0.8c-0.1-0.1-0.2-0.3-0.4-0.5
			c0-0.1-0.1-0.3-0.3-0.5c-0.2-0.4-0.5-0.6-0.7-0.7c-0.3-0.1-0.7-0.2-1.3-0.4c0-0.2,0.1-0.4,0.2-0.7h0.2c0,0,0.1,0,0.3,0
			s0.3,0,0.3,0L1091.9,210.2z"/>
		<path d="M1124.4,209c-0.2,0-0.6,0.1-1,0.2c-0.5,0.1-0.8,0.4-1.1,0.9c-0.4,0.7-0.6,1.3-0.7,2c-0.2,1.1-0.2,2-0.2,2.7
			c0,0,0,0.6,0.1,1.6c0,1,0.1,1.5,0.1,1.6v2.9c0,0,0,0.2,0.1,0.4c0,0.2,0.1,0.4,0,0.5c-0.1,1.5-0.1,2.3-0.1,2.5c0,0.1,0,0.3,0.1,0.6
			c0,0.3,0.1,0.5,0.1,0.5v5.6c0,0.1,0,0.1,0,0.1c0,0,0,0,0,0c-0.8,0.1-1.2,0.2-1.1,0.2c-0.5,0-0.8-0.1-0.9-0.2
			c-0.8-0.8-2.1-2.1-3.7-4.1c-0.3-0.4-0.7-0.9-1.3-1.7c-0.5-0.5-1.2-1.2-2.1-2.2c-0.2-0.4-0.6-0.9-1.1-1.6c-1.1-1.3-2.6-3.3-4.6-5.8
			c-0.3-0.2-0.6-0.5-1.1-1c0-0.1,0-0.2-0.1-0.4c-0.1-0.2-0.4-0.6-0.7-1c-0.3,0.1-0.4,0.3-0.4,0.6c0,0,0.1,0.6,0.3,1.9
			c0,0.1,0,0.2,0,0.3c0,0.2-0.1,0.3-0.1,0.3c0,0.5,0,1.2,0.1,2.2c0,1,0.1,1.5,0.1,1.5v2.5c0,0.1,0,0.7,0,1.9c0,1.2,0,1.8,0,1.8
			c0,2.5,0.9,3.9,2.7,4c0,0,0.1,0.1,0.1,0.2c0.1,0.1,0.1,0.2,0.1,0.2c0,0.2,0,0.4-0.1,0.5h-6.3c0,0-0.3,0-0.7,0.1s-0.6,0.1-0.7,0.1
			h-0.3c-0.1-0.1-0.2-0.2-0.2-0.2c0-0.4,0.1-0.7,0.4-0.9c0.3-0.1,0.8-0.3,1.4-0.5c0.6-0.3,0.9-0.8,1.1-1.6c0.3-1.8,0.4-2.8,0.2-3.2
			c-0.1-0.2-0.1-0.3,0-0.4l0.1-0.2l-0.1-0.2c0-0.1,0-0.4,0-0.7c0-0.3,0-0.6,0-0.7c0-0.2,0-0.5-0.1-0.9s-0.1-0.7-0.1-0.9
			c0,0.2,0-0.2,0.1-1.1c0,0-0.1-0.2-0.2-0.4l0.1-0.1c0-0.1,0.1-0.2,0.1-0.4c0,0,0-0.1,0-0.1c-0.2-1.4-0.3-2.3-0.3-2.8v-2.5
			c-0.1-1.4-0.1-2.3-0.1-2.6c0,0,0-0.1,0.1-0.2c0-0.1,0.1-0.2,0-0.3c-0.9-1-2.1-1.4-3.5-1.3l-0.1-0.1v-0.6c0.1-0.2,0.5-0.2,1-0.2
			c0.1,0,0.5,0,1.5,0.1c0.9,0,1.4,0.1,1.5,0.1c0,0,0.5,0,1.4-0.1c0.9,0,1.3-0.1,1.4-0.1c0.3,0,0.5,0,0.5,0c0.2,0.1,0.5,0.5,1.1,1.2
			c1,1.4,2.5,3.5,4.5,6.3c0.4,0.5,1,1.3,1.9,2.3c-0.1,1.1,0,1.6,0.5,1.6c0,0,0.1,0,0.3-0.1s0.2-0.1,0.3-0.1c0.2,0,0.4,0.2,0.6,0.7
			c0.1,0.2,0.3,0.5,0.4,0.7c0.9,0.7,1.4,1.3,1.7,1.6c0,0.2,0.1,0.5,0.3,0.9c0.1,0.1,0.2,0.2,0.2,0.2c0.1,0,0.1,0,0.2-0.1
			c0.1,0,0.1-0.1,0.1-0.1c0.3,0.4,0.8,0.9,1.3,1.5c0.2-0.1,0.3-0.2,0.3-0.3c0-0.1,0-0.2-0.1-0.3c0-0.1-0.1-0.2-0.1-0.3v-1.9
			c0-0.1,0-0.1,0-0.3c0-0.1,0-0.3,0-0.4c0-0.2,0.1-0.6,0.1-1c-0.1-0.4-0.1-0.9-0.2-1.5c0-0.1,0-0.3,0-0.5c0-0.3,0.1-0.4,0.1-0.5
			c0,0,0-0.1-0.1-0.3s-0.1-0.3-0.1-0.3c0-0.2,0-0.5,0-0.9c0-0.5,0-0.8,0-0.9c0-0.1,0-0.2-0.1-0.3c-0.1-0.1-0.1-0.3-0.1-0.3l0.1-0.5
			c0-0.1,0-0.3-0.1-0.6c-0.1-0.3-0.1-0.5-0.1-0.6c0,0,0-0.2,0.1-0.3c0-0.2,0.1-0.3,0.1-0.4c-0.1-0.5-0.2-1.2-0.4-2.2
			c-0.2-0.6-0.9-1-2.1-1.3c0-0.2,0-0.4-0.1-0.7c0.1-0.1,0.6-0.2,1.3-0.2l3.3,0.1c-0.1,0,0.5,0,1.6-0.1c0.7,0,1.2,0,1.6,0.1V209z
			 M1117.7,222.8l-0.2,0.2l-0.1-0.1l0.1-0.4C1117.7,222.7,1117.7,222.8,1117.7,222.8z"/>
		<path d="M1150.7,208.4c0,0.1,0,0.2,0,0.3c0,0.3-0.1,0.7-0.2,1.4c-0.1,0.7-0.2,1.2-0.2,1.5c0,0.2,0,0.3,0,0.5
			c-0.1,0.2-0.1,0.5-0.2,0.9c0.1,0.5,0.2,0.7,0.2,0.6c0,0.1-0.1,0.2-0.2,0.3c0,0.1,0,0.5,0.1,1c-0.3,0.3-0.6,0.4-0.8,0.4
			c-0.1,0-0.2-0.1-0.3-0.2c0.1-0.7,0.1-1.2,0.1-1.3c0-0.2-0.1-0.5-0.2-0.8c-0.2-0.5-0.7-1.1-1.3-1.8c-0.3-0.2-0.8-0.6-1.8-1
			c-0.1,0-0.5-0.1-1.2-0.3c-0.4-0.1-1.1-0.1-1.9-0.1c-2.4,0-4.3,0.6-5.6,1.9c-0.2,0.1-0.4,0.3-0.7,0.6c-1.1,1.5-1.7,2.9-1.8,4.3
			c-0.1,0.6-0.1,1.5-0.1,2.9v1.2c0-0.1,0.1,0.2,0.3,1c0,0.4,0.1,0.9,0.2,1.5c0.1,0.1,0.2,0.2,0.4,0.5c0,0.2,0.1,0.4,0.1,0.6
			c0.2,0.2,0.4,0.6,0.8,1c0,0.1,0.1,0.4,0.3,0.6c0.5,1,1.4,1.8,2.5,2.5c0.5,0.3,1,0.5,1.5,0.6c2.4,0.6,3.9,0.8,4.6,0.8
			c0.3,0,0.6,0,0.9-0.1c0.1,0,0.4-0.1,0.6-0.2l0.1-0.7c0-0.2-0.1-0.3-0.2-0.3c-0.2-0.1-0.4-0.2-0.4-0.3c-0.1-0.2-0.1-0.6,0-1.1v-2.9
			c-0.1-0.7-0.2-1.3-0.3-1.7c-0.1-0.1-0.2-0.2-0.3-0.3c-0.2-0.6-0.6-1.1-1.3-1.2c-0.3-0.1-0.9-0.1-1.8-0.1c0,0-0.1-0.1-0.2-0.1v-0.5
			c0.3-0.1,0.8-0.1,1.5-0.1c0,0,0.5,0,1.3,0.1s1.2,0.1,1.3,0.1c0.1,0,0.2,0,0.3-0.1c0.1-0.1,0.3-0.1,0.3-0.1
			c0.7-0.1,1.1-0.1,1.2-0.1c1.7,0,2.4,0,2.2,0v0.8c0,0-0.1,0.2-0.2,0.4c-0.1,0.3-0.2,0.4-0.2,0.5c-0.2,0.8-0.3,1.7-0.4,2.5
			c0,1.1-0.1,1.8-0.1,2.3c0,0.8,0.1,2,0.3,3.4c-0.6,0.3-2,0.7-4.4,1.2c-0.2,0-0.5,0-0.9,0c-0.5,0.1-0.9,0.2-1.1,0.2
			c-0.1,0-0.2,0-0.3-0.1c-0.1,0-0.2-0.1-0.3-0.1c-1.2-0.1-2.3-0.2-3.1-0.3c-0.3-0.1-0.8-0.3-1.4-0.5c-1.2-0.2-2.6-1-4-2.3
			c-1.5-1.4-2.5-2.7-2.8-3.9c-0.1-0.3-0.2-0.7-0.4-1.3c-0.1-0.2-0.2-0.5-0.4-0.8c-0.1-0.6-0.2-1.1-0.2-1.5c0,0,0-0.2,0.1-0.7
			c0.1-0.4,0.1-0.7,0-0.9c0-0.2-0.1-0.4-0.1-0.6c0-0.4,0.1-1,0.3-1.8c0.2-0.9,0.4-1.6,0.4-1.9c1.2-2.1,1.9-3.2,2.2-3.2
			c0,0,0.1,0,0.1,0.1c0,0,0.1,0.1,0.1,0.1c0.2,0,0.4,0,0.5-0.1c0-0.1,0.1-0.3,0.3-0.6c1.1-1.2,1.8-1.9,2.1-1.9c0.1,0,0.1,0,0.1,0
			c0,0,0.1,0,0.1,0c0,0,0.2-0.1,0.4-0.2c0.2-0.2,0.3-0.2,0.4-0.2c0,0,0.1,0,0.2,0.1c0.1,0,0.2,0.1,0.2,0.1c0.1,0,0.6-0.1,1.6-0.4
			c1-0.3,1.6-0.4,1.6-0.4h4.7c0.1,0,0.6,0.1,1.7,0.2c1.1,0.1,1.6,0.2,1.7,0.2c0,0,0.2,0,0.6,0S1150.5,208.4,1150.7,208.4z"/>
	</g>
</g>
</svg>
