<?xml version="1.0" encoding="utf-8"?>
<!-- Generator: Adobe Illustrator 21.0.2, SVG Export Plug-In . SVG Version: 6.00 Build 0)  -->
<svg version="1.0" id="Layer_1" xmlns="http://www.w3.org/2000/svg" xmlns:xlink="http://www.w3.org/1999/xlink" x="0px" y="0px"
	 viewBox="0 0 500 500" style="enable-background:new 0 0 500 500;" xml:space="preserve">
<style type="text/css">
	.st0{fill:#DCC14D;}
	.st1{fill:#FFFFFF;}
	.st2{display:none;}
	.st3{display:inline;}
</style>
<g>
	<g id="the_ring">
		<path class="st0" d="M250,54c-75.2,0-136.1,60.9-136.1,136.1S174.8,326.2,250,326.2s136.1-60.9,136.1-136.1S325.2,54,250,54z
			 M250,299c-60.1,0-108.9-48.7-108.9-108.9S189.9,81.3,250,81.3S358.9,130,358.9,190.1S310.1,299,250,299z"/>
		<path class="st1" d="M250,72.4c30.9,0,61,5.2,89.4,15.1c-2.6-2.2-5.2-4.4-8-6.5C305.4,73,278,68.8,250,68.8s-55.4,4.2-81.4,12.2
			c-2.7,2.1-5.4,4.2-8,6.5C189,77.6,219.1,72.4,250,72.4z"/>
		<path class="st1" d="M174.4,100c23.7-19.9,50.1-35.3,78.2-45.9c-3.4-0.1-6.8,0-10.3,0.2c-25.1,10.6-48.8,24.9-70.2,42.9
			s-39.7,38.8-54.5,61.7c-0.8,3.3-1.4,6.7-2,10.1C130.9,143.2,150.7,119.8,174.4,100z"/>
		<path class="st1" d="M134.1,169.7c5.4-30.4,15.7-59.2,30.4-85.4c-2.7,2.1-5.2,4.4-7.7,6.7c-12.5,24.2-21.3,50.4-26.2,78
			c-4.9,27.6-5.5,55.3-2.1,82.3c1.5,3.1,3.2,6.1,5,9C128.6,230.7,128.7,200.1,134.1,169.7z"/>
		<path class="st1" d="M148.1,249c-15.5-26.8-26-55.4-31.6-84.9c-0.7,3.4-1.2,6.7-1.6,10.1c6,26.6,16.1,52.4,30.1,76.6
			c14,24.3,31.3,45.9,51.3,64.4c3.1,1.4,6.3,2.6,9.6,3.7C183.1,299.2,163.5,275.7,148.1,249z"/>
		<path class="st1" d="M209.7,300.7c-29.1-10.6-55.6-25.7-78.8-44.7c1.7,3,3.4,5.9,5.3,8.8c21.7,16.5,46,29.8,72.3,39.4
			c26.3,9.6,53.5,15,80.7,16.3c3.3-1,6.5-2.1,9.7-3.3C268.9,316.7,238.8,311.3,209.7,300.7z"/>
		<path class="st1" d="M290.3,300.7c-29.1,10.6-59.1,16-89.1,16.4c3.2,1.2,6.4,2.3,9.7,3.3c27.2-1.3,54.4-6.7,80.7-16.3
			c26.3-9.6,50.6-22.9,72.3-39.4c1.9-2.9,3.6-5.8,5.3-8.8C345.8,275,319.3,290.1,290.3,300.7z"/>
		<path class="st1" d="M351.9,249c-15.5,26.8-35,50.3-57.7,69.9c3.2-1.1,6.4-2.3,9.6-3.7c20-18.5,37.3-40.1,51.3-64.4
			c14-24.3,24.1-50.1,30.1-76.6c-0.4-3.4-0.9-6.8-1.6-10.1C378,193.5,367.4,222.2,351.9,249z"/>
		<path class="st1" d="M365.9,169.7c5.4,30.4,5.5,61,0.7,90.6c1.8-2.9,3.4-5.9,5-9c3.4-27,2.8-54.7-2.1-82.3s-13.7-53.8-26.2-78
			c-2.5-2.3-5.1-4.6-7.7-6.7C350.2,110.5,360.5,139.2,365.9,169.7z"/>
		<path class="st1" d="M325.6,100c23.7,19.9,43.4,43.2,58.8,69c-0.5-3.4-1.2-6.7-2-10.1c-14.8-22.9-33-43.7-54.5-61.7
			c-21.5-18-45.1-32.4-70.2-42.9c-3.4-0.2-6.8-0.3-10.3-0.2C275.6,64.7,302,80.1,325.6,100z"/>
	</g>
	<g id="text">
		<g>
			<path d="M67.1,356.8c0,0.3-0.1,0.6-0.1,1v2.5c0,0-0.1,0-0.2,0c-0.1,0-0.2,0-0.2,0c0-0.1-0.1-0.5-0.2-1.3c-0.1-0.5-0.3-0.8-0.6-1
				c-0.2-0.1-0.5-0.1-1.1,0c-0.3,0-0.7,0.1-1.3,0.2c-0.2,0.1-0.3,0.2-0.4,0.4c-0.1,0.5-0.1,1.1,0,2c0.1,0.9,0.1,2-0.1,3.5
				c0,0,0,0.5,0.1,1.5c0,0.3,0,0.9,0,1.5c0.1,0.4,0.2,0.9,0.3,1.6c0.1,0.4,0.3,0.6,0.7,0.7c0.3,0.1,0.7,0.2,1,0.2
				c0,0.1-0.1,0.3-0.2,0.5h-6c-0.1,0-0.1,0-0.1-0.1c0,0,0-0.1,0-0.2c0.2,0,0.5-0.2,1-0.3c0.4-0.2,0.6-0.4,0.8-0.7
				c0-0.1,0.1-0.4,0.1-1c0-1,0.1-2,0.1-3.1V361H61c0,0,0,0,0.1-0.1c-0.1-0.2-0.2-0.6-0.4-1c0-0.1-0.1-0.6-0.2-1.6h-2
				c-0.2,0-0.5,0.1-0.8,0.3s-0.5,0.4-0.5,0.6c-0.1,0.6-0.3,1.1-0.4,1.3c-0.1,0.1-0.2,0.2-0.5,0.2c0,0,0-0.1,0-0.3c0-0.1,0-0.2,0-0.3
				c0.1-0.3,0.2-0.7,0.2-1.4c0.1-0.7,0.2-1.2,0.2-1.5l0.3-0.4c-0.2,0,0.4,0,1.9,0c0.4,0,1.1,0,2,0.1s1.3,0.1,1.3,0.1h1.8
				c0,0,0.2,0,0.6-0.1c0.5-0.1,0.9-0.1,1.4-0.1c0.2,0,0.3,0,0.5-0.1C66.9,356.7,67,356.7,67.1,356.8z"/>
			<path d="M81.9,356.9c0,0.1,0,0.1-0.1,0.2c-0.3,0.1-0.6,0.2-0.8,0.3c-0.1,0.1-0.3,0.2-0.4,0.5s-0.2,0.4-0.2,0.6c0,0.6,0,0.9,0,0.8
				c-0.1,0.2-0.1,0.4-0.2,0.7c0,0.1,0,0.5,0.1,1.1c0,0.2,0,0.5,0,0.9c0,0.4,0,0.9-0.1,1.5c0,0.6-0.1,0.9-0.1,0.8v1.6
				c0,1.6,0.2,2.7,0.6,3.3c0.1,0.1,0.2,0.2,0.5,0.4c0.2,0.1,0.4,0.2,0.6,0.2c0,0.1-0.1,0.2-0.2,0.3h-5c0,0,0-0.1,0-0.2s0-0.2,0-0.2
				c0.2-0.1,0.4-0.2,0.7-0.3c0.2-0.1,0.4-0.4,0.6-1c0.2-0.5,0.2-0.8,0.2-1.1v-1.6c0-0.1,0-0.4-0.1-0.9c0-0.4,0-0.7,0-0.9
				c0-0.2,0-0.4-0.2-0.8c-0.3,0.3-0.9,0.4-1.6,0.6c-0.4,0.1-0.7,0.1-1,0c-0.4-0.1-0.6-0.1-0.6-0.1h-2.7c-0.2,0.1-0.4,0.3-0.6,0.5
				c-0.1,0.2-0.1,0.4-0.1,0.7c0.1,0.1,0.1,0.3,0.2,0.5c0-0.1,0,0.1-0.1,0.6c0,0,0,0.6,0.1,1.7c0.1,1.2,0.5,1.8,1.2,2
				c0,0,0.2,0.1,0.5,0.2c-0.2,0.3-0.5,0.4-0.8,0.4c-0.1,0-0.2,0-0.3,0c-0.1,0-0.2,0-0.3,0l-4.2-0.1c0-0.1,0.2-0.3,0.5-0.4
				c0.4-0.2,0.7-0.4,0.9-0.7c0.1-0.2,0.2-0.7,0.3-1.3c0.1-0.7,0.1-1.2,0-1.7c0-0.1-0.1-0.1-0.1-0.2c0-0.5,0-1.4,0.1-2.4
				c0,0,0-0.1,0.1-0.3c0.1-0.2,0.1-0.3,0.1-0.4c-0.1-0.1-0.2-0.3-0.3-0.6c0,0.1,0-0.1,0.1-0.7c0-0.1,0-0.3,0-0.5c0-0.2,0-0.3,0-0.4
				v-1.7c0-0.2-0.2-0.5-0.5-0.8c-0.3-0.3-0.6-0.5-0.9-0.6c0,0,0.1-0.1,0.2-0.4c0.3,0,0.7,0,1.2-0.1c0.5,0,0.8-0.1,0.8-0.1h2
				c0.1,0,0.2,0,0.3,0c0.1,0,0.2,0,0.2,0c0.1,0,0.4,0.1,0.7,0.4c-0.2,0.1-0.5,0.2-0.7,0.4c-0.3,0.2-0.5,0.3-0.7,0.5
				c-0.2,0.3-0.3,0.9-0.3,1.8v2.3c0,0,0,0.1,0,0.1s0,0.1,0,0.1c0.3,0.1,0.6,0.2,0.9,0.2h4.2c0.1,0,0.4,0.1,0.7,0.1
				c0,0,0.1,0,0.3,0.1c0.1,0.1,0.3,0.1,0.3,0.1c0,0,0.1,0,0.1,0c0.2-0.3,0.3-0.6,0.3-1c0-0.2,0-0.5-0.1-0.8
				c-0.1-0.4-0.1-0.6-0.1-0.8c0-0.1,0-0.3-0.1-0.7c0-0.4-0.1-0.7-0.1-0.8c0-0.7-0.6-1.3-1.6-1.8c0.1-0.1,0.2-0.2,0.3-0.2h1.6
				c-0.1,0,0.2,0,0.9,0c0.6,0,1.1,0,1.4,0C80.8,356.7,81.3,356.8,81.9,356.9z"/>
			<path d="M93.4,366.6c0,0.4-0.1,0.9-0.1,1.6c-0.1,0.2-0.2,0.4-0.3,0.8c0,0.1-0.1,0.3-0.2,0.6c0,0.1-0.1,0.2-0.3,0.4
				c-0.2,0.2-0.3,0.3-0.4,0.3h-2.7c0,0-0.4,0-1,0c-0.6,0-0.9,0-1,0h-1.6c0,0-0.3,0-0.7-0.1c-0.4,0-0.6-0.1-0.7-0.1h-1.6l-0.1-0.1
				c0.1-0.1,0.4-0.3,0.9-0.6c0.4-0.2,0.6-0.5,0.6-0.9v-3.4c0-0.5,0.1-1.3,0.3-2.2c-0.1-0.3-0.1-0.6-0.1-1.1
				c-0.1-0.1-0.2-0.3-0.2-0.4c0,0,0.1-0.3,0.2-0.9c0,0,0-0.1-0.1-0.3c-0.1-0.2-0.2-0.3-0.2-0.3c0-0.1-0.1-0.4-0.1-0.7
				c0-0.4,0-0.7,0-0.7c0-0.2-0.1-0.4-0.1-0.6c-0.1-0.2-0.3-0.4-0.5-0.5c-0.2-0.1-0.4-0.2-0.6-0.3c0.1-0.2,0.2-0.4,0.3-0.4
				c0.2,0,0.5,0,0.9,0c0.5-0.1,0.7-0.2,0.7-0.2h1.9c0,0,0.2,0,0.6,0.1c0.4,0,0.7,0.1,0.9,0.1c0.1,0,0.8,0,2.1-0.1
				c0.3,0,1.1,0,2.4,0.1c0.1,0.1,0.2,0.2,0.2,0.3c0,0.1,0,0.2-0.1,0.3c0,0.1-0.1,0.2-0.1,0.3c0,0.2-0.1,1-0.2,2.3
				c0,0-0.1,0.1-0.3,0.2c0-0.1-0.2-0.5-0.4-1.1c-0.1-0.4-0.4-0.7-0.8-0.7c-0.2,0-0.3-0.1-0.5-0.1c-0.2,0-0.4-0.1-0.5,0
				c-0.3,0.1-1,0.1-2,0c-0.6,0-1,0-1.3,0c-0.1,0-0.1,0.1-0.2,0.2c0.3,0.8,0.3,1.6,0,2.2c0,0,0,0.1,0,0.5c0,0.1,0,0.3-0.1,0.6
				c0,0.3,0,0.5,0,0.6c0,0.1,0.1,0.2,0.2,0.3h4c0.1,0,0.3-0.1,0.4-0.1c0.2-0.1,0.3-0.2,0.4-0.3c0.1-0.2,0.2-0.4,0.4-0.8
				c0.2,0,0.4,0.1,0.4,0.2c0,0.4-0.1,0.9-0.1,1.6c0,0.4-0.1,1-0.1,1.8c0,0.1-0.2,0.2-0.4,0.1c-0.1-0.2-0.3-0.4-0.5-0.7
				c-0.4-0.3-0.8-0.5-1.2-0.5h-1.5c-0.1,0-0.3,0-0.5-0.1c-0.3,0-0.5-0.1-0.6-0.1c-0.4,0-0.6,0.1-0.7,0.3c-0.1,0.2-0.2,0.4-0.2,0.6
				c0,0.1,0,0.4,0.1,0.7c0,0.4,0.1,0.6,0.1,0.8c0,0.1,0,0.3-0.1,0.6c-0.1,0.3-0.1,0.5-0.1,0.6c0,0.1,0,0.2,0,0.3
				c0,0.2,0.2,0.4,0.6,0.6c0.3,0.2,0.6,0.4,0.9,0.4c0,0,0.1,0,0.1,0c0.1,0,0.1,0,0.2,0H90c0.4,0,0.7-0.1,1-0.2
				c0.4-0.2,0.7-0.5,1.1-0.9c0.4-0.4,0.6-0.9,0.6-1.3C92.9,366.5,93.1,366.5,93.4,366.6z"/>
		</g>
		<g>
			<path d="M68.9,429.5c0.1,0.9-0.1,2-0.4,3.4c-0.5,1.6-1,4.1-1.7,7.4c-0.5,3.2-1.2,4.8-2.2,4.9c-1.1,0-2.2,0-3.5,0
				c-1.6-0.1-3-0.1-4.3-0.1c-2.9,0-5.2,0-7-0.1c-1.7-0.1-2.4-0.1-2.1-0.1c-1.3,0-2.9,0.1-4.8,0.2c-0.2,0-0.4-0.1-0.6-0.2
				c-0.5-0.1-3.2-0.2-8.2-0.2h-7.5c-0.1,0-0.3,0-0.7-0.1c-0.4-0.1-0.7-0.1-0.9-0.1c0.1-0.5,0.3-1.2,0.4-2c0.6-0.1,1.4-0.3,2.5-0.7
				c1.1-0.5,1.9-1.4,2.5-2.7c0.3-0.3,0.7-0.8,1.1-1.5c0-0.4,0-1-0.2-1.9c-0.2-0.9-0.3-1.5-0.3-1.9c0.3,0.1,0.9-0.4,1.9-1.3
				c-0.1-0.1-0.3-0.5-0.7-1.3c0-0.1-0.2-0.1-0.7-0.1c-0.5-0.5-0.4-1.3,0.4-2.3c0.5-0.6,0.7-1.4,0.7-2.4c0-0.6-0.1-1.4-0.3-2.5
				s-0.3-1.8-0.3-2.1c0-0.1,0.1-0.4,0.2-0.7c0.1-0.3,0.2-0.5,0.2-0.7v-3.8c0-0.1,0.1-0.4,0.2-0.9c0.2-0.5,0.3-1,0.3-1.3
				c0-0.1-0.1-0.7-0.4-1.6c0,0.1,0.1-0.5,0.2-1.6c0-0.3,0-0.6-0.1-1.1c-0.1-0.5-0.2-0.9-0.2-1.1c0-0.4,0-1.1,0.2-2.2
				c0.2-1.2,0.3-2,0.3-2.3c0-0.5,0-1.2-0.1-2.2s-0.1-1.5-0.1-1.5v-3.9c0-0.2,0.1-0.4,0.2-0.7l-0.2-4.4c-0.1-1.2-0.1-2.1,0.1-2.8
				c0.1-0.4,0.1-0.7,0.1-1.1c0-0.7-0.1-1.6-0.4-2.7c-0.2-0.8-0.5-1.6-0.7-2.5c0-0.1,0-0.8,0-2.2c0,0-0.1-2.9-0.3-8.9
				c-0.1-0.4-0.2-1.1-0.4-2c0,0,0.1-0.6,0.2-1.6c0-0.2,0-0.5-0.2-1s-0.3-0.8-0.3-0.9c0,0.2,0.1-0.6,0.4-2.4c-0.4-0.8-1.2-2-2.4-3.4
				c-0.3-0.2-0.8-0.4-1.5-0.4c-0.9-0.1-1.4-0.1-1.6-0.2c-0.1-0.2-0.1-0.5,0-1.1c0.1-0.5,0.3-0.8,0.6-0.9c1.1-0.1,1.7-0.1,1.6-0.1
				c2.3,0.2,5.7,0.4,10.4,0.6c1.2,0.1,1.6,0.1,1.4,0.1c4.3-0.5,6.4-0.7,6.2-0.7h5.9c0.1,0.5-0.1,1.2-0.4,2c-1,0.2-2.4,0.5-4.3,0.8
				c-1.8,0.3-3.1,1.6-4,4c-0.2,0.7-0.5,1.9-0.7,3.8c-0.3,2.7-0.5,4.6-0.5,5.7v40.9c0,0.1,0,0.4,0.1,0.9c0.1,0.5,0.1,0.8,0.1,1
				c0.1,1.7,0.1,3.1,0,4.4c-0.1,1.8,0.1,2.9,0.7,3c0-0.1-0.1,0.8-0.2,2.5c0,0-0.1,0.1-0.2,0.2c0.7,3.4,1.1,5.4,1.1,6
				c-0.4,0.6-0.8,1.5-1.2,2.8c0,0.3,0.3,1.5,1.1,3.4c1.1,0.1,2.6,0.2,4.8,0.4c0.4,0.1,1,0.4,1.8,1c0.1-0.2,0.4-0.5,0.9-1
				c0.7,0,1.6,0,2.9,0.2c1.3,0.1,2.3,0.2,2.9,0.2c0.1,0,0.4-0.1,0.7-0.3c0.4-0.2,0.7-0.4,0.9-0.4c0.7-0.1,1.8-0.4,3.2-0.8
				c0.3-0.1,0.8-0.7,1.5-1.7l1.5-2.2c1.6-1.9,2.3-3.7,2.3-5.2C67.1,429,67.9,429.2,68.9,429.5z M33.7,382.7c0-0.7,0-1.4,0-2.2
				c0-0.8,0-2,0.1-3.6c0.1-1.6,0.1-2.8,0.1-3.6c0-3.5-0.4-6.3-1.3-8.3c-0.2,0.3-0.2,0.9-0.1,1.8c0.1,0.6,0.2,1.3,0.2,1.9
				C32.8,372,33.1,376.7,33.7,382.7z"/>
			<path d="M102,398.7c0,1.5,0,2.7-0.1,3.5c-0.3,0.6-0.6,1.6-0.9,2.9c-0.1,1.3-0.3,2.7-0.9,4.2c-0.4,0.5-1.1,1.4-1.9,2.6
				c-0.2,0.8-0.8,2-1.8,3.5c-0.8,0.8-2,2-3.6,3.7c-0.2,0.1-0.6,0.2-0.9,0.4c-0.4,0.3-1,0.8-1.9,1.4c-4.5,2.4-8.7,3.7-12.7,4H72
				c0.1,0-0.1-0.1-0.3-0.2c-2.9-0.1-5.1-0.5-6.6-1.2c-0.4-0.1-0.9-0.2-1.5-0.4c-1.1-0.4-2.7-1.2-4.9-2.3c-2.6-1.7-5.1-4-7.3-7
				c-1.3-1.7-2.4-3.9-3.4-6.5c-0.9-2.5-1.4-4.6-1.5-6.2c-0.2-2.9-0.1-5.7,0.3-8.5c0.2-0.4,0.4-0.9,0.7-1.5c0.2-0.8,0.4-2,0.9-3.5
				c0.6-1,1.4-2.3,2.4-4.2c0.1-0.3,0.2-0.7,0.2-1.1c0.1-0.1,0.4-0.1,0.8,0.1c0.1-0.4,0.1-0.9,0-1.6c0.4-0.1,0.9-0.3,1.5-0.7
				c0.2-0.6,0.7-1.3,1.5-2.1c1.6-0.9,4.1-2.1,7.4-3.8c0.8-0.4,1.9-0.8,3.2-1.1c3.3-0.8,5.6-1.1,6.8-1.1h3.2c2.5,0,4.6,0.2,6.4,0.7
				c1,0.3,3,1,6.3,2.3c0.7,0.4,1.8,1.1,3.2,2c2.1,1.4,4,3.2,5.8,5.6c1.5,2.1,2.6,4.1,3,5.9c0.2,0.3,0.5,0.7,0.8,1.3
				c0.6,1.6,0.9,4,1,7.3c0,0.1,0.1,0.4,0.2,0.8C102,398.2,102,398.5,102,398.7z M93,399.8c-0.2-3.4-0.9-6.5-2-9.4
				c-1.4-3.6-3-6.5-4.9-8.6c-2.7-2.9-5.6-4.7-8.7-5.2c-3-0.5-5-0.7-6.2-0.5c-2.2,0.3-4,0.7-5.5,1.4c-0.2,0.1-1.4,0.8-3.7,2.2
				c-0.1,0.3-0.4,0.6-0.7,1c-0.2,0.1-0.5,0.1-0.7,0.2c-0.5,0.7-1.2,1.7-2,2.9c-0.1,0.3-0.3,0.8-0.5,1.4c-0.4,0.7-0.8,1.4-1.3,2.3
				c-0.2,1-0.6,2.5-1.1,4.5c0,0.8,0,1.9,0,3.5c0,0.1-0.1,0.3-0.2,0.5c-0.1,0.3-0.1,0.5-0.1,0.6c0.4,1.8,0.9,4.2,1.6,7.3
				c-0.1,0.2-0.1,0.5-0.2,0.8c0.2,0.4,0.5,0.9,0.8,1.5c0,0.4,0.1,0.8,0.2,1.4c1.1,2.3,1.7,3.5,1.8,3.5c0.8,1.4,1.9,2.8,3.3,4
				c0,0,0.2,0.6,0.5,1.7c0.1,0,0.6,0.1,1.4,0.2c1.3,1.2,2.3,2.1,3.1,2.5c2,1.2,5.7,1.6,10.9,1.1c0.4-0.1,1-0.3,1.7-0.5
				c0.9-0.2,2.2-0.6,3.9-1.3c0.4-0.4,0.9-0.8,1.5-1.3c2.7-1.7,4.3-3.8,4.8-6.2c0.3-0.3,0.6-0.8,1-1.4c0.1-0.5,0.1-1.1,0.2-1.8
				c0.2-0.2,0.3-0.4,0.5-0.8c0.1-0.6,0.2-2,0.4-4.1C93,401.6,93,400.4,93,399.8z"/>
			<path d="M152.6,423.3c-0.2,0.3-0.6,0.7-1.1,1.1c-1.2,0.7-2.1,1-2.6,1H144c-1.7,0-2.9-0.1-3.7-0.2c-0.6-0.2-1.5-0.5-2.7-0.9
				c-1-0.3-2.8-2-5.4-4.9c-0.2-0.2-1.3-2-3.2-5.3c-1.7-3-3.1-5.4-4-7.5c-0.2-0.8-0.7-1.7-1.3-2.9c-0.3-0.3-1-0.4-2-0.3
				c-0.7,0.1-1.4,0.2-2.1,0.2c-0.9-0.1-2.2-0.1-4,0c-0.2,0-0.4,0.2-0.7,0.5c0.1,1.1,0.2,4.4,0.4,10c0,1.1,0.2,2.5,0.7,4.3
				c0,0.5,0.1,1.2,0.4,2.2c0.6,1,1.5,1.7,2.8,2.1c1,0.3,2.1,0.6,3.1,0.9c0,0.3,0,0.7-0.1,1.1c-0.8,0.3-1.6,0.5-2.4,0.5h-4.3
				c-0.1,0-0.4-0.1-1.1-0.2c-0.7-0.1-1.2-0.2-1.5-0.2c-0.8,0-3,0.1-6.6,0.4h-4.1c-0.4,0-0.9-0.1-1.5-0.4c0-0.1,0-0.2-0.1-0.5
				c-0.1-0.2-0.1-0.4-0.1-0.5c1.4-0.4,2.3-0.7,2.6-0.8c1-0.5,1.8-1.2,2.4-2.4c0.3-0.5,0.5-1.7,0.6-3.7c0-0.3,0.1-1.2,0.3-2.5
				c0.2-1.2,0.2-2.2,0.2-2.9c0-3.7,0-5.7,0.1-6c0.1-0.3,0.3-0.8,0.8-1.5c-0.2-0.2-0.4-0.6-0.7-1.1c-0.1-0.5-0.2-1.2-0.2-2.1v-4.1
				c0,0,0-0.4-0.1-1.3c0,0.3,0.1-1.5,0.4-5.4c0-0.1-0.1-0.1-0.2-0.3c-0.3-1.1-0.3-2.5,0-4.2c0.1-0.5-0.1-2.1-0.5-4.9
				c0-0.9-0.3-2-0.7-3.4c-0.6-0.7-1.4-1.2-2.3-1.4c-0.8-0.2-1.6-0.4-2.4-0.5c0-1.5,0-1.9-0.1-1c0.1-0.4,0.3-0.7,0.8-0.7
				c1.1-0.1,2.9-0.2,5.3-0.4c2.3-0.2,3.4-0.3,3.5-0.3h5.3c1,0,2-0.1,3-0.2c1-0.2,1.9-0.2,2.6-0.2c0.9,0,2.1,0.1,3.5,0.2
				c0.9,0.2,2.1,0.5,3.8,0.8c0.2,0.1,0.4,0.2,0.8,0.4c2.6,0.4,4.9,1.6,6.9,3.7c1.1,1.2,2.1,3.2,3,6.2c0,0.4,0.1,1.1,0.1,1.9
				c0.1,0.7,0,1.7-0.2,3.1c-0.4,2.9-1,5.1-2,6.5c-0.9,1.4-2.7,3.3-5.3,5.7c0,0.6,0.1,1.1,0.3,1.5c1.7,3.3,3.4,6.6,5.1,9.9
				c2,3.6,4.5,6.6,7.4,9.1c0.2,0.2,1.2,0.6,3,1.1c1.1,0.3,2,0.3,2.7,0.2c1.1-0.2,1.9-0.3,2.3-0.2
				C152.5,422.6,152.6,422.9,152.6,423.3z M130.2,388.4c0-0.9-0.1-1.5-0.2-1.8c-1.4-3.6-2.5-5.9-3.5-6.9c-1.3-1.4-2.8-2.3-4.4-2.7
				c-1.1-0.2-2.8-0.3-5.1-0.2c-0.2,0-0.6,0.2-1.1,0.4c-0.4,4.7-0.7,8.5-0.8,11.3c0.1,0.2,0.3,0.5,0.4,0.9c0,0.4-0.1,1.9-0.4,4.6
				c-0.2,1.8-0.1,3.6,0.1,5.4c0.1,0.1,0.2,0.2,0.3,0.4h4c0.5,0.1,1,0.2,1.5,0.2c1.6,0,3.1-0.5,4.6-1.5c1.5-1,2.4-1.9,2.7-2.5
				C129.6,393.8,130.2,391.2,130.2,388.4z"/>
			<path d="M198.6,394.8c0.2,1.4,0,3.8-0.4,7.3c-0.3,1.1-0.7,2.7-1.2,4.8c-1.1,4.6-3.1,8.3-6.1,11c-1.1,1.1-2.6,2.1-4.4,3.2
				c-2.1,1.3-3.8,2-5.1,2.1c-0.2,0.1-0.4,0.2-0.8,0.4c-4,0.6-6,0.9-5.8,0.9h-26.5c-0.2-1-0.1-1.5,0.2-1.8c1.1-0.4,1.9-0.6,2.4-0.6
				c0.2-0.2,0.4-0.5,0.7-0.9c1.3-1.3,1.9-2.8,1.9-4.4c0,0-0.1-0.4-0.2-1c0.1-0.3,0.2-0.7,0.2-1.2c-0.1-0.2-0.2-0.6-0.4-1
				c0-0.2,0-0.5,0.2-0.9c0.1-0.4,0.2-0.8,0.2-1c0.1-1,0.1-2.7,0.1-4.9v-4.6c0-3.1,0-7.7,0.1-13.6c0-0.1-0.1-0.3-0.2-0.6
				c-0.1-0.3-0.2-0.5-0.2-0.6c0-0.4,0.1-1.1,0.2-2c0.1-0.9,0.2-1.6,0.2-2.1c0-0.1-0.1-0.3-0.2-0.6c-0.2-0.3-0.3-0.5-0.3-0.7
				c0-0.5,0-1.3-0.1-2.4c-0.5-1.8-1.2-3-2.1-3.5c-0.8-0.4-2.1-0.7-3.9-1c0-0.2,0-0.5,0-1.1c1.2-0.6,2.3-0.7,3.5-0.5
				c0.4,0.3,0.6,0.4,0.8,0.4c0.2-0.1,0.4-0.2,0.7-0.4c0.9,0,1.8-0.1,2.7-0.1c1,0,1.7,0.4,2.3,1.2c0.1,0,0.2,0,0.3,0
				c0.2-0.4,0.7-0.9,1.2-1.6c0.7,0.1,1.6,0.2,2.7,0.4c0.1,0,0.2-0.1,0.3-0.2c0.2-0.2,0.3-0.3,0.5-0.4c0.8-0.3,2.1-0.4,3.8-0.4H176
				c4.5,1,7.6,1.9,9.5,2.7c3.5,1.5,6.4,3.9,8.6,7c0.5,0.6,1.1,1.6,1.9,2.9C197.2,387.4,198.1,390.7,198.6,394.8z M196.8,394.7
				c-3.3-0.2-5.7-0.3-7-0.2c-0.2-0.1-0.3-0.6-0.2-1.4c-0.5-1.2-1.3-2.9-2.3-5.1c-1.4-2.9-3-5.3-4.8-7c-1.7-1.7-4.6-2.9-8.5-3.6
				c-1.8-0.3-2.6-0.4-2.4-0.4h-4.2c-0.1,0-0.9,0.1-2.2,0.4c-1.4,0.3-2.3,0.4-2.8,0.5c-0.4,1.9-0.5,4-0.4,6.2
				c0.1,1.1,0.1,3.2,0.1,6.5v16.1c0,0,0,0.4-0.1,1.4c-0.1,0.8-0.1,1.5,0,1.9c0.1,1.6,0.2,2.3,0.2,2c-0.1,1.1-0.1,2,0,2.7
				c0,0.2,0.1,0.5,0.2,1.1c0.1,0.5,0.2,0.8,0.2,1.1c0,0-0.5,0.2-1.3,0.5c-0.6,0.3-1,0.6-1.1,1.1c0.5,0.4,1.1,0.7,1.8,0.7
				c0.5,0,1.1,0,1.6,0c5.5,0.6,8.6,0.9,9.5,0.9c2.6,0,4.9-0.4,6.8-1.2c1.7-0.7,3.2-1.6,4.3-2.8c2.4-2.4,4-5.4,4.8-9
				c0.4-1.7,0.7-4.6,0.8-8.7c0-0.3-0.2-0.8-0.7-1.4c-0.1-0.4,0-0.6,0.2-0.7c0.4-0.1,1.2-0.3,2.5-0.4c1.1-0.1,2.7-0.3,4.8-0.5
				C196.7,395.2,196.8,395,196.8,394.7z"/>
		</g>
		<g>
			<path d="M235.9,385.8c0,0.6,0,1.1-0.1,1.5c-0.1,0.3-0.2,0.7-0.4,1.2c0,0.5-0.1,1.1-0.4,1.7c-0.2,0.2-0.4,0.6-0.8,1.1
				c-0.1,0.3-0.3,0.8-0.7,1.4c-0.3,0.3-0.8,0.8-1.5,1.5c-0.1,0-0.2,0.1-0.4,0.2c-0.1,0.1-0.4,0.3-0.8,0.6c-1.8,1-3.6,1.5-5.3,1.7
				h-2.2c0,0,0,0-0.1-0.1c-1.2,0-2.1-0.2-2.7-0.5c-0.2,0-0.4-0.1-0.6-0.2c-0.4-0.2-1.1-0.5-2-1c-1.1-0.7-2.1-1.6-3-2.9
				c-0.5-0.7-1-1.6-1.4-2.7c-0.4-1-0.6-1.9-0.6-2.6c-0.1-1.2,0-2.4,0.1-3.5c0.1-0.1,0.2-0.4,0.3-0.6c0.1-0.3,0.2-0.8,0.4-1.5
				c0.2-0.4,0.6-1,1-1.7c0.1-0.1,0.1-0.3,0.1-0.4c0.1-0.1,0.2,0,0.3,0.1c0.1-0.2,0.1-0.4,0-0.7c0.1,0,0.4-0.1,0.6-0.3
				c0.1-0.2,0.3-0.5,0.6-0.9c0.7-0.4,1.7-0.9,3-1.6c0.3-0.2,0.8-0.3,1.3-0.4c1.4-0.3,2.3-0.5,2.8-0.5h1.3c1,0,1.9,0.1,2.6,0.3
				c0.4,0.1,1.3,0.4,2.6,0.9c0.3,0.2,0.7,0.5,1.3,0.8c0.9,0.6,1.7,1.3,2.4,2.3c0.6,0.9,1.1,1.7,1.2,2.4c0.1,0.1,0.2,0.3,0.3,0.6
				c0.2,0.7,0.4,1.7,0.4,3c0,0,0,0.1,0.1,0.3C235.9,385.6,235.9,385.7,235.9,385.8z M232.1,386.3c-0.1-1.4-0.4-2.7-0.8-3.9
				c-0.6-1.5-1.2-2.7-2-3.6c-1.1-1.2-2.3-1.9-3.6-2.1c-1.2-0.2-2.1-0.3-2.5-0.2c-0.9,0.1-1.7,0.3-2.3,0.6c-0.1,0-0.6,0.3-1.5,0.9
				c-0.1,0.1-0.2,0.2-0.3,0.4c-0.1,0-0.2,0.1-0.3,0.1c-0.2,0.3-0.5,0.7-0.8,1.2c0,0.1-0.1,0.3-0.2,0.6c-0.2,0.3-0.3,0.6-0.5,1
				c-0.1,0.4-0.3,1-0.5,1.9c0,0.3,0,0.8,0,1.4c0,0,0,0.1-0.1,0.2c0,0.1-0.1,0.2-0.1,0.2c0.2,0.7,0.4,1.7,0.7,3
				c0,0.1-0.1,0.2-0.1,0.3c0.1,0.2,0.2,0.4,0.3,0.6c0,0.1,0,0.3,0.1,0.6c0.5,0.9,0.7,1.4,0.7,1.4c0.3,0.6,0.8,1.1,1.4,1.7
				c0,0,0.1,0.2,0.2,0.7c0,0,0.2,0,0.6,0.1c0.5,0.5,1,0.8,1.3,1c0.8,0.5,2.3,0.6,4.5,0.5c0.2-0.1,0.4-0.1,0.7-0.2
				c0.4-0.1,0.9-0.3,1.6-0.6c0.2-0.1,0.4-0.3,0.6-0.5c1.1-0.7,1.8-1.6,2-2.6c0.1-0.1,0.2-0.3,0.4-0.6c0-0.2,0.1-0.5,0.1-0.8
				c0.1-0.1,0.1-0.2,0.2-0.3c0-0.3,0.1-0.8,0.2-1.7C232.1,387,232.2,386.5,232.1,386.3z"/>
			<path d="M251.1,375.4c0.1,0.5,0.1,2-0.1,4.5c0,0.2-0.2,0.4-0.4,0.7c0,0-0.2,0-0.6,0c-0.1-0.8-0.2-1.4-0.3-1.7
				c-0.2-0.7-0.6-1.1-1.1-1.2c-0.5-0.2-1.7-0.2-3.4-0.2h-2.9c-0.6,0-0.8,0.5-0.8,1.6c0-0.1,0.1,0.5,0.2,1.8c0,0.3,0,0.7-0.1,1.4
				c-0.1,0.7-0.2,1.2-0.2,1.5c0,0.5,0.1,0.9,0.3,1.3h2.2c0,0,0.2,0,0.5,0.1c0.3,0.1,0.5,0.1,0.6,0.1h2.2c0.8,0,1.5-0.4,2.1-1.3
				c0-0.2,0.1-0.4,0.2-0.7c0.1-0.1,0.4-0.1,0.7-0.1c0.1,0.3,0.1,0.9,0.2,1.5c0,0.8-0.2,2.4-0.4,4.8c0,0.3-0.3,0.4-0.9,0.4
				c-0.1-0.5-0.2-0.9-0.3-1.4c-0.2-0.6-0.5-0.9-1-1.1c-0.3-0.1-1-0.1-2.1-0.1h-2.5c-0.1,0.1-0.4,0.1-0.8,0.1c-0.4,0-0.6,0.1-0.8,0.3
				c0,0.3,0,0.7-0.1,1.2c0,0.1-0.1,0.4-0.3,1c-0.1,0.4-0.2,0.8-0.2,1c0.1,0.1,0.2,0.4,0.2,0.6c0,0.2,0,0.5-0.1,0.9
				c0,0.4-0.1,0.7-0.1,0.9c0,0.9,0.3,1.6,0.9,2.1c0,0,0.8,0.3,2.5,1c-0.2,0.3-0.5,0.4-0.8,0.4c0.7,0,0.3,0-1-0.1
				c-1,0-2.3-0.1-3.9-0.2c-0.8,0-1.4,0-1.6,0c-0.1,0.1-0.3,0.2-0.6,0.3c0,0-0.4-0.1-1.3-0.3c0.1-0.2,0.3-0.5,0.8-0.8
				c0.5-0.3,0.7-0.6,0.8-0.7c0.4-0.8,0.6-1.5,0.6-2.2v-4c0,0,0-0.4,0-1.2c0-0.8,0-1.4,0-1.8c0,0.1,0-0.1,0-0.6c0-0.3,0-0.6,0-0.8
				c0-0.3-0.1-0.6-0.3-0.8c0.4-0.6,0.6-1.2,0.6-2c0-0.8-0.2-1.6-0.6-2.6c0-0.2,0-0.5,0-0.8c0-0.2,0-0.3-0.1-0.5
				c-0.2-0.5-0.6-0.9-1-1.3c-0.1-0.1-0.4-0.2-0.9-0.3c-0.1-0.1-0.1-0.4-0.1-0.7c-0.1,0,0.7,0,2.3-0.1c2.5,0,6.3-0.1,11.3-0.1
				C249.6,375.2,250.3,375.3,251.1,375.4z"/>
		</g>
		<g>
			<path d="M220.5,399.7c-0.1,0.4-0.1,0.9-0.2,1.5v3.9c-0.1,0-0.2,0-0.3,0.1c-0.1,0-0.2,0.1-0.3,0.1c0-0.1-0.1-0.8-0.3-2
				c-0.1-0.7-0.4-1.3-1-1.6c-0.2-0.2-0.8-0.2-1.8,0c-0.5,0-1.1,0.2-2,0.3c-0.3,0.1-0.5,0.3-0.6,0.6c-0.2,0.7-0.2,1.8-0.1,3.1
				c0.2,1.4,0.1,3.2-0.1,5.6c0,0,0.1,0.8,0.2,2.3c0,0.5-0.1,1.3,0,2.4c0.1,0.6,0.3,1.4,0.5,2.6c0.1,0.6,0.5,0.9,1.1,1.1
				c0.5,0.1,1,0.2,1.5,0.4c0,0.2-0.1,0.4-0.4,0.7h-9.5c-0.1,0-0.1-0.1-0.1-0.2c0,0,0-0.1,0-0.3c0.3-0.1,0.9-0.2,1.5-0.5
				c0.6-0.3,1-0.7,1.3-1.1c0.1-0.1,0.2-0.6,0.2-1.5c0-1.5,0.1-3.2,0.2-4.9v-6.1h0.5c0,0,0.1-0.1,0.1-0.2c-0.2-0.4-0.3-0.9-0.6-1.6
				c0-0.1-0.1-1-0.3-2.6h-3.1c-0.3,0-0.7,0.2-1.2,0.5c-0.5,0.4-0.7,0.7-0.8,0.9c-0.2,1-0.5,1.7-0.7,2.1c-0.1,0.2-0.4,0.3-0.8,0.3
				c0,0,0-0.2-0.1-0.4c0-0.2,0-0.3,0-0.4c0.1-0.5,0.3-1.2,0.4-2.1c0.1-1.2,0.3-2,0.3-2.4l0.5-0.7c-0.3,0,0.7-0.1,3.1-0.1
				c0.7,0,1.8,0.1,3.2,0.2c1.4,0.1,2.1,0.2,2,0.2h2.8c0,0,0.3-0.1,1-0.2c0.7-0.1,1.5-0.2,2.1-0.2c0.3,0,0.5-0.1,0.8-0.1
				C220.1,399.4,220.4,399.5,220.5,399.7z"/>
			<path d="M244,399.7c0,0.1-0.1,0.2-0.2,0.3c-0.5,0.1-0.9,0.3-1.2,0.5c-0.2,0.1-0.4,0.4-0.7,0.8c-0.3,0.4-0.4,0.7-0.4,0.9
				c0,1,0,1.4,0,1.2c-0.1,0.3-0.2,0.7-0.3,1.2c0,0.1,0.1,0.7,0.2,1.7c0,0.3,0.1,0.8,0.1,1.4c0,0.7,0,1.5-0.1,2.4
				c-0.1,0.9-0.1,1.4-0.1,1.3v2.5c0,2.5,0.3,4.3,0.9,5.3c0.1,0.2,0.4,0.4,0.7,0.6c0.4,0.2,0.7,0.3,1,0.3c-0.1,0.1-0.2,0.3-0.4,0.5
				h-7.9c0-0.1,0-0.2-0.1-0.3c0-0.1-0.1-0.2-0.1-0.3c0.2-0.1,0.6-0.3,1.1-0.5c0.3-0.2,0.7-0.7,1-1.5c0.3-0.8,0.4-1.3,0.4-1.8v-2.5
				c0-0.2,0-0.6-0.1-1.4c-0.1-0.6-0.1-1,0-1.4c0-0.3-0.1-0.7-0.3-1.3c-0.6,0.4-1.4,0.7-2.5,0.9c-0.6,0.1-1.1,0.1-1.5,0.1
				c-0.6-0.1-0.9-0.2-0.9-0.2h-4.2c-0.3,0.1-0.6,0.4-1,0.8c-0.2,0.3-0.2,0.7-0.2,1.1c0.1,0.2,0.2,0.5,0.3,0.8c0-0.2-0.1,0.2-0.1,0.9
				c0,0.1,0,0.9,0.1,2.6c0.1,1.8,0.7,2.9,1.9,3.1c0,0,0.3,0.1,0.7,0.3c-0.4,0.4-0.8,0.6-1.3,0.6c-0.1,0-0.3,0-0.5-0.1
				c-0.2,0-0.4-0.1-0.4-0.1l-6.6-0.1c0-0.2,0.3-0.4,0.8-0.6c0.6-0.2,1-0.6,1.4-1.1c0.2-0.4,0.4-1.1,0.5-2.1c0.1-1.1,0.1-2,0-2.7
				c0-0.1-0.1-0.2-0.2-0.4c0-0.9,0-2.1,0.2-3.9c0-0.1,0.1-0.2,0.2-0.5c0.1-0.3,0.1-0.5,0.1-0.6c-0.1-0.2-0.3-0.5-0.5-1
				c0,0.1,0.1-0.2,0.1-1.1c0-0.2,0-0.4-0.1-0.8c0-0.3-0.1-0.5-0.1-0.6v-2.7c0-0.4-0.3-0.8-0.8-1.3s-1-0.8-1.5-1c0,0,0.1-0.2,0.4-0.6
				c0.4,0,1-0.1,1.9-0.1c0.8-0.1,1.2-0.1,1.3-0.1h3.2c0.1,0,0.3,0,0.5-0.1c0.2,0,0.3-0.1,0.3-0.1c0.2,0,0.6,0.2,1.2,0.7
				c-0.4,0.2-0.8,0.4-1.2,0.6c-0.5,0.3-0.8,0.5-1.1,0.9c-0.4,0.5-0.5,1.4-0.5,2.8v3.6c0,0.1,0,0.1,0.1,0.2c0,0.1,0.1,0.1,0.1,0.2
				c0.5,0.2,1,0.4,1.3,0.4h6.7c0.2,0,0.6,0.1,1,0.2c0,0,0.2,0.1,0.5,0.2c0.2,0.1,0.4,0.2,0.5,0.2c0.1,0,0.1,0,0.2,0
				c0.4-0.4,0.5-0.9,0.5-1.5c0-0.3-0.1-0.7-0.2-1.3c-0.1-0.6-0.2-1-0.2-1.2c0-0.2,0-0.5-0.1-1.1c-0.1-0.6-0.1-1.1-0.1-1.3
				c-0.1-1.1-0.9-2.1-2.5-2.9c0.2-0.2,0.4-0.3,0.5-0.3h2.5c-0.1,0,0.3,0,1.4,0c0.9,0,1.7,0,2.2,0C242.3,399.4,243,399.5,244,399.7z"
				/>
			<path d="M262.2,415.1c0,0.6-0.1,1.4-0.2,2.5c-0.1,0.3-0.3,0.7-0.5,1.2c0,0.2-0.1,0.5-0.3,0.9c0,0.1-0.2,0.3-0.4,0.6
				c-0.3,0.4-0.5,0.5-0.7,0.5h-4.3c-0.1,0-0.6,0-1.5-0.1c-0.9,0-1.4-0.1-1.5-0.1h-2.6c-0.1,0-0.4,0-1-0.1c-0.6-0.1-1-0.1-1.1-0.1
				h-2.5l-0.2-0.2c0.1-0.2,0.6-0.5,1.5-1c0.6-0.4,0.9-0.8,0.9-1.3v-5.3c0-0.9,0.1-2,0.4-3.5c-0.1-0.4-0.2-1-0.1-1.7
				c-0.2-0.2-0.3-0.4-0.3-0.7c0,0,0.1-0.5,0.3-1.4c0-0.1,0-0.2-0.2-0.5c-0.2-0.3-0.2-0.4-0.3-0.4c-0.1-0.2-0.1-0.6-0.1-1.1
				c0-0.7,0-1.1,0-1.1c0-0.4-0.1-0.7-0.2-0.9c-0.2-0.3-0.4-0.6-0.8-0.8c-0.3-0.1-0.7-0.3-1-0.5c0.2-0.4,0.3-0.6,0.5-0.6
				c0.3,0,0.8,0.1,1.5,0c0.7-0.2,1.1-0.3,1-0.3h3c0,0,0.4,0,1,0.1c0.6,0.1,1.1,0.1,1.4,0.1c0.1,0,1.3-0.1,3.4-0.2
				c0.5,0,1.7,0,3.8,0.1c0.2,0.1,0.3,0.3,0.3,0.5c0,0.1,0,0.2-0.1,0.4c-0.1,0.2-0.1,0.3-0.1,0.4c0,0.4-0.1,1.6-0.4,3.7
				c0,0.1-0.2,0.2-0.5,0.3c-0.1-0.1-0.3-0.7-0.6-1.8c-0.2-0.7-0.6-1.1-1.2-1.2c-0.2-0.1-0.5-0.1-0.8-0.2c-0.3-0.1-0.6-0.1-0.8,0
				c-0.5,0.1-1.6,0.2-3.2,0.1c-0.9-0.1-1.6-0.1-2.1,0.1c-0.1,0-0.2,0.2-0.3,0.4c0.4,1.3,0.4,2.5,0.1,3.5c0-0.1,0,0.2,0,0.8
				c0,0.2,0,0.5-0.1,1c-0.1,0.4-0.1,0.7,0,1c0,0.1,0.1,0.3,0.3,0.4h6.3c0.2-0.1,0.4-0.1,0.6-0.2c0.3-0.1,0.5-0.3,0.7-0.5
				c0.1-0.3,0.3-0.7,0.6-1.2c0.4,0,0.6,0.1,0.7,0.4c0,0.6-0.1,1.5-0.1,2.5c0,0.7-0.1,1.6-0.2,2.9c0,0.2-0.3,0.3-0.7,0.2
				c-0.1-0.3-0.4-0.6-0.8-1.1c-0.7-0.5-1.3-0.8-1.9-0.8h-2.3c-0.1,0-0.4,0-0.9-0.1c-0.4-0.1-0.7-0.1-1-0.1c-0.6,0-1,0.2-1.1,0.5
				c-0.2,0.4-0.3,0.7-0.3,0.9c0,0.2,0,0.6,0.1,1.1c0.1,0.6,0.1,1,0.1,1.3c0,0.2-0.1,0.5-0.2,0.9c-0.1,0.4-0.1,0.8-0.1,1
				c0,0.2,0,0.4,0.1,0.5c0.1,0.3,0.4,0.6,0.9,1c0.5,0.4,1,0.6,1.4,0.7c0.1,0,0.1,0,0.2,0.1c0.1,0,0.2,0.1,0.3,0.1h2.8
				c0.6,0,1.2-0.1,1.6-0.3c0.6-0.3,1.2-0.7,1.7-1.3c0.6-0.7,0.9-1.4,1-2C261.4,415,261.7,415,262.2,415.1z"/>
		</g>
		<g>
			<path d="M330.4,427.7c0,0.3,0,0.7,0,1c-0.1,0.4-0.3,0.7-0.6,0.8c-0.3,0.1-1,0.3-2.1,0.4c-0.4,0.1-1.1,0.3-2.2,0.6
				c-1,0.3-1.8,0.5-2.3,0.5c-0.2,0-0.4,0-0.5-0.1c-0.2,0-0.4-0.2-0.8-0.5c-0.5-0.3-0.7-0.6-0.6-0.8c-0.3-0.2-0.9-0.1-1.7,0.1
				c0.6,0.3,1.3,0.7,2.1,1.1c-2,0.1-3.4-0.1-4.1-0.6c0.1-0.2,0.1-0.6,0.3-1.1c0,0-0.1-0.1-0.2-0.2c0.1,0-1-0.2-3.4-0.4
				c0,0-0.1,0-0.3,0.2c0.2,0.1,0.5,0.3,0.9,0.4c-1.2,0.1-2,0-2.3-0.2c-0.3-0.4-0.7-0.9-1-1.3c-0.6-0.7-1.2-1-1.7-0.9
				c-0.6-0.8-2.1-2.4-4.4-4.7c-2-2-3.1-3.2-3.2-3.6c-0.3-0.2-0.6-0.4-1-0.9c-0.4-0.5-0.9-1.3-1.5-2.4c-0.1-0.3-0.3-0.4-0.7-0.4
				c-0.4-1.2-1-2.3-2.3-3.3c0.1-0.3,0.3-0.5-0.5-1.3c-0.9-1.1-0.5-1.1-0.5-1.9c0-0.1,0-0.3,0-0.4c0.1-0.1,0.4-0.1,0.9,0
				c0.1,0.1,0.3,0.3,0.6,0.4c0.6-0.1,1.1-0.3,1.4-0.7c0.5,0.4,1.1,1.1,1.9,2c0.4-0.1,0.6-0.3,0.6-0.7c0-0.7-0.4-1-1.2-1
				c0.1-0.1,0.1-0.1,0.2-0.3c0.1-0.1,0.1-0.2,0.2-0.2c0.2,0.1,0.4,0.3,0.8,0.6c0.2,0,0.4-0.1,0.5-0.2c0.1-0.3,0.1-0.7,0-1.2
				c-0.7-0.5-1.4-0.8-2.3-0.8c-0.5,0-1.2,0.1-2.2,0.3c-1,0.2-1.6,0.3-2,0.3c-0.5,0-1-0.1-1.3-0.3c-1-0.5,0.2,1.2-0.1-0.1
				c-0.1-0.1-0.3-0.3-0.5-0.4c0-0.1,0.1-0.2,0.1-0.3c0-0.4-0.2-0.8-0.7-1.1c-0.5-0.3-0.9-0.5-1.3-0.5c-1.5,0-3.6,0-6.3,0
				c-3.1,0-5.2,0-6.3,0c-0.2,0-0.4,0.1-0.4,0.4c-0.1,1.6-0.1,2.5,0,2.7v5.3c0.1,3,0.2,4.9,0.2,5.7c0,0.1-0.1,0.3-0.2,0.7
				c-0.1,0.3-0.2,0.6-0.1,0.8c0.2,0.4,0.5,0.9,0.9,1.7c0.3,2,0.4,3.3,0.3,3.8c-0.4,0.3-1,0.7-1.8,1.3c0,0.2,0,0.3,0.1,0.3
				c1.5,0,4,0.3,7.3,0.9c0.3,0.1,0.7,0.2,1.2,0.4c0.1,0.2,0,0.8-0.1,1.7c-0.4,0.3-0.8,0.5-1.1,0.5c-0.8,0-3-0.3-6.5-0.8l-8.8-0.2
				c-0.6,0.2-1.5,0.3-2.7,0.5c-1.9,0.1-4.2,0.1-6.9,0.1c0-0.5,0-1.1,0-2c0.9-0.4,2.1-0.7,3.8-1.2c0.9-0.2,1.8-0.9,2.8-2.1
				c1-1.2,1.5-2.2,1.5-3c0.4-3.8,0.5-5.8,0.5-6.2v-29.3c0-0.1,0-0.4-0.1-1c-0.1-0.5-0.1-0.9-0.1-1.1c0-0.4,0-1.2,0.2-2.5
				c0.1-1.3,0.2-2.3,0.2-3.1c0-0.3-0.1-1-0.2-1.9c-0.1-1-0.2-1.8-0.2-2.2c-0.1-0.8-0.2-1.9-0.4-3.5c-0.2-0.4-0.4-1-0.8-1.8
				c-0.2-1-1.3-1.7-3.2-2.2c-0.2-0.1-0.7-0.3-1.3-0.5c-0.5,0-1.2,0-2.1-0.1c-0.7-0.4-0.7-1.1-0.3-2c0.8-0.2,2-0.4,3.5-0.7
				c4.4-0.4,6.9-0.5,7.6-0.5h5.8c0.1,0,0.9-0.1,2.3-0.2c1.4-0.2,2.2-0.2,2.3-0.2h3.3c0.1,0,0.6,0,1.3,0.1c0.8,0.1,1.4,0.1,1.8,0.2
				c0.5-0.1,1.3-0.1,2.2-0.2c2.8,0.4,6,0.9,9.5,1.8c1.3,0.3,3.9,2,7.9,5.2c0.1,0.2,0.1,0.5,0,0.9c-0.5,0.5-1.4,1.1-2.8,1.8
				c-1.4,0.7-2.3,1.3-2.8,1.9c0.1,0.3,0.4,0.5,0.9,0.6c0.5,0.1,0.9,0,1.3-0.1c0.1-0.2,0.2-0.3,0.5-0.5c0.8-0.1,1.3-0.2,1.6-0.2
				c0.1,0.5,0.4,0.9,0.9,1.4c0.4-0.1,0.7-0.4,0.7-0.9c0-0.4-0.2-0.8-0.6-1.1c0.4-0.1,0.8-0.1,1.2,0c0.6,0.2,1.1,0.2,1.5,0.2
				c0.3,1.4,0.6,2.8,0.9,4.2c0.4,1.9,0.6,3.5,0.6,4.8c0,1.1-0.1,2.1-0.4,3c-0.4,1.5-1.2,3.6-2.4,6.5c-0.7,1.3-2,3.1-4,5.4
				c-0.1,0.1-1.3,1.1-3.8,3c0.8,1.4,1.8,3,3.2,4.8l0.7,1c0.7,1.2,1.2,2.1,1.5,2.6c0.1,0.2,0.1,0.4,0.3,0.7c1.5,1.8,1,1.9,3.8,5.6
				c0.1,0.2,0.1,0.3,0,0.4c1.1,0.9,2.6,2.1,4.3,3.7c0.8,0.8,1.8,1.9,3.1,3.5c-0.9,0.1-1.3,0.5-1.3,1.2c0,0.7,0.3,1.2,1,1.4
				c0.1-1,0.6-1.5,1.3-1.5c0.1,0,0.2,0,0.3,0c0.1,0,0.8,0.3,2,0.9c1.8,0.9,3.6,1.8,5.5,2.7C327.9,427.5,329,427.7,330.4,427.7z
				 M302.1,384.7c-0.7-0.2-1.1-0.6-1.1-1.1v-4.3c0-0.1,0-0.3-0.1-0.5c-0.1-0.2-0.1-0.3-0.2-0.4c-0.2-1.7-1-3.7-2.6-5.9
				c-1.7-2.4-3.5-3.8-5.4-4.2c-0.3-0.2-0.6-0.3-1.1-0.5c-2.7-0.6-4.3-0.9-4.6-0.9h-3.6c-1.4,0-2.6,0.2-3.7,0.5
				c-0.1,0.1-0.4,0.4-0.9,1c0.2,1.6,0.3,2.5,0.2,2.7c0,0,0,0.1-0.1,0.2c-0.1,0.1-0.1,0.3-0.1,0.4v5.7c0,0.1-0.1,0.4-0.2,0.7
				c-0.2,0.3-0.2,0.6-0.2,0.8c0.2,0.7,0.3,1.3,0.5,1.9c0.2,0.7,0.2,1.3,0,1.9c-0.4,1.3-0.5,3-0.2,5.1c-0.1-0.4-0.1,0.2-0.1,1.9v5.8
				c0,0.4,0,0.8-0.1,1.3c-0.1,0.4-0.1,0.7,0,0.9c0.1,0.4,0.3,0.8,0.5,1.4c0.7,0.2,1.6,0.4,2.9,0.7l7.9,0.2c0.8-0.4,2.1-0.9,3.8-1.5
				c0.7-0.2,1.5-0.5,2.6-1.1c1.6-1.5,2.7-2.8,3.4-4.1c0.6-1,1-2.4,1.3-4.2c0-0.5,0.1-1.3,0.3-2.4c0.1-0.4,0.1-0.9,0.3-1.6
				C301.5,384.8,301.8,384.6,302.1,384.7z M297.9,407.2c-0.3,0.4-0.6,0.5-0.9,0.4c0.1-0.3,0.2-0.5,0.6-0.7
				C297.6,407,297.7,407.1,297.9,407.2z"/>
			<path d="M336.2,376.2c-0.1,0.4-0.3,1-0.5,1.7l-2.4,0.5c-1,0.2-1.7,0.7-2,1.4c-0.2,0.3-0.5,0.8-0.8,1.4c-0.1,0.2-0.4,1.8-1.1,4.7
				l-0.2,17.1c-0.2,0.7-0.3,1.1-0.3,1.1l0.3,0.9l-0.1,6.3c-0.2,0.9-0.2,2.1,0,3.6c0.2,1.8,0.6,3.2,1.1,4.3c0.2,0.4,0.7,0.8,1.4,1.3
				c1.4,0.8,2.8,1.2,4.2,1.2c0,0.4-0.2,0.9-0.4,1.5h-4.7c-0.1,0-0.6,0-1.4-0.1c-0.9-0.1-1.3-0.1-1.4-0.1c-0.1,0-0.4,0-1.1,0.1
				c-0.7,0.1-1,0.1-1.1,0.1c-0.1,0-0.3,0-0.8-0.1c-0.4-0.1-0.7-0.1-0.8-0.1c-0.1,0-0.3,0-0.6,0.1c-0.3,0.1-0.5,0.1-0.6,0.1l-8.5,0.2
				c-0.7,0-1.1-0.3-1.1-0.8c0-0.6,0.2-1,0.6-1.1c0.9-0.2,1.7-0.3,2.6-0.4c1-0.2,1.7-0.6,2-1.1c0.1-0.3,0.3-0.8,0.5-1.5
				c0.4,0,1,0.1,1.8,0.2c0.3-1.1,0.4-1.8,0.4-2.2c0-0.3-0.1-0.7-0.4-1.2c0.2-0.5,0.3-1,0.1-1.4c-0.1-0.3-0.4-0.7-0.8-1.4
				c-0.4-0.6-0.5-0.9-0.5-1c0,0.2,0.2-0.6,0.7-2.4c0.1-0.2,0-0.5-0.2-0.9c0.5-0.8,0.7-1.3,0.7-1.5c0-0.1-0.1-0.9-0.2-2.6
				c0-0.1-0.1-0.4-0.3-0.8c-0.2-0.4-0.3-0.6-0.3-0.7c0-0.1,0.1-0.3,0.3-0.6c-0.1,0.1-0.1,0-0.1-0.4v-4.9c0-0.1,0.1-0.3,0.2-0.7
				c0.1-0.4,0.2-0.7,0.2-0.7c0-0.1,0-0.2-0.1-0.3c-0.1-0.1-0.1-0.3-0.1-0.3c0,0.1,0-0.5,0.1-1.8c0-0.3-0.1-1-0.2-2.3v-3.2
				c0-0.3-0.2-0.7-0.6-1.3c0.1-0.3,0-0.9-0.2-1.7c0-0.4-0.1-1-0.3-1.7c-0.2-0.2-0.5-0.6-0.8-1.1c-0.1-0.3-0.3-0.7-0.6-1.2
				c-0.5-0.8-1.1-1.4-1.5-1.6c-0.6-0.2-1.6-0.5-2.8-0.9c0.1-0.4,0.2-0.9,0.4-1.5h0.4c0.1,0,0.3,0,0.8,0.1c0.4,0.1,0.7,0.1,0.8,0.1
				L336.2,376.2z"/>
			<path d="M392.6,373.5c-0.5,0.1-1.3,0.2-2.2,0.4c-1,0.3-1.8,1-2.4,2c-0.8,1.5-1.4,3-1.5,4.4c-0.4,2.5-0.5,4.5-0.5,6.1
				c0,0.1,0.1,1.3,0.2,3.5c0.1,2.2,0.2,3.4,0.2,3.6v6.5c0,0.1,0,0.4,0.1,0.8c0.1,0.5,0.1,0.8,0.1,1.1c-0.2,3.3-0.2,5.1-0.2,5.5
				c0,0.2,0.1,0.7,0.2,1.3c0.1,0.7,0.2,1.1,0.2,1.2v12.5c0,0.2,0,0.3,0.1,0.3c0,0,0.1,0,0.1,0.1c-1.9,0.3-2.8,0.5-2.6,0.5
				c-1.1,0-1.8-0.1-2.1-0.4c-1.9-1.7-4.6-4.8-8.3-9.1c-0.7-0.9-1.6-2.1-2.9-3.7c-1.1-1.1-2.7-2.7-4.6-4.9c-0.5-0.8-1.3-2-2.4-3.6
				c-2.4-3-5.9-7.3-10.4-13.1c-0.6-0.5-1.4-1.2-2.4-2.2c0-0.2-0.1-0.5-0.2-0.8c-0.3-0.5-0.9-1.3-1.6-2.3c-0.6,0.3-0.9,0.7-0.9,1.3
				c0,0,0.2,1.4,0.6,4.2c0,0.2,0,0.4-0.1,0.8c-0.1,0.3-0.1,0.6-0.1,0.7c0,1.1,0,2.8,0.1,5c0.1,2.3,0.1,3.4,0.1,3.3v5.7
				c0,0.2,0,1.5,0.1,4.2c0,2.6,0.1,4,0.1,4.1c0,5.7,2,8.7,6.1,9c0.1,0,0.2,0.1,0.3,0.3c0.1,0.2,0.2,0.4,0.3,0.4c0,0.5,0,0.9-0.2,1.2
				H341c-0.1,0-0.6,0.1-1.5,0.2c-0.9,0.1-1.4,0.2-1.5,0.2h-0.7c-0.2-0.2-0.4-0.4-0.4-0.4c0-1,0.3-1.6,0.9-1.9
				c0.7-0.2,1.7-0.6,3.1-1.2c1.3-0.7,2.1-1.9,2.4-3.5c0.7-3.9,0.9-6.3,0.4-7.2c-0.2-0.4-0.2-0.7-0.1-1l0.3-0.4l-0.2-0.4
				c0-0.3,0-0.8,0-1.6c0.1-0.7,0.1-1.3,0.1-1.6c0-0.4-0.1-1-0.2-2c-0.1-0.9-0.2-1.6-0.2-2c0,0.4,0.1-0.4,0.2-2.5
				c0-0.1-0.1-0.4-0.4-0.8l0.2-0.2c0.1-0.2,0.2-0.5,0.2-0.9c0.1-0.1,0.1-0.2,0-0.3c-0.4-3.1-0.6-5.1-0.6-6.2v-5.6
				c-0.2-3.2-0.3-5.2-0.3-5.9c0-0.1,0-0.3,0.1-0.5c0.1-0.3,0.1-0.5,0.1-0.7c-2.1-2.2-4.7-3.2-7.8-2.9l-0.2-0.2v-1.3
				c0.3-0.4,1-0.5,2.2-0.5c0.1,0,1.2,0.1,3.3,0.2c2.1,0.1,3.1,0.2,3.3,0.2c0.1,0,1.1-0.1,3-0.2c1.9-0.1,2.9-0.2,3.1-0.2
				c0.7,0,1,0,1.1,0.1c0.4,0.1,1.2,1,2.4,2.6c2.3,3.2,5.7,7.9,10.2,14.2c0.9,1.2,2.3,2.9,4.2,5.2c-0.3,2.4,0,3.6,1,3.6
				c0.1,0,0.3-0.1,0.7-0.2c0.3-0.2,0.6-0.2,0.7-0.2c0.4,0,0.8,0.5,1.4,1.5c0.3,0.5,0.6,1,0.9,1.5c2,1.6,3.2,2.8,3.7,3.7
				c0.1,0.5,0.3,1.1,0.6,2c0.2,0.3,0.4,0.4,0.5,0.4c0.1,0,0.3-0.1,0.4-0.2c0.1-0.1,0.2-0.2,0.2-0.2c0.7,0.8,1.7,1.9,3,3.5
				c0.5-0.2,0.7-0.4,0.7-0.6c0-0.1-0.1-0.4-0.2-0.7c-0.1-0.3-0.2-0.6-0.2-0.7v-4.4c0-0.1,0-0.3-0.1-0.6c0-0.3-0.1-0.6-0.1-1
				c0.1-0.5,0.2-1.2,0.2-2.2c-0.1-0.8-0.3-1.9-0.5-3.5c-0.1-0.2,0-0.6,0.1-1.2c0.1-0.6,0.2-0.9,0.2-1c0-0.1,0-0.3-0.1-0.7
				c-0.1-0.3-0.1-0.6-0.1-0.7c-0.1-0.5-0.1-1.2,0-2c0.1-1.1,0.1-1.8,0.1-2.1c0-0.1-0.1-0.4-0.2-0.7c-0.1-0.3-0.2-0.6-0.2-0.7
				l0.2-1.1c0-0.2,0-0.6-0.1-1.3c-0.1-0.6-0.2-1.1-0.2-1.4c0-0.1,0.1-0.4,0.2-0.7c0.1-0.4,0.1-0.7,0.1-0.8c-0.2-1.1-0.4-2.7-0.9-4.9
				c-0.4-1.4-1.9-2.3-4.6-2.8c0.1-0.5,0-1-0.2-1.5c0.3-0.2,1.3-0.4,2.9-0.4l7.4,0.3c-0.2,0,1.1-0.1,3.7-0.2c1.5-0.1,2.8,0,3.6,0.3
				V373.5z M377.4,404.6l-0.4,0.4l-0.2-0.2l0.2-0.9C377.5,404.4,377.6,404.6,377.4,404.6z"/>
			<path d="M434.9,372.2c0.1,0.2,0.1,0.5,0.1,0.7c0,0.6-0.1,1.6-0.4,3.1c-0.3,1.5-0.4,2.6-0.4,3.3c0,0.4,0,0.7,0,1.1
				c-0.1,0.5-0.3,1.2-0.4,2c0.2,1.1,0.3,1.5,0.4,1.3c-0.1,0.2-0.2,0.4-0.4,0.6c0,0.3,0.1,1,0.2,2.3c-0.7,0.7-1.3,1-1.8,1
				c-0.2,0-0.5-0.2-0.7-0.5c0.2-1.6,0.3-2.6,0.2-3c-0.1-0.4-0.2-1-0.5-1.8c-0.5-1.2-1.5-2.5-3-4c-0.6-0.5-1.9-1.3-4-2.2
				c-0.2-0.1-1.1-0.3-2.6-0.6c-1-0.2-2.4-0.2-4.3-0.2c-5.4,0-9.6,1.4-12.7,4.3c-0.4,0.2-0.9,0.6-1.6,1.3c-2.4,3.3-3.7,6.5-4,9.6
				c-0.1,1.3-0.2,3.5-0.2,6.4v2.7c0-0.2,0.2,0.6,0.6,2.2c0,0.8,0.2,2,0.4,3.4c0.2,0.1,0.4,0.5,0.8,1.2c0,0.4,0.1,0.8,0.3,1.4
				c0.4,0.5,1,1.3,1.8,2.3c0.1,0.3,0.3,0.8,0.6,1.4c1.2,2.2,3.1,4.1,5.7,5.5c1.1,0.7,2.3,1.1,3.4,1.4c5.4,1.3,8.8,1.9,10.3,1.9
				c0.7,0,1.4-0.1,2.1-0.2c0.3-0.1,0.8-0.2,1.4-0.5l0.2-1.6c0-0.4-0.2-0.6-0.5-0.8c-0.5-0.2-0.8-0.4-1-0.7c-0.3-0.4-0.3-1.3,0-2.5
				v-6.5c-0.2-1.6-0.4-2.8-0.7-3.7c-0.2-0.1-0.4-0.4-0.7-0.8c-0.5-1.4-1.5-2.4-3-2.8c-0.6-0.2-2-0.3-4-0.3c-0.1-0.1-0.2-0.1-0.4-0.3
				v-1.1c0.7-0.2,1.8-0.3,3.3-0.3c0.1,0,1.1,0.1,2.9,0.2c1.8,0.1,2.7,0.2,2.9,0.2c0.1,0,0.4-0.1,0.7-0.2c0.3-0.1,0.6-0.2,0.7-0.2
				c1.7-0.1,2.6-0.2,2.8-0.2c3.8,0,5.5,0,4.9,0v1.8c0,0.1-0.1,0.4-0.4,0.9c-0.3,0.6-0.5,1-0.5,1.2c-0.5,1.9-0.7,3.8-0.8,5.7
				c-0.1,2.4-0.2,4.1-0.2,5.1c0,1.9,0.2,4.5,0.6,7.7c-1.3,0.7-4.5,1.5-9.8,2.6c-0.4,0-1.1,0-2,0.1c-1.2,0.3-2.1,0.4-2.6,0.4
				c-0.1,0-0.3,0-0.6-0.1c-0.3-0.1-0.5-0.1-0.6-0.1c-2.8-0.1-5.1-0.4-7-0.7c-0.7-0.3-1.8-0.6-3.1-1c-2.7-0.5-5.8-2.3-9.1-5.2
				c-3.5-3.1-5.6-6-6.4-8.8c-0.2-0.6-0.6-1.6-0.9-2.8c-0.2-0.4-0.5-1-0.9-1.8c-0.3-1.3-0.5-2.5-0.5-3.4c0,0.1,0.1-0.4,0.2-1.5
				c0.1-0.9,0.1-1.6,0-2c-0.1-0.4-0.2-0.9-0.2-1.4c0-0.9,0.2-2.2,0.7-4c0.5-2.1,0.9-3.5,1-4.3c2.7-4.8,4.3-7.2,4.8-7.2
				c0.1,0,0.2,0,0.2,0.1c0.1,0.1,0.1,0.1,0.3,0.1c0.5,0,0.8-0.1,1.1-0.3c0.1-0.3,0.3-0.8,0.7-1.3c2.5-2.8,4.1-4.2,4.6-4.2
				c0.1,0,0.2,0,0.3,0.1c0.1,0.1,0.1,0.1,0.2,0.1c0.1,0,0.4-0.2,0.9-0.6c0.5-0.4,0.8-0.6,0.9-0.6c0.1,0,0.3,0.1,0.5,0.2
				c0.2,0.1,0.4,0.2,0.5,0.2c0.1,0,1.3-0.3,3.6-0.9c2.3-0.6,3.5-0.9,3.6-0.9H424c0.1,0,1.4,0.1,3.7,0.4c2.4,0.3,3.6,0.4,3.7,0.4
				c0.1,0,0.5,0,1.4,0C433.8,372.2,434.5,372.2,434.9,372.2z"/>
		</g>
		<g>
			<path d="M475,426.6c0,1.3-0.9,4.2-2.6,8.8c-0.1,0.3-0.6,1.1-1.5,2.3c-2.3,3.1-4.3,5-6.1,5.6c-0.4,0.3-1.1,0.6-1.9,1.1
				c-2.6,1-6,1.5-10.1,1.5c-1.2,0-2.2-0.1-3.2-0.2c-0.1-0.5,0-1.2,0.3-2c-1.1-1-2-1.6-2.8-1.6c-0.6,0-1.2,0.3-1.7,0.9
				c0.5,0.4,1,0.5,1.4,0.5c0,0.5-0.1,0.9-0.5,1.1c-0.4,0.2-0.8,0.2-1.3,0c-0.2-0.1-2.1-0.8-5.6-2.2c-0.5-0.1-1.1-0.3-1.6-0.5
				c-0.7-0.3-1.3-0.7-1.7-1.2l-0.4-2.9c-0.2-1.3-0.5-3.4-0.9-6.3c0-1.9,0-4.6,0-8.2c0-2.4,0.5-3.6,1.5-3.6c0.2,0,0.4,0,0.5,0.1
				c0.1,2.2,0.5,5.5,1.2,10c0.2,0.4,0.6,1.1,1,1.9c0.8,2,2.2,3.6,4.1,4.8c1,0.6,2.6,1.3,4.9,2c0.5,0.1,1.6,0.5,3.4,0.9
				c1.2,0.3,2.9,0.6,4.9,0.8c0.6-0.9,1.5-1.6,2.8-1.9c1.7-0.4,2.8-0.8,3.5-1.2c0.4-0.3,0.8-1,1.3-2.1c0.4-0.9,0.7-1.9,1.1-2.8
				c0.2-0.8,0.6-2.1,1.1-3.8c0-0.3-0.1-0.7-0.1-1.3c0-1.4-0.3-2.9-1-4.6c-0.7-1.8-1.6-3.1-2.7-3.8c-0.2-0.5-0.6-1.1-1.2-1.8
				c-1.4-0.9-3.5-2.2-6.1-3.7c-0.6-0.5-1.4-1.2-2.6-2c-3.8-1.8-7.1-4.2-10-7c-1.1-1.1-2.2-2.7-3.2-4.8c0-0.2-0.1-0.6-0.3-1.1
				c-0.1-0.3-0.4-0.5-0.7-0.8c0,0-0.1-0.2-0.2-0.4c0-0.7,0-1.4,0-2.1c-0.1-0.9-0.4-1.6-0.8-2.1c0-1,0.1-2.4,0.1-4.4
				c-0.1-0.1-0.3-0.3-0.5-0.5c0-0.2,0-0.6,0-1.2c0.1-0.2,0.3-0.4,0.5-0.8c0,0,0.3-1.4,0.9-4.1c0.4-1.7,1.3-3.1,2.7-4.4
				c0.1,0.2,0.3,0.5,0.7,0.9c0.1-0.6,0.4-1.5,0.9-2.6c2.3-2.5,4.6-4.5,7.1-5.9c0.8,0,1.8-0.1,3.1-0.2c1.4-0.1,3.4-0.4,6-0.8
				c0.1,0.1,0.3,0.2,0.5,0.4c1.4,0.2,3.4,0.5,6.1,0.8c1.9,0.1,3.1,0.1,3.5,0c1.9-0.3,2.7-0.4,2.4-0.4c0.5,0,0.9,0.1,1.2,0.4
				c0,0-0.3,6.9-1,20.7c-0.4,0.2-1,0.3-1.9,0.2c-0.3-1.4-0.5-2.4-0.5-3.1c0-2.2-0.5-4.4-1.5-6.5c-1.1-2.3-2.6-3.9-4.4-4.6
				c-1.5-0.7-3.4-1-5.5-1c-2.3,0-4.1,0.4-5.4,1.1c-0.2,0-0.6,0-1,0.1c-1.3,0.8-2.4,1.9-3.4,3.5c-1.1,1.7-1.6,3.2-1.6,4.5
				c0,0.2,0.1,0.7,0.2,1.5c0.2,0.8,0.3,1.3,0.3,1.7c0,2.5,1.1,5,3.4,7.3c1,1,2.7,2.4,5.1,4c1.1,0.5,2.7,1.3,4.8,2.4
				c5.7,3.5,9.7,7,11.9,10.5c0.2,0.5,0.6,1.4,1.1,2.7c0.4,0.9,0.8,2.4,1.1,4.4C474.9,422.3,475.1,424.6,475,426.6z"/>
		</g>
		<g>
			<path d="M97.5,434.4c0,0.2-0.1,0.5-0.1,0.8v2.1c0,0-0.1,0-0.2,0c-0.1,0-0.1,0-0.2,0c0,0-0.1-0.4-0.1-1.1c0-0.4-0.2-0.7-0.5-0.9
				c-0.1-0.1-0.4-0.1-0.9,0c-0.2,0-0.6,0.1-1,0.2c-0.2,0.1-0.3,0.2-0.3,0.3c-0.1,0.4-0.1,0.9,0,1.6c0.1,0.7,0.1,1.7-0.1,3
				c0,0,0,0.4,0.1,1.2c0,0.3,0,0.7,0,1.3c0.1,0.3,0.2,0.8,0.3,1.4c0.1,0.3,0.3,0.5,0.6,0.6c0.3,0.1,0.5,0.1,0.8,0.2
				c0,0.1-0.1,0.2-0.2,0.4h-5c0,0-0.1,0-0.1-0.1c0,0,0-0.1,0-0.1c0.2,0,0.5-0.1,0.8-0.3c0.3-0.2,0.5-0.4,0.7-0.6
				c0-0.1,0.1-0.3,0.1-0.8c0-0.8,0.1-1.7,0.1-2.6v-3.2h0.2c0,0,0,0,0.1-0.1c-0.1-0.2-0.2-0.5-0.3-0.8c0-0.1-0.1-0.5-0.1-1.4h-1.6
				c-0.2,0-0.4,0.1-0.6,0.3s-0.4,0.3-0.4,0.5c-0.1,0.5-0.2,0.9-0.4,1.1c-0.1,0.1-0.2,0.2-0.4,0.2c0,0,0-0.1,0-0.2c0-0.1,0-0.2,0-0.2
				c0.1-0.2,0.1-0.6,0.2-1.1c0.1-0.6,0.1-1,0.2-1.2l0.3-0.4c-0.2,0,0.4,0,1.6,0c0.4,0,0.9,0,1.7,0.1c0.7,0.1,1.1,0.1,1.1,0.1h1.5
				c0,0,0.2,0,0.5-0.1c0.4-0.1,0.8-0.1,1.1-0.1c0.1,0,0.3,0,0.4-0.1C97.4,434.3,97.5,434.3,97.5,434.4z"/>
			<path d="M113.5,434.5c0,0.1,0,0.1-0.1,0.2c-0.2,0.1-0.5,0.2-0.6,0.3c-0.1,0.1-0.2,0.2-0.4,0.4s-0.2,0.4-0.2,0.5
				c0,0.5,0,0.7,0,0.6c0,0.1-0.1,0.3-0.2,0.6c0,0.1,0,0.4,0.1,0.9c0,0.2,0,0.4,0,0.7c0,0.3,0,0.8-0.1,1.3c0,0.5-0.1,0.7-0.1,0.7v1.3
				c0,1.3,0.2,2.3,0.5,2.8c0.1,0.1,0.2,0.2,0.4,0.3c0.2,0.1,0.4,0.2,0.5,0.2c0,0.1-0.1,0.1-0.2,0.3h-4.1c0,0,0-0.1,0-0.2
				c0-0.1,0-0.1,0-0.2c0.1-0.1,0.3-0.1,0.6-0.3c0.2-0.1,0.4-0.4,0.5-0.8c0.1-0.4,0.2-0.7,0.2-0.9v-1.3c0-0.1,0-0.3-0.1-0.7
				c0-0.3,0-0.5,0-0.7c0-0.1,0-0.4-0.2-0.7c-0.3,0.2-0.7,0.4-1.3,0.5c-0.3,0.1-0.6,0.1-0.8,0c-0.3-0.1-0.5-0.1-0.5-0.1h-2.2
				c-0.1,0.1-0.3,0.2-0.5,0.4c-0.1,0.1-0.1,0.3-0.1,0.6c0,0.1,0.1,0.2,0.2,0.4c0-0.1,0,0.1-0.1,0.5c0,0,0,0.5,0.1,1.4
				c0,1,0.4,1.5,1,1.6c0,0,0.2,0.1,0.4,0.1c-0.2,0.2-0.4,0.3-0.7,0.3c-0.1,0-0.2,0-0.3,0c-0.1,0-0.2,0-0.2,0l-3.5-0.1
				c0-0.1,0.1-0.2,0.4-0.3c0.3-0.1,0.6-0.3,0.7-0.6c0.1-0.2,0.2-0.6,0.2-1.1c0-0.6,0.1-1,0-1.4c0,0-0.1-0.1-0.1-0.2
				c0-0.5,0-1.1,0.1-2c0,0,0-0.1,0.1-0.3c0.1-0.1,0.1-0.2,0.1-0.3c-0.1-0.1-0.1-0.3-0.2-0.5c0,0.1,0-0.1,0.1-0.6c0-0.1,0-0.2,0-0.4
				s0-0.3,0-0.3v-1.4c0-0.2-0.1-0.4-0.4-0.7c-0.3-0.3-0.5-0.4-0.8-0.5c0,0,0.1-0.1,0.2-0.3c0.2,0,0.5,0,1-0.1c0.4,0,0.6-0.1,0.7-0.1
				h1.7c0.1,0,0.2,0,0.2,0c0.1,0,0.1,0,0.2,0c0.1,0,0.3,0.1,0.6,0.3c-0.2,0.1-0.4,0.2-0.6,0.3c-0.3,0.1-0.4,0.3-0.6,0.5
				c-0.2,0.3-0.3,0.7-0.3,1.5v1.9c0,0,0,0.1,0,0.1c0,0,0,0.1,0,0.1c0.3,0.1,0.5,0.2,0.7,0.2h3.5c0.1,0,0.3,0.1,0.5,0.1
				c0,0,0.1,0,0.2,0.1c0.1,0.1,0.2,0.1,0.3,0.1c0,0,0.1,0,0.1,0c0.2-0.2,0.3-0.5,0.3-0.8c0-0.2,0-0.4-0.1-0.7
				c-0.1-0.3-0.1-0.5-0.1-0.6c0-0.1,0-0.3-0.1-0.6c0-0.3-0.1-0.6-0.1-0.7c0-0.6-0.5-1.1-1.3-1.5c0.1-0.1,0.2-0.2,0.3-0.2h1.3
				c-0.1,0,0.2,0,0.7,0c0.5,0,0.9,0,1.1,0C112.6,434.3,113,434.4,113.5,434.5z"/>
			<path d="M126.7,442.6c0,0.3-0.1,0.7-0.1,1.3c-0.1,0.2-0.2,0.4-0.3,0.6c0,0.1-0.1,0.3-0.1,0.5c0,0.1-0.1,0.2-0.2,0.3
				c-0.2,0.2-0.3,0.3-0.4,0.3h-2.3c0,0-0.3,0-0.8,0c-0.5,0-0.8,0-0.8,0h-1.4c0,0-0.2,0-0.5,0s-0.5,0-0.6,0H118l-0.1-0.1
				c0.1-0.1,0.3-0.3,0.8-0.5c0.3-0.2,0.5-0.4,0.5-0.7v-2.8c0-0.5,0.1-1.1,0.2-1.8c-0.1-0.2-0.1-0.5,0-0.9c-0.1-0.1-0.2-0.2-0.2-0.4
				c0,0,0.1-0.3,0.2-0.7c0,0,0-0.1-0.1-0.2c-0.1-0.1-0.1-0.2-0.1-0.2c0-0.1-0.1-0.3-0.1-0.6c0-0.4,0-0.6,0-0.6
				c0-0.2-0.1-0.4-0.1-0.5c-0.1-0.2-0.2-0.3-0.4-0.4c-0.2-0.1-0.4-0.2-0.5-0.2c0.1-0.2,0.2-0.3,0.3-0.3c0.2,0,0.4,0,0.8,0
				c0.4-0.1,0.6-0.1,0.5-0.1h1.6c0,0,0.2,0,0.5,0.1c0.3,0,0.6,0.1,0.8,0.1c0.1,0,0.7,0,1.8-0.1c0.3,0,0.9,0,2,0.1
				c0.1,0.1,0.1,0.1,0.1,0.2c0,0.1,0,0.1-0.1,0.2c0,0.1-0.1,0.2-0.1,0.2c0,0.2-0.1,0.8-0.2,1.9c0,0-0.1,0.1-0.3,0.2
				c0-0.1-0.1-0.4-0.3-0.9c-0.1-0.4-0.3-0.6-0.7-0.6c-0.1,0-0.3-0.1-0.4-0.1c-0.2,0-0.3,0-0.4,0c-0.3,0.1-0.8,0.1-1.7,0
				c-0.5,0-0.8,0-1.1,0c-0.1,0-0.1,0.1-0.1,0.2c0.2,0.7,0.2,1.3,0,1.8c0,0,0,0.1,0,0.4c0,0.1,0,0.3,0,0.5c0,0.2,0,0.4,0,0.5
				c0,0.1,0.1,0.1,0.2,0.2h3.3c0.1,0,0.2-0.1,0.3-0.1c0.2-0.1,0.3-0.2,0.3-0.3c0.1-0.2,0.2-0.4,0.3-0.6c0.2,0,0.3,0.1,0.4,0.2
				c0,0.3,0,0.8-0.1,1.3c0,0.3,0,0.9-0.1,1.5c0,0.1-0.1,0.1-0.4,0.1c-0.1-0.1-0.2-0.3-0.4-0.6c-0.4-0.3-0.7-0.4-1-0.4h-1.2
				c-0.1,0-0.2,0-0.5,0c-0.2,0-0.4,0-0.5,0c-0.3,0-0.5,0.1-0.6,0.3c-0.1,0.2-0.1,0.4-0.1,0.5c0,0.1,0,0.3,0.1,0.6s0.1,0.5,0.1,0.7
				c0,0.1,0,0.2-0.1,0.5c-0.1,0.2-0.1,0.4-0.1,0.5c0,0.1,0,0.2,0,0.3c0,0.1,0.2,0.3,0.5,0.5c0.3,0.2,0.5,0.3,0.7,0.3
				c0,0,0.1,0,0.1,0c0.1,0,0.1,0,0.2,0h1.5c0.3,0,0.6-0.1,0.8-0.2c0.3-0.1,0.6-0.4,0.9-0.7c0.3-0.4,0.5-0.7,0.5-1
				C126.3,442.5,126.5,442.5,126.7,442.6z"/>
			<path d="M146.6,434.4c0.1,0.3,0,1.1-0.1,2.3c0,0.1-0.1,0.2-0.2,0.4c0,0-0.1,0-0.3,0c0-0.4-0.1-0.7-0.1-0.9
				c-0.1-0.3-0.3-0.6-0.6-0.6c-0.3-0.1-0.9-0.1-1.8-0.1H142c-0.3,0-0.4,0.3-0.4,0.8c0-0.1,0,0.2,0.1,0.9c0,0.1,0,0.4-0.1,0.7
				c-0.1,0.4-0.1,0.6-0.1,0.8c0,0.3,0,0.5,0.1,0.7h1.2c0,0,0.1,0,0.3,0s0.3,0,0.3,0h1.1c0.4,0,0.8-0.2,1.1-0.7
				c0-0.1,0.1-0.2,0.1-0.4c0.1-0.1,0.2-0.1,0.4-0.1c0,0.2,0.1,0.4,0.1,0.8c0,0.4-0.1,1.3-0.2,2.5c0,0.2-0.2,0.2-0.5,0.2
				c-0.1-0.2-0.1-0.5-0.2-0.7c-0.1-0.3-0.3-0.5-0.5-0.6c-0.1,0-0.5-0.1-1.1-0.1h-1.3c-0.1,0-0.2,0-0.4,0c-0.2,0-0.3,0-0.4,0.1
				c0,0.1,0,0.4,0,0.6c0,0.1-0.1,0.2-0.1,0.5c-0.1,0.2-0.1,0.4-0.1,0.5c0,0.1,0.1,0.2,0.1,0.3c0,0.1,0,0.3,0,0.5c0,0.2,0,0.4,0,0.5
				c0,0.5,0.2,0.8,0.5,1.1c0,0,0.4,0.2,1.3,0.5c-0.1,0.1-0.3,0.2-0.4,0.2c0.4,0,0.2,0-0.5,0c-0.5,0-1.2,0-2-0.1c-0.4,0-0.7,0-0.8,0
				c-0.1,0-0.2,0.1-0.3,0.2c0,0-0.2,0-0.7-0.1c0-0.1,0.2-0.2,0.4-0.4s0.4-0.3,0.4-0.4c0.2-0.4,0.3-0.8,0.3-1.2v-2.1c0,0,0-0.2,0-0.6
				s0-0.7,0-0.9c0,0,0-0.1,0-0.3c0-0.2,0-0.3,0-0.4c0-0.2-0.1-0.3-0.1-0.4c0.2-0.3,0.3-0.6,0.3-1c0-0.4-0.1-0.9-0.3-1.4
				c0-0.1,0-0.2,0-0.4c0-0.1,0-0.2-0.1-0.2c-0.1-0.2-0.3-0.5-0.5-0.7c-0.1-0.1-0.2-0.1-0.5-0.1c0-0.1-0.1-0.2-0.1-0.4
				c0,0,0.4,0,1.2,0c1.3,0,3.3,0,6-0.1C145.8,434.3,146.2,434.3,146.6,434.4z"/>
			<path d="M159.5,442.6c0,0.3-0.1,0.7-0.1,1.3c-0.1,0.2-0.2,0.4-0.3,0.6c0,0.1-0.1,0.3-0.1,0.5c0,0.1-0.1,0.2-0.2,0.3
				c-0.2,0.2-0.3,0.3-0.4,0.3h-2.3c0,0-0.3,0-0.8,0c-0.5,0-0.8,0-0.8,0h-1.4c0,0-0.2,0-0.5,0c-0.3,0-0.5,0-0.6,0h-1.3l-0.1-0.1
				c0.1-0.1,0.3-0.3,0.8-0.5c0.3-0.2,0.5-0.4,0.5-0.7v-2.8c0-0.5,0.1-1.1,0.2-1.8c-0.1-0.2-0.1-0.5,0-0.9c-0.1-0.1-0.2-0.2-0.2-0.4
				c0,0,0.1-0.3,0.2-0.7c0,0,0-0.1-0.1-0.2c-0.1-0.1-0.1-0.2-0.1-0.2c0-0.1-0.1-0.3-0.1-0.6c0-0.4,0-0.6,0-0.6
				c0-0.2-0.1-0.4-0.1-0.5c-0.1-0.2-0.2-0.3-0.4-0.4c-0.2-0.1-0.4-0.2-0.5-0.2c0.1-0.2,0.2-0.3,0.3-0.3c0.2,0,0.4,0,0.8,0
				c0.4-0.1,0.6-0.1,0.5-0.1h1.6c0,0,0.2,0,0.5,0.1c0.3,0,0.6,0.1,0.8,0.1c0.1,0,0.7,0,1.8-0.1c0.3,0,0.9,0,2,0.1
				c0.1,0.1,0.1,0.1,0.1,0.2c0,0.1,0,0.1-0.1,0.2c0,0.1-0.1,0.2-0.1,0.2c0,0.2-0.1,0.8-0.2,1.9c0,0-0.1,0.1-0.3,0.2
				c0-0.1-0.1-0.4-0.3-0.9c-0.1-0.4-0.3-0.6-0.7-0.6c-0.1,0-0.3-0.1-0.4-0.1c-0.2,0-0.3,0-0.4,0c-0.3,0.1-0.8,0.1-1.7,0
				c-0.5,0-0.8,0-1.1,0c-0.1,0-0.1,0.1-0.1,0.2c0.2,0.7,0.2,1.3,0,1.8c0,0,0,0.1,0,0.4c0,0.1,0,0.3,0,0.5c0,0.2,0,0.4,0,0.5
				c0,0.1,0.1,0.1,0.2,0.2h3.3c0.1,0,0.2-0.1,0.3-0.1c0.2-0.1,0.3-0.2,0.3-0.3c0.1-0.2,0.2-0.4,0.3-0.6c0.2,0,0.3,0.1,0.4,0.2
				c0,0.3,0,0.8-0.1,1.3c0,0.3,0,0.9-0.1,1.5c0,0.1-0.1,0.1-0.4,0.1c-0.1-0.1-0.2-0.3-0.4-0.6c-0.4-0.3-0.7-0.4-1-0.4h-1.2
				c-0.1,0-0.2,0-0.5,0c-0.2,0-0.4,0-0.5,0c-0.3,0-0.5,0.1-0.6,0.3c-0.1,0.2-0.1,0.4-0.1,0.5c0,0.1,0,0.3,0.1,0.6s0.1,0.5,0.1,0.7
				c0,0.1,0,0.2-0.1,0.5c-0.1,0.2-0.1,0.4-0.1,0.5c0,0.1,0,0.2,0,0.3c0,0.1,0.2,0.3,0.5,0.5c0.3,0.2,0.5,0.3,0.7,0.3
				c0,0,0.1,0,0.1,0c0.1,0,0.1,0,0.2,0h1.5c0.3,0,0.6-0.1,0.8-0.2c0.3-0.1,0.6-0.4,0.9-0.7c0.3-0.4,0.5-0.7,0.5-1
				C159.1,442.5,159.3,442.5,159.5,442.6z"/>
			<path d="M173.3,442.9c-0.1,0.4-0.2,0.9-0.4,1.3c-0.2,0.5-0.4,1-0.7,1.5l-7.9-0.1c-0.1,0-0.2-0.1-0.4-0.1c-0.2,0-0.3-0.1-0.4-0.1
				c0-0.2,0.1-0.3,0.2-0.3c0.2,0,0.5-0.1,0.7-0.2c0.3-0.2,0.5-0.4,0.6-0.7c0-0.1,0-0.3,0-0.7c0-0.4,0-0.6,0-0.7c0-0.1,0-0.3,0.1-0.7
				c0-0.3,0.1-0.6,0.1-0.8c0-2.1,0-3.6-0.1-4.3c0,0,0.1-0.1,0.1-0.2c0-0.6-0.1-1.1-0.2-1.5c-0.1-0.2-0.2-0.3-0.5-0.5
				c-0.3-0.2-0.5-0.2-0.7-0.2c0-0.2,0.2-0.4,0.5-0.4c0.1,0,0.2,0,0.4,0s0.3,0,0.3,0h4.4c0,0.1-0.1,0.3-0.4,0.3
				c-0.2,0.1-0.4,0.1-0.6,0.2c-0.3,0.1-0.4,0.2-0.4,0.2c-0.2,0.1-0.3,0.2-0.3,0.4c-0.1,0.4-0.2,1-0.3,1.6c-0.1,1-0.1,1.6-0.1,1.7
				c0.1,0.3,0.2,0.6,0.2,0.9c0,0.1,0,0.3-0.1,0.6s-0.1,0.4-0.1,0.6v2.4c0.1,0.3,0.2,0.7,0.4,1.2c0,0.1,0.1,0.2,0.3,0.2
				c0.2,0,0.6,0.1,1,0.2c0.1,0,0.2,0,0.2,0c0.4-0.1,0.9-0.1,1.3-0.2c0.5-0.1,0.9-0.2,1.2-0.4c0.1-0.1,0.2-0.3,0.4-0.6
				c0.2-0.4,0.3-0.6,0.4-0.7c0.1-0.1,0.2-0.1,0.4-0.1C172.9,442.8,173,442.8,173.3,442.9z"/>
			<path d="M186.7,442.9c-0.1,0.4-0.2,0.9-0.4,1.3c-0.2,0.5-0.4,1-0.7,1.5l-7.9-0.1c-0.1,0-0.2-0.1-0.4-0.1c-0.2,0-0.3-0.1-0.4-0.1
				c0-0.2,0.1-0.3,0.2-0.3c0.2,0,0.5-0.1,0.7-0.2c0.3-0.2,0.5-0.4,0.6-0.7c0-0.1,0-0.3,0-0.7c0-0.4,0-0.6,0-0.7c0-0.1,0-0.3,0.1-0.7
				c0-0.3,0.1-0.6,0.1-0.8c0-2.1,0-3.6-0.1-4.3c0,0,0.1-0.1,0.1-0.2c0-0.6-0.1-1.1-0.2-1.5c-0.1-0.2-0.2-0.3-0.5-0.5
				c-0.3-0.2-0.5-0.2-0.7-0.2c0-0.2,0.2-0.4,0.5-0.4c0.1,0,0.2,0,0.4,0s0.3,0,0.3,0h4.4c0,0.1-0.1,0.3-0.4,0.3
				c-0.2,0.1-0.4,0.1-0.6,0.2c-0.3,0.1-0.4,0.2-0.4,0.2c-0.2,0.1-0.3,0.2-0.3,0.4c-0.1,0.4-0.2,1-0.3,1.6c-0.1,1-0.1,1.6-0.1,1.7
				c0.1,0.3,0.2,0.6,0.2,0.9c0,0.1,0,0.3-0.1,0.6s-0.1,0.4-0.1,0.6v2.4c0.1,0.3,0.2,0.7,0.4,1.2c0,0.1,0.1,0.2,0.3,0.2
				c0.2,0,0.6,0.1,1,0.2c0.1,0,0.2,0,0.2,0c0.4-0.1,0.9-0.1,1.3-0.2c0.5-0.1,0.9-0.2,1.2-0.4c0.1-0.1,0.2-0.3,0.4-0.6
				c0.2-0.4,0.3-0.6,0.4-0.7c0.1-0.1,0.2-0.1,0.4-0.1C186.3,442.8,186.5,442.8,186.7,442.9z"/>
			<path d="M202.1,439.9c0,0.3,0,0.6,0,0.8c-0.1,0.1-0.1,0.3-0.2,0.6c0,0.3-0.1,0.6-0.2,0.9c-0.1,0.1-0.2,0.3-0.4,0.6
				c0,0.2-0.2,0.4-0.4,0.8c-0.2,0.2-0.4,0.4-0.8,0.8c-0.1,0-0.1,0-0.2,0.1c-0.1,0.1-0.2,0.2-0.4,0.3c-1,0.5-1.9,0.8-2.8,0.9h-1.2
				c0,0,0,0-0.1-0.1c-0.6,0-1.1-0.1-1.4-0.3c-0.1,0-0.2,0-0.3-0.1c-0.2-0.1-0.6-0.3-1.1-0.5c-0.6-0.4-1.1-0.9-1.6-1.5
				c-0.3-0.4-0.5-0.8-0.7-1.4c-0.2-0.5-0.3-1-0.3-1.4c0-0.6,0-1.2,0.1-1.8c0-0.1,0.1-0.2,0.1-0.3c0-0.2,0.1-0.4,0.2-0.8
				c0.1-0.2,0.3-0.5,0.5-0.9c0-0.1,0-0.1,0-0.2c0,0,0.1,0,0.2,0c0-0.1,0-0.2,0-0.4c0.1,0,0.2-0.1,0.3-0.2c0-0.1,0.2-0.3,0.3-0.5
				c0.4-0.2,0.9-0.5,1.6-0.8c0.2-0.1,0.4-0.2,0.7-0.2c0.7-0.2,1.2-0.2,1.5-0.2h0.7c0.5,0,1,0.1,1.4,0.2c0.2,0.1,0.7,0.2,1.4,0.5
				c0.1,0.1,0.4,0.2,0.7,0.4c0.5,0.3,0.9,0.7,1.3,1.2c0.3,0.5,0.6,0.9,0.7,1.3c0,0.1,0.1,0.2,0.2,0.3c0.1,0.4,0.2,0.9,0.2,1.6
				c0,0,0,0.1,0,0.2S202.1,439.8,202.1,439.9z M200.1,440.1c-0.1-0.7-0.2-1.4-0.4-2c-0.3-0.8-0.7-1.4-1.1-1.9
				c-0.6-0.6-1.2-1-1.9-1.1c-0.6-0.1-1.1-0.1-1.3-0.1c-0.5,0.1-0.9,0.2-1.2,0.3c0,0-0.3,0.2-0.8,0.5c0,0.1-0.1,0.1-0.2,0.2
				c0,0-0.1,0-0.2,0.1c-0.1,0.2-0.3,0.4-0.4,0.6c0,0.1-0.1,0.2-0.1,0.3c-0.1,0.1-0.2,0.3-0.3,0.5c-0.1,0.2-0.1,0.5-0.2,1
				c0,0.2,0,0.4,0,0.8c0,0,0,0.1,0,0.1c0,0.1,0,0.1,0,0.1c0.1,0.4,0.2,0.9,0.4,1.6c0,0,0,0.1,0,0.2c0,0.1,0.1,0.2,0.2,0.3
				c0,0.1,0,0.2,0.1,0.3c0.2,0.5,0.4,0.7,0.4,0.8c0.2,0.3,0.4,0.6,0.7,0.9c0,0,0,0.1,0.1,0.4c0,0,0.1,0,0.3,0.1
				c0.3,0.3,0.5,0.4,0.7,0.5c0.4,0.3,1.2,0.3,2.4,0.2c0.1,0,0.2-0.1,0.4-0.1c0.2,0,0.5-0.1,0.8-0.3c0.1-0.1,0.2-0.2,0.3-0.3
				c0.6-0.4,0.9-0.8,1.1-1.4c0.1-0.1,0.1-0.2,0.2-0.3c0-0.1,0-0.2,0.1-0.4c0,0,0.1-0.1,0.1-0.2c0-0.1,0-0.4,0.1-0.9
				C200.1,440.5,200.1,440.3,200.1,440.1z"/>
			<path d="M218.7,434.3c0,0.1-0.1,0.2-0.3,0.3c-0.3,0.1-0.5,0.2-0.5,0.2c-0.2,0.2-0.4,0.5-0.5,0.9c-0.1,0.2-0.3,0.6-0.4,1.2
				c0,0.2-0.1,0.4-0.3,0.8c-0.2,0.3-0.2,0.5-0.2,0.6s0,0.2,0,0.3c-0.4,1.3-1,3.2-1.9,5.8c-0.1,0.3-0.2,0.5-0.2,0.8
				c-0.1,0.3-0.3,0.5-0.5,0.5c-0.1,0-0.2,0-0.2-0.1c0,0,0-0.1,0-0.2c0-0.1,0-0.2,0-0.2c-0.1,0-0.2-0.2-0.2-0.4c0-0.1,0-0.2,0-0.3
				c-0.1-0.2-0.2-0.5-0.3-0.9c0-0.1,0-0.3,0-0.4c0-0.2-0.1-0.4-0.2-0.5c0,0,0-0.1,0-0.2c0-0.1,0.1-0.2,0.1-0.3
				c0-0.2-0.1-0.3-0.2-0.5c-0.1-0.1-0.2-0.3-0.3-0.4c0.1-0.1,0.1-0.2,0.2-0.3c-0.1-0.1-0.2-0.2-0.2-0.4c0-0.1,0-0.2,0-0.5
				c-0.1-0.1-0.2-0.3-0.3-0.5c0-0.1,0-0.1,0-0.3c0-0.2,0-0.3,0-0.3c-0.2-0.1-0.3-0.1-0.4,0.2c-0.1,0.3-0.2,0.8-0.4,1.4
				c-0.2,0.5-0.4,1.2-0.7,2.1c-0.1,0.2-0.2,0.4-0.3,0.8c-0.1,0.4-0.2,0.7-0.2,0.9c-0.1,0.4-0.2,0.7-0.4,0.9c-0.1,0.1-0.3,0.1-0.5,0
				c-0.1-0.2-0.2-0.5-0.2-0.8c-0.1-0.4-0.1-0.7-0.2-0.8c-0.1-0.2-0.2-0.4-0.3-0.6c0.1-0.4,0-0.6,0-0.8c-0.1-0.1-0.2-0.2-0.4-0.4
				c0-0.1,0-0.2,0-0.3c0,0,0-0.1,0-0.1c-0.1-0.2-0.2-0.4-0.3-0.8c0-0.1,0-0.2,0-0.3l0.1-0.1c0.1,0.1,0.3,0.2,0.6,0.4
				c0-0.1,0-0.3-0.2-0.4c-0.1-0.2-0.2-0.3-0.2-0.4c-0.6-0.3-0.9-0.7-0.9-1c0-0.1,0-0.2,0.1-0.3c-0.1-0.1-0.2-0.3-0.3-0.5
				c0-0.2-0.1-0.5-0.2-0.9c-0.1-0.1-0.2-0.2-0.3-0.4c0-0.1,0-0.3,0-0.6c-0.1-0.1-0.2-0.3-0.3-0.5c-0.1-0.2-0.2-0.3-0.2-0.5
				c-0.1-0.2-0.2-0.3-0.3-0.4c-0.1-0.1-0.4-0.2-0.8-0.2c0,0,0,0-0.1-0.1c0,0,0.1-0.1,0.1-0.2c0.2,0,0.6,0,1.2,0.1c0.1,0,0.2,0,0.4,0
				c0.2,0,0.3-0.1,0.3-0.1h1.6c0,0,0.1,0,0.2-0.1c0.1,0,0.1-0.1,0.2-0.1c0,0,0,0.1,0,0.1c0,0.1-0.1,0.2-0.4,0.3s-0.4,0.3-0.4,0.5
				c0,0.3,0.1,0.6,0.3,1c0,0.2,0,0.4,0.1,0.7c0.1,0.2,0.3,0.7,0.6,1.6c0,0.1,0,0.3,0,0.5c0,0.1,0.1,0.1,0.1,0.2
				c0,0.2,0.1,0.4,0.2,0.6c0.1,0.3,0.2,0.5,0.2,0.5c0.1,0.4,0.3,0.9,0.5,1.7c0.1,0,0.2-0.1,0.2-0.2c0.2-0.7,0.4-1.4,0.5-2
				c0,0,0.1-0.1,0.2-0.3c0-0.2,0.1-0.5,0.2-0.9c0.2-0.4,0.3-0.7,0.3-0.9c0-0.1,0-0.2,0-0.3c-0.2-0.6-0.5-1.4-0.9-2.5
				c-0.1-0.1-0.3-0.2-0.5-0.3c-0.2-0.1-0.4-0.2-0.4-0.3c0.1,0,0.3-0.1,0.6-0.1c0,0.1,0,0.2,0,0.2c0.2,0,0.5,0,0.8,0
				c0.3,0,0.6-0.1,0.9-0.1c0.1,0,0.3,0,0.7,0c0.3,0,0.5,0,0.7-0.1c0,0.1,0,0.1,0,0.2c0,0.1-0.1,0.2-0.3,0.2
				c-0.2,0.1-0.4,0.1-0.5,0.2c-0.1,0.1-0.1,0.2-0.1,0.3c0,0.1,0,0.3,0.1,0.5c0.1,0.3,0.1,0.5,0.1,0.5c0,0.1,0,0.3,0,0.6
				c0.1,0.1,0.2,0.3,0.4,0.5c0,0.2,0.1,0.5,0.1,0.8c0.1,0.3,0.2,0.6,0.2,0.8c0.1,0.3,0.1,0.6,0.1,0.8c0.1,0.1,0.2,0.2,0.3,0.3
				c0,0.1,0.1,0.4,0.1,0.9c0.1,0.4,0.1,0.7,0.1,0.9c0,0,0.1,0.1,0.1,0.1c0.1,0,0.2-0.1,0.3-0.2c0.1-0.2,0.3-0.6,0.5-1.2
				c0.1-0.4,0.2-0.9,0.3-1.6c0,0,0.1-0.2,0.3-0.4c0-0.5,0.1-0.9,0.4-1.4c0-0.1,0-0.3,0.1-0.5c0.1,0,0.1-0.1,0.2-0.2
				c0-0.2,0.1-0.6,0.2-1c0.1-0.3,0.1-0.5-0.1-0.7c-0.1-0.1-0.2-0.1-0.4-0.2c-0.2-0.1-0.4-0.1-0.5-0.2c0.1-0.2,0.3-0.2,0.7-0.2
				c0,0,0,0,0.1,0c0.1,0,0.1,0,0.2,0c0,0,0.1,0,0.2-0.1s0.2-0.1,0.3-0.1c0.1,0,0.2,0,0.3,0s0.2,0,0.3,0
				C218,434.4,218.3,434.4,218.7,434.3z M207.7,440.1l-0.2,0.1l0-0.1L207.7,440.1L207.7,440.1z"/>
			<path d="M229.2,442.6c0,0.1-0.1,0.4-0.2,0.8c-0.1,0.4-0.2,0.6-0.3,0.7c-0.3,0.3-0.6,0.6-0.9,0.9c-0.2,0.1-0.4,0.2-0.7,0.3
				c-0.7,0.2-1.4,0.3-2,0.3c0,0-0.1,0-0.3,0c-0.2,0-0.4,0-0.5,0c0,0.1,0-0.1,0-0.3c-0.1-0.1-0.3-0.2-0.6-0.2c-0.1,0-0.2,0-0.2,0.1
				c0,0,0.1,0.1,0.3,0.1c0,0.1-0.1,0.2-0.2,0.2c-0.1,0-0.4,0-0.8-0.1c-0.5-0.1-0.9-0.3-1.1-0.4c-0.1,0-0.1-0.3-0.2-0.7
				c0-0.3-0.1-0.8-0.1-1.3c0-0.5,0-0.8,0.1-1.1c0,0,0.1,0,0.3,0c0,0.1,0.1,0.2,0.1,0.3c0,0.2,0,0.3,0,0.3c0,0.1,0.1,0.4,0.1,0.6
				c0,0,0.1,0.2,0.2,0.4c0.1,0.1,0.2,0.3,0.5,0.6c0.2,0.2,0.5,0.3,0.8,0.4c0.2,0.1,0.4,0.1,0.5,0.2c0.2,0.1,0.4,0.1,0.6,0.1
				c0.1,0,0.1,0.1,0.1,0.1c0,0,0.1,0,0.1,0c0,0,0.1,0,0.1,0c0,0,0.1,0,0.3,0.1c0.2,0,0.3,0.1,0.3,0.1c0,0,0.1,0,0.2-0.1
				c0.1-0.1,0.2-0.1,0.2-0.1c0.2,0,0.4-0.1,0.7-0.2c0.2,0,0.3-0.2,0.4-0.5c0-0.1,0.1-0.2,0.2-0.3c0,0,0-0.1,0-0.2c0,0,0-0.1,0.1-0.2
				c0.1-0.1,0.1-0.2,0.1-0.2c0-0.2,0-0.4-0.1-0.6c0-0.1-0.2-0.3-0.4-0.6c-0.1,0-0.2-0.1-0.3-0.2c-0.5-0.4-1-0.7-1.5-0.9
				c-0.1-0.1-0.3-0.2-0.6-0.3c-0.3-0.1-0.8-0.4-1.4-0.8c0,0-0.1,0-0.2-0.1c-0.2-0.1-0.4-0.3-0.5-0.6c-0.3-0.3-0.4-0.5-0.4-0.5
				c0-0.1,0-0.2,0-0.4c0-0.1-0.1-0.2-0.2-0.3c0-0.1,0-0.3,0-0.5c0,0,0.1-0.1,0.1-0.1c-0.1-0.2-0.1-0.2-0.1-0.2c0,0,0.1-0.1,0.2-0.4
				c0-0.1,0.1-0.3,0.1-0.5c0-0.1,0.2-0.2,0.5-0.5c0.1,0.1,0.2,0.1,0.2,0.1c0-0.1,0.1-0.2,0.1-0.3c0.5-0.5,1-0.8,1.5-1
				c0.4-0.1,0.9-0.1,1.5-0.1c0,0,0.3,0,0.9,0.1c0.6,0.1,0.9,0.1,0.9,0.1c0,0,0.2,0,0.4,0c0.2,0,0.4,0,0.4,0c0.2,0,0.2,0.1,0.2,0.2
				l-0.1,1.5v0.8c0,0,0,0.1,0,0.3c0,0.2,0,0.3,0,0.4c0,0,0,0-0.1,0c0,0-0.1,0-0.1,0h-0.2c0-0.2-0.1-0.5-0.1-0.8
				c-0.2-0.7-0.6-1.1-1.1-1.4c-0.3-0.1-0.8-0.2-1.6-0.2c-0.1,0-0.4,0.1-0.7,0.2c-0.3,0.1-0.6,0.4-0.8,0.8c-0.1,0.1-0.1,0.3-0.1,0.5
				c0,0.3,0.1,0.6,0.3,1c0.1,0.1,0.2,0.2,0.3,0.3c0.4,0.4,1,0.8,1.8,1.1c1.3,0.5,2.2,1.1,2.6,1.7c0.2,0.2,0.3,0.5,0.4,0.8
				C229.2,441.9,229.2,442.3,229.2,442.6z"/>
			<path d="M245.3,434.5c0,0.1,0,0.1-0.1,0.2c-0.2,0.1-0.5,0.2-0.6,0.3c-0.1,0.1-0.2,0.2-0.4,0.4s-0.2,0.4-0.2,0.5
				c0,0.5,0,0.7,0,0.6c0,0.1-0.1,0.3-0.2,0.6c0,0.1,0,0.4,0.1,0.9c0,0.2,0,0.4,0,0.7c0,0.3,0,0.8-0.1,1.3c0,0.5-0.1,0.7-0.1,0.7v1.3
				c0,1.3,0.2,2.3,0.5,2.8c0.1,0.1,0.2,0.2,0.4,0.3c0.2,0.1,0.4,0.2,0.5,0.2c0,0.1-0.1,0.1-0.2,0.3h-4.1c0,0,0-0.1,0-0.2
				c0-0.1,0-0.1,0-0.2c0.1-0.1,0.3-0.1,0.6-0.3c0.2-0.1,0.4-0.4,0.5-0.8c0.1-0.4,0.2-0.7,0.2-0.9v-1.3c0-0.1,0-0.3-0.1-0.7
				c0-0.3,0-0.5,0-0.7c0-0.1,0-0.4-0.2-0.7c-0.3,0.2-0.7,0.4-1.3,0.5c-0.3,0.1-0.6,0.1-0.8,0c-0.3-0.1-0.5-0.1-0.5-0.1h-2.2
				c-0.1,0.1-0.3,0.2-0.5,0.4c-0.1,0.1-0.1,0.3-0.1,0.6c0,0.1,0.1,0.2,0.2,0.4c0-0.1,0,0.1-0.1,0.5c0,0,0,0.5,0.1,1.4
				c0,1,0.4,1.5,1,1.6c0,0,0.2,0.1,0.4,0.1c-0.2,0.2-0.4,0.3-0.7,0.3c-0.1,0-0.2,0-0.3,0c-0.1,0-0.2,0-0.2,0l-3.5-0.1
				c0-0.1,0.1-0.2,0.4-0.3c0.3-0.1,0.6-0.3,0.7-0.6c0.1-0.2,0.2-0.6,0.2-1.1c0-0.6,0.1-1,0-1.4c0,0-0.1-0.1-0.1-0.2
				c0-0.5,0-1.1,0.1-2c0,0,0-0.1,0.1-0.3c0.1-0.1,0.1-0.2,0.1-0.3c-0.1-0.1-0.1-0.3-0.2-0.5c0,0.1,0-0.1,0.1-0.6c0-0.1,0-0.2,0-0.4
				s0-0.3,0-0.3v-1.4c0-0.2-0.1-0.4-0.4-0.7c-0.3-0.3-0.5-0.4-0.8-0.5c0,0,0.1-0.1,0.2-0.3c0.2,0,0.5,0,1-0.1c0.4,0,0.6-0.1,0.7-0.1
				h1.7c0.1,0,0.2,0,0.2,0c0.1,0,0.1,0,0.2,0c0.1,0,0.3,0.1,0.6,0.3c-0.2,0.1-0.4,0.2-0.6,0.3c-0.3,0.1-0.4,0.3-0.6,0.5
				c-0.2,0.3-0.3,0.7-0.3,1.5v1.9c0,0,0,0.1,0,0.1s0,0.1,0,0.1c0.3,0.1,0.5,0.2,0.7,0.2h3.5c0.1,0,0.3,0.1,0.5,0.1
				c0,0,0.1,0,0.2,0.1c0.1,0.1,0.2,0.1,0.3,0.1c0,0,0.1,0,0.1,0c0.2-0.2,0.3-0.5,0.3-0.8c0-0.2,0-0.4-0.1-0.7
				c-0.1-0.3-0.1-0.5-0.1-0.6c0-0.1,0-0.3-0.1-0.6c0-0.3-0.1-0.6-0.1-0.7c0-0.6-0.5-1.1-1.3-1.5c0.1-0.1,0.2-0.2,0.3-0.2h1.3
				c-0.1,0,0.2,0,0.7,0c0.5,0,0.9,0,1.1,0C244.4,434.3,244.8,434.4,245.3,434.5z"/>
			<path d="M254.8,435.3c0,0.1-0.1,0.2-0.1,0.4l-0.5,0.1c-0.2,0.1-0.4,0.2-0.4,0.3c0,0.1-0.1,0.2-0.2,0.3c0,0-0.1,0.4-0.2,1l0,3.7
				c0,0.2-0.1,0.2-0.1,0.2l0.1,0.2l0,1.4c0,0.2,0,0.4,0,0.8c0,0.4,0.1,0.7,0.2,0.9c0,0.1,0.1,0.2,0.3,0.3c0.3,0.2,0.6,0.3,0.9,0.3
				c0,0.1,0,0.2-0.1,0.3h-1c0,0-0.1,0-0.3,0c-0.2,0-0.3,0-0.3,0c0,0-0.1,0-0.2,0c-0.1,0-0.2,0-0.2,0s-0.1,0-0.2,0
				c-0.1,0-0.2,0-0.2,0c0,0-0.1,0-0.1,0c-0.1,0-0.1,0-0.1,0l-1.9,0c-0.2,0-0.2-0.1-0.2-0.2c0-0.1,0-0.2,0.1-0.2
				c0.2,0,0.4-0.1,0.6-0.1c0.2,0,0.4-0.1,0.4-0.2c0-0.1,0.1-0.2,0.1-0.3c0.1,0,0.2,0,0.4,0.1c0.1-0.2,0.1-0.4,0.1-0.5
				c0-0.1,0-0.2-0.1-0.3c0-0.1,0.1-0.2,0-0.3c0-0.1-0.1-0.2-0.2-0.3c-0.1-0.1-0.1-0.2-0.1-0.2c0,0,0.1-0.1,0.2-0.5
				c0,0,0-0.1-0.1-0.2c0.1-0.2,0.2-0.3,0.2-0.3c0,0,0-0.2,0-0.6c0,0,0-0.1-0.1-0.2c0-0.1-0.1-0.1-0.1-0.2c0,0,0-0.1,0.1-0.1
				c0,0,0,0,0-0.1v-1.1c0,0,0-0.1,0-0.2c0-0.1,0-0.1,0-0.2c0,0,0,0,0-0.1c0,0,0-0.1,0-0.1c0,0,0-0.1,0-0.4c0-0.1,0-0.2,0-0.5v-0.7
				c0-0.1,0-0.2-0.1-0.3c0-0.1,0-0.2-0.1-0.4c0-0.1,0-0.2-0.1-0.4c0-0.1-0.1-0.1-0.2-0.2c0-0.1-0.1-0.1-0.1-0.3
				c-0.1-0.2-0.2-0.3-0.3-0.4c-0.1,0-0.3-0.1-0.6-0.2c0-0.1,0.1-0.2,0.1-0.3h0.1c0,0,0.1,0,0.2,0c0.1,0,0.1,0,0.2,0L254.8,435.3z"/>
			<path d="M267,436.6c0.1,0.2,0,0.8-0.1,1.6c0,0.3-0.2,0.6-0.5,1.1c-0.3,0.4-0.6,0.7-0.9,0.9c-0.3,0.2-0.7,0.3-1.2,0.4
				c-0.1,0.1-0.3,0.1-0.5,0.2c-0.5,0-1.1,0.1-1.8,0.1c0,0-0.1,0-0.2,0.1c0,0.2,0.1,0.9,0.1,2.1c0,0.2,0.1,0.5,0.1,0.9
				c0,0.1,0,0.3,0.1,0.5c0.1,0.2,0.3,0.4,0.6,0.5c0.2,0.1,0.4,0.1,0.7,0.2c0,0.1,0,0.1,0,0.2c-0.2,0.1-0.3,0.1-0.5,0.1H262
				c0,0-0.1,0-0.2,0s-0.2,0-0.3,0c-0.2,0-0.5,0-0.8,0c-0.4,0-0.6,0-0.6,0h-0.9c-0.1,0-0.2,0-0.3-0.1c0,0,0,0,0-0.1
				c0-0.1,0-0.1,0-0.1c0.3-0.1,0.5-0.1,0.6-0.2c0.2-0.1,0.4-0.3,0.5-0.5c0.1-0.1,0.1-0.4,0.1-0.8c0-0.1,0-0.3,0.1-0.5
				c0-0.3,0.1-0.5,0.1-0.6v-1.1c0-0.3,0-0.5,0-0.8c0-0.3,0.1-0.6,0.2-0.8c0,0-0.1-0.1-0.2-0.2c0-0.3-0.1-0.6-0.1-1
				c0,0,0-0.1,0.1-0.3c0-0.2,0-0.3,0-0.4c-0.1-0.3-0.1-0.6,0-1c0-0.1,0-0.5-0.1-1.1c0-0.2-0.1-0.4-0.2-0.7c-0.1-0.2-0.3-0.3-0.5-0.3
				c-0.2,0-0.3-0.1-0.5-0.1c0-0.3,0-0.4,0-0.2c0-0.1,0.1-0.1,0.2-0.2c0.2,0,0.6,0,1.1-0.1c0.5,0,0.7-0.1,0.7-0.1h1.1
				c0.2,0,0.4,0,0.7-0.1c0.2,0,0.4-0.1,0.6-0.1c0.2,0,0.4,0,0.7,0.1c0.2,0,0.5,0.1,0.8,0.2c0,0,0.1,0.1,0.2,0.1
				c0.6,0.1,1.1,0.3,1.5,0.8C266.7,435.6,266.9,436.1,267,436.6z M265.1,437.6c0-0.2,0-0.3,0-0.4c-0.3-0.8-0.5-1.3-0.7-1.5
				c-0.3-0.3-0.6-0.5-0.9-0.6c-0.2-0.1-0.6-0.1-1.1,0c-0.1,0-0.1,0-0.2,0.1c-0.1,1-0.2,1.8-0.2,2.4c0,0,0.1,0.1,0.1,0.2
				c0,0.1,0,0.4-0.1,1c0,0.4,0,0.8,0,1.2c0,0,0,0,0.1,0.1h0.9c0.1,0,0.2,0,0.3,0c0.3,0,0.7-0.1,1-0.3c0.3-0.2,0.5-0.4,0.6-0.5
				C265,438.8,265.1,438.2,265.1,437.6z"/>
			<path d="M291.8,439.9c0,0.3,0,0.6,0,0.8c-0.1,0.1-0.1,0.3-0.2,0.6c0,0.3-0.1,0.6-0.2,0.9c-0.1,0.1-0.2,0.3-0.4,0.6
				c0,0.2-0.2,0.4-0.4,0.8c-0.2,0.2-0.4,0.4-0.8,0.8c-0.1,0-0.1,0-0.2,0.1c-0.1,0.1-0.2,0.2-0.4,0.3c-1,0.5-1.9,0.8-2.8,0.9h-1.2
				c0,0,0,0-0.1-0.1c-0.6,0-1.1-0.1-1.4-0.3c-0.1,0-0.2,0-0.3-0.1c-0.2-0.1-0.6-0.3-1.1-0.5c-0.6-0.4-1.1-0.9-1.6-1.5
				c-0.3-0.4-0.5-0.8-0.7-1.4c-0.2-0.5-0.3-1-0.3-1.4c0-0.6,0-1.2,0.1-1.8c0-0.1,0.1-0.2,0.1-0.3c0-0.2,0.1-0.4,0.2-0.8
				c0.1-0.2,0.3-0.5,0.5-0.9c0-0.1,0-0.1,0-0.2c0,0,0.1,0,0.2,0c0-0.1,0-0.2,0-0.4c0.1,0,0.2-0.1,0.3-0.2c0-0.1,0.2-0.3,0.3-0.5
				c0.4-0.2,0.9-0.5,1.6-0.8c0.2-0.1,0.4-0.2,0.7-0.2c0.7-0.2,1.2-0.2,1.5-0.2h0.7c0.5,0,1,0.1,1.4,0.2c0.2,0.1,0.7,0.2,1.4,0.5
				c0.1,0.1,0.4,0.2,0.7,0.4c0.5,0.3,0.9,0.7,1.3,1.2c0.3,0.5,0.6,0.9,0.7,1.3c0,0.1,0.1,0.2,0.2,0.3c0.1,0.4,0.2,0.9,0.2,1.6
				c0,0,0,0.1,0,0.2S291.8,439.8,291.8,439.9z M289.8,440.1c-0.1-0.7-0.2-1.4-0.4-2c-0.3-0.8-0.7-1.4-1.1-1.9
				c-0.6-0.6-1.2-1-1.9-1.1c-0.6-0.1-1.1-0.1-1.3-0.1c-0.5,0.1-0.9,0.2-1.2,0.3c0,0-0.3,0.2-0.8,0.5c0,0.1-0.1,0.1-0.2,0.2
				c0,0-0.1,0-0.2,0.1c-0.1,0.2-0.3,0.4-0.4,0.6c0,0.1-0.1,0.2-0.1,0.3c-0.1,0.1-0.2,0.3-0.3,0.5c-0.1,0.2-0.1,0.5-0.2,1
				c0,0.2,0,0.4,0,0.8c0,0,0,0.1,0,0.1c0,0.1,0,0.1,0,0.1c0.1,0.4,0.2,0.9,0.4,1.6c0,0,0,0.1,0,0.2c0,0.1,0.1,0.2,0.2,0.3
				c0,0.1,0,0.2,0.1,0.3c0.2,0.5,0.4,0.7,0.4,0.8c0.2,0.3,0.4,0.6,0.7,0.9c0,0,0,0.1,0.1,0.4c0,0,0.1,0,0.3,0.1
				c0.3,0.3,0.5,0.4,0.7,0.5c0.4,0.3,1.2,0.3,2.4,0.2c0.1,0,0.2-0.1,0.4-0.1c0.2,0,0.5-0.1,0.8-0.3c0.1-0.1,0.2-0.2,0.3-0.3
				c0.6-0.4,0.9-0.8,1.1-1.4c0.1-0.1,0.1-0.2,0.2-0.3c0-0.1,0-0.2,0.1-0.4c0,0,0.1-0.1,0.1-0.2c0-0.1,0-0.4,0.1-0.9
				C289.8,440.5,289.8,440.3,289.8,440.1z"/>
			<path d="M303.4,434.4c0.1,0.3,0,1.1-0.1,2.3c0,0.1-0.1,0.2-0.2,0.4c0,0-0.1,0-0.3,0c0-0.4-0.1-0.7-0.1-0.9
				c-0.1-0.3-0.3-0.6-0.6-0.6c-0.3-0.1-0.9-0.1-1.8-0.1h-1.5c-0.3,0-0.4,0.3-0.4,0.8c0-0.1,0,0.2,0.1,0.9c0,0.1,0,0.4-0.1,0.7
				c-0.1,0.4-0.1,0.6-0.1,0.8c0,0.3,0,0.5,0.1,0.7h1.2c0,0,0.1,0,0.3,0s0.3,0,0.3,0h1.1c0.4,0,0.8-0.2,1.1-0.7
				c0-0.1,0.1-0.2,0.1-0.4c0.1-0.1,0.2-0.1,0.4-0.1c0,0.2,0.1,0.4,0.1,0.8c0,0.4-0.1,1.3-0.2,2.5c0,0.2-0.2,0.2-0.5,0.2
				c-0.1-0.2-0.1-0.5-0.2-0.7c-0.1-0.3-0.3-0.5-0.5-0.6c-0.1,0-0.5-0.1-1.1-0.1h-1.3c-0.1,0-0.2,0-0.4,0c-0.2,0-0.3,0-0.4,0.1
				c0,0.1,0,0.4,0,0.6c0,0.1-0.1,0.2-0.1,0.5c-0.1,0.2-0.1,0.4-0.1,0.5c0,0.1,0.1,0.2,0.1,0.3c0,0.1,0,0.3,0,0.5c0,0.2,0,0.4,0,0.5
				c0,0.5,0.2,0.8,0.5,1.1c0,0,0.4,0.2,1.3,0.5c-0.1,0.1-0.3,0.2-0.4,0.2c0.4,0,0.2,0-0.5,0c-0.5,0-1.2,0-2-0.1c-0.4,0-0.7,0-0.8,0
				c-0.1,0-0.2,0.1-0.3,0.2c0,0-0.2,0-0.7-0.1c0-0.1,0.2-0.2,0.4-0.4c0.2-0.2,0.4-0.3,0.4-0.4c0.2-0.4,0.3-0.8,0.3-1.2v-2.1
				c0,0,0-0.2,0-0.6c0-0.4,0-0.7,0-0.9c0,0,0-0.1,0-0.3c0-0.2,0-0.3,0-0.4c0-0.2-0.1-0.3-0.1-0.4c0.2-0.3,0.3-0.6,0.3-1
				c0-0.4-0.1-0.9-0.3-1.4c0-0.1,0-0.2,0-0.4c0-0.1,0-0.2-0.1-0.2c-0.1-0.2-0.3-0.5-0.5-0.7c-0.1-0.1-0.2-0.1-0.5-0.1
				c0-0.1-0.1-0.2-0.1-0.4c0,0,0.4,0,1.2,0c1.3,0,3.3,0,6-0.1C302.6,434.3,303,434.3,303.4,434.4z"/>
			<path d="M324,434.4c0,0.2-0.1,0.5-0.1,0.8v2.1c0,0-0.1,0-0.2,0c-0.1,0-0.1,0-0.2,0c0,0-0.1-0.4-0.1-1.1c0-0.4-0.2-0.7-0.5-0.9
				c-0.1-0.1-0.4-0.1-0.9,0c-0.2,0-0.6,0.1-1,0.2c-0.2,0.1-0.3,0.2-0.3,0.3c-0.1,0.4-0.1,0.9,0,1.6c0.1,0.7,0.1,1.7-0.1,3
				c0,0,0,0.4,0.1,1.2c0,0.3,0,0.7,0,1.3c0.1,0.3,0.2,0.8,0.3,1.4c0.1,0.3,0.3,0.5,0.6,0.6c0.3,0.1,0.5,0.1,0.8,0.2
				c0,0.1-0.1,0.2-0.2,0.4h-5c0,0-0.1,0-0.1-0.1c0,0,0-0.1,0-0.1c0.2,0,0.5-0.1,0.8-0.3c0.3-0.2,0.5-0.4,0.7-0.6
				c0-0.1,0.1-0.3,0.1-0.8c0-0.8,0.1-1.7,0.1-2.6v-3.2h0.2c0,0,0,0,0.1-0.1c-0.1-0.2-0.2-0.5-0.3-0.8c0-0.1-0.1-0.5-0.1-1.4H317
				c-0.2,0-0.4,0.1-0.6,0.3s-0.4,0.3-0.4,0.5c-0.1,0.5-0.2,0.9-0.4,1.1c-0.1,0.1-0.2,0.2-0.4,0.2c0,0,0-0.1,0-0.2c0-0.1,0-0.2,0-0.2
				c0.1-0.2,0.1-0.6,0.2-1.1c0.1-0.6,0.1-1,0.2-1.2l0.3-0.4c-0.2,0,0.4,0,1.6,0c0.4,0,0.9,0,1.7,0.1c0.7,0.1,1.1,0.1,1.1,0.1h1.5
				c0,0,0.2,0,0.5-0.1c0.4-0.1,0.8-0.1,1.1-0.1c0.1,0,0.3,0,0.4-0.1C323.9,434.3,324,434.3,324,434.4z"/>
			<path d="M340,434.5c0,0.1,0,0.1-0.1,0.2c-0.2,0.1-0.5,0.2-0.6,0.3c-0.1,0.1-0.2,0.2-0.4,0.4s-0.2,0.4-0.2,0.5c0,0.5,0,0.7,0,0.6
				c0,0.1-0.1,0.3-0.2,0.6c0,0.1,0,0.4,0.1,0.9c0,0.2,0,0.4,0,0.7c0,0.3,0,0.8-0.1,1.3c0,0.5-0.1,0.7-0.1,0.7v1.3
				c0,1.3,0.2,2.3,0.5,2.8c0.1,0.1,0.2,0.2,0.4,0.3c0.2,0.1,0.4,0.2,0.5,0.2c0,0.1-0.1,0.1-0.2,0.3h-4.1c0,0,0-0.1,0-0.2
				c0-0.1,0-0.1,0-0.2c0.1-0.1,0.3-0.1,0.6-0.3c0.2-0.1,0.4-0.4,0.5-0.8c0.1-0.4,0.2-0.7,0.2-0.9v-1.3c0-0.1,0-0.3-0.1-0.7
				c0-0.3,0-0.5,0-0.7c0-0.1,0-0.4-0.2-0.7c-0.3,0.2-0.7,0.4-1.3,0.5c-0.3,0.1-0.6,0.1-0.8,0c-0.3-0.1-0.5-0.1-0.5-0.1h-2.2
				c-0.1,0.1-0.3,0.2-0.5,0.4c-0.1,0.1-0.1,0.3-0.1,0.6c0,0.1,0.1,0.2,0.2,0.4c0-0.1,0,0.1-0.1,0.5c0,0,0,0.5,0.1,1.4
				c0,1,0.4,1.5,1,1.6c0,0,0.2,0.1,0.4,0.1c-0.2,0.2-0.4,0.3-0.7,0.3c-0.1,0-0.2,0-0.3,0c-0.1,0-0.2,0-0.2,0l-3.5-0.1
				c0-0.1,0.1-0.2,0.4-0.3c0.3-0.1,0.6-0.3,0.7-0.6c0.1-0.2,0.2-0.6,0.2-1.1c0-0.6,0.1-1,0-1.4c0,0-0.1-0.1-0.1-0.2
				c0-0.5,0-1.1,0.1-2c0,0,0-0.1,0.1-0.3c0.1-0.1,0.1-0.2,0.1-0.3c-0.1-0.1-0.1-0.3-0.2-0.5c0,0.1,0-0.1,0.1-0.6c0-0.1,0-0.2,0-0.4
				s0-0.3,0-0.3v-1.4c0-0.2-0.1-0.4-0.4-0.7c-0.3-0.3-0.5-0.4-0.8-0.5c0,0,0.1-0.1,0.2-0.3c0.2,0,0.5,0,1-0.1c0.4,0,0.6-0.1,0.7-0.1
				h1.7c0.1,0,0.2,0,0.2,0c0.1,0,0.1,0,0.2,0c0.1,0,0.3,0.1,0.6,0.3c-0.2,0.1-0.4,0.2-0.6,0.3c-0.3,0.1-0.4,0.3-0.6,0.5
				c-0.2,0.3-0.3,0.7-0.3,1.5v1.9c0,0,0,0.1,0,0.1c0,0,0,0.1,0,0.1c0.3,0.1,0.5,0.2,0.7,0.2h3.5c0.1,0,0.3,0.1,0.5,0.1
				c0,0,0.1,0,0.2,0.1c0.1,0.1,0.2,0.1,0.3,0.1c0,0,0.1,0,0.1,0c0.2-0.2,0.3-0.5,0.3-0.8c0-0.2,0-0.4-0.1-0.7
				c-0.1-0.3-0.1-0.5-0.1-0.6c0-0.1,0-0.3-0.1-0.6c0-0.3-0.1-0.6-0.1-0.7c0-0.6-0.5-1.1-1.3-1.5c0.1-0.1,0.2-0.2,0.3-0.2h1.3
				c-0.1,0,0.2,0,0.7,0c0.5,0,0.9,0,1.1,0C339.1,434.3,339.5,434.4,340,434.5z"/>
			<path d="M353.2,442.6c0,0.3-0.1,0.7-0.1,1.3c-0.1,0.2-0.2,0.4-0.3,0.6c0,0.1-0.1,0.3-0.1,0.5c0,0.1-0.1,0.2-0.2,0.3
				c-0.2,0.2-0.3,0.3-0.4,0.3h-2.3c0,0-0.3,0-0.8,0c-0.5,0-0.8,0-0.8,0h-1.4c0,0-0.2,0-0.5,0s-0.5,0-0.6,0h-1.3l-0.1-0.1
				c0.1-0.1,0.3-0.3,0.8-0.5c0.3-0.2,0.5-0.4,0.5-0.7v-2.8c0-0.5,0.1-1.1,0.2-1.8c-0.1-0.2-0.1-0.5,0-0.9c-0.1-0.1-0.2-0.2-0.2-0.4
				c0,0,0.1-0.3,0.2-0.7c0,0,0-0.1-0.1-0.2c-0.1-0.1-0.1-0.2-0.1-0.2c0-0.1-0.1-0.3-0.1-0.6c0-0.4,0-0.6,0-0.6
				c0-0.2-0.1-0.4-0.1-0.5c-0.1-0.2-0.2-0.3-0.4-0.4c-0.2-0.1-0.4-0.2-0.5-0.2c0.1-0.2,0.2-0.3,0.3-0.3c0.2,0,0.4,0,0.8,0
				c0.4-0.1,0.6-0.1,0.5-0.1h1.6c0,0,0.2,0,0.5,0.1s0.6,0.1,0.8,0.1c0.1,0,0.7,0,1.8-0.1c0.3,0,0.9,0,2,0.1c0.1,0.1,0.1,0.1,0.1,0.2
				c0,0.1,0,0.1-0.1,0.2s-0.1,0.2-0.1,0.2c0,0.2-0.1,0.8-0.2,1.9c0,0-0.1,0.1-0.3,0.2c0-0.1-0.1-0.4-0.3-0.9
				c-0.1-0.4-0.3-0.6-0.7-0.6c-0.1,0-0.3-0.1-0.4-0.1c-0.2,0-0.3,0-0.4,0c-0.3,0.1-0.8,0.1-1.7,0c-0.5,0-0.8,0-1.1,0
				c-0.1,0-0.1,0.1-0.1,0.2c0.2,0.7,0.2,1.3,0,1.8c0,0,0,0.1,0,0.4c0,0.1,0,0.3,0,0.5c0,0.2,0,0.4,0,0.5c0,0.1,0.1,0.1,0.2,0.2h3.3
				c0.1,0,0.2-0.1,0.3-0.1c0.2-0.1,0.3-0.2,0.3-0.3c0.1-0.2,0.2-0.4,0.3-0.6c0.2,0,0.3,0.1,0.4,0.2c0,0.3,0,0.8-0.1,1.3
				c0,0.3,0,0.9-0.1,1.5c0,0.1-0.1,0.1-0.4,0.1c-0.1-0.1-0.2-0.3-0.4-0.6c-0.4-0.3-0.7-0.4-1-0.4h-1.2c-0.1,0-0.2,0-0.5,0
				c-0.2,0-0.4,0-0.5,0c-0.3,0-0.5,0.1-0.6,0.3c-0.1,0.2-0.1,0.4-0.1,0.5c0,0.1,0,0.3,0.1,0.6c0,0.3,0.1,0.5,0.1,0.7
				c0,0.1,0,0.2-0.1,0.5c-0.1,0.2-0.1,0.4-0.1,0.5c0,0.1,0,0.2,0,0.3c0,0.1,0.2,0.3,0.5,0.5c0.3,0.2,0.5,0.3,0.7,0.3
				c0,0,0.1,0,0.1,0c0.1,0,0.1,0,0.2,0h1.5c0.3,0,0.6-0.1,0.8-0.2c0.3-0.1,0.6-0.4,0.9-0.7c0.3-0.4,0.5-0.7,0.5-1
				C352.8,442.5,353,442.5,353.2,442.6z"/>
			<path d="M376,445.2c0,0.1-0.1,0.1-0.2,0.2c-0.3,0.1-0.5,0.2-0.6,0.2h-1.1c-0.4,0-0.6,0-0.8,0c-0.1,0-0.3-0.1-0.6-0.2
				c-0.2-0.1-0.6-0.4-1.2-1.1c0-0.1-0.3-0.4-0.7-1.1c-0.4-0.6-0.7-1.2-0.9-1.6c-0.1-0.2-0.1-0.4-0.3-0.6c-0.1-0.1-0.2-0.1-0.4-0.1
				c-0.1,0-0.3,0-0.5,0.1c-0.2,0-0.5,0-0.9,0c0,0-0.1,0-0.2,0.1c0,0.2,0.1,1,0.1,2.2c0,0.2,0.1,0.5,0.1,0.9c0,0.1,0,0.3,0.1,0.5
				c0.1,0.2,0.3,0.4,0.6,0.5c0.2,0.1,0.4,0.1,0.7,0.2c0,0.1,0,0.1,0,0.2c-0.2,0.1-0.3,0.1-0.5,0.1H368c0,0-0.1,0-0.2,0
				c-0.1,0-0.3,0-0.3,0c-0.2,0-0.7,0-1.4,0.1h-0.9c-0.1,0-0.2,0-0.3-0.1c0,0,0-0.1,0-0.1c0-0.1,0-0.1,0-0.1c0.3-0.1,0.5-0.1,0.6-0.2
				c0.2-0.1,0.4-0.3,0.5-0.5c0.1-0.1,0.1-0.4,0.1-0.8c0-0.1,0-0.3,0.1-0.5c0-0.3,0.1-0.5,0.1-0.6c0-0.8,0-1.2,0-1.3
				c0-0.1,0.1-0.2,0.2-0.3c0,0-0.1-0.1-0.2-0.2c0-0.1,0-0.3,0-0.5v-0.9c0,0,0-0.1,0-0.3c0,0.1,0-0.3,0.1-1.2c0,0,0,0,0-0.1
				c-0.1-0.2-0.1-0.5,0-0.9c0-0.1,0-0.5-0.1-1.1c0-0.2-0.1-0.4-0.2-0.7c-0.1-0.2-0.3-0.3-0.5-0.3c-0.2,0-0.4-0.1-0.5-0.1
				c0-0.3,0-0.4,0-0.2c0-0.1,0.1-0.1,0.2-0.2c0.2,0,0.6,0,1.2-0.1c0.5,0,0.7-0.1,0.8-0.1h1.1c0.2,0,0.4,0,0.7-0.1
				c0.2,0,0.4-0.1,0.6-0.1c0.2,0,0.5,0,0.8,0.1c0.2,0,0.5,0.1,0.8,0.2c0,0,0.1,0.1,0.2,0.1c0.6,0.1,1.1,0.4,1.5,0.8
				c0.2,0.3,0.5,0.7,0.6,1.3c0,0.1,0,0.2,0,0.4c0,0.1,0,0.4,0,0.7c-0.1,0.6-0.2,1.1-0.4,1.4c-0.2,0.3-0.6,0.7-1.2,1.2
				c0,0.1,0,0.2,0.1,0.3c0.4,0.7,0.7,1.4,1.1,2.1c0.4,0.8,1,1.4,1.6,2c0.1,0,0.3,0.1,0.7,0.2c0.2,0.1,0.4,0.1,0.6,0
				c0.2,0,0.4-0.1,0.5-0.1C376,445.1,376,445.1,376,445.2z M371.2,437.6c0-0.2,0-0.3,0-0.4c-0.3-0.8-0.5-1.3-0.8-1.5
				c-0.3-0.3-0.6-0.5-0.9-0.6c-0.2-0.1-0.6-0.1-1.1,0c-0.1,0-0.1,0-0.2,0.1c-0.1,1-0.2,1.8-0.2,2.5c0,0,0.1,0.1,0.1,0.2
				c0,0.1,0,0.4-0.1,1c0,0.4,0,0.8,0,1.2c0,0,0,0,0.1,0.1h0.9c0.1,0,0.2,0,0.3,0c0.3,0,0.7-0.1,1-0.3c0.3-0.2,0.5-0.4,0.6-0.5
				C371.1,438.8,371.2,438.3,371.2,437.6z"/>
			<path d="M383.1,435.3c0,0.1-0.1,0.2-0.1,0.4l-0.5,0.1c-0.2,0.1-0.4,0.2-0.4,0.3c0,0.1-0.1,0.2-0.2,0.3c0,0-0.1,0.4-0.2,1l0,3.7
				c0,0.2-0.1,0.2-0.1,0.2l0.1,0.2l0,1.4c0,0.2,0,0.4,0,0.8c0,0.4,0.1,0.7,0.2,0.9c0,0.1,0.1,0.2,0.3,0.3c0.3,0.2,0.6,0.3,0.9,0.3
				c0,0.1,0,0.2-0.1,0.3h-1c0,0-0.1,0-0.3,0c-0.2,0-0.3,0-0.3,0c0,0-0.1,0-0.2,0s-0.2,0-0.2,0c0,0-0.1,0-0.2,0c-0.1,0-0.2,0-0.2,0
				c0,0-0.1,0-0.1,0c-0.1,0-0.1,0-0.1,0l-1.9,0c-0.2,0-0.2-0.1-0.2-0.2c0-0.1,0-0.2,0.1-0.2c0.2,0,0.4-0.1,0.6-0.1
				c0.2,0,0.4-0.1,0.4-0.2c0-0.1,0.1-0.2,0.1-0.3c0.1,0,0.2,0,0.4,0.1c0.1-0.2,0.1-0.4,0.1-0.5c0-0.1,0-0.2-0.1-0.3
				c0-0.1,0.1-0.2,0-0.3c0-0.1-0.1-0.2-0.2-0.3c-0.1-0.1-0.1-0.2-0.1-0.2c0,0,0.1-0.1,0.2-0.5c0,0,0-0.1-0.1-0.2
				c0.1-0.2,0.2-0.3,0.2-0.3c0,0,0-0.2,0-0.6c0,0,0-0.1-0.1-0.2c0-0.1-0.1-0.1-0.1-0.2c0,0,0-0.1,0.1-0.1c0,0,0,0,0-0.1v-1.1
				c0,0,0-0.1,0-0.2s0-0.1,0-0.2c0,0,0,0,0-0.1c0,0,0-0.1,0-0.1c0,0,0-0.1,0-0.4c0-0.1,0-0.2,0-0.5v-0.7c0-0.1,0-0.2-0.1-0.3
				c0-0.1,0-0.2-0.1-0.4c0-0.1,0-0.2-0.1-0.4c0-0.1-0.1-0.1-0.2-0.2c0-0.1-0.1-0.1-0.1-0.3c-0.1-0.2-0.2-0.3-0.3-0.4
				c-0.1,0-0.3-0.1-0.6-0.2c0-0.1,0.1-0.2,0.1-0.3h0.1c0,0,0.1,0,0.2,0s0.1,0,0.2,0L383.1,435.3z"/>
			<path d="M399,434.7c-0.1,0-0.3,0-0.5,0.1c-0.2,0.1-0.4,0.2-0.5,0.4c-0.2,0.3-0.3,0.6-0.3,1c-0.1,0.5-0.1,1-0.1,1.3
				c0,0,0,0.3,0,0.8c0,0.5,0,0.7,0,0.8v1.4c0,0,0,0.1,0,0.2s0,0.2,0,0.2c0,0.7-0.1,1.1-0.1,1.2c0,0,0,0.1,0,0.3c0,0.1,0,0.2,0,0.3
				v2.7c0,0,0,0.1,0,0.1c0,0,0,0,0,0c-0.4,0.1-0.6,0.1-0.6,0.1c-0.2,0-0.4,0-0.5-0.1c-0.4-0.4-1-1-1.8-2c-0.1-0.2-0.4-0.5-0.6-0.8
				c-0.2-0.2-0.6-0.6-1-1.1c-0.1-0.2-0.3-0.4-0.5-0.8c-0.5-0.6-1.3-1.6-2.3-2.8c-0.1-0.1-0.3-0.3-0.5-0.5c0,0,0-0.1-0.1-0.2
				c-0.1-0.1-0.2-0.3-0.4-0.5c-0.1,0.1-0.2,0.2-0.2,0.3c0,0,0,0.3,0.1,0.9c0,0,0,0.1,0,0.2c0,0.1,0,0.1,0,0.1c0,0.2,0,0.6,0,1.1
				c0,0.5,0,0.7,0,0.7v1.2c0,0,0,0.3,0,0.9c0,0.6,0,0.9,0,0.9c0,1.2,0.4,1.9,1.3,1.9c0,0,0,0,0.1,0.1s0,0.1,0.1,0.1
				c0,0.1,0,0.2,0,0.3h-3.1c0,0-0.1,0-0.3,0c-0.2,0-0.3,0-0.3,0H387c-0.1-0.1-0.1-0.1-0.1-0.1c0-0.2,0.1-0.3,0.2-0.4
				c0.2,0,0.4-0.1,0.7-0.3c0.3-0.2,0.5-0.4,0.5-0.8c0.2-0.9,0.2-1.4,0.1-1.6c0-0.1,0-0.2,0-0.2l0.1-0.1l-0.1-0.1c0-0.1,0-0.2,0-0.3
				c0-0.2,0-0.3,0-0.3c0-0.1,0-0.2,0-0.4c0-0.2,0-0.3,0-0.4c0,0.1,0-0.1,0-0.5c0,0,0-0.1-0.1-0.2l0,0c0,0,0-0.1,0-0.2c0,0,0,0,0-0.1
				c-0.1-0.7-0.1-1.1-0.1-1.3v-1.2c0-0.7-0.1-1.1-0.1-1.3c0,0,0-0.1,0-0.1s0-0.1,0-0.2c-0.4-0.5-1-0.7-1.7-0.6l0,0v-0.3
				c0.1-0.1,0.2-0.1,0.5-0.1c0,0,0.3,0,0.7,0c0.4,0,0.7,0,0.7,0c0,0,0.2,0,0.7,0c0.4,0,0.6,0,0.7,0c0.1,0,0.2,0,0.2,0
				c0.1,0,0.3,0.2,0.5,0.6c0.5,0.7,1.2,1.7,2.2,3.1c0.2,0.3,0.5,0.6,0.9,1.1c-0.1,0.5,0,0.8,0.2,0.8c0,0,0.1,0,0.1-0.1
				c0.1,0,0.1-0.1,0.2-0.1c0.1,0,0.2,0.1,0.3,0.3c0.1,0.1,0.1,0.2,0.2,0.3c0.4,0.3,0.7,0.6,0.8,0.8c0,0.1,0.1,0.2,0.1,0.4
				c0,0.1,0.1,0.1,0.1,0.1s0.1,0,0.1,0c0,0,0,0,0.1,0c0.2,0.2,0.4,0.4,0.6,0.8c0.1,0,0.2-0.1,0.2-0.1c0,0,0-0.1,0-0.2
				c0-0.1,0-0.1,0-0.2v-0.9c0,0,0-0.1,0-0.1c0-0.1,0-0.1,0-0.2c0-0.1,0-0.3,0.1-0.5c0-0.2-0.1-0.4-0.1-0.8c0,0,0-0.1,0-0.3
				c0-0.1,0-0.2,0-0.2c0,0,0-0.1,0-0.1c0-0.1,0-0.1,0-0.2c0-0.1,0-0.3,0-0.4c0-0.2,0-0.4,0-0.5c0,0,0-0.1,0-0.2c0-0.1,0-0.1,0-0.2
				l0-0.2c0,0,0-0.1,0-0.3c0-0.1,0-0.2,0-0.3c0,0,0-0.1,0-0.2s0-0.1,0-0.2c0-0.2-0.1-0.6-0.2-1.1c-0.1-0.3-0.4-0.5-1-0.6
				c0-0.1,0-0.2,0-0.3c0.1-0.1,0.3-0.1,0.6-0.1l1.6,0.1c0,0,0.2,0,0.8-0.1c0.3,0,0.6,0,0.8,0.1V434.7z M395.7,441.5L395.7,441.5
				l-0.1,0l0-0.2C395.8,441.4,395.8,441.5,395.7,441.5z"/>
			<path d="M411.9,434.4c0,0,0,0.1,0,0.2c0,0.1,0,0.4-0.1,0.7s-0.1,0.6-0.1,0.7c0,0.1,0,0.2,0,0.2c0,0.1-0.1,0.3-0.1,0.4
				c0,0.2,0.1,0.3,0.1,0.3c0,0,0,0.1-0.1,0.1c0,0.1,0,0.2,0.1,0.5c-0.1,0.1-0.3,0.2-0.4,0.2c0,0-0.1,0-0.2-0.1
				c0.1-0.3,0.1-0.6,0.1-0.6c0-0.1-0.1-0.2-0.1-0.4c-0.1-0.3-0.3-0.5-0.7-0.9c-0.1-0.1-0.4-0.3-0.9-0.5c-0.1,0-0.2-0.1-0.6-0.1
				c-0.2,0-0.5-0.1-0.9-0.1c-1.2,0-2.1,0.3-2.8,0.9c-0.1,0-0.2,0.1-0.4,0.3c-0.5,0.7-0.8,1.4-0.9,2.1c0,0.3,0,0.7,0,1.4v0.6
				c0,0,0,0.1,0.1,0.5c0,0.2,0,0.4,0.1,0.7c0,0,0.1,0.1,0.2,0.3c0,0.1,0,0.2,0.1,0.3c0.1,0.1,0.2,0.3,0.4,0.5c0,0.1,0.1,0.2,0.1,0.3
				c0.3,0.5,0.7,0.9,1.2,1.2c0.2,0.1,0.5,0.2,0.7,0.3c1.2,0.3,1.9,0.4,2.2,0.4c0.2,0,0.3,0,0.5-0.1c0.1,0,0.2,0,0.3-0.1l0-0.3
				c0-0.1,0-0.1-0.1-0.2c-0.1,0-0.2-0.1-0.2-0.1c-0.1-0.1-0.1-0.3,0-0.5v-1.4c0-0.3-0.1-0.6-0.2-0.8c0,0-0.1-0.1-0.1-0.2
				c-0.1-0.3-0.3-0.5-0.6-0.6c-0.1,0-0.4-0.1-0.9-0.1c0,0,0,0-0.1-0.1v-0.2c0.1,0,0.4-0.1,0.7-0.1c0,0,0.2,0,0.6,0s0.6,0,0.6,0
				c0,0,0.1,0,0.2,0c0.1,0,0.1,0,0.2,0c0.4,0,0.6,0,0.6,0c0.8,0,1.2,0,1.1,0v0.4c0,0,0,0.1-0.1,0.2c-0.1,0.1-0.1,0.2-0.1,0.3
				c-0.1,0.4-0.2,0.8-0.2,1.2c0,0.5,0,0.9,0,1.1c0,0.4,0,1,0.1,1.7c-0.3,0.1-1,0.3-2.1,0.6c-0.1,0-0.2,0-0.4,0
				c-0.3,0.1-0.5,0.1-0.6,0.1c0,0-0.1,0-0.1,0c-0.1,0-0.1,0-0.1,0c-0.6,0-1.1-0.1-1.5-0.2c-0.2-0.1-0.4-0.1-0.7-0.2
				c-0.6-0.1-1.3-0.5-2-1.1c-0.8-0.7-1.2-1.3-1.4-1.9c-0.1-0.1-0.1-0.3-0.2-0.6c0-0.1-0.1-0.2-0.2-0.4c-0.1-0.3-0.1-0.5-0.1-0.7
				c0,0,0-0.1,0-0.3c0-0.2,0-0.3,0-0.4c0-0.1,0-0.2,0-0.3c0-0.2,0.1-0.5,0.2-0.9c0.1-0.5,0.2-0.8,0.2-0.9c0.6-1,0.9-1.6,1.1-1.6
				c0,0,0,0,0.1,0c0,0,0,0,0.1,0c0.1,0,0.2,0,0.2-0.1c0-0.1,0.1-0.2,0.1-0.3c0.5-0.6,0.9-0.9,1-0.9c0,0,0.1,0,0.1,0c0,0,0,0,0.1,0
				s0.1,0,0.2-0.1s0.2-0.1,0.2-0.1c0,0,0.1,0,0.1,0c0,0,0.1,0,0.1,0c0,0,0.3-0.1,0.8-0.2c0.5-0.1,0.8-0.2,0.8-0.2h2.3
				c0,0,0.3,0,0.8,0.1c0.5,0.1,0.8,0.1,0.8,0.1c0,0,0.1,0,0.3,0S411.8,434.4,411.9,434.4z"/>
		</g>
	</g>
</g>
<g class="st2">
	<path class="st3" d="M254.5,489.5c-0.1,0.3-0.2,0.7-0.3,1.3h-14.9l-3.7,0.2c-0.3,0.1-0.5-0.1-0.6-0.5c-0.1-0.4,0-0.8,0.3-1
		c0.3,0,0.8-0.1,1.4-0.3c1.1-0.3,1.7-0.5,1.8-0.5c0.7-0.3,1.1-0.8,1.1-1.3c0,0,0-0.1,0.1-0.3s0.1-0.3,0.1-0.3c0.6,0,1.1,0.1,1.6,0.2
		c0.4-1.3,0.4-2.3,0-3c0.1-0.2,0.1-0.4,0.1-0.6c0-0.4-0.2-0.8-0.6-1.4s-0.6-0.9-0.6-1.2c0-0.3,0.1-0.6,0.3-1.1
		c0.2-0.5,0.3-0.9,0.3-1.1s-0.1-0.5-0.2-0.7c0.4-0.9,0.5-1.6,0.4-2.1c0-0.4,0-1,0-1.7c0,0-0.2-0.4-0.5-1c-0.1-0.2,0-0.4,0.3-0.6
		c0-0.5,0.1-1.1,0.2-2c-0.1,0.3-0.1-0.2-0.1-1.6c0-0.1,0-0.2,0.1-0.4c0.1-0.2,0.1-0.3,0-0.5c0-0.1-0.1-0.2-0.2-0.3
		c0.1-0.9,0.1-1.7,0.1-2.4c0-0.1,0-0.2-0.1-0.4c-0.1-0.2-0.1-0.3-0.1-0.3c0.1-0.3,0.1-0.6,0-1c-0.1-0.3-0.1-1,0-1.9
		c0.1-0.7-0.1-1.2-0.5-1.6c0.1-0.2,0.1-0.4,0.1-0.5c-0.1-1.2-0.3-2.4-0.6-3.7c-0.2-0.9-0.8-1.5-1.8-1.8c-0.7-0.1-1.8-0.2-3.2-0.3
		c0.1-0.6,0.2-1,0.4-1.3c1.3-0.1,2.5-0.2,3.6-0.4c0.6-0.1,1.5-0.2,2.8-0.4c1-0.1,1.8-0.2,2.3-0.2c3.7-0.5,6.8-0.9,9.3-1.3
		c0.2-0.1,0.4-0.1,0.5,0c0.1,0.1,0.2,0.6,0.3,1.4c-0.7,0.3-1.5,0.5-2.2,0.8c-0.9,0.3-1.4,0.8-1.5,1.4c-0.2,0.3-0.4,0.6-0.6,1.1
		c-0.3,1-0.6,2.5-1,4.4c0,0.5,0,1.9,0,4.2c0,6.1,0,9.6-0.1,10.5c0,0.1-0.1,0.2-0.1,0.3c0.1,0.2,0.1,0.4,0.2,0.7
		c-0.1-0.2-0.1,0.5-0.1,2.1v3.8c0,2.2,0.2,3.9,0.5,5.3c0.1,0.4,0.2,0.8,0.4,1.4C250.6,488.6,252.2,489.4,254.5,489.5z"/>
	<path class="st3" d="M296.9,449.4c-0.2,0.6-0.5,1.5-1,2.7c-0.1,0.2-0.4,1.1-0.9,2.7c-0.2,0.2-0.4,0.4-0.7,0.7
		c-0.2,0.4-0.5,0.9-1.1,1.5c-0.4,0.1-0.9,0.1-1.6,0c-1.1-0.2-2-0.2-2.7-0.2c-0.5,0-0.9,0-1.3,0c-0.1-0.1-0.2-0.2-0.3-0.3
		c-0.2-0.2-0.5-0.3-0.8-0.2c-0.5,0.2-1.1,0.1-1.9,0c-0.2-0.1-0.7,0-1.4,0.2c-0.2,0-0.5,0-1-0.1c0.1,0-0.2,0.1-0.7,0.1
		c-0.2-0.1-0.6-0.1-1.1-0.1c-0.3,0.1-0.6,0.4-0.9,1.1c-0.2,0.5-0.5,1.2-1,2.1c0,0.2,0,0.6,0,1c-0.2,0.6-0.6,1.6-1.2,3
		c0,0.2-0.1,0.4-0.2,0.8l-1,0.4c0.1,0.1,0.2,0.3,0.3,0.4c0.1,0.2,0.2,0.2,0.4,0.1c0.2-0.3,0.4-0.5,0.6-0.6c0.4,0,1.1,0,1.9,0.1
		c0.5,0,1.3,0.1,2.5,0.4c0.1,0.1,0.3,0.2,0.5,0.3c0.3,0,0.6,0,1.1,0c0.4,0.3,1,0.7,1.8,1c0.1,0,0.9,0.4,2.7,1.3c0.1,0,0.3,0,0.5,0
		c0.3,0.1,0.6,0.2,0.9,0.5c0.5,0.6,1.2,1.4,2.3,2.4c0.1,0,0.3,0.1,0.5,0.2c0.3,0.2,0.4,0.4,0.5,0.5c0.2,0.3,0.3,0.5,0.3,0.7
		c0,0.1,0,0.3,0.1,0.5c0.2,0.3,0.5,0.6,0.8,1.2c0,0.3,0.1,0.6,0.2,1.1c0.1,0.4,0.2,0.9,0.4,1.6c0,0.1-0.1,0.9-0.3,2.4
		c0,0.7-0.2,1.7-0.5,3c0,0.3-0.1,0.8-0.2,1.4c-0.2,0.3-0.4,0.7-0.6,1.2c0,0.3,0,0.6-0.1,1.2c-0.1,0.2-0.3,0.4-0.4,0.7
		c0,0.2-0.1,0.5-0.1,0.9c-0.5,0.5-0.9,1-1.1,1.6c-0.1,0-0.3,0.1-0.5,0.2c-0.3,0.2-0.6,0.5-1.1,1c-0.1,0.1-0.2,0.3-0.3,0.5
		c-0.8,1-1.3,1.5-1.6,1.6c-0.1,0-0.3,0-0.5,0c-0.2,0.2-0.4,0.4-0.8,0.7c-0.8,0.5-1.6,1-2.4,1.3c-0.1,0-0.3,0-0.5,0
		c-0.6,0.4-1.4,0.9-2.5,1.4c-0.7,0.2-1.8,0.6-3.3,1.2c-0.2,0.1-0.5,0.3-0.9,0.5c-0.3,0-0.6,0-1.1,0c-0.6,0.1-1.3,0.3-2.1,0.6
		c-0.5,0.2-1.2,0.2-2.2,0.1c-0.3-0.2-0.4-0.7-0.4-1.6c0.3-0.3,1.3-0.6,3-1c0.3,0,0.8-0.1,1.5-0.3c0.4-0.2,0.9-0.5,1.5-0.8
		c0.3-0.1,0.8-0.2,1.4-0.4c0.3-0.3,0.7-0.6,1.3-1c0.3,0,0.7-0.1,1.3-0.2c0.2-0.3,0.6-0.7,1-1.3c0.4-0.3,1-0.7,1.7-1.2
		c0.7-0.5,1.2-1.1,1.7-1.8c0-0.2,0-0.4,0.1-0.7c0.3-0.3,0.7-0.7,1.2-1.3c0.1-0.2,0.5-1.1,1.1-2.7c0.1,0,0.2-0.1,0.3-0.3
		c0.1,0,0.3-0.1,0.6-0.2c-0.1,0.1,0.2,0.1,0.8,0.1c0,0,0.1-0.1,0.2-0.2c-0.2-0.1-0.4-0.1-0.7-0.2c-0.1,0-0.3,0.1-0.5,0.1
		c-0.1-0.1-0.2-0.2-0.4-0.3c0,0,0-0.2,0-0.4c0-0.2,0-0.4,0-0.8c0-0.4,0-0.7,0-0.9c0.1-0.6,0-1.4-0.2-2.4c0-0.1-0.1-0.5-0.2-1.2
		c0-0.2,0-0.6-0.1-1.1c0-0.1-0.3-0.4-0.8-1c-0.1-0.1-0.3-0.4-0.6-0.8c-0.1-0.2-0.2-0.4-0.1-0.7c-0.4-0.4-1-0.7-2-1.1
		c-1.1-0.4-1.9-0.8-2.4-1.2c-0.1,0.1-0.3,0-0.6-0.2c-0.3-0.2-0.5-0.2-0.6-0.2c-0.4,0-1,0-1.7,0c-1.1-0.3-2.1-0.3-2.9-0.3
		c-0.7,0.1-1.5,0.2-2.2,0.4c-0.3,0-0.6-0.1-0.8-0.3c-0.3-0.4-0.4-0.8-0.2-1.4c0.2-0.3,0.3-0.7,0.6-1.3c0-0.2,0-0.6,0-1.1
		c0.2-0.2,0.3-0.5,0.5-1c0.2-0.8,0.5-1.6,0.8-2.3c0.2-0.2,0.3-0.5,0.6-1c0.5-1.5,1.2-3.7,2.2-6.6c0-0.3,0.1-0.7,0.1-1.2
		c0.1-0.5,0.3-1.2,0.6-2c0.2-0.4,0.5-0.7,1.1-1.1c0,0,0.3,0,0.9,0h3c1.2-0.3,2-0.4,2.2-0.3c0.9,0.1,1.7,0.1,2.1,0.1l0.4,0.2h3.7
		c0,0,0.2,0,0.4,0.1c0.2,0.1,0.4,0.1,0.5,0.1c0.3-0.1,0.8-0.4,1.4-1.1c0-0.1,0.1-0.3,0.2-0.5c0.1-0.2,0.4-0.4,0.8-0.4
		c0.2-0.5,0.5-0.7,1-0.7c0.3,0,0.6,0,1,0C296.7,449.2,296.8,449.3,296.9,449.4z"/>
</g>
<g class="st2">
	<path class="st3" d="M313.9,449.3c-0.1,0.4-0.1,0.8-0.2,1.3v3.4c0,0-0.1,0-0.3,0s-0.2,0-0.3,0c0-0.1-0.1-0.7-0.2-1.7
		c-0.1-0.6-0.4-1.1-0.9-1.4c-0.2-0.2-0.7-0.1-1.5,0c-0.4,0-1,0.1-1.7,0.3c-0.3,0.1-0.4,0.3-0.5,0.5c-0.2,0.6-0.2,1.5-0.1,2.7
		c0.1,1.2,0.1,2.8-0.1,4.9c0,0,0.1,0.7,0.2,2c0,0.5,0,1.2,0,2.1c0.1,0.5,0.3,1.3,0.5,2.3c0.1,0.5,0.4,0.8,1,0.9
		c0.4,0.1,0.9,0.2,1.3,0.3c0,0.1-0.1,0.4-0.3,0.6h-8.3c-0.1,0-0.1-0.1-0.1-0.2c0,0,0-0.1,0-0.2c0.3-0.1,0.7-0.2,1.3-0.4
		c0.5-0.3,0.9-0.6,1.1-1c0.1-0.1,0.1-0.5,0.2-1.3c0-1.3,0.1-2.8,0.1-4.2v-5.3h0.4c0,0,0.1-0.1,0.1-0.1c-0.1-0.3-0.3-0.8-0.5-1.4
		c0-0.1-0.1-0.9-0.2-2.2h-2.7c-0.3,0-0.6,0.2-1.1,0.5s-0.6,0.6-0.7,0.8c-0.2,0.9-0.4,1.5-0.6,1.8c-0.1,0.2-0.3,0.2-0.7,0.2
		c0,0,0-0.2-0.1-0.4c0-0.2,0-0.3,0-0.4c0.1-0.4,0.2-1,0.3-1.9c0.1-1,0.2-1.7,0.3-2.1l0.5-0.6c-0.3,0,0.6,0,2.7,0
		c0.6,0,1.5,0.1,2.8,0.2s1.8,0.2,1.8,0.2h2.4c0,0,0.3,0,0.9-0.1c0.6-0.1,1.3-0.2,1.9-0.2c0.2,0,0.4-0.1,0.7-0.1
		C313.6,449,313.8,449.1,313.9,449.3z"/>
	<path class="st3" d="M334.4,449.3c0,0.1-0.1,0.2-0.2,0.3c-0.4,0.1-0.8,0.3-1.1,0.4c-0.2,0.1-0.4,0.3-0.6,0.7s-0.3,0.6-0.3,0.8
		c0,0.9,0,1.2,0,1c-0.1,0.2-0.2,0.6-0.3,1c0,0.1,0.1,0.6,0.2,1.5c0,0.3,0.1,0.7,0.1,1.2c0,0.6,0,1.3-0.1,2.1
		c-0.1,0.8-0.1,1.2-0.1,1.2v2.2c0,2.2,0.3,3.7,0.8,4.6c0.1,0.2,0.3,0.3,0.6,0.5s0.6,0.3,0.8,0.3c-0.1,0.1-0.2,0.2-0.3,0.4h-6.8
		c0-0.1,0-0.1,0-0.3c0-0.1,0-0.2,0-0.3c0.2-0.1,0.5-0.2,0.9-0.4c0.3-0.1,0.6-0.6,0.8-1.3c0.2-0.7,0.3-1.2,0.3-1.5v-2.1
		c0-0.1,0-0.5-0.1-1.2c0-0.5,0-0.9,0-1.2c0-0.2,0-0.6-0.2-1.1c-0.5,0.4-1.2,0.6-2.2,0.8c-0.5,0.1-0.9,0.1-1.3,0.1
		c-0.5-0.1-0.8-0.1-0.8-0.1h-3.7c-0.2,0.1-0.5,0.4-0.9,0.7c-0.1,0.2-0.2,0.6-0.1,1c0.1,0.2,0.2,0.4,0.3,0.7c0-0.1-0.1,0.1-0.1,0.8
		c0,0,0,0.8,0.1,2.3c0.1,1.6,0.6,2.5,1.7,2.7c0,0,0.2,0.1,0.6,0.2c-0.3,0.4-0.7,0.5-1.1,0.5c-0.1,0-0.3,0-0.4,0c-0.2,0-0.3,0-0.4,0
		l-5.8-0.1c0-0.2,0.2-0.4,0.7-0.5c0.5-0.2,0.9-0.5,1.2-1c0.2-0.3,0.3-0.9,0.4-1.8c0.1-0.9,0.1-1.7,0-2.4c0-0.1-0.1-0.2-0.2-0.3
		c0-0.8,0-1.9,0.1-3.4c0,0,0.1-0.2,0.2-0.5c0.1-0.2,0.1-0.4,0.1-0.6c-0.1-0.2-0.2-0.5-0.4-0.9c0,0.1,0.1-0.2,0.1-1
		c0-0.2,0-0.4-0.1-0.7c0-0.3-0.1-0.5-0.1-0.5v-2.4c0-0.3-0.2-0.7-0.7-1.1s-0.9-0.7-1.3-0.9c0,0,0.1-0.2,0.3-0.5c0.4,0,0.9,0,1.6-0.1
		c0.7-0.1,1.1-0.1,1.1-0.1h2.8c0.1,0,0.3,0,0.4,0s0.2,0,0.3,0c0.2,0,0.5,0.2,1,0.6c-0.3,0.2-0.7,0.3-1,0.5c-0.4,0.2-0.7,0.5-0.9,0.7
		c-0.3,0.4-0.5,1.2-0.5,2.4v3.1c0,0.1,0,0.1,0,0.2s0,0.1,0,0.2c0.5,0.2,0.8,0.3,1.2,0.3h5.8c0.2,0,0.5,0.1,0.9,0.2
		c0,0,0.1,0.1,0.4,0.2c0.2,0.1,0.3,0.1,0.5,0.1c0.1,0,0.1,0,0.2,0c0.3-0.4,0.5-0.8,0.5-1.3c0-0.3-0.1-0.6-0.2-1.1s-0.2-0.8-0.1-1
		c0-0.2,0-0.5-0.1-0.9c-0.1-0.5-0.1-0.9-0.1-1.1c0-0.9-0.8-1.8-2.2-2.5c0.2-0.2,0.3-0.3,0.4-0.3h2.2c-0.1,0,0.3,0,1.2,0
		c0.8,0,1.5,0,1.9,0C332.9,449,333.5,449.1,334.4,449.3z"/>
</g>
<g class="st2">
	<path class="st3" d="M322.9,497.5c-0.1,0.1-0.2,0.3-0.4,0.5c-0.1,0.1-0.3,0.1-0.4,0.1c-0.7,0.1-1.3,0.1-1.7,0
		c-0.1-0.1-0.3-0.2-0.6-0.4c0,0.1,0,0.2,0.1,0.4c-0.2,0-0.4-0.1-0.7-0.1c0-0.1-0.1-0.3-0.3-0.5c-0.6,0.1-1.1,0-1.4,0
		c-0.1,0-0.4-0.3-0.9-0.7c-0.6-0.5-1.3-1.4-2.1-2.6c-0.3-0.4-0.9-1.5-1.9-3.3c-0.1-0.3-0.2-0.5-0.2-0.7c0.4-0.1,0.7-0.1,1,0.1
		c0.1,0.2,0.3,0.3,0.6,0.5c0-0.1,0-0.2-0.1-0.6c0,0,0.1,0,0.4,0c0.1-0.1,0.1-0.2,0.1-0.3c-0.6-0.2-1.5-0.3-2.5-0.4
		c-0.5-0.7-1.1-1.6-1.9-2.7c0-0.1-0.1-0.3-0.2-0.5c0,0-0.2,0-0.4,0l-6.9,0.1c-0.3,0-0.5,0.1-0.6,0.4c-0.3,0.6-0.6,1.5-1,2.8
		c-0.2,1-0.3,1.7-0.3,2.1c0,0.2,0,0.5,0.1,0.7c0,0.2,0.4,0.5,1.1,1c0.2,0.1,0.4,0.2,0.7,0.3c0.1,0.1,0.1,0.2,0.1,0.4
		c-0.2,0.1-0.4,0.2-0.6,0.2c0.1,0-0.4,0-1.5-0.1c-1.3-0.1-2-0.1-2.2-0.1c-1.5,0.2-2.4,0.2-2.8,0.1c0-0.2,0-0.4,0.1-0.5
		c0,0,0.3-0.2,0.8-0.6c0.4-0.3,0.8-0.8,1.1-1.3c0.4-0.8,0.7-1.6,1-2.3c0,0,0.6-1.9,1.8-5.4c0.2-0.8,0.6-2,1.2-3.5
		c0.2-0.4,0.5-1,0.8-1.8c0.1-0.5,0.2-1.2,0.4-2c0.2-0.3,0.4-0.8,0.6-1.3c0.1-0.4,0.4-1.1,0.8-1.9c0.1-0.3,0.3-1,0.6-2.2
		c-0.5-0.3-1.1-0.5-1.7-0.7c0-0.3,0.1-0.5,0.3-0.6c1.1,0.1,1.7,0.1,1.9,0.1h2.1c0.4,0,0.9,0.1,1.3,0.2c0.1,0.1,0.2,0.5,0.3,1.1
		c0.1,0.1,0.1,0.2,0.2,0.4s0.2,0.6,0.3,1.2c0.1,0.5,0.2,1.2,0.3,2.1c0.2,1.1,0.7,2.5,1.3,4.4c0.2,0.3,0.4,0.8,0.8,1.6
		c0.1,0.5,0.3,1.2,0.7,2.1c1.6,3.8,3.4,7.2,5.4,10.3c0.4,0.5,0.9,1.2,1.6,2.1c-0.2,0.2-0.4,0.4-0.4,0.5c0,0.2,0.1,0.3,0.3,0.3
		c0.2,0,0.4-0.1,0.4-0.4c0.5,0.3,1,0.7,1.5,1C321.9,497.3,322.5,497.5,322.9,497.5z M309.1,484.2l-3.1-8.6c-0.4,0.8-1.1,2.1-1.9,3.7
		c0,0.2-0.2,0.8-0.5,1.6c0,0.1,0,0.3,0,0.6c-0.1,0.2-0.3,0.4-0.4,0.8c0,0.3-0.1,0.7-0.2,1.3c-0.1,0.1-0.1,0.2-0.2,0.3
		c0,0,0,0.1,0,0.2c0,0.1,0,0.1,0,0.1L309.1,484.2z"/>
	<path class="st3" d="M337.6,474c-0.2,0-0.5,0.1-0.8,0.1c-0.4,0.1-0.7,0.3-0.9,0.7c-0.3,0.5-0.5,1.1-0.6,1.6
		c-0.1,0.9-0.2,1.6-0.2,2.2c0,0,0,0.5,0.1,1.3c0,0.8,0.1,1.2,0.1,1.3v2.3c0,0,0,0.1,0.1,0.3s0,0.3,0,0.4c-0.1,1.2-0.1,1.8-0.1,2
		c0,0.1,0,0.2,0.1,0.5c0,0.2,0.1,0.4,0.1,0.4v4.5c0,0.1,0,0.1,0,0.1c0,0,0,0,0,0c-0.7,0.1-1,0.2-0.9,0.2c-0.4,0-0.7,0-0.8-0.1
		c-0.7-0.6-1.7-1.7-3-3.3c-0.2-0.3-0.6-0.8-1.1-1.3c-0.4-0.4-1-1-1.7-1.8c-0.2-0.3-0.5-0.7-0.9-1.3c-0.9-1.1-2.1-2.6-3.7-4.7
		c-0.2-0.2-0.5-0.4-0.9-0.8c0-0.1,0-0.2-0.1-0.3c-0.1-0.2-0.3-0.5-0.6-0.8c-0.2,0.1-0.3,0.2-0.3,0.5c0,0,0.1,0.5,0.2,1.5
		c0,0.1,0,0.1,0,0.3s0,0.2,0,0.2c0,0.4,0,1,0.1,1.8c0,0.8,0.1,1.2,0.1,1.2v2.1c0,0.1,0,0.6,0,1.5c0,0.9,0,1.4,0,1.5
		c0,2,0.7,3.1,2.2,3.2c0,0,0.1,0,0.1,0.1c0,0.1,0.1,0.1,0.1,0.2c0,0.2,0,0.3-0.1,0.4h-5.1c0,0-0.2,0-0.5,0.1S318,492,318,492h-0.2
		c-0.1-0.1-0.1-0.1-0.1-0.2c0-0.3,0.1-0.6,0.3-0.7c0.3-0.1,0.6-0.2,1.1-0.4c0.5-0.3,0.8-0.7,0.9-1.3c0.3-1.4,0.3-2.3,0.2-2.6
		c-0.1-0.1-0.1-0.3,0-0.4l0.1-0.1l-0.1-0.1c0-0.1,0-0.3,0-0.6s0-0.5,0-0.6c0-0.1,0-0.4-0.1-0.7c-0.1-0.3-0.1-0.6-0.1-0.7
		c0,0.1,0-0.2,0.1-0.9c0,0-0.1-0.1-0.1-0.3l0.1-0.1c0-0.1,0.1-0.2,0.1-0.3c0,0,0-0.1,0-0.1c-0.1-1.1-0.2-1.8-0.2-2.2v-2
		c-0.1-1.2-0.1-1.9-0.1-2.1c0,0,0-0.1,0.1-0.2c0-0.1,0-0.2,0-0.2c-0.7-0.8-1.7-1.1-2.8-1.1l-0.1-0.1v-0.5c0.1-0.1,0.4-0.2,0.8-0.2
		c0,0,0.4,0,1.2,0.1s1.1,0.1,1.2,0.1c0,0,0.4,0,1.1-0.1c0.7,0,1.1-0.1,1.1-0.1c0.2,0,0.4,0,0.4,0c0.1,0,0.4,0.4,0.8,1
		c0.8,1.1,2,2.8,3.7,5.1c0.3,0.4,0.8,1,1.5,1.9c-0.1,0.9,0,1.3,0.4,1.3c0,0,0.1,0,0.2-0.1s0.2-0.1,0.2-0.1c0.1,0,0.3,0.2,0.5,0.5
		c0.1,0.2,0.2,0.4,0.3,0.5c0.7,0.6,1.2,1,1.3,1.3c0,0.2,0.1,0.4,0.2,0.7c0.1,0.1,0.1,0.2,0.2,0.2s0.1,0,0.1-0.1s0.1-0.1,0.1-0.1
		c0.3,0.3,0.6,0.7,1.1,1.2c0.2-0.1,0.2-0.2,0.2-0.2c0,0,0-0.1-0.1-0.2s-0.1-0.2-0.1-0.2v-1.6c0,0,0-0.1,0-0.2c0-0.1,0-0.2,0-0.4
		c0-0.2,0.1-0.4,0.1-0.8c0-0.3-0.1-0.7-0.2-1.2c0-0.1,0-0.2,0-0.4s0.1-0.3,0.1-0.4c0,0,0-0.1,0-0.2c0-0.1,0-0.2,0-0.3
		c0-0.2,0-0.4,0-0.7c0-0.4,0-0.6,0-0.8c0,0,0-0.1-0.1-0.2c0-0.1-0.1-0.2-0.1-0.3l0.1-0.4c0-0.1,0-0.2-0.1-0.5c0-0.2-0.1-0.4-0.1-0.5
		c0,0,0-0.1,0.1-0.3s0.1-0.2,0-0.3c-0.1-0.4-0.2-1-0.3-1.8c-0.1-0.5-0.7-0.8-1.7-1c0-0.2,0-0.3-0.1-0.5c0.1-0.1,0.5-0.1,1-0.1
		l2.7,0.1c-0.1,0,0.4,0,1.3-0.1c0.6,0,1,0,1.3,0.1V474z M332.2,485.2l-0.1,0.2l-0.1-0.1l0.1-0.3
		C332.2,485.1,332.3,485.2,332.2,485.2z"/>
	<path class="st3" d="M358.7,474c-0.2,0-0.5,0.1-0.8,0.1c-0.4,0.1-0.7,0.3-0.9,0.7c-0.3,0.5-0.5,1.1-0.6,1.6
		c-0.1,0.9-0.2,1.6-0.2,2.2c0,0,0,0.5,0.1,1.3c0,0.8,0.1,1.2,0.1,1.3v2.3c0,0,0,0.1,0.1,0.3s0,0.3,0,0.4c-0.1,1.2-0.1,1.8-0.1,2
		c0,0.1,0,0.2,0.1,0.5c0,0.2,0.1,0.4,0.1,0.4v4.5c0,0.1,0,0.1,0,0.1c0,0,0,0,0,0c-0.7,0.1-1,0.2-0.9,0.2c-0.4,0-0.7,0-0.8-0.1
		c-0.7-0.6-1.7-1.7-3-3.3c-0.2-0.3-0.6-0.8-1.1-1.3c-0.4-0.4-1-1-1.7-1.8c-0.2-0.3-0.5-0.7-0.9-1.3c-0.9-1.1-2.1-2.6-3.7-4.7
		c-0.2-0.2-0.5-0.4-0.9-0.8c0-0.1,0-0.2-0.1-0.3c-0.1-0.2-0.3-0.5-0.6-0.8c-0.2,0.1-0.3,0.2-0.3,0.5c0,0,0.1,0.5,0.2,1.5
		c0,0.1,0,0.1,0,0.3s0,0.2,0,0.2c0,0.4,0,1,0.1,1.8c0,0.8,0.1,1.2,0.1,1.2v2.1c0,0.1,0,0.6,0,1.5c0,0.9,0,1.4,0,1.5
		c0,2,0.7,3.1,2.2,3.2c0,0,0.1,0,0.1,0.1c0,0.1,0.1,0.1,0.1,0.2c0,0.2,0,0.3-0.1,0.4h-5.1c0,0-0.2,0-0.5,0.1s-0.5,0.1-0.5,0.1h-0.2
		c-0.1-0.1-0.1-0.1-0.1-0.2c0-0.3,0.1-0.6,0.3-0.7c0.3-0.1,0.6-0.2,1.1-0.4c0.5-0.3,0.8-0.7,0.9-1.3c0.3-1.4,0.3-2.3,0.2-2.6
		c-0.1-0.1-0.1-0.3,0-0.4l0.1-0.1l-0.1-0.1c0-0.1,0-0.3,0-0.6s0-0.5,0-0.6c0-0.1,0-0.4-0.1-0.7c-0.1-0.3-0.1-0.6-0.1-0.7
		c0,0.1,0-0.2,0.1-0.9c0,0-0.1-0.1-0.1-0.3l0.1-0.1c0-0.1,0.1-0.2,0.1-0.3c0,0,0-0.1,0-0.1c-0.1-1.1-0.2-1.8-0.2-2.2v-2
		c-0.1-1.2-0.1-1.9-0.1-2.1c0,0,0-0.1,0.1-0.2c0-0.1,0-0.2,0-0.2c-0.7-0.8-1.7-1.1-2.8-1.1l-0.1-0.1v-0.5c0.1-0.1,0.4-0.2,0.8-0.2
		c0,0,0.4,0,1.2,0.1s1.1,0.1,1.2,0.1c0,0,0.4,0,1.1-0.1c0.7,0,1.1-0.1,1.1-0.1c0.2,0,0.4,0,0.4,0c0.1,0,0.4,0.4,0.8,1
		c0.8,1.1,2,2.8,3.7,5.1c0.3,0.4,0.8,1,1.5,1.9c-0.1,0.9,0,1.3,0.4,1.3c0,0,0.1,0,0.2-0.1s0.2-0.1,0.2-0.1c0.1,0,0.3,0.2,0.5,0.5
		c0.1,0.2,0.2,0.4,0.3,0.5c0.7,0.6,1.2,1,1.3,1.3c0,0.2,0.1,0.4,0.2,0.7c0.1,0.1,0.1,0.2,0.2,0.2s0.1,0,0.1-0.1s0.1-0.1,0.1-0.1
		c0.3,0.3,0.6,0.7,1.1,1.2c0.2-0.1,0.2-0.2,0.2-0.2c0,0,0-0.1-0.1-0.2s-0.1-0.2-0.1-0.2v-1.6c0,0,0-0.1,0-0.2c0-0.1,0-0.2,0-0.4
		c0-0.2,0.1-0.4,0.1-0.8c0-0.3-0.1-0.7-0.2-1.2c0-0.1,0-0.2,0-0.4s0.1-0.3,0.1-0.4c0,0,0-0.1,0-0.2c0-0.1,0-0.2,0-0.3
		c0-0.2,0-0.4,0-0.7c0-0.4,0-0.6,0-0.8c0,0,0-0.1-0.1-0.2c0-0.1-0.1-0.2-0.1-0.3l0.1-0.4c0-0.1,0-0.2-0.1-0.5c0-0.2-0.1-0.4-0.1-0.5
		c0,0,0-0.1,0.1-0.3s0.1-0.2,0-0.3c-0.1-0.4-0.2-1-0.3-1.8c-0.1-0.5-0.7-0.8-1.7-1c0-0.2,0-0.3-0.1-0.5c0.1-0.1,0.5-0.1,1-0.1
		l2.7,0.1c-0.1,0,0.4,0,1.3-0.1c0.6,0,1,0,1.3,0.1V474z M353.2,485.2l-0.1,0.2l-0.1-0.1l0.1-0.3
		C353.3,485.1,353.3,485.2,353.2,485.2z"/>
	<path class="st3" d="M366.1,475c0,0.1-0.1,0.4-0.2,0.6l-0.9,0.2c-0.4,0.1-0.6,0.3-0.7,0.5c-0.1,0.1-0.2,0.3-0.3,0.5
		c0,0.1-0.1,0.6-0.4,1.7l-0.1,6.2c-0.1,0.3-0.1,0.4-0.1,0.4l0.1,0.3l0,2.3c-0.1,0.3-0.1,0.7,0,1.3c0.1,0.6,0.2,1.2,0.4,1.6
		c0.1,0.1,0.2,0.3,0.5,0.5c0.5,0.3,1,0.4,1.5,0.4c0,0.1-0.1,0.3-0.2,0.6h-1.7c0,0-0.2,0-0.5,0c-0.3,0-0.5,0-0.5,0c0,0-0.2,0-0.4,0
		s-0.4,0-0.4,0s-0.1,0-0.3,0c-0.2,0-0.3,0-0.3,0s-0.1,0-0.2,0c-0.1,0-0.2,0-0.2,0l-3.1,0.1c-0.3,0-0.4-0.1-0.4-0.3
		c0-0.2,0.1-0.4,0.2-0.4c0.3-0.1,0.6-0.1,0.9-0.2c0.4-0.1,0.6-0.2,0.7-0.4c0-0.1,0.1-0.3,0.2-0.5c0.1,0,0.3,0,0.6,0.1
		c0.1-0.4,0.1-0.7,0.1-0.8c0-0.1,0-0.3-0.1-0.4c0.1-0.2,0.1-0.4,0-0.5c0-0.1-0.1-0.3-0.3-0.5c-0.1-0.2-0.2-0.3-0.2-0.4
		c0,0.1,0.1-0.2,0.2-0.9c0-0.1,0-0.2-0.1-0.3c0.2-0.3,0.2-0.5,0.2-0.6c0,0,0-0.3-0.1-1c0,0,0-0.1-0.1-0.3s-0.1-0.2-0.1-0.2
		c0,0,0-0.1,0.1-0.2c0,0,0,0,0-0.2v-1.8c0,0,0-0.1,0.1-0.3c0-0.1,0.1-0.2,0.1-0.3c0,0,0-0.1,0-0.1c0-0.1,0-0.1,0-0.1
		c0,0,0-0.2,0-0.7c0-0.1,0-0.4-0.1-0.8V479c0-0.1-0.1-0.3-0.2-0.5c0-0.1,0-0.3-0.1-0.6c0-0.1,0-0.3-0.1-0.6
		c-0.1-0.1-0.2-0.2-0.3-0.4c0-0.1-0.1-0.2-0.2-0.4c-0.2-0.3-0.4-0.5-0.6-0.6c-0.2-0.1-0.6-0.2-1-0.3c0-0.1,0.1-0.3,0.2-0.5h0.1
		c0,0,0.1,0,0.3,0s0.2,0,0.3,0L366.1,475z"/>
	<path class="st3" d="M385.8,473.9c-0.4,0.1-0.9,0.1-1.3,0.2c-0.5,0.1-1,0.4-1.3,0.9c0,0.1-0.1,0.4-0.2,0.6
		c-0.3,0.7-0.6,1.6-1.1,2.8c-0.1,0.2-0.4,0.4-0.7,0.7c0,0.1,0,0.1,0,0.2c-0.1,0.2-0.2,0.4-0.3,0.8c-0.1,0.4-0.1,0.6-0.2,0.7
		c-0.3,0.5-0.5,1.2-0.8,2c-0.2,0.6-0.4,1.2-0.8,1.7c-0.1,0.2-0.3,0.4-0.5,0.8c0,0.2-0.1,0.4-0.2,0.7c-0.4,1-1,2.4-1.8,4.3
		c0,0.2-0.1,0.5-0.1,0.8c-0.1,0.2-0.2,0.4-0.5,0.6c-0.1,0.1-0.3,0.1-0.7,0.1c-0.5,0-0.8,0-0.9-0.1c0-0.1,0-0.3,0-0.5
		c-0.2-0.2-0.5-0.5-0.7-0.9c0.1-0.5,0-1.2-0.1-1.9c-0.1-0.1-0.2-0.2-0.4-0.3c-0.1-0.2-0.3-0.8-0.4-1.6c-0.1-0.1-0.1-0.1-0.2-0.2
		c-0.1-0.2-0.1-0.4-0.1-0.7c0.1-0.1,0.5-0.2,1.3-0.4c0.5-0.1,0.8-0.4,1.1-0.8c-0.2-0.1-0.5-0.2-0.8-0.2c-0.2,0-0.5,0-0.9,0.1
		c-0.4,0.1-0.7,0.1-0.8,0.1c-0.3,0-0.5-0.1-0.6-0.2c0-0.1,0.1-0.1,0.1-0.2c0-0.2-0.1-0.5-0.4-0.8c-0.3-0.4-0.5-0.7-0.5-0.9
		c0-0.2,0.1-0.4,0.1-0.7c-0.1,0-0.2-0.1-0.4-0.3c0-0.2-0.1-0.4-0.2-0.8c-0.2-0.3-0.5-0.8-0.9-1.6c0-0.2-0.2-0.6-0.3-1.1
		c-0.1-0.1-0.2-0.4-0.4-0.6c0,0-0.2-0.5-0.5-1.3c0-0.1,0-0.2,0-0.5c0-0.1-0.2-0.3-0.5-0.6c-0.2-0.2-0.3-0.5-0.3-0.7
		c-0.5-0.2-1.3-0.5-2.1-0.9c0.1-0.1,0.5-0.3,1.3-0.4c0.1,0,0.1,0.1,0.2,0.2c0,0.3,0.2,0.4,0.5,0.4c0,0,0.2,0,0.8-0.1
		c0.4,0,0.9,0,1.6,0c0.1,0,0.6-0.1,1.5-0.3c0.1,0,0.4,0,1,0.1c0.5,0.1,1.1,0,1.8-0.3c0.1,0,0.1,0.1,0.2,0.2c0,0.1,0,0.1,0,0.2
		c0,0.2-0.3,0.3-1,0.4c-0.7,0-1,0.3-1,0.8c0,0.2,0.2,0.8,0.5,1.8c0,0.3,0,0.6,0,1.1c0.2,0.2,0.4,0.4,0.7,0.6
		c0.1,0.2,0.2,0.5,0.3,0.8c0.1,0.5,0.1,0.7,0.1,0.8c0.2,0.4,0.4,1,0.7,1.8c0,0.2,0.1,0.6,0.1,1c0.1,0.1,0.3,0.3,0.5,0.5
		c0.1,0.3,0.2,0.7,0.3,1.3c0.1,0.2,0.2,0.5,0.3,0.8c0,0.2,0,0.5,0.1,0.9c0.1,0.2,0.3,0.3,0.6,0.2c0.2-0.1,0.3-0.2,0.4-0.5
		c0.1-0.2,0.1-0.4,0.2-0.6c0.1-0.2,0.3-0.5,0.6-0.9c0,0,0.1-0.4,0.3-0.9c0-0.1,0-0.3,0-0.5c0.1-0.2,0.2-0.5,0.4-0.9
		c0-0.2,0.1-0.5,0.2-0.9c0.2-0.1,0.4-0.3,0.6-0.5c0-0.2,0-0.4,0-0.7c0-0.1,0.3-0.5,0.7-1.3c0,0,0.1-0.3,0.2-0.9
		c0.1-0.1,0.3-0.3,0.4-0.6c0-0.1-0.1-0.3-0.1-0.5c0.2-0.3,0.4-0.8,0.7-1.5c0-0.1,0-0.2,0-0.3c-0.1-0.3-0.4-0.6-0.7-1
		c-0.3,0-0.7-0.1-1.2-0.3c0-0.2,0.1-0.3,0.2-0.3h5c0,0,0.1,0,0.4,0.1c0.2,0,0.3,0,0.4,0c0.1,0,0.3-0.1,0.5-0.1
		C385.9,473.4,385.9,473.6,385.8,473.9z"/>
	<path class="st3" d="M400,487.1c0,0.5-0.1,1.2-0.2,2.2c-0.1,0.3-0.3,0.6-0.4,1.1c0,0.2-0.1,0.5-0.2,0.8c0,0.1-0.2,0.3-0.4,0.5
		c-0.3,0.3-0.5,0.5-0.6,0.5h-3.7c-0.1,0-0.5,0-1.3,0s-1.2,0-1.3,0h-2.3c-0.1,0-0.4,0-0.9-0.1c-0.5-0.1-0.8-0.1-0.9-0.1h-2.2
		l-0.2-0.2c0.1-0.1,0.5-0.4,1.3-0.9c0.5-0.3,0.8-0.7,0.8-1.2V485c0-0.8,0.1-1.8,0.4-3c-0.1-0.4-0.2-0.9-0.1-1.5
		c-0.2-0.1-0.3-0.4-0.3-0.6c0,0,0.1-0.4,0.3-1.2c0-0.1,0-0.2-0.1-0.4c-0.1-0.2-0.2-0.4-0.2-0.4c-0.1-0.2-0.1-0.5-0.1-1
		c0-0.6,0-0.9,0-1c0-0.3-0.1-0.6-0.2-0.8c-0.1-0.3-0.4-0.5-0.7-0.7c-0.3-0.1-0.6-0.3-0.9-0.4c0.1-0.3,0.3-0.5,0.4-0.5
		c0.3,0,0.7,0,1.3,0c0.6-0.1,0.9-0.2,0.9-0.2h2.6c0,0,0.3,0,0.9,0.1c0.6,0.1,1,0.1,1.3,0.1c0.1,0,1.1-0.1,2.9-0.2
		c0.4,0,1.5,0,3.3,0.1c0.2,0.1,0.2,0.2,0.2,0.4c0,0.1,0,0.2-0.1,0.4c-0.1,0.2-0.1,0.3-0.1,0.4c0,0.3-0.1,1.4-0.3,3.2
		c0,0.1-0.2,0.2-0.4,0.3c-0.1-0.1-0.2-0.6-0.5-1.6c-0.2-0.6-0.6-1-1.1-1c-0.2,0-0.4-0.1-0.7-0.1c-0.3-0.1-0.5-0.1-0.7,0
		c-0.4,0.1-1.4,0.1-2.8,0c-0.8-0.1-1.4,0-1.8,0c-0.1,0-0.2,0.1-0.2,0.3c0.4,1.1,0.4,2.2,0,3c0-0.1,0,0.2,0,0.7c0,0.1,0,0.4-0.1,0.8
		c0,0.4-0.1,0.6,0,0.8c0,0.1,0.1,0.2,0.3,0.4h5.5c0.2-0.1,0.3-0.1,0.5-0.2c0.3-0.1,0.5-0.2,0.6-0.5c0.1-0.3,0.3-0.6,0.5-1.1
		c0.3,0,0.5,0.1,0.6,0.3c0,0.6-0.1,1.3-0.1,2.1c0,0.6-0.1,1.4-0.2,2.5c0,0.2-0.2,0.2-0.6,0.2c-0.1-0.2-0.4-0.5-0.7-0.9
		c-0.6-0.4-1.1-0.7-1.6-0.7h-2c-0.1,0-0.4,0-0.7-0.1s-0.6-0.1-0.8-0.1c-0.5,0-0.8,0.2-1,0.5c-0.2,0.3-0.2,0.6-0.2,0.8
		c0,0.2,0,0.5,0.1,1s0.1,0.9,0.1,1.1c0,0.1-0.1,0.4-0.1,0.8c-0.1,0.4-0.1,0.7-0.1,0.9c0,0.2,0,0.3,0.1,0.5c0.1,0.2,0.3,0.5,0.8,0.8
		c0.5,0.3,0.9,0.5,1.2,0.6c0,0,0.1,0,0.1,0.1c0.1,0,0.2,0,0.3,0h2.4c0.5,0,1-0.1,1.4-0.3c0.5-0.2,1-0.6,1.5-1.2
		c0.5-0.6,0.8-1.2,0.9-1.7C399.3,487,399.7,487,400,487.1z"/>
	<path class="st3" d="M419.3,491.4c-0.1,0.1-0.2,0.2-0.4,0.4c-0.4,0.2-0.8,0.4-1,0.4h-1.8c-0.6,0-1,0-1.3-0.1
		c-0.2-0.1-0.5-0.2-1-0.3c-0.4-0.1-1-0.7-1.9-1.8c-0.1-0.1-0.5-0.7-1.1-1.9c-0.6-1.1-1.1-2-1.5-2.7c-0.1-0.3-0.2-0.6-0.5-1.1
		c-0.1-0.1-0.3-0.1-0.7-0.1c-0.2,0-0.5,0.1-0.7,0.1c-0.3,0-0.8,0-1.4,0c-0.1,0-0.2,0.1-0.2,0.2c0,0.4,0.1,1.6,0.1,3.6
		c0,0.4,0.1,0.9,0.2,1.5c0,0.2,0,0.4,0.1,0.8c0.2,0.4,0.5,0.6,1,0.8c0.4,0.1,0.7,0.2,1.1,0.3c0,0.1,0,0.2,0,0.4
		c-0.3,0.1-0.6,0.2-0.9,0.2h-1.5c0,0-0.2,0-0.4-0.1s-0.4-0.1-0.5-0.1c-0.3,0-1.1,0-2.4,0.1h-1.5c-0.1,0-0.3,0-0.5-0.1
		c0,0,0-0.1,0-0.2c0-0.1,0-0.2,0-0.2c0.5-0.1,0.8-0.2,0.9-0.3c0.4-0.2,0.7-0.4,0.9-0.8c0.1-0.2,0.2-0.6,0.2-1.3c0-0.1,0-0.4,0.1-0.9
		c0.1-0.4,0.1-0.8,0.1-1c0-1.3,0-2,0-2.2s0.1-0.3,0.3-0.5c-0.1-0.1-0.2-0.2-0.3-0.4c0-0.2-0.1-0.4-0.1-0.7v-1.5c0,0,0-0.2,0-0.5
		c0,0.1,0.1-0.5,0.1-1.9c0,0,0-0.1-0.1-0.1c-0.1-0.4-0.1-0.9,0-1.5c0-0.2,0-0.8-0.2-1.8c0-0.3-0.1-0.7-0.3-1.2
		c-0.2-0.3-0.5-0.4-0.8-0.5c-0.3-0.1-0.6-0.1-0.9-0.2c0-0.6,0-0.7,0-0.4c0-0.2,0.1-0.2,0.3-0.2c0.4,0,1-0.1,1.9-0.1
		c0.8-0.1,1.2-0.1,1.2-0.1h1.9c0.4,0,0.7,0,1.1-0.1s0.7-0.1,1-0.1c0.3,0,0.7,0,1.2,0.1c0.3,0.1,0.8,0.2,1.4,0.3
		c0.1,0,0.2,0.1,0.3,0.1c0.9,0.1,1.8,0.6,2.5,1.3c0.4,0.4,0.8,1.2,1.1,2.2c0,0.2,0,0.4,0,0.7c0,0.2,0,0.6-0.1,1.1
		c-0.1,1-0.4,1.8-0.7,2.3c-0.3,0.5-1,1.2-1.9,2.1c0,0.2,0,0.4,0.1,0.5c0.6,1.2,1.2,2.4,1.8,3.5c0.7,1.3,1.6,2.4,2.7,3.3
		c0.1,0.1,0.4,0.2,1.1,0.4c0.4,0.1,0.7,0.1,1,0.1c0.4-0.1,0.7-0.1,0.8-0.1C419.3,491.2,419.3,491.3,419.3,491.4z M411.3,478.9
		c0-0.3,0-0.5-0.1-0.6c-0.5-1.3-0.9-2.1-1.2-2.5c-0.5-0.5-1-0.8-1.6-1c-0.4-0.1-1-0.1-1.8-0.1c-0.1,0-0.2,0.1-0.4,0.2
		c-0.2,1.7-0.3,3-0.3,4.1c0,0.1,0.1,0.2,0.1,0.3c0,0.1,0,0.7-0.1,1.7c-0.1,0.6,0,1.3,0,1.9c0,0,0.1,0.1,0.1,0.1h1.5
		c0.2,0,0.3,0.1,0.5,0.1c0.6,0,1.1-0.2,1.7-0.5c0.5-0.4,0.9-0.7,1-0.9C411,480.8,411.3,479.9,411.3,478.9z"/>
	<path class="st3" d="M430,487.2c0,0.2-0.1,0.6-0.3,1.3c-0.2,0.6-0.4,1-0.5,1.2c-0.5,0.6-0.9,1-1.5,1.5c-0.3,0.2-0.7,0.4-1.1,0.6
		c-1.2,0.4-2.3,0.6-3.4,0.6c0,0-0.2,0-0.6,0c-0.4,0-0.6,0-0.8,0c0,0.1,0-0.1,0-0.5c-0.2-0.2-0.6-0.4-1-0.4c-0.1,0-0.3,0.1-0.4,0.2
		c0,0,0.2,0.1,0.4,0.2c-0.1,0.2-0.2,0.3-0.4,0.3c-0.2,0-0.6-0.1-1.2-0.2c-0.8-0.2-1.5-0.4-1.8-0.7c-0.1-0.1-0.2-0.4-0.3-1.2
		c-0.1-0.6-0.1-1.3-0.1-2.1c0-0.8,0-1.4,0.1-1.9c0,0,0.2,0,0.5-0.1c0.1,0.1,0.1,0.3,0.1,0.6c0,0.4,0,0.5,0,0.5c0,0.2,0.1,0.6,0.2,1
		c0,0.1,0.1,0.3,0.4,0.6c0.1,0.2,0.4,0.6,0.8,1c0.3,0.3,0.8,0.4,1.3,0.6c0.3,0.1,0.6,0.2,0.9,0.3c0.4,0.1,0.7,0.2,0.9,0.2
		c0.1,0.1,0.2,0.1,0.2,0.1c0,0,0.1,0,0.2,0s0.1,0,0.2,0c0,0,0.2,0,0.6,0.1c0.3,0.1,0.5,0.1,0.5,0.1s0.1-0.1,0.3-0.2s0.3-0.2,0.3-0.2
		c0.3-0.1,0.7-0.1,1.2-0.2c0.3-0.1,0.5-0.3,0.7-0.8c0.1-0.1,0.2-0.3,0.3-0.6c0-0.1,0-0.2,0-0.3c0-0.1,0.1-0.2,0.2-0.4
		s0.1-0.3,0.1-0.3c0-0.4,0-0.7-0.1-0.9c0-0.2-0.2-0.5-0.6-1c-0.1-0.1-0.3-0.2-0.5-0.3c-0.8-0.7-1.7-1.2-2.5-1.4
		c-0.2-0.1-0.5-0.3-0.9-0.5c-0.5-0.2-1.3-0.6-2.4-1.3c-0.1,0-0.2-0.1-0.3-0.1c-0.3-0.2-0.6-0.6-0.9-1c-0.4-0.6-0.7-0.9-0.7-0.9
		c0-0.1,0-0.3,0-0.6c-0.1-0.1-0.1-0.3-0.2-0.5c0-0.2,0-0.5,0-0.8c0.1-0.1,0.1-0.1,0.1-0.2c-0.1-0.3-0.2-0.4-0.2-0.4
		c0,0,0.1-0.2,0.3-0.7c0-0.2,0.1-0.5,0.2-0.9c0-0.1,0.3-0.4,0.8-0.8c0.2,0.1,0.3,0.2,0.3,0.2c0-0.1,0.1-0.3,0.2-0.5
		c0.9-0.9,1.7-1.4,2.5-1.6c0.6-0.2,1.4-0.2,2.5-0.2c0,0,0.5,0.1,1.5,0.2s1.4,0.2,1.5,0.2c0,0,0.3,0,0.7-0.1c0.4-0.1,0.6-0.1,0.7-0.1
		c0.3,0,0.4,0.1,0.4,0.4l-0.2,2.4v1.3c0,0,0,0.2,0,0.5s0,0.6,0,0.7c0,0,0,0-0.1,0.1c-0.1,0-0.1,0.1-0.2,0.1h-0.3
		c0-0.3-0.1-0.8-0.2-1.3c-0.3-1.2-0.9-1.9-1.9-2.2c-0.5-0.2-1.4-0.3-2.6-0.3c-0.2,0-0.6,0.1-1.2,0.3c-0.5,0.2-1,0.6-1.4,1.3
		c-0.2,0.2-0.2,0.5-0.2,0.8c0,0.5,0.2,1,0.5,1.7c0.1,0.1,0.3,0.3,0.5,0.5c0.7,0.7,1.7,1.3,3,1.8c2.1,0.9,3.6,1.8,4.4,2.8
		c0.3,0.4,0.5,0.8,0.6,1.3C429.9,485.9,430,486.5,430,487.2z"/>
	<path class="st3" d="M447.2,491.9c-0.2,0.1-0.4,0.1-0.8,0.1c-0.6,0-0.8-0.1-0.8-0.1h-1.2c-1.4,0-2.5,0.1-3.3,0.2
		c-0.4,0.1-0.7,0-0.9-0.1c0-0.3,0-0.5,0-0.7c0.2,0,0.5-0.1,0.8-0.2c0.1-0.1,0.3-0.2,0.3-0.4s0.1-0.4,0-0.5c-0.1-0.6-0.3-1.4-0.6-2.5
		c0-0.1-0.1-0.3-0.3-0.8c-0.2-0.4-0.2-0.7-0.2-0.9c0-0.1-0.1-0.1-0.2-0.1c-0.2,0-1,0-2.4,0.1l-3.1,0c-0.2,0-0.4,0.2-0.6,0.6
		c-0.1,0.2-0.2,0.5-0.4,1c-0.2,0.7-0.3,1.1-0.3,1.2c0-0.1,0,0.2-0.1,0.9c-0.1,0.5-0.1,0.8,0,0.9c0,0.1,0.2,0.3,0.4,0.5
		c0.3,0.2,0.5,0.4,0.7,0.4c0,0,0.1,0,0.2,0.1c0.1,0.1,0.1,0.2,0.2,0.3c-0.2,0.1-0.5,0.1-0.8,0.2c-0.6,0-1.4-0.1-2.4-0.1
		c-0.2,0.1-0.6,0.1-1,0.2c0,0-0.4,0-1.1-0.1c0,0,0-0.1,0-0.1c0-0.1,0.1-0.3,0.4-0.5c0.1-0.1,0.3-0.3,0.5-0.6
		c0.2-0.1,0.4-0.4,0.6-0.8s0.4-0.9,0.8-1.7c0.1-0.5,0.4-1.2,0.7-2.1c0.2-0.4,0.4-1.1,0.7-2.1c0.2-0.7,0.6-1.7,1-3
		c0,0,0.1-0.1,0.1-0.2c0,0.2,0.1,0.2,0.1,0.2c0.1,0,0.2-0.2,0.3-0.6c0.1-0.4,0.1-0.7,0.1-0.8c0,0,0,0,0,0c0,0-0.1,0.1-0.1,0.3
		c0-0.1,0-0.2,0-0.4c0.2-0.4,0.4-1,0.7-1.8c0.1-0.4,0.3-0.9,0.6-1.7c0-0.2,0.1-0.4,0.2-0.8c0.1-0.3,0.3-0.7,0.5-1.3
		c0-0.1,0.1-0.3,0.2-0.5c0.1-0.1,0.3-0.1,0.7-0.1c0.4,0,1,0,1.7,0.1c0.3,0.7,0.7,1.9,1.4,3.5c0,0.2,0.1,0.5,0.2,0.8
		c0.2,0.5,0.4,0.9,0.6,1.3c0,0.1,0,0.3,0.1,0.8c0.2,0.4,0.4,0.9,0.7,1.6c0.2,0.7,0.5,1.6,1,2.8c0,0.3,0.1,0.7,0.3,1.2
		c0,0.1,0,0.2,0.1,0.4c0.1,0.3,0.3,0.7,0.6,1.5c0.1,0.2,0.3,0.4,0.4,0.7c0,0.1,0,0.2,0,0.3c0.1,0.4,0.3,1,0.6,1.7
		c0.1,0.2,0.3,0.5,0.5,0.9c0.1,0.1,0.3,0.3,0.8,0.5c0.1,0,0.4,0.1,0.6,0.2V491.9z M439.7,484.2c0,0-0.4-1-1.1-2.9
		c-0.1-0.4-0.3-1-0.5-1.7c-0.1-0.2-0.3-0.6-0.5-1c-0.1-0.2-0.2-0.5-0.3-0.9c-0.4,0.8-0.7,1.6-1.2,2.4c-0.1,0.1-0.1,0.2-0.2,0.3
		c0,0.1-0.1,0.4-0.2,0.7c-0.1,0.1-0.2,0.3-0.2,0.6c0,0.2,0,0.4-0.1,0.6c-0.1,0.1-0.1,0.2-0.2,0.4c0,0.2-0.1,0.5-0.2,1
		c0,0.1-0.1,0.2-0.2,0.3c0-0.1,0,0,0,0.2H439.7z"/>
	<path class="st3" d="M464.9,491.4c-0.1,0.1-0.2,0.2-0.4,0.4c-0.4,0.2-0.8,0.4-1,0.4h-1.8c-0.6,0-1,0-1.3-0.1
		c-0.2-0.1-0.5-0.2-1-0.3c-0.4-0.1-1-0.7-1.9-1.8c-0.1-0.1-0.5-0.7-1.1-1.9c-0.6-1.1-1.1-2-1.5-2.7c-0.1-0.3-0.2-0.6-0.5-1.1
		c-0.1-0.1-0.3-0.1-0.7-0.1c-0.2,0-0.5,0.1-0.7,0.1c-0.3,0-0.8,0-1.4,0c-0.1,0-0.2,0.1-0.2,0.2c0,0.4,0.1,1.6,0.1,3.6
		c0,0.4,0.1,0.9,0.2,1.5c0,0.2,0,0.4,0.1,0.8c0.2,0.4,0.5,0.6,1,0.8c0.4,0.1,0.7,0.2,1.1,0.3c0,0.1,0,0.2,0,0.4
		c-0.3,0.1-0.6,0.2-0.9,0.2h-1.5c0,0-0.2,0-0.4-0.1s-0.4-0.1-0.5-0.1c-0.3,0-1.1,0-2.4,0.1h-1.5c-0.1,0-0.3,0-0.5-0.1
		c0,0,0-0.1,0-0.2c0-0.1,0-0.2,0-0.2c0.5-0.1,0.8-0.2,0.9-0.3c0.4-0.2,0.7-0.4,0.9-0.8c0.1-0.2,0.2-0.6,0.2-1.3c0-0.1,0-0.4,0.1-0.9
		c0.1-0.4,0.1-0.8,0.1-1c0-1.3,0-2,0-2.2s0.1-0.3,0.3-0.5c-0.1-0.1-0.2-0.2-0.3-0.4c0-0.2-0.1-0.4-0.1-0.7v-1.5c0,0,0-0.2,0-0.5
		c0,0.1,0.1-0.5,0.1-1.9c0,0,0-0.1-0.1-0.1c-0.1-0.4-0.1-0.9,0-1.5c0-0.2,0-0.8-0.2-1.8c0-0.3-0.1-0.7-0.3-1.2
		c-0.2-0.3-0.5-0.4-0.8-0.5c-0.3-0.1-0.6-0.1-0.9-0.2c0-0.6,0-0.7,0-0.4c0-0.2,0.1-0.2,0.3-0.2c0.4,0,1-0.1,1.9-0.1
		c0.8-0.1,1.2-0.1,1.2-0.1h1.9c0.4,0,0.7,0,1.1-0.1s0.7-0.1,1-0.1c0.3,0,0.7,0,1.2,0.1c0.3,0.1,0.8,0.2,1.4,0.3
		c0.1,0,0.2,0.1,0.3,0.1c0.9,0.1,1.8,0.6,2.5,1.3c0.4,0.4,0.8,1.2,1.1,2.2c0,0.2,0,0.4,0,0.7c0,0.2,0,0.6-0.1,1.1
		c-0.1,1-0.4,1.8-0.7,2.3c-0.3,0.5-1,1.2-1.9,2.1c0,0.2,0,0.4,0.1,0.5c0.6,1.2,1.2,2.4,1.8,3.5c0.7,1.3,1.6,2.4,2.7,3.3
		c0.1,0.1,0.4,0.2,1.1,0.4c0.4,0.1,0.7,0.1,1,0.1c0.4-0.1,0.7-0.1,0.8-0.1C464.9,491.2,464.9,491.3,464.9,491.4z M456.8,478.9
		c0-0.3,0-0.5-0.1-0.6c-0.5-1.3-0.9-2.1-1.2-2.5c-0.5-0.5-1-0.8-1.6-1c-0.4-0.1-1-0.1-1.8-0.1c-0.1,0-0.2,0.1-0.4,0.2
		c-0.2,1.7-0.3,3-0.3,4.1c0,0.1,0.1,0.2,0.1,0.3c0,0.1,0,0.7-0.1,1.7c-0.1,0.6,0,1.3,0,1.9c0,0,0.1,0.1,0.1,0.1h1.5
		c0.2,0,0.3,0.1,0.5,0.1c0.6,0,1.1-0.2,1.7-0.5c0.5-0.4,0.9-0.7,1-0.9C456.6,480.8,456.8,479.9,456.8,478.9z"/>
	<path class="st3" d="M477,473.4c0,0.1,0,0.2,0,0.3c-0.3,0.1-0.7,0.2-1.2,0.5c-0.3,0.2-0.7,0.7-1.2,1.3c-0.3,0.5-0.7,1.3-1.3,2.4
		c-0.1,0.1-0.2,0.2-0.3,0.3c-0.1,0.2-0.4,0.6-0.7,1.4c-0.1,0.2-0.3,0.6-0.5,1.1c-0.2,0.2-0.5,0.6-0.8,1.1c-0.1,0.2-0.2,0.6-0.3,1.2
		c0,0.3-0.1,0.9,0,1.6c0,0.4,0,1,0,1.9c0,0.6,0,1.3,0,1.9c0,0.8,0.1,1.4,0.3,1.9c0.1,0.4,0.4,0.8,0.8,1c0.2,0.1,0.5,0.2,0.8,0.4
		c0,0.2-0.1,0.3-0.2,0.3c0.3,0,0.1,0-0.4,0l-1.5,0c-0.6,0-0.9,0-1,0c-0.2,0-0.7,0.1-1.5,0l-2.2,0c0-0.1-0.1-0.1-0.2-0.2
		c0-0.1,0.4-0.3,1-0.5c0.3-0.1,0.6-0.4,1-0.8c0.2-0.4,0.4-0.7,0.5-1c0.1-0.4,0.2-0.6,0.2-0.6c-0.1-0.1-0.2-0.2-0.3-0.5
		c0-0.3,0.1-0.9,0.1-1.5c0-0.1-0.1-0.2-0.2-0.3c0-0.3,0-0.9,0-1.8c0-0.6,0-1.1-0.1-1.6c-0.1-0.2-0.2-0.4-0.4-0.7
		c-0.1-0.2-0.3-0.4-0.6-0.8c-0.5-0.8-1.3-2.1-2.3-3.7c-0.4-0.6-1.1-1.4-1.9-2.6c-0.1-0.2-0.4-0.6-0.7-1c-0.1-0.1-0.4-0.3-0.7-0.4
		c-0.2-0.1-0.5-0.2-0.7-0.3c0-0.1,0-0.2,0.2-0.2c0.2,0,1.8-0.1,4.7-0.1c0.3,0,0.8,0,1.3,0c0,0,0.1,0.1,0.1,0.1s-0.1,0.2-0.4,0.4
		c-0.2,0.2-0.4,0.4-0.4,0.7c0,0.4,0.1,0.8,0.4,1.1c0.1,0.2,0.2,0.5,0.4,0.9c0.8,1.3,1.5,2.5,2.2,3.3c0.3,0.4,0.5,0.6,0.7,0.6
		c0.2,0,0.3-0.1,0.5-0.3c0.2-0.2,0.3-0.4,0.5-0.7c0.1-0.2,0.2-0.5,0.3-0.9c0.1-0.1,0.2-0.3,0.3-0.5c0.2-0.4,0.3-0.7,0.5-0.9
		c0-0.1,0.1-0.3,0.2-0.6c0.1-0.2,0.2-0.4,0.4-0.7c0.2-0.7,0.2-1.1,0.2-1.2c0-0.4-0.2-0.8-0.5-1c-0.1,0-0.3-0.1-0.5-0.3
		c0,0,0.1-0.1,0.1-0.1c0.6,0,1.7,0,3.4,0.2C475.5,473.5,476.2,473.4,477,473.4z"/>
</g>
<g>
</g>
<g>
</g>
<g>
</g>
<g>
</g>
<g>
</g>
<g>
</g>
</svg>
