<?xml version="1.0" encoding="utf-8"?>
<!-- Generator: Adobe Illustrator 21.0.2, SVG Export Plug-In . SVG Version: 6.00 Build 0)  -->
<svg version="1.0" id="Layer_3" xmlns="http://www.w3.org/2000/svg" xmlns:xlink="http://www.w3.org/1999/xlink" x="0px" y="0px"
	 viewBox="0 0 300 300" style="enable-background:new 0 0 300 300;" xml:space="preserve">
<style type="text/css">
	.st0{fill:#DCC14D;}
</style>
<path class="st0" d="M232.1,99.8c16.9-38-7.4-59.7-7.4-59.7C190.4,1.6,151.8,0,151.8,0s-38.6,1.6-72.9,40.1c0,0-24.3,21.7-7.4,59.7
	s-4.2,90.3-32.7,114.6c0,0,89.3,42.3,89.3,85.6v-68.7c0,0-59.7-71.3-15.8-109.3c0,0-3.2-10.6-19.5-15.3c0,0-13.2-38,2.6-33.3
	S146,99.3,146,114.6c0,15.3,0,27.5,0,27.5l-8.5,11.1l14.3,16.9l14.3-16.9l-8.5-11.1c0,0,0-12.1,0-27.5c0-15.3,34.9-36.4,50.7-41.2
	s2.6,33.3,2.6,33.3c-16.4,4.8-19.5,15.3-19.5,15.3c43.8,38-15.8,109.3-15.8,109.3V300c0-43.3,89.3-85.6,89.3-85.6
	C236.3,190.1,215.2,137.9,232.1,99.8z"/>
<g>
</g>
<g>
</g>
<g>
</g>
<g>
</g>
<g>
</g>
<g>
</g>
</svg>
