<?xml version="1.0" encoding="utf-8"?>
<!-- Generator: Adobe Illustrator 21.0.2, SVG Export Plug-In . SVG Version: 6.00 Build 0)  -->
<svg version="1.0" id="Layer_1" xmlns="http://www.w3.org/2000/svg" xmlns:xlink="http://www.w3.org/1999/xlink" x="0px" y="0px"
	 viewBox="0 0 300 300" style="enable-background:new 0 0 300 300;" xml:space="preserve">
<style type="text/css">
	.st0{fill:#DCC14D;}
</style>
<path class="st0" d="M290.8,233v8.1h-8.3V233h-9.2v8.1h-8.8V233h-9.2v8.1h-8.8v-84.7l6.7,0l-35.2-46.4l-35.7,46.5l6.7,0v43.4h-4
	v-6.2h-11v6.2h-3.2v-50.1l6.5,0L141.8,67l-25,58.1V94.4h11.8L94.3,0L60.1,94.4h11.8V233h-4.4v8.1h-6.8V233H57v-22h11.5l-34.3-34.6
	L0,211h14.7v89H57h67.6v-44.8c0-10.7,11.4-19.4,25.4-19.4c14,0,25.4,8.7,25.4,19.4V300h13.4h57.6h45.3v-52.1h8.2v-6.8V233H290.8z"/>
<g>
</g>
<g>
</g>
<g>
</g>
<g>
</g>
<g>
</g>
<g>
</g>
</svg>
