<?xml version="1.0" encoding="utf-8"?>
<!-- Generator: Adobe Illustrator 21.0.2, SVG Export Plug-In . SVG Version: 6.00 Build 0)  -->
<svg version="1.0" xmlns="http://www.w3.org/2000/svg" xmlns:xlink="http://www.w3.org/1999/xlink" x="0px" y="0px"
	 viewBox="0 0 300 300" style="enable-background:new 0 0 300 300;" xml:space="preserve">
<style type="text/css">
	.st0{fill:#DCC14D;}
</style>
<g id="Layer_3">
	<path class="st0" d="M148.4,247.6l-8.9,1l-18.7-18.6c0,0,94.8-94.2,135.1-134.2s41.7-58.1,41.7-58.1s-18.2,1.4-58.4,41.4
		S104.1,213.4,104.1,213.4l-18.7-18.6l1-8.8c0,0-17.2,1-18.4,18.2l8.7-0.3l20.9,20.2c0,0-42.3,47.4-59.6,47.4c0,0-9.8,14.3,0,24.1
		s24.2,0,24.2,0c0-17.2,47.7-59.2,47.7-59.2l20.4,20.8l-0.3,8.6C147.4,264.8,148.4,247.6,148.4,247.6z"/>
</g>
<g id="Layer_2">
	<path class="st0" d="M86.2,0c8.8,4.9,16,12,16,12L74.8,39.3l5.1,12.8L72,59.8l-9.1-9L59.7,54l0-8.6L50.3,36l-10.4,0L38,37.8
		l-1.8,1.8l0,10.4l9.5,9.4l8.6,0l-3.2,3.2l9.1,9l-7.8,7.8l-12.9-5l-27.4,27.2c0,0-7.2-7.1-12.1-15.9c0,0-4.9,57.1,105.7,105
		c0,0-18.8-14.8-33.4-29.3l27.4-27.2l-5.9-13.3l8-7.9l184,182.8c3.2,3.2,8.5,3.2,11.7,0l0,0l0,0c3.2-3.2,3.2-8.4,0-11.7l-184-182.8
		l8-7.9l13.4,5.8l27.4-27.2c14.7,14.6,29.5,33.2,29.5,33.2C143.6-4.8,86.2,0,86.2,0z M48.6,105.7l8.3-8.2l2,18.5l-18.6-2L48.6,105.7
		z M77.8,134.7l-8.3,8.2l-2-18.5l18.6,2L77.8,134.7z M89.6,123l-26.4-2.8L60.4,94L89.6,123z M123.8,89L94.6,60l26.4,2.8L123.8,89z
		 M135.6,77.3l-8.3,8.2l-2-18.5l18.6,2L135.6,77.3z M116.7,58.5l-18.6-2l8.3-8.2l8.3-8.2L116.7,58.5z"/>
	<g>
	</g>
	<g>
	</g>
	<g>
	</g>
	<g>
	</g>
	<g>
	</g>
	<g>
	</g>
</g>
</svg>
