<?xml version="1.0" encoding="utf-8"?>
<!-- Generator: Adobe Illustrator 21.0.2, SVG Export Plug-In . SVG Version: 6.00 Build 0)  -->
<svg version="1.0" id="Layer_1" xmlns="http://www.w3.org/2000/svg" xmlns:xlink="http://www.w3.org/1999/xlink" x="0px" y="0px"
	 viewBox="0 0 300 300" style="enable-background:new 0 0 300 300;" xml:space="preserve">
<style type="text/css">
	.st0{fill:#DDC14D;}
	.st1{fill:#FFFFFF;}
</style>
<g>
	<rect class="st0" width="300" height="300"/>
	<g>
		<path id="tw" class="st1" d="M236.6,77.2c-7.4,4.3-15.7,7.5-24.4,9.2c-7-7.4-17-12-28.1-12c-21.2,0-38.5,17-38.5,37.9c0,3,0.3,5.9,1,8.6
			c-32-1.6-60.3-16.7-79.3-39.6c-3.3,5.6-5.2,12.1-5.2,19c0,13.1,6.8,24.7,17.1,31.5c-6.3-0.2-12.2-1.9-17.4-4.7c0,0.2,0,0.3,0,0.5
			c0,18.3,13.3,33.7,30.9,37.1c-3.2,0.9-6.6,1.3-10.1,1.3c-2.5,0-4.9-0.2-7.2-0.7c4.9,15,19.1,26,35.9,26.3
			C98.1,201.9,81.5,208,63.5,208c-3.1,0-6.2-0.2-9.2-0.5c17,10.7,37.3,17,59,17c70.8,0,109.4-57.7,109.4-107.7c0-1.6,0-3.3-0.1-4.9
			c7.5-5.3,14-12,19.2-19.6c-6.9,3-14.3,5-22.1,6C227.7,93.5,233.8,86.1,236.6,77.2z"/>
	</g>
</g>
</svg>
